<?xml version="1.0" encoding="UTF-8" standalone="no"?>
<svg
   width="96"
   height="96"
   viewBox="0 0 25.399999 25.400001"
   version="1.1"
   id="svg8"
   inkscape:version="1.1 (c68e22c387, 2021-05-23)"
   sodipodi:docname="Crucible.svg"
   xmlns:inkscape="http://www.inkscape.org/namespaces/inkscape"
   xmlns:sodipodi="http://sodipodi.sourceforge.net/DTD/sodipodi-0.dtd"
   xmlns="http://www.w3.org/2000/svg"
   xmlns:svg="http://www.w3.org/2000/svg"
   xmlns:rdf="http://www.w3.org/1999/02/22-rdf-syntax-ns#"
   xmlns:cc="http://creativecommons.org/ns#"
   xmlns:dc="http://purl.org/dc/elements/1.1/">
  <defs
     id="defs2">
    <clipPath
       clipPathUnits="userSpaceOnUse"
       id="clipPath851">
      <rect
         style="opacity:0.569024;fill:#0000ff;stroke:#000000;stroke-width:1.98438"
         id="rect853"
         width="343.95834"
         height="317.5"
         x="-155.57501"
         y="-10.583317" />
    </clipPath>
    <clipPath
       clipPathUnits="userSpaceOnUse"
       id="clipPath857">
      <rect
         style="opacity:0.569024;fill:#0000ff;stroke:none;stroke-width:1.98438"
         id="rect859"
         width="331.90414"
         height="331.90414"
         x="-149.54791"
         y="-19.998608" />
    </clipPath>
    <clipPath
       clipPathUnits="userSpaceOnUse"
       id="clipPath837">
      <rect
         style="opacity:0.569024;fill:#0000ff;stroke-width:1.98438"
         id="rect839"
         width="324.86035"
         height="324.86035"
         x="-146.02602"
         y="-14.41644" />
    </clipPath>
    <clipPath
       clipPathUnits="userSpaceOnUse"
       id="clipPath863">
      <rect
         style="opacity:0.569024;fill:#ff0000;stroke-width:1.98438"
         id="rect865"
         width="25.4"
         height="25.4"
         x="0.0029802178"
         y="0.092880927" />
    </clipPath>
  </defs>
  <sodipodi:namedview
     id="base"
     pagecolor="#ffffff"
     bordercolor="#666666"
     borderopacity="1.0"
     inkscape:pageopacity="0.0"
     inkscape:pageshadow="2"
     inkscape:zoom="7.4166665"
     inkscape:cx="57.168541"
     inkscape:cy="45.101125"
     inkscape:document-units="px"
     inkscape:current-layer="layer1"
     inkscape:document-rotation="0"
     showgrid="false"
     units="px"
     inkscape:window-width="1920"
     inkscape:window-height="1137"
     inkscape:window-x="-8"
     inkscape:window-y="-8"
     inkscape:window-maximized="1"
     inkscape:pagecheckerboard="0" />
  <metadata
     id="metadata5">
    <rdf:RDF>
      <cc:Work
         rdf:about="">
        <dc:format>image/svg+xml</dc:format>
        <dc:type
           rdf:resource="http://purl.org/dc/dcmitype/StillImage" />
      </cc:Work>
    </rdf:RDF>
  </metadata>
  <g
     inkscape:label="Layer 1"
     inkscape:groupmode="layer"
     id="layer1">
    <path
       style="stroke-width:0.999999"
       d="m 12.319475,24.355294 c -0.237584,-0.483706 -0.453604,-0.90886 -0.480047,-0.944784 -0.05319,-0.07226 -0.160962,-0.392636 -0.182269,-0.54181 -0.0091,-0.06358 0.02887,-0.445523 0.113287,-1.140203 0.140687,-1.157682 0.144084,-1.181839 0.166253,-1.181839 0.0086,0 0.03148,0.02688 0.0509,0.05975 0.01942,0.03287 0.119717,0.150654 0.222904,0.261764 0.103185,0.11111 0.271707,0.321848 0.374491,0.468306 0.10278,0.146457 0.193282,0.259079 0.201113,0.250272 0.0078,-0.0088 0.09381,-0.129477 0.191081,-0.268155 0.09727,-0.138678 0.260489,-0.342209 0.36272,-0.452291 0.102231,-0.110085 0.201755,-0.227037 0.221166,-0.259896 0.01942,-0.03287 0.04232,-0.05975 0.0509,-0.05975 0.02215,0 0.02545,0.02349 0.166615,1.182434 0.111467,0.915164 0.124567,1.061125 0.105289,1.1733 -0.02723,0.158496 -0.115198,0.42105 -0.164653,0.491466 -0.02031,0.02893 -0.23648,0.452374 -0.480358,0.940981 -0.243878,0.488608 -0.453315,0.890974 -0.465416,0.894147 -0.0121,0.0032 -0.216391,-0.389986 -0.453971,-0.873692 z M 9.480409,22.532828 c -0.145603,-0.03544 -0.266903,-0.13377 -0.337527,-0.273597 -0.0444,-0.0879 -0.0514,-0.284705 -0.01339,-0.376346 l 0.02818,-0.06791 -0.65907,-0.791176 C 7.824468,20.214541 7.754713,20.145247 7.648154,20.178945 c -0.02583,0.0082 -0.177163,0.120377 -0.336296,0.249352 -0.2704276,0.219173 -0.2894014,0.239325 -0.2903643,0.308398 -0.00141,0.102091 -0.061241,0.211767 -0.1466115,0.268796 -0.1896113,0.126668 -0.4886683,-0.02306 -0.5836324,-0.292229 -0.064017,-0.181449 -0.011592,-0.385179 0.1161085,-0.451217 0.071323,-0.03688 0.2375831,-0.0425 0.2981801,-0.01006 0.035419,0.01895 0.073662,-0.0067 0.2731049,-0.183554 0.1275587,-0.113079 0.2317148,-0.220388 0.231459,-0.23847 C 7.2091577,19.768433 7.1325699,19.627198 7.0314658,19.500834 6.786069,19.194127 6.5454344,18.994406 6.281505,18.878382 6.0720961,18.786324 5.8431019,18.610283 5.7839412,18.49588 5.7672722,18.46365 5.7436802,18.390861 5.7315162,18.334128 5.7125792,18.245818 5.7157692,18.213936 5.7536922,18.112573 L 5.7979858,17.994172 5.4730026,17.544274 C 5.2942622,17.296829 4.5796826,16.300984 3.885048,15.331282 3.1904133,14.36158 2.5481498,13.465764 2.4577953,13.340578 2.3302404,13.16385 2.2882012,13.087368 2.2697421,12.998453 2.2436313,12.872667 2.2348625,12.430484 2.2570856,12.360446 l 0.013986,-0.04407 0.1418212,0.04216 c 0.1821247,0.05413 0.4797282,0.207217 0.630595,0.324366 0.064894,0.05039 0.1244776,0.09442 0.1324031,0.09783 0.013259,0.0057 3.2771018,4.156616 3.3705179,4.286574 0.027104,0.03771 0.080071,0.06893 0.1544596,0.09101 0.116951,0.03474 0.1803373,0.0886 0.3037402,0.258108 0.115862,0.159153 0.3057374,0.236796 0.5801824,0.237246 0.120985,2.56e-4 0.186128,-0.01309 0.314969,-0.06427 0.276395,-0.109795 0.850547,-0.528424 0.926695,-0.675682 0.03578,-0.06918 0.04107,-0.180161 0.0095,-0.199656 -0.01183,-0.0074 -0.156735,0.06713 -0.322003,0.165443 -0.165264,0.09831 -0.307608,0.174435 -0.316318,0.16917 -0.0087,-0.0052 -0.01583,-0.137222 -0.01583,-0.293237 v -0.283665 l -0.09783,0.07467 c -0.19089,0.145708 -0.325941,0.185048 -0.527027,0.153516 -0.195391,-0.03064 -0.198702,-0.04009 -0.05388,-0.153881 0.241611,-0.189819 0.253448,-0.361538 0.05463,-0.792494 -0.143806,-0.311721 -0.166624,-0.441732 -0.09722,-0.554023 0.09406,-0.152185 0.547501,-0.523429 0.869123,-0.711566 0.0871,-0.05095 0.201953,-0.119597 0.255227,-0.152545 0.05328,-0.03294 0.105705,-0.05991 0.11651,-0.05991 0.0108,0 0.05664,-0.02514 0.101862,-0.05587 0.159301,-0.108247 0.707269,-0.366673 0.845448,-0.398717 0.131107,-0.0304 0.144857,-0.02995 0.229943,0.0077 0.113378,0.05015 0.123088,0.07573 0.181702,0.478567 0.02534,0.174199 0.05515,0.352007 0.06623,0.395133 0.02241,0.08717 0.0865,0.143298 0.163606,0.143298 0.02794,0 0.256625,-0.114021 0.508188,-0.253379 0.251564,-0.139359 0.468883,-0.253379 0.482932,-0.253379 0.01908,0 0.02555,0.100756 0.02555,0.398069 v 0.398067 l -0.38158,0.251217 -0.381578,0.251214 0.01034,0.337839 c 0.0057,0.185811 0.01631,0.35684 0.0236,0.380067 0.01157,0.03681 -0.03123,0.06595 -0.333707,0.227205 -0.19083,0.101737 -0.357739,0.197953 -0.370901,0.213812 -0.01864,0.02245 -0.0114,0.03995 0.0326,0.07897 0.03109,0.02756 0.09305,0.08812 0.137659,0.134575 0.161147,0.167745 0.07398,0.306174 -0.192795,0.306174 -0.426802,0 -1.117829,0.246311 -1.604722,0.571989 -0.191228,0.127909 -0.541807,0.449143 -0.588304,0.539058 -0.02033,0.03931 0.0066,0.08669 0.221776,0.390626 0.1347,0.190235 0.246014,0.347381 0.247363,0.349213 0.0013,0.0019 0.132976,-0.08843 0.292505,-0.200592 0.290031,-0.203906 0.290051,-0.203929 0.290363,-0.288383 7.68e-4,-0.208577 0.133965,-0.303686 0.308427,-0.220232 0.106906,0.05114 0.336746,0.256491 0.379405,0.338981 0.03439,0.06651 0.04597,0.187244 0.02171,0.226479 -0.03195,0.0517 -0.145226,0.08986 -0.268485,0.09045 l -0.127096,6.33e-4 -0.33649,0.256944 -0.336492,0.256942 0.007,0.108176 c 0.0084,0.130296 -0.01751,0.08952 0.664371,1.047369 l 0.521979,0.733248 0.100973,4.98e-4 c 0.335635,0.0017 0.555366,0.322803 0.453737,0.663166 -0.03969,0.132913 -0.210212,0.296487 -0.352672,0.338299 -0.122593,0.03598 -0.165505,0.03823 -0.265383,0.01391 z m 6.302797,-0.02047 c -0.139406,-0.04914 -0.29486,-0.204726 -0.333533,-0.333813 -0.101267,-0.337994 0.119621,-0.659452 0.454267,-0.661094 l 0.100972,-4.98e-4 0.52198,-0.733248 c 0.681874,-0.957852 0.656005,-0.917074 0.66437,-1.04737 l 0.007,-0.108174 -0.336514,-0.256948 -0.33649,-0.256943 -0.127098,-6.34e-4 c -0.123259,-6.33e-4 -0.236533,-0.03875 -0.268485,-0.09045 -0.02425,-0.03924 -0.01266,-0.159978 0.02171,-0.226478 0.04267,-0.08249 0.272499,-0.287845 0.379406,-0.338984 0.174462,-0.08345 0.307661,0.01166 0.308427,0.220232 2.57e-4,0.08446 3.86e-4,0.08448 0.290362,0.288384 0.15953,0.112158 0.291156,0.202423 0.292505,0.200591 0.0013,-0.0019 0.112663,-0.158978 0.247363,-0.349214 0.215207,-0.303924 0.242108,-0.351307 0.221776,-0.390624 -0.04649,-0.08992 -0.397076,-0.41115 -0.588303,-0.539061 -0.486892,-0.325682 -1.177921,-0.571991 -1.604724,-0.571991 -0.266772,0 -0.353941,-0.138429 -0.192795,-0.306174 0.04462,-0.04644 0.10657,-0.107006 0.137661,-0.134577 0.04401,-0.03902 0.05124,-0.05651 0.0326,-0.07895 -0.01316,-0.01587 -0.180071,-0.112075 -0.370904,-0.213814 -0.302475,-0.161255 -0.345267,-0.190391 -0.333706,-0.227204 0.0073,-0.02322 0.01792,-0.194257 0.02361,-0.380068 l 0.01034,-0.33784 -0.381578,-0.251214 -0.381581,-0.251217 v -0.398087 c 0,-0.297313 0.0065,-0.398069 0.02555,-0.398069 0.01406,0 0.231369,0.11402 0.482933,0.253378 0.251562,0.139358 0.480246,0.253379 0.508189,0.253379 0.0771,0 0.141191,-0.05614 0.163604,-0.143298 0.01109,-0.04312 0.04089,-0.220933 0.06624,-0.395132 0.05861,-0.402843 0.06832,-0.428417 0.181702,-0.478569 0.08509,-0.03764 0.09884,-0.03809 0.229944,-0.0077 0.138177,0.03204 0.686145,0.290473 0.845446,0.398719 0.04522,0.03073 0.09106,0.05587 0.101863,0.05587 0.01081,0 0.06324,0.02697 0.11651,0.05991 0.05328,0.03294 0.168127,0.101594 0.255227,0.152544 0.321623,0.188139 0.775069,0.559383 0.869122,0.711567 0.0694,0.11229 0.04658,0.242302 -0.09723,0.554024 -0.198814,0.430954 -0.186977,0.602673 0.05463,0.792494 0.144825,0.113779 0.141514,0.123238 -0.05388,0.153879 -0.201085,0.03153 -0.336136,-0.0078 -0.527024,-0.153513 l -0.09783,-0.07467 v 0.283667 c 0,0.156016 -0.0071,0.287971 -0.01584,0.293237 -0.0087,0.0052 -0.151054,-0.07086 -0.316318,-0.169171 -0.165267,-0.09831 -0.310167,-0.172754 -0.322002,-0.165442 -0.03153,0.01949 -0.02624,0.130474 0.0096,0.199656 0.07615,0.147256 0.650298,0.565888 0.926695,0.675682 0.338585,0.134502 0.72578,0.05969 0.895151,-0.172969 0.123401,-0.169508 0.18679,-0.22337 0.30374,-0.258108 0.07439,-0.02209 0.127352,-0.0533 0.15446,-0.09101 0.09342,-0.129958 3.357259,-4.280864 3.370518,-4.286575 0.0079,-0.0035 0.06751,-0.04743 0.132401,-0.09783 0.150867,-0.117151 0.448471,-0.270232 0.630595,-0.324367 l 0.141823,-0.04216 0.01398,0.04407 c 0.02223,0.07004 0.01346,0.512222 -0.01266,0.638008 -0.01845,0.08886 -0.06054,0.1655 -0.187931,0.342126 -0.09029,0.125184 -0.732555,1.021002 -1.42726,1.990703 -0.694706,0.969703 -1.393202,1.943627 -1.552211,2.164279 -0.400877,0.556277 -0.366002,0.48745 -0.315,0.621671 0.03661,0.09637 0.03966,0.128184 0.02072,0.21651 -0.01221,0.05694 -0.03584,0.129911 -0.05251,0.162138 -0.05916,0.114405 -0.288158,0.290444 -0.497565,0.382503 -0.263929,0.116024 -0.504564,0.315746 -0.749961,0.622453 -0.101106,0.126363 -0.177761,0.267603 -0.17863,0.329124 -2.56e-4,0.01808 0.1039,0.12539 0.231458,0.238468 0.199439,0.176802 0.237688,0.202508 0.273104,0.183552 0.0606,-0.03243 0.226855,-0.02682 0.298181,0.01006 0.127702,0.06604 0.180129,0.269768 0.116109,0.451218 -0.06691,0.189646 -0.256347,0.340156 -0.428128,0.340156 -0.158446,0 -0.29977,-0.148157 -0.302117,-0.316724 -9.86e-4,-0.06907 -0.01994,-0.08923 -0.290364,-0.3084 -0.159132,-0.128973 -0.310467,-0.24118 -0.336297,-0.249349 -0.106558,-0.0337 -0.176313,0.03559 -0.850447,0.844854 l -0.659069,0.791174 0.02817,0.06791 c 0.03801,0.09164 0.03101,0.288442 -0.01338,0.376345 -0.119664,0.236918 -0.37457,0.340554 -0.622579,0.253123 z m -4.598697,-0.18258 c -0.235627,-0.213228 -0.462205,-0.550014 -0.595097,-0.884547 -0.113326,-0.285278 -0.155684,-0.498138 -0.15571,-0.782437 0,-0.26336 0.03083,-0.40093 0.134054,-0.597829 0.05858,-0.111738 1.251211,-1.606353 1.282801,-1.60762 0.01452,-6.33e-4 0.0264,0.01145 0.0264,0.02673 0,0.01528 -0.09097,0.297965 -0.202136,0.628169 -0.175322,0.520734 -0.201009,0.614946 -0.193653,0.71027 0.01031,0.133671 0.117741,0.308637 0.245478,0.399812 0.04653,0.03321 0.09041,0.08314 0.09751,0.110948 0.01749,0.06855 -0.452165,2.113718 -0.485405,2.113718 -0.01359,0 -0.083,-0.05274 -0.154239,-0.117225 z m 2.763003,-0.918282 c -0.134254,-0.584848 -0.232298,-1.055799 -0.225282,-1.082139 0.0068,-0.02565 0.05112,-0.07381 0.09841,-0.10702 0.128409,-0.09018 0.236476,-0.2652 0.246862,-0.399812 0.0074,-0.09532 -0.01833,-0.189537 -0.193653,-0.71027 -0.111174,-0.330204 -0.202135,-0.612881 -0.202135,-0.628169 0,-0.01528 0.01187,-0.02732 0.02639,-0.02673 0.03159,0.0013 1.224219,1.495882 1.282801,1.607619 0.103228,0.196899 0.134077,0.334469 0.134054,0.597829 0,0.48068 -0.168047,0.948289 -0.498059,1.386249 -0.125417,0.16644 -0.362188,0.39796 -0.406988,0.39796 -0.01529,0 -0.115238,-0.394397 -0.262407,-1.035506 z M 12.715453,21.1326 c -0.0194,-0.01451 -0.05738,-0.05662 -0.0844,-0.09356 -0.02702,-0.03695 -0.130444,-0.155714 -0.229847,-0.263936 -0.0994,-0.108223 -0.251679,-0.277534 -0.33839,-0.376247 -0.523287,-0.595696 -0.526261,-0.624123 -0.166761,-1.594174 l 0.234756,-0.633447 -0.0055,-0.50936 -0.0055,-0.509359 -0.274494,0.197323 -0.274493,0.197326 -0.223701,6.33e-4 c -0.277157,7.69e-4 -0.673951,-0.0226 -0.672901,-0.03957 3.86e-4,-0.007 0.303024,-0.21677 0.672427,-0.466279 l 0.671646,-0.453649 0.01376,-0.517636 c 0.01888,-0.710186 0.01734,-1.267213 -0.0035,-1.267213 -0.0096,0 -0.139477,0.06083 -0.28871,0.135179 -0.149237,0.07435 -0.283944,0.130342 -0.299352,0.12443 -0.0166,-0.0064 -0.02871,-0.04636 -0.02972,-0.09823 -9.39e-4,-0.04812 -0.0083,-0.26328 -0.01626,-0.478149 l -0.01455,-0.390665 -0.373562,-0.438786 C 10.80092,13.415898 10.605273,13.19527 10.57161,13.166944 c -0.123013,-0.103509 -0.250797,-0.122435 -0.447146,-0.06622 -0.280996,0.08044 -1.016217,0.114302 -1.51262,0.06967 -0.320496,-0.02882 -0.385657,-0.04143 -0.570101,-0.110405 -0.215517,-0.08058 -0.457427,-0.210735 -0.574019,-0.308842 -0.07706,-0.06484 -0.08252,-0.08028 -0.02836,-0.08028 0.02129,0 0.04524,-0.0065 0.05321,-0.0145 0.008,-0.008 0.561933,-0.17771 1.231006,-0.377179 1.174192,-0.350059 1.274277,-0.386186 1.249299,-0.450947 -0.0036,-0.0097 -0.534117,0.13378 -1.178649,0.318755 l -1.171978,0.336308 -0.278343,2.57e-4 C 6.9378652,12.483947 6.6052615,12.414981 6.5074149,12.309956 6.4855909,12.286536 6.0528838,11.991298 5.5458378,11.653876 5.0387918,11.316453 4.611624,11.024785 4.5965763,11.005722 c -0.025157,-0.03187 0.014753,-0.0357 0.4962002,-0.04755 0.2879571,-0.0071 1.0841601,-0.01417 1.7693384,-0.01574 l 1.2457801,-0.0029 0.07466,0.06852 c 0.236791,0.217312 0.490302,0.365671 0.729464,0.426901 0.11591,0.02968 0.153008,0.02972 0.380068,5.16e-4 0.209591,-0.02697 0.557922,-0.09089 0.557732,-0.102363 0,-0.0017 -0.126945,-0.0051 -0.282037,-0.0076 -0.3146,-0.0049 -0.514393,-0.03112 -0.679538,-0.08916 -0.07409,-0.026 -0.377803,-0.229586 -0.915419,-0.613584 -0.4425,-0.316008 -0.8045479,-0.582327 -0.8045479,-0.59177 0,-0.0095 0.011773,-0.02109 0.026165,-0.02589 0.014393,-0.0047 0.3442599,0.05627 0.7330439,0.13572 0.388783,0.07945 0.713958,0.141962 0.722616,0.138932 0.0087,-0.0031 -0.55163,-0.204017 -1.245081,-0.4466306 L 6.1442498,9.3920104 5.352442,8.9103414 C 4.6015818,8.4535814 4.5114942,8.3917674 3.6104615,7.7150556 2.7539431,7.0717743 2.6546963,6.9910632 2.6035245,6.8961742 2.5395773,6.7775985 2.5134899,6.6388191 2.5201139,6.45245 c 0.00579,-0.1628357 0.043061,-0.3585728 0.077174,-0.4052147 0.023975,-0.032791 0.033041,-0.026416 0.089871,0.063196 0.217013,0.3421929 0.5705654,0.5664918 1.5556313,0.9869106 0.1632018,0.069658 0.3442385,0.153884 0.4023056,0.1871787 0.058065,0.033299 0.5521539,0.2979181 1.0979742,0.5880505 0.7838735,0.4166713 1.298533,0.7113643 2.44933,1.4024833 0.801309,0.481233 1.485433,0.8920726 1.520272,0.9129816 0.06195,0.03718 0.06236,0.03715 0.018,-0.0013 -0.02494,-0.02159 -0.08987,-0.07251 -0.144294,-0.113152 C 9.531958,10.032974 9.45259,9.9700954 9.410015,9.9338924 9.367435,9.8976924 9.213831,9.7916614 9.068667,9.6982734 8.923501,9.6048834 8.776225,9.5051534 8.741385,9.4766514 8.706545,9.4481514 8.587775,9.3728204 8.477449,9.3092584 8.135173,9.1120644 7.953094,8.9978694 7.76314,8.8612634 7.66245,8.7888534 7.49455,8.6788344 7.390032,8.6167814 7.1017687,8.4456584 6.5518745,8.1335346 6.3026134,7.9995748 6.2155146,7.9527662 6.0207304,7.8481424 5.869758,7.7670778 5.7187862,7.6860145 5.5667594,7.6028425 5.5319205,7.5822536 5.49708,7.5616653 5.368807,7.4923622 5.2468685,7.4282508 5.1249293,7.3641393 4.9206442,7.2478915 4.7928993,7.1699221 4.6651535,7.0919496 4.5332675,7.012641 4.4998185,6.9936735 4.4663705,6.9747045 4.3808549,6.9220605 4.3097856,6.8766779 3.8224595,6.5654993 3.6998319,6.4594415 3.5940394,6.2576399 3.4185715,5.9229368 3.4097009,5.4522777 3.5703848,5.0026371 3.6502214,4.7792318 3.8148421,4.4691501 3.9429735,4.3008247 4.0039716,4.220696 4.0632553,4.1375549 4.0747189,4.1160695 c 0.038415,-0.071997 0.069634,-0.044782 0.058808,0.05126 -0.02554,0.2265984 0.2756159,0.8270925 0.5688874,1.1343395 0.1663143,0.1742366 1.0917992,0.9199695 2.2442049,1.8083186 0.6271128,0.4834212 1.2185938,0.9399462 1.3144028,1.0145027 0.09581,0.074554 0.174199,0.1307918 0.174199,0.1249681 0,-0.00579 -0.318307,-0.3068502 -0.70735,-0.6689494 C 7.338829,7.2184109 7.0205217,6.9138557 7.0205217,6.903718 c 0,-0.038095 0.2517164,-0.016137 0.4962003,0.04328 0.139358,0.03387 0.376901,0.08598 0.527872,0.1158058 0.150973,0.029827 0.418523,0.08287 0.59456,0.1178779 0.328875,0.065402 0.786326,0.1975284 0.915933,0.2645505 0.189105,0.097789 0.432298,0.3095451 0.573361,0.4992441 L 10.23865,8.092675 10.2966,7.800425 c 0.06681,-0.3368691 0.100472,-0.6542865 0.11388,-1.0735008 l 0.0095,-0.2956091 -0.05352,0.093255 c -0.04891,0.08523 -0.106552,0.1471962 -0.138496,0.148896 -0.007,3.855e-4 -0.01343,-0.027589 -0.01441,-0.062132 -9.86e-4,-0.034543 -0.03729,-0.1414372 -0.0807,-0.2375433 -0.106741,-0.2363363 -0.113665,-0.3319959 -0.03482,-0.4809048 0.03382,-0.063868 0.109624,-0.206398 0.168446,-0.3167235 0.05882,-0.1103247 0.113732,-0.2232231 0.122014,-0.2508826 0.01443,-0.048169 0.01178,-0.049679 -0.06259,-0.035724 -0.100996,0.018945 -0.376102,-0.022794 -0.497065,-0.075422 -0.09608,-0.041794 -0.22065,-0.1756555 -0.197837,-0.212568 0.0068,-0.011021 0.03339,-0.014768 0.05905,-0.00832 0.07698,0.019321 0.312398,-0.028387 0.402702,-0.081608 0.04645,-0.027378 0.11426,-0.081466 0.15068,-0.120198 0.14286,-0.1519295 0.366521,-0.689843 0.366732,-0.8820272 2.53e-4,-0.11759 -0.144124,-0.4212801 -0.276449,-0.5820085 C 10.226237,3.196851 10.05445,3.0857377 9.959091,3.0850917 c -0.04036,-2.574e-4 -0.155752,0.039988 -0.27093,0.094541 -0.153359,0.07263 -0.225146,0.095015 -0.304713,0.095015 -0.135935,0 -0.273971,-0.066004 -0.361682,-0.1729524 C 8.857762,2.9017241 8.774798,2.8312163 8.704065,2.8316974 8.535869,2.8328674 8.296891,3.0244893 8.230472,3.2114967 c -0.02058,0.057955 -0.04402,0.1053787 -0.05207,0.1053787 -0.0081,0 -0.0348,-0.053872 -0.05943,-0.1197146 C 7.972995,2.8070024 7.974829,2.3601231 8.123672,2.049982 8.173532,1.9461068 8.339652,1.7721164 8.437086,1.7217323 8.581828,1.6468813 9.055659,1.499606 9.28118,1.4593697 c 0.275466,-0.049148 0.437466,-0.047075 1.096604,0.014048 0.214844,0.019923 0.480891,0.036186 0.591217,0.036139 0.174399,-6.27e-5 0.217551,-0.00782 0.330476,-0.059066 0.07143,-0.032439 0.153584,-0.084232 0.182553,-0.1150964 0.07645,-0.081463 0.289336,-0.40120569 0.289336,-0.43457789 0,-0.015637 0.0136,-0.060404 0.03021,-0.09948 l 0.03021,-0.07105 0.03104,0.073905 c 0.05505,0.1310796 0.06495,0.33915629 0.0248,0.52156179 -0.03261,0.1481697 -0.04623,0.1743736 -0.135901,0.261474 -0.05482,0.053239 -0.158774,0.1263432 -0.231032,0.1624501 l -0.131378,0.065652 0.143661,0.042781 c 0.221942,0.066098 0.427873,0.2133935 0.399978,0.2860907 -0.0068,0.017851 -0.03351,0.032462 -0.05924,0.032462 -0.02573,0 -0.09017,0.021143 -0.143189,0.046988 l -0.09641,0.046988 0.104455,0.015206 c 0.22858,0.033268 0.566432,0.2652756 0.653507,0.4487668 0.03598,0.075837 0.04622,0.2233083 0.01549,0.2233083 -0.0101,0 -0.06472,-0.03671 -0.12141,-0.081566 -0.05668,-0.044861 -0.133463,-0.097119 -0.170628,-0.116132 -0.104628,-0.05352 -0.329338,-0.042991 -0.403575,0.018907 -0.0036,0.00305 0.106068,0.1808755 0.243799,0.3951976 0.23578,0.366898 0.28732,0.4691447 0.4664,0.9252027 0.147914,0.3766907 0.186587,0.6413187 0.07085,0.4847728 -0.03942,-0.053324 -0.183723,-0.1483371 -0.225283,-0.1483371 -0.0066,0 0.02602,0.05047 0.0726,0.112163 0.107484,0.1423624 0.22142,0.389506 0.254922,0.5529574 0.04151,0.2025471 -0.0034,0.6862342 -0.06371,0.6862342 -0.0098,0 -0.02383,-0.02748 -0.03121,-0.061069 -0.02544,-0.1158253 -0.233529,-0.3952484 -0.334648,-0.4493645 -0.0416,-0.022262 -0.04199,-0.017881 -0.02878,0.3176858 0.0113,0.2871482 0.02195,0.3658279 0.06822,0.5040461 0.08592,0.2566813 0.246928,0.6253487 0.398657,0.9127793 0.07646,0.1448438 0.144769,0.2814788 0.1518,0.3036346 0.0098,0.030789 0.03263,0.00102 0.09695,-0.1261046 0.04629,-0.091513 0.116966,-0.2269128 0.157059,-0.3008874 0.08917,-0.1645136 0.259813,-0.5678815 0.333962,-0.7894219 0.04627,-0.1382182 0.05692,-0.2168979 0.06822,-0.5040461 0.01321,-0.335569 0.01281,-0.3399503 -0.02878,-0.3176858 -0.101118,0.054114 -0.309208,0.3335392 -0.334647,0.4493645 -0.0074,0.033589 -0.02143,0.061069 -0.03121,0.061069 -0.06032,0 -0.105217,-0.4836871 -0.06371,-0.6862342 0.03351,-0.1634514 0.147435,-0.410595 0.254923,-0.5529574 0.04657,-0.061686 0.07924,-0.112163 0.07259,-0.112163 -0.04156,0 -0.185862,0.095015 -0.225282,0.1483371 -0.115738,0.1565459 -0.07706,-0.1080821 0.07085,-0.4847728 0.179079,-0.456058 0.23062,-0.5583047 0.466399,-0.9252027 0.137731,-0.2143221 0.247441,-0.3921618 0.243798,-0.3951976 -0.07424,-0.061897 -0.298947,-0.072419 -0.403575,-0.018907 -0.03716,0.019016 -0.113947,0.071269 -0.170626,0.116132 -0.05668,0.044861 -0.111317,0.081566 -0.12141,0.081566 -0.03073,0 -0.02049,-0.1474728 0.01549,-0.2233083 0.08707,-0.1834912 0.424926,-0.4154971 0.653505,-0.4487668 l 0.104455,-0.015206 -0.09641,-0.046988 c -0.05303,-0.025845 -0.117459,-0.046988 -0.143188,-0.046988 -0.02573,0 -0.05239,-0.014605 -0.05924,-0.032462 -0.0279,-0.072701 0.178036,-0.2199932 0.399978,-0.2860907 l 0.143651,-0.042781 -0.131379,-0.065652 c -0.07226,-0.036108 -0.176221,-0.1092109 -0.231032,-0.1624517 -0.08966,-0.087099 -0.103288,-0.1133043 -0.1359,-0.2614739 -0.04015,-0.182404 -0.03025,-0.39048229 0.0248,-0.52156109 l 0.03104,-0.073905 0.03021,0.07105 c 0.01661,0.03908 0.03021,0.083843 0.03021,0.099481 0,0.033369 0.212883,0.35311439 0.289338,0.43457629 0.02897,0.030867 0.111118,0.082658 0.182554,0.1150964 0.112923,0.051283 0.156076,0.058987 0.330475,0.059066 0.110324,4.3e-5 0.376372,-0.016403 0.591216,-0.036554 0.835091,-0.078331 1.057698,-0.063118 1.562504,0.106768 0.35766,0.1203686 0.425533,0.1546818 0.547541,0.2768158 0.228993,0.2292321 0.315489,0.6412554 0.224966,1.0715976 -0.03469,0.1649314 -0.112769,0.3886854 -0.13562,0.3886854 -0.0081,0 -0.03148,-0.047419 -0.05207,-0.1053787 -0.06334,-0.1783598 -0.30494,-0.3786033 -0.458128,-0.3797211 -0.0677,-4.975e-4 -0.174521,0.064682 -0.224732,0.1371106 -0.147526,0.2128123 -0.290436,0.3057599 -0.470116,0.3057599 -0.07956,0 -0.151352,-0.022388 -0.304712,-0.095015 -0.115177,-0.054553 -0.230568,-0.094814 -0.27093,-0.094541 -0.09536,6.329e-4 -0.267145,0.1117594 -0.374627,0.2423126 -0.132326,0.1607284 -0.276573,0.4644192 -0.276445,0.5820093 2.57e-4,0.1921834 0.223871,0.730097 0.366742,0.8820269 0.03641,0.038728 0.104227,0.09282 0.150678,0.1201964 0.0903,0.053223 0.325726,0.1009286 0.402705,0.081608 0.02567,-0.00641 0.05223,-0.00274 0.05904,0.00832 0.02281,0.036913 -0.101758,0.1707777 -0.197809,0.2125683 -0.120964,0.052628 -0.396071,0.094375 -0.497066,0.07543 -0.07438,-0.013955 -0.07702,-0.012453 -0.06259,0.035724 0.0083,0.027659 0.06319,0.1405586 0.122015,0.2508841 0.05882,0.110324 0.134624,0.2528499 0.168445,0.3167236 0.07885,0.1489073 0.07192,0.2445677 -0.03482,0.4809039 -0.0434,0.096107 -0.07972,0.2030009 -0.0807,0.2375424 -9.86e-4,0.034543 -0.0074,0.0625 -0.01441,0.062132 -0.03195,-0.00173 -0.08958,-0.063665 -0.138497,-0.1488967 l -0.05352,-0.093254 0.0095,0.2956092 c 0.01341,0.419215 0.04709,0.7366316 0.113882,1.0735015 l 0.05795,0.2922485 0.110202,-0.148198 C 15.561295,7.754775 15.804488,7.5430195 15.993593,7.44523 16.1232,7.378209 16.580651,7.2460832 16.909526,7.1806803 c 0.176036,-0.035012 0.443587,-0.088053 0.594559,-0.1178788 0.150972,-0.029826 0.388514,-0.081937 0.527873,-0.1158058 0.244483,-0.059418 0.496199,-0.08137 0.496199,-0.04328 0,0.010138 -0.318306,0.3146937 -0.707348,0.6767928 -0.389042,0.3620975 -0.70735,0.6634268 -0.70735,0.6696197 0,0.00618 0.05939,-0.035545 0.131968,-0.092756 0.180928,-0.1426065 2.16107,-1.6723533 2.369546,-1.8305778 0.307724,-0.23355 1.181744,-0.9681017 1.268362,-1.0659694 0.288086,-0.3254955 0.556237,-0.8768571 0.531817,-1.0934977 -0.01082,-0.096045 0.02039,-0.1232557 0.05881,-0.05126 0.01146,0.021488 0.07074,0.1046255 0.131744,0.1847554 0.128132,0.1683246 0.292754,0.4784063 0.372589,0.7018116 0.160684,0.4496422 0.151815,0.9202997 -0.02365,1.2550036 -0.08458,0.1613307 -0.213822,0.289067 -0.451229,0.4459699 -0.08602,0.056853 -0.194421,0.1292202 -0.240874,0.160809 -0.04645,0.031595 -0.122468,0.077816 -0.168919,0.1027222 -0.04645,0.024906 -0.146221,0.084377 -0.221707,0.1321559 -0.07548,0.047779 -0.170504,0.105802 -0.211149,0.1289364 -0.04065,0.023138 -0.09912,0.059958 -0.12995,0.081823 -0.03083,0.021863 -0.06265,0.03976 -0.07073,0.03976 -0.0081,0 -0.139635,0.067975 -0.292352,0.1510648 -0.152712,0.083086 -0.443939,0.2401098 -0.64717,0.3489428 -0.203231,0.1088338 -0.388513,0.2089379 -0.411741,0.2224556 -0.02322,0.013517 -0.103992,0.059426 -0.179477,0.1020183 -0.716165,0.4041036 -0.924091,0.5289876 -1.1438,0.6869906 -0.189953,0.136606 -0.372033,0.250801 -0.714308,0.447996 -0.110326,0.06356 -0.229098,0.138887 -0.263937,0.167391 -0.03484,0.0285 -0.182115,0.128233 -0.32728,0.221623 -0.145166,0.09339 -0.298772,0.199418 -0.341349,0.23562 -0.04258,0.0362 -0.121936,0.09908 -0.17636,0.1397236 -0.05443,0.04065 -0.119358,0.09157 -0.144296,0.113147 -0.04434,0.03839 -0.04395,0.03841 0.01799,0.0012 2.621699,-1.5763576 3.114415,-1.8635636 4.011832,-2.3385219 0.522593,-0.2765819 0.992929,-0.5288451 1.045187,-0.5605832 0.05226,-0.031736 0.233298,-0.1163073 0.402305,-0.1879313 0.983063,-0.4166133 1.348528,-0.6472787 1.564089,-0.9871821 0.0336,-0.052996 0.07025,-0.090705 0.08141,-0.083804 0.06325,0.039096 0.112876,0.4801929 0.07464,0.6634365 -0.05324,0.2551098 -0.04051,0.2430408 -1.077254,1.0216781 -0.901033,0.6767113 -0.991119,0.7385253 -1.741979,1.1952853 l -0.791809,0.481668 -1.260818,0.441119 c -0.69345,0.2426136 -1.253736,0.4435976 -1.24508,0.4466296 0.0087,0.0031 0.333833,-0.05949 0.722614,-0.13893 0.388786,-0.07945 0.718656,-0.140517 0.733044,-0.13572 0.0144,0.0047 0.02617,0.01645 0.02617,0.02589 0,0.0095 -0.362047,0.275762 -0.804548,0.591822 -0.537616,0.383996 -0.841329,0.587584 -0.915417,0.613624 -0.165145,0.05804 -0.36494,0.08426 -0.67954,0.08916 -0.15509,0.0025 -0.282007,0.0058 -0.282035,0.0076 -2.56e-4,0.01148 0.34814,0.0754 0.557731,0.102363 0.227058,0.02921 0.264158,0.02916 0.380068,-5.16e-4 0.239162,-0.06123 0.492672,-0.20959 0.729463,-0.426901 l 0.07466,-0.06852 1.245778,0.0029 c 0.68518,0.0016 1.481382,0.0087 1.769341,0.01573 0.481447,0.01186 0.521359,0.01569 0.4962,0.04755 -0.01505,0.01906 -0.442215,0.310731 -0.949263,0.648153 -0.507046,0.337423 -0.939754,0.632659 -0.961577,0.656081 -0.09785,0.105027 -0.43045,0.174055 -0.836495,0.173605 l -0.278349,-3.04e-4 -1.171878,-0.336318 c -0.64454,-0.185029 -1.174933,-0.328469 -1.178658,-0.318811 -0.02498,0.06476 0.07511,0.100889 1.249299,0.450948 0.669074,0.19947 1.223028,0.3692 1.231007,0.377178 0.008,0.008 0.03192,0.0145 0.05322,0.0145 0.05416,0 0.0487,0.01543 -0.02836,0.08028 -0.116593,0.0981 -0.358502,0.228264 -0.574028,0.308853 -0.184446,0.06897 -0.249607,0.08159 -0.570103,0.110407 -0.496403,0.04464 -1.231624,0.01078 -1.512618,-0.06967 -0.19635,-0.05622 -0.324132,-0.03729 -0.447148,0.06622 -0.03365,0.02832 -0.229308,0.248953 -0.434766,0.490286 l -0.373564,0.438784 -0.01455,0.390668 c -0.008,0.214868 -0.01532,0.430033 -0.01626,0.478148 -9.86e-4,0.05186 -0.0131,0.09185 -0.02972,0.09823 -0.01541,0.0059 -0.150114,-0.05008 -0.299351,-0.124429 -0.149233,-0.07435 -0.279155,-0.135181 -0.288709,-0.135181 -0.02086,0 -0.0224,0.557027 -0.0035,1.267214 l 0.01376,0.517635 0.671646,0.45365 c 0.369404,0.249509 0.671997,0.459333 0.672428,0.466279 9.86e-4,0.01697 -0.395744,0.0403 -0.672904,0.03957 l -0.223699,-6.33e-4 -0.274494,-0.197326 -0.274493,-0.197323 -0.0055,0.509357 -0.0055,0.509361 0.234907,0.633448 c 0.202406,0.545797 0.236394,0.655729 0.24563,0.794482 0.01936,0.290896 -0.03635,0.382809 -0.640072,1.055985 -0.173284,0.193221 -0.344613,0.38563 -0.38073,0.427577 -0.06994,0.08123 -0.105566,0.09219 -0.162131,0.04988 z m -0.190934,-8.959673 c 0.02801,-0.07297 -0.329016,-0.376586 -0.605339,-0.514801 -0.182421,-0.09125 -0.30088,-0.180223 -0.45518,-0.341907 -0.157287,-0.164808 -0.243239,-0.289084 -0.337394,-0.487815 -0.126059,-0.26608 -0.164411,-0.449929 -0.164045,-0.786405 2.56e-4,-0.2585986 0.0074,-0.3188626 0.05636,-0.4813476 0.187296,-0.62073 0.612037,-1.049962 1.210661,-1.223461 0.14386,-0.04169 0.212729,-0.04773 0.544748,-0.04773 0.332019,0 0.400887,0.006 0.544746,0.04773 0.598625,0.173499 1.023366,0.602731 1.210662,1.223461 0.04903,0.162485 0.05609,0.222749 0.05636,0.4813476 3.86e-4,0.336476 -0.03798,0.520325 -0.164047,0.786405 -0.09415,0.198731 -0.180105,0.323007 -0.337392,0.487815 -0.154301,0.161684 -0.272759,0.25066 -0.45518,0.341907 -0.283129,0.141621 -0.633372,0.441752 -0.604206,0.517761 0.01179,0.03072 0.03254,0.0343 0.134872,0.02335 0.519048,-0.05561 1.079037,-0.382034 1.40942,-0.821542 0.130185,-0.173185 0.292101,-0.511457 0.351294,-0.733918 0.06753,-0.253792 0.0689,-0.7509876 0.0028,-1.0135156 -0.251403,-0.998257 -1.148024,-1.7127672 -2.149311,-1.7127672 -1.001288,0 -1.897908,0.7145102 -2.149312,1.7127672 -0.06612,0.262528 -0.06475,0.7597236 0.0028,1.0135156 0.05889,0.221316 0.22093,0.560495 0.349465,0.731482 0.11103,0.147704 0.34311,0.372418 0.486552,0.471108 0.344845,0.237259 1.015716,0.443804 1.060704,0.326563 z M 8.540796,8.3349634 c 0,-0.004 -0.02138,-0.02538 -0.04751,-0.047505 l -0.0475,-0.040222 0.04022,0.047505 c 0.03781,0.04465 0.0548,0.05712 0.0548,0.04022 z m 8.519863,-0.03494 c 0.02102,-0.023224 0.03347,-0.042232 0.02766,-0.042232 -0.0058,0 -0.02775,0.019 -0.04878,0.042232 -0.02102,0.02323 -0.03347,0.04223 -0.02766,0.04223 0.0058,0 0.02775,-0.019 0.04877,-0.04223 z M 10.017678,2.1161645 c 0.08646,-0.044173 0.1606,-0.090502 0.164755,-0.1029679 0.0099,-0.02967 -0.188105,-0.1029961 -0.357997,-0.1325823 -0.131955,-0.022974 -0.136992,-0.022082 -0.291343,0.051893 -0.08639,0.041403 -0.170949,0.075274 -0.187915,0.075274 -0.01697,0 0.05403,0.042077 0.157768,0.093508 0.241024,0.1194893 0.306256,0.1213745 0.514732,0.014878 z M 9.645014,2.0980712 C 9.562924,2.0571922 9.545424,2.0196802 9.588384,1.976717 9.626034,1.93906 9.829658,1.932106 9.893533,1.966298 c 0.06653,0.035607 0.05068,0.102871 -0.03238,0.1375808 -0.09097,0.038008 -0.130298,0.036953 -0.21614,-0.00579 z m 6.391572,-0.00282 c 0.110326,-0.047646 0.187153,-0.086813 0.170725,-0.087045 -0.01643,-2.573e-4 -0.101335,-0.034348 -0.188685,-0.075806 -0.15618,-0.074131 -0.161063,-0.074992 -0.293745,-0.051885 -0.170474,0.029686 -0.368552,0.1029773 -0.358642,0.1327035 0.0041,0.012477 0.07829,0.059606 0.164755,0.1047365 0.190463,0.099427 0.226539,0.097807 0.505592,-0.0227 z m -0.364232,0.00602 c -0.06585,-0.035724 -0.07657,-0.1032229 -0.02112,-0.1329022 0.02032,-0.010866 0.07986,-0.026205 0.132295,-0.034074 0.07922,-0.011882 0.10513,-0.00657 0.153216,0.031227 0.07494,0.058941 0.05204,0.1036571 -0.07206,0.1407731 -0.113776,0.034027 -0.120679,0.033847 -0.192331,-0.00501 z m -5.124491,16.8371328 0.0012,-0.387105 0.50727,-0.464529 c 0.278999,-0.255492 0.519298,-0.467316 0.534,-0.470723 0.02694,-0.0062 0.05713,0.328087 0.05204,0.576297 l -0.0022,0.105574 -0.521125,0.50526 c -0.28662,0.277896 -0.532647,0.509103 -0.546729,0.513798 -0.01947,0.0065 -0.02533,-0.08423 -0.02445,-0.378572 z m 3.888607,-0.128453 -0.527938,-0.512037 -0.0022,-0.105574 c -0.0051,-0.247992 0.02509,-0.582543 0.05203,-0.576297 0.0147,0.0034 0.255002,0.215232 0.534,0.470723 l 0.50727,0.464528 0.0012,0.385346 c 6.34e-4,0.211941 -0.0073,0.385348 -0.01762,0.385348 -0.01033,0 -0.256347,-0.230417 -0.546712,-0.512037 z M 9.419281,18.586563 c -0.0059,-0.0097 0.222573,-0.204635 0.507847,-0.433321 l 0.51868,-0.415799 0.381269,0.0057 c 0.265876,0.0039 0.383735,0.01316 0.389414,0.03023 0.0044,0.01347 -0.200671,0.205878 -0.455883,0.427577 l -0.464027,0.403094 H 9.863346 c -0.238277,0 -0.438106,-0.0079 -0.444065,-0.01752 z m 5.371527,-0.381204 c -0.249685,-0.218072 -0.453971,-0.40998 -0.453971,-0.426461 0,-0.02456 0.06903,-0.031 0.383011,-0.03571 l 0.383012,-0.0057 0.518679,0.415796 c 0.285276,0.228688 0.513806,0.423681 0.507847,0.433323 -0.0059,0.0097 -0.207433,0.01702 -0.44772,0.01641 l -0.436889,-0.0012 z M 10.80009,16.209808 c 0,-0.458623 0.0068,-0.646263 0.02339,-0.646263 0.01286,0 0.24872,-0.133024 0.524123,-0.29561 0.275406,-0.162584 0.50955,-0.295569 0.520323,-0.295523 0.01142,0 0.02276,0.258565 0.02718,0.619896 l 0.0076,0.61981 -0.52017,0.310031 c -0.286092,0.170517 -0.534177,0.315405 -0.551301,0.321977 -0.02701,0.01037 -0.03113,-0.07351 -0.03113,-0.634318 z m 3.381348,0.321794 -0.535467,-0.319343 0.0076,-0.619882 c 0.0044,-0.361372 0.01577,-0.619916 0.02719,-0.619965 0.01077,0 0.244918,0.132939 0.520323,0.295523 0.275404,0.162586 0.511259,0.29561 0.524122,0.29561 0.01659,0 0.02339,0.18703 0.02339,0.644005 0,0.354202 -0.0071,0.643866 -0.01584,0.643698 -0.0087,-2.57e-4 -0.256795,-0.144008 -0.551302,-0.319646 z M 6.1864839,10.706034 C 4.6021575,10.659094 4.2274279,10.636834 3.9257333,10.571783 3.2360713,10.423067 2.5919506,10.100323 2.1978318,9.7059974 2.0279388,9.5360164 1.9061505,9.3604054 1.8694773,9.2325314 c -0.018108,-0.06313 -0.016043,-0.06681 0.037438,-0.06693 0.1221482,-2.58e-4 2.2973263,0.235525 2.3370017,0.253336 0.04695,0.02108 1.3672649,0.226965 1.5549294,0.242472 0.143585,0.01186 0.4135626,0.10743 0.6058297,0.214451 0.3201193,0.1781826 1.2560959,0.8242836 1.2375579,0.8542796 -0.0065,0.01056 -0.05169,0.01791 -0.10036,0.01631 -0.04867,-0.0016 -0.6585945,-0.01978 -1.3553865,-0.04043 z m 11.7204231,0.02488 c -0.01892,-0.03062 0.912342,-0.674281 1.237088,-0.8550396 0.192268,-0.107019 0.462243,-0.202585 0.605828,-0.21445 0.187665,-0.0155 1.507983,-0.221394 1.554931,-0.242472 0.03968,-0.01781 2.214854,-0.253606 2.337002,-0.253337 0.05349,1.28e-4 0.05554,0.0038 0.03744,0.06693 -0.06342,0.22115 -0.36643,0.556059 -0.710048,0.7848166 -0.539326,0.359044 -1.21655,0.58174 -1.903886,0.626065 -0.170219,0.01098 -0.841584,0.03434 -1.491922,0.05194 -0.65034,0.01758 -1.28856,0.03727 -1.418264,0.04375 -0.139059,0.007 -0.240889,0.0035 -0.248162,-0.0082 z M 3.4858462,9.0501604 C 1.6590164,8.8006634 1.5861322,8.7890194 1.5492368,8.7407734 1.4783278,8.6480514 1.4608544,8.4968174 1.4735563,8.0858139 1.4862283,7.6757776 1.5151474,7.5025265 1.6263583,7.170368 1.6888975,6.9835803 1.864507,6.63156 1.9431335,6.5353772 l 0.050524,-0.061804 7.681e-4,0.1656705 c 9.388e-4,0.2095273 0.046574,0.367726 0.1334452,0.4628606 0.037351,0.040903 0.7852862,0.532736 1.6620815,1.0929697 0.8767969,0.5602324 1.6108031,1.0330424 1.6311271,1.0506884 0.020322,0.01765 0.036953,0.04011 0.036953,0.04992 0,0.0098 -0.01663,0.01692 -0.036953,0.01578 -0.020322,-0.0012 -0.8911716,-0.118724 -1.9352207,-0.261312 z m 16.6048018,0.247384 c 0,-0.01083 0.01663,-0.03414 0.03696,-0.05178 0.02032,-0.01765 0.754329,-0.490456 1.631125,-1.0506883 0.876796,-0.5602337 1.624733,-1.05207 1.662084,-1.0929696 0.08687,-0.095135 0.132482,-0.2533334 0.133444,-0.4628606 l 7.69e-4,-0.1656705 0.05053,0.061804 c 0.08385,0.1025729 0.256369,0.4537593 0.324226,0.6600041 0.121499,0.3692894 0.140999,0.5045242 0.141025,0.9779444 0,0.3983385 -0.0036,0.4395725 -0.04416,0.5170855 -0.03008,0.05735 -0.06377,0.08945 -0.105574,0.100593 -0.03377,0.009 -0.87379,0.125453 -1.866718,0.258784 -0.992928,0.133331 -1.840956,0.248052 -1.884506,0.254938 -0.04386,0.007 -0.07918,0.0038 -0.07918,-0.0072 z M 9.215831,6.7216769 C 8.967299,6.3645713 8.685241,5.9600668 8.589032,5.8227772 L 8.414106,5.5731617 8.414362,4.8198193 c 2.58e-4,-0.7159995 0.01025,-0.8478324 0.06002,-0.795395 0.01094,0.011514 0.302109,0.4390133 0.647065,0.9499939 L 9.74864,5.9034741 9.73595,6.452461 c -0.007,0.3019436 -0.01271,0.6321286 -0.01273,0.733744 0,0.1385686 -0.007,0.1847545 -0.02781,0.1847545 -0.01526,0 -0.231108,-0.2921765 -0.479637,-0.6492826 z m 6.602479,0.095017 C 15.81061,6.5118465 15.80439,6.1812525 15.80437,6.0820386 V 5.9016496 L 16.429385,4.973505 c 0.343757,-0.5104777 0.633953,-0.9375644 0.644882,-0.9490811 0.04977,-0.052441 0.05971,0.079395 0.06002,0.795395 l 2.57e-4,0.7533424 -0.174925,0.2496155 c -0.09621,0.1372896 -0.378269,0.5417941 -0.626798,0.8988997 -0.248529,0.3571061 -0.462841,0.6492826 -0.476246,0.6492826 -0.01745,0 -0.02832,-0.1574337 -0.03828,-0.5542652 z M 8.350761,6.8949849 C 7.880427,6.8097762 7.377475,6.7197174 7.2330907,6.694852 7.0285223,6.6596205 6.9353002,6.6318591 6.8107914,6.5690882 6.3574656,6.3405382 5.5515724,5.7159489 5.2286942,5.3429198 5.1071304,5.2024753 5.0773917,5.1521828 5.0392658,5.0225816 5.014391,4.9380258 4.9846037,4.8023318 4.9730659,4.7210403 4.9275792,4.40044 4.9601747,3.8624693 5.0436698,3.5555847 5.0768441,3.433665 5.1604518,3.2712712 5.1959807,3.2597498 c 0.012656,-0.00414 0.3487299,0.3393714 0.7468209,0.7632798 0.4248026,0.4523549 0.7660912,0.797881 0.8261742,0.8364355 0.1966014,0.1261585 0.392807,0.1937047 0.6104962,0.2101683 0.240523,0.018187 0.263076,0.026776 0.460241,0.1752904 0.135023,0.1017022 0.232205,0.217476 0.785925,0.9362893 0.347516,0.4511291 0.629151,0.8291438 0.625855,0.8400316 -0.0033,0.010881 -0.0149,0.021793 -0.02579,0.024226 -0.01088,0.00243 -0.404614,-0.065277 -0.874949,-0.1504875 z m 7.949192,0.1372138 c -0.0075,-0.012203 0.0427,-0.095381 0.11164,-0.1848328 0.06894,-0.089453 0.354528,-0.4605867 0.634623,-0.8247429 0.437816,-0.5692075 0.530842,-0.6783518 0.663038,-0.7779272 0.196832,-0.148262 0.219464,-0.1568767 0.459937,-0.1750627 0.217689,-0.016466 0.413894,-0.08401 0.610497,-0.2101683 0.06008,-0.038556 0.401369,-0.3840806 0.826172,-0.8364355 0.398092,-0.4239084 0.734161,-0.7673858 0.74682,-0.7632798 0.03553,0.011522 0.119139,0.1739152 0.152312,0.2958349 0.0835,0.3068846 0.116093,0.8448553 0.0706,1.1654556 -0.01154,0.081291 -0.04132,0.2169855 -0.06621,0.3015413 -0.03812,0.1296012 -0.06787,0.1798937 -0.189425,0.3203382 -0.410403,0.4741463 -1.497817,1.2647909 -1.814439,1.3192558 -0.319991,0.055045 -2.109388,0.373297 -2.145652,0.3816153 -0.02541,0.00587 -0.05239,6.421e-4 -0.05993,-0.011592 z M -13.14421,-5.0446033 c 0,-0.011616 0.0095,-0.021113 0.02111,-0.021113 0.01161,0 0.02112,0.0095 0.02112,0.021113 0,0.011616 -0.0095,0.021121 -0.02112,0.021121 -0.01162,0 -0.02111,-0.0095 -0.02111,-0.021121 z m 51.794857,0 c 0,-0.011616 0.0095,-0.021113 0.02111,-0.021113 0.01162,0 0.02111,0.0095 0.02111,0.021113 0,0.011616 -0.0095,0.021121 -0.02111,0.021121 -0.01162,0 -0.02111,-0.0095 -0.02111,-0.021121 z"
       id="path859"
       clip-path="url(#clipPath863)"
       transform="translate(-0.00298003,0.03905684)" />
  </g>
</svg>
