<?xml version="1.0" encoding="UTF-8" standalone="no"?>
<svg
   xmlns:dc="http://purl.org/dc/elements/1.1/"
   xmlns:cc="http://creativecommons.org/ns#"
   xmlns:rdf="http://www.w3.org/1999/02/22-rdf-syntax-ns#"
   xmlns:svg="http://www.w3.org/2000/svg"
   xmlns="http://www.w3.org/2000/svg"
   xmlns:sodipodi="http://sodipodi.sourceforge.net/DTD/sodipodi-0.dtd"
   xmlns:inkscape="http://www.inkscape.org/namespaces/inkscape"
   width="32"
   height="32"
   viewBox="0 0 8.4666659 8.4666659"
   version="1.1"
   id="svg8"
   inkscape:version="1.0.2-2 (e86c870879, 2021-01-15)"
   sodipodi:docname="Dungeon.svg">
  <defs
     id="defs2" />
  <sodipodi:namedview
     id="base"
     pagecolor="#ffffff"
     bordercolor="#666666"
     borderopacity="1.0"
     inkscape:pageopacity="0.0"
     inkscape:pageshadow="2"
     inkscape:zoom="11.2"
     inkscape:cx="20.631496"
     inkscape:cy="21.067394"
     inkscape:document-units="px"
     inkscape:current-layer="layer1"
     inkscape:document-rotation="0"
     showgrid="false"
     units="px"
     inkscape:window-width="1920"
     inkscape:window-height="1121"
     inkscape:window-x="-9"
     inkscape:window-y="-9"
     inkscape:window-maximized="1" />
  <metadata
     id="metadata5">
    <rdf:RDF>
      <cc:Work
         rdf:about="">
        <dc:format>image/svg+xml</dc:format>
        <dc:type
           rdf:resource="http://purl.org/dc/dcmitype/StillImage" />
        <dc:title></dc:title>
      </cc:Work>
    </rdf:RDF>
  </metadata>
  <g
     inkscape:label="Layer 1"
     inkscape:groupmode="layer"
     id="layer1">
    <path
       id="rect851"
       style="opacity:1;fill:#000000;stroke:none;stroke-width:0.529167"
       d="M 0.13538529,0.57183353 V 1.162623 a 1.5091662,0.6947783 0 0 1 0.77462582,0.5386017 h 0.01853 V 2.6446282 3.3917725 7.0425496 L 0.79043808,7.2111186 1.3193925,7.8567331 1.8483484,7.2111186 1.7102454,7.0425496 v -1.709979 h 1.1608979 v 1.709979 L 2.7330404,7.2111186 3.2619975,7.8567331 3.790952,7.2111186 3.6528491,7.0425496 V 5.3325706 H 4.8138168 V 7.0806502 L 4.6757139,7.2492192 5.2046696,7.8948324 5.7336255,7.2492192 5.5955226,7.0806502 V 5.3325706 H 6.7564205 V 7.0806502 L 6.6183175,7.2492192 7.1472719,7.8948324 7.6762278,7.2492192 7.5381249,7.0806502 V 5.3325706 h 0.00215 V 4.5854953 h -0.00215 V 1.7012247 h 0.01853 A 1.5091662,0.6947783 0 0 1 8.3312806,1.162623 V 0.57183353 H 7.5381249 v 0.0380995 h -0.00688 V 0.57183353 H 0.92854102 Z M 1.7102454,1.4715157 H 2.8711433 V 2.6446282 H 1.7102454 Z m 1.9426037,0 H 4.8138168 V 2.6446282 H 3.6528491 Z m 1.9426735,0 H 6.7564205 V 2.6446282 H 5.5955226 Z M 1.7102454,3.3917725 H 2.8711433 V 4.5854953 H 1.7102454 Z m 1.9426037,0 H 4.8138168 V 4.5854953 H 3.6528491 Z m 1.9426735,0 H 6.7564205 V 4.5854953 H 5.5955226 Z" />
  </g>
</svg>
