<?xml version="1.0" encoding="UTF-8" standalone="no"?>
<!-- Created with Inkscape (http://www.inkscape.org/) -->

<svg
   width="96"
   height="96"
   viewBox="0 0 25.399999 25.400001"
   version="1.1"
   id="svg5"
   inkscape:version="1.1 (c68e22c387, 2021-05-23)"
   sodipodi:docname="faction_ironbanner2.svg"
   xmlns:inkscape="http://www.inkscape.org/namespaces/inkscape"
   xmlns:sodipodi="http://sodipodi.sourceforge.net/DTD/sodipodi-0.dtd"
   xmlns="http://www.w3.org/2000/svg"
   xmlns:svg="http://www.w3.org/2000/svg">
  <sodipodi:namedview
     id="namedview7"
     pagecolor="#ffffff"
     bordercolor="#666666"
     borderopacity="1.0"
     inkscape:pageshadow="2"
     inkscape:pageopacity="0.0"
     inkscape:pagecheckerboard="0"
     inkscape:document-units="px"
     showgrid="false"
     units="px"
     showborder="true"
     inkscape:zoom="4.3992312"
     inkscape:cx="95.016601"
     inkscape:cy="81.946136"
     inkscape:window-width="1920"
     inkscape:window-height="1137"
     inkscape:window-x="-8"
     inkscape:window-y="-8"
     inkscape:window-maximized="1"
     inkscape:current-layer="layer1" />
  <defs
     id="defs2" />
  <g
     inkscape:label="Layer 1"
     inkscape:groupmode="layer"
     id="layer1">
    <path
       style="color:#000000;stroke-width:0.999993;-inkscape-stroke:none"
       d="M 12.699197,0.40273231 C 5.9805976,0.40271231 0.52889765,5.8559423 0.52889765,12.574592 c 0,6.718636 5.45169995,12.169826 12.17029935,12.169796 6.718605,-3e-5 12.171905,-5.4512 12.171905,-12.169796 0,-6.7186097 -5.4533,-12.17182969 -12.171905,-12.17185969 z m 0,0.52916001 c 1.1287,10e-6 2.2191,0.16067998 3.2509,0.45991998 0.027,0.0385 0.05,0.0787 0.07,0.12041 0.2993,0.61914 -0.2431,1.39234 -1.2491,1.78077 -0.1386,0.0536 -0.4974,0.15399 -0.5503,0.15399 -0.041,0 -0.016,-0.0687 0.1111,-0.30023 0.1434,-0.26374 0.1479,-0.3201 0.032,-0.3974 -0.056,-0.0383 -0.1526,-0.0366 -0.1735,0.002 -0.01,0.0166 -0.047,0.0753 -0.084,0.13074 -0.037,0.0554 -0.1183,0.21791 -0.1791,0.36122 -0.1847,0.43211 -0.444,0.95042 -0.5567,1.11311 -0.058,0.0838 -0.136,0.20795 -0.1741,0.27595 -0.038,0.0679 -0.089,0.1483 -0.1148,0.1788 l -0.046,0.0553 -0.021,-0.2284 c -0.011,-0.1255 -0.036,-0.34697 -0.054,-0.49197 -0.037,-0.29097 -0.034,-0.39416 0.021,-0.75757 0.057,-0.37293 0.1521,-0.72556 0.2482,-0.91829 0.026,-0.052 0.1106,-0.20014 0.1875,-0.32918 0.1689,-0.28278 0.2345,-0.44618 0.2583,-0.64182 0.021,-0.16933 0.01,-0.22789 -0.059,-0.22789 -0.053,0 -0.1439,0.0634 -0.1841,0.12867 -0.019,0.0294 -0.076,0.11097 -0.1286,0.18087 -0.053,0.0699 -0.1111,0.15655 -0.1302,0.19275 -0.059,0.11487 -0.209,0.30067 -0.3384,0.42013 -0.069,0.0635 -0.1259,0.11524 -0.136,0.11524 -0.01,0 -0.066,-0.0517 -0.1354,-0.11524 -0.1297,-0.1194 -0.2794,-0.30522 -0.3384,-0.42013 -0.019,-0.0362 -0.077,-0.12285 -0.1302,-0.19275 -0.053,-0.0699 -0.1106,-0.15137 -0.1289,-0.18087 -0.04,-0.0652 -0.1312,-0.12867 -0.1844,-0.12867 -0.069,0 -0.08,0.0586 -0.059,0.22789 0.024,0.19564 0.09,0.35904 0.2587,0.64182 0.077,0.12904 0.1617,0.27728 0.1876,0.32918 0.097,0.19299 0.1916,0.54625 0.2477,0.91829 0.056,0.37258 0.058,0.45378 0.021,0.76739 v 0 c -0.019,0.15786 -0.044,0.38217 -0.055,0.49868 l -0.021,0.21187 -0.051,-0.0636 c -0.028,-0.0349 -0.079,-0.1153 -0.114,-0.1788 -0.035,-0.0634 -0.1111,-0.18388 -0.1691,-0.26768 -0.1124,-0.16265 -0.3723,-0.68222 -0.5567,-1.11311 -0.061,-0.14331 -0.1418,-0.30582 -0.1786,-0.36122 -0.037,-0.0553 -0.074,-0.11414 -0.084,-0.13074 -0.021,-0.0377 -0.1174,-0.0394 -0.1735,-0.002 -0.1164,0.0773 -0.1117,0.13366 0.032,0.3974 0.1262,0.23156 0.1521,0.30023 0.1111,0.30023 -0.053,0 -0.4117,-0.10049 -0.5503,-0.15399 -1.0059997,-0.38843 -1.5480997,-1.16163 -1.2490997,-1.78077 0.021,-0.042 0.044,-0.0822 0.071,-0.12092 1.0310997,-0.29879 2.1211997,-0.45940998 3.2487997,-0.45940998 z m -2.2945,0.46095998 c -0.1135,-0.003 -0.2225,0.0158 -0.3048,0.0584 -0.091,0.047 -0.2544997,0.18731 -0.2644997,0.22221 -0.01,0.0434 0.1721997,0.22129 0.3518997,0.34623 0.191,0.13276 0.2114,0.14306 0.3116,0.15917 v 5.3e-4 c 0.046,0.007 0.1456,0.0102 0.2218,0.006 0.1251,-0.006 0.1524,-0.0137 0.2965,-0.0858 0.1477,-0.0737 0.1538,-0.0833 0.1638,-0.13281 0.01,-0.0604 -0.018,-0.0998 -0.1685,-0.27543 -0.1199,-0.14047 -0.1439,-0.15987 -0.2733,-0.22118 -0.1019,-0.0482 -0.2207,-0.0741 -0.3345,-0.0775 z m 4.5895,0 c -0.1138,0.003 -0.232,0.0298 -0.3339,0.078 -0.1296,0.0613 -0.1535,0.0807 -0.2733,0.22117 -0.1503,0.17561 -0.1786,0.21514 -0.1686,0.27544 0.01,0.0492 0.016,0.0586 0.1604,0.13074 0.085,0.0428 0.1775,0.0813 0.2056,0.0853 0.088,0.013 0.3574,-0.005 0.4124,-0.0284 0.1744,-0.0729 0.579,-0.4166 0.5668,-0.4811 -0.01,-0.0348 -0.1736,-0.17573 -0.2646,-0.22273 -0.082,-0.0426 -0.1913,-0.0618 -0.3048,-0.0584 z m -7.0185997,0.58652 c 0.145,-0.001 0.2778,0.008 0.3508,0.0264 0.1292,0.0335 0.3231,0.14481 0.4202,0.24081 0.217,0.21587 0.436,0.58318 0.4852,0.81442 0.016,0.0716 0.038,0.16289 0.051,0.20309 0.013,0.0402 0.024,0.0823 0.024,0.0946 0,0.011 0,0.0203 -0.013,0.0196 -0.04,-0.005 -0.5506,-0.17605 -0.6962,-0.23255 -0.3963,-0.15382 -0.6106,-0.23353 -0.7741,-0.28783 -0.3022,-0.1005 -0.6025,-0.26471 -0.6827,-0.37311 -0.026,-0.0346 -0.034,-0.0792 -0.031,-0.12609 0.2431,-0.13324 0.4913,-0.25813 0.7448,-0.37414 0.041,-0.002 0.082,-0.005 0.1214,-0.005 z m 9.4482997,5.3e-4 c 0.04,2.7e-4 0.081,0.003 0.1219,0.005 0.2532,0.11599 0.501405,0.24093 0.744305,0.37414 0,0.0469 -0.01,0.0915 -0.031,0.12609 -0.08,0.10837 -0.380505,0.27257 -0.682705,0.3731 -0.1637,0.0544 -0.3818,0.13536 -0.7747,0.28784 -0.095,0.037 -0.282,0.10145 -0.4159,0.14315 v 5.3e-4 c -0.1339,0.0417 -0.2548,0.0803 -0.2677,0.0853 -0.031,0.0119 -0.031,-0.0168 0,-0.11058 0.013,-0.0401 0.036,-0.13149 0.051,-0.20309 0.049,-0.23123 0.2678,-0.59856 0.4847,-0.81442 0.097,-0.0961 0.2916,-0.20741 0.4207,-0.24082 0.073,-0.0191 0.2059,-0.0277 0.3509,-0.0263 z m -11.3987994,1.07487 c 0.068,10e-4 0.1463,0.008 0.2421,0.0176 0.3454997,0.0346 0.5436997,0.0829 0.7965997,0.19534 0.1043,0.0463 0.3009,0.1226 0.4369,0.1695 0.3143,0.10851 0.5678,0.21645 0.685,0.29145 0.1516,0.0971 0.4188,0.41437 0.517,0.61495 0.036,0.0722 0.1243,0.45725 0.1243,0.53795 0,0.0582 -0.1026,0.13569 -0.232,0.17519 -0.1619,0.0495 -0.2294,0.0909 -0.2294,0.14159 0,0.0528 0.024,0.0687 0.14,0.0977 0.1074,0.0266 0.1725,0.0358 0.4368,0.061 0.1876,0.0178 0.3267,0.0579 0.4479,0.12815 0.1283,0.0746 0.3628,0.23608 0.4376,0.30128 0.072,0.0621 0.4550997,0.2807 0.6058997,0.3452 0.1093,0.0468 0.444,0.17262 0.5271,0.19792 0.036,0.011 0.088,0.0398 0.1151,0.0641 0.027,0.0243 0.087,0.0733 0.1317,0.10904 0.1054,0.0832 0.4858,0.46178 0.5297,0.52659 0.044,0.065 0.1498,0.26727 0.1718,0.32918 0.013,0.0387 0.021,0.0434 0.033,0.0243 0.016,-0.0179 0.016,-0.0115 0.016,0.0253 0,0.0272 0.011,0.11266 0.024,0.18966 0.013,0.077 0.039,0.28123 0.057,0.45372 0.034,0.32349 0.028,0.56807 -0.016,0.73277 -0.016,0.0614 -0.021,0.0656 -0.079,0.0651 -0.1082,-7.9e-4 -0.172,-0.0545 -0.332,-0.27957 -0.1323,-0.18585 -0.475,-0.52384 -0.6477,-0.63924 -0.3982,-0.26587 -1.0601997,-0.55402 -1.5573997,-0.67851 -0.182,-0.0456 -0.2786,-0.0851 -0.4072,-0.1664 -0.1489,-0.0939 -0.3471,-0.31275 -0.4363,-0.48059 -0.039,-0.0745 -0.1137,-0.19528 -0.1659,-0.26768 -0.052,-0.0725 -0.1188,-0.17241 -0.1487,-0.22221 -0.064,-0.10622 -0.2783,-0.35675 -0.4402,-0.5147 -0.073,-0.0708 -0.1484,-0.12614 -0.2075,-0.15244 -0.094,-0.0415 -0.2121,-0.0538 -0.255,-0.0264 -0.037,0.0235 -0.013,0.1437 0.046,0.2217 0.028,0.0373 0.074,0.10884 0.1034,0.15864 0.029,0.0498 0.087,0.12782 0.1291,0.17312 0.1101,0.11842 0.2977,0.38012 0.3226,0.45062 0.028,0.0789 0.028,0.12322 0,0.19172 -0.021,0.0483 -0.037,0.0596 -0.1178,0.0832 -0.053,0.0156 -0.1238,0.0236 -0.1619,0.0196 -0.093,-0.0106 -0.4662,-0.17182 -0.7348,-0.3173 -0.1222,-0.0663 -0.3259,-0.16264 -0.4521,-0.21394 -0.5534997,-0.22512 -0.9027997,-0.45279 -1.2752997,-0.83147 -0.2844,-0.28891 -0.4527,-0.52637 -0.5138,-0.72295 -0.058,-0.18877 -0.071,-0.31009 -0.035,-0.47956 0.417,-0.3986 0.8642,-0.76612 1.3367,-1.09967 0.011,-3e-5 0.021,-8e-4 0.032,-5.3e-4 z m 13.3487044,5.3e-4 c 0.011,-2.4e-4 0.021,5.3e-4 0.033,5.3e-4 0.4723,0.33338 0.9189,0.70083 1.3356,1.09916 0.037,0.16969 0.024,0.29093 -0.034,0.48007 -0.061,0.19628 -0.2296,0.43369 -0.5138,0.72244 -0.3725,0.3787 -0.7221,0.60687 -1.2753,0.83199 -0.1262,0.0513 -0.3299,0.14712 -0.4522,0.21342 -0.2685,0.14549 -0.641905,0.30681 -0.734705,0.31781 -0.038,0.004 -0.1088,-0.005 -0.1619,-0.0202 -0.081,-0.0235 -0.098,-0.0353 -0.1178,-0.0837 -0.029,-0.0685 -0.029,-0.11292 0,-0.19172 0.024,-0.0704 0.2125,-0.33164 0.3225,-0.45011 0.042,-0.0453 0.1001,-0.12331 0.1292,-0.17311 0.029,-0.0499 0.075,-0.12145 0.103405,-0.15865 0.058,-0.0779 0.083,-0.19829 0.046,-0.22169 -0.043,-0.0275 -0.161105,-0.0157 -0.255105,0.0258 -0.059,0.0263 -0.1344,0.0817 -0.2074,0.15244 -0.1617,0.15794 -0.3762,0.40903 -0.4403,0.51522 -0.03,0.0498 -0.097,0.14971 -0.1487,0.22221 -0.052,0.0725 -0.127,0.19266 -0.1659,0.26717 -0.089,0.16782 -0.2873,0.3872 -0.4363,0.4811 -0.1285,0.0813 -0.2251,0.1209 -0.4072,0.1664 -0.4971,0.12449 -1.1591,0.41263 -1.5573,0.67851 -0.1728,0.11534 -0.5154,0.4534 -0.6477,0.63924 -0.1138,0.1597 -0.1773,0.22858 -0.2413,0.26148 v 5.3e-4 c -0.019,0.009 -0.062,0.0186 -0.094,0.0186 -0.054,0 -0.06,-0.005 -0.076,-0.0661 -0.044,-0.1647 -0.05,-0.40929 -0.016,-0.73277 0.018,-0.17249 0.043,-0.3762 0.057,-0.4532 0.013,-0.077 0.024,-0.16245 0.024,-0.18965 0,-0.0363 0.01,-0.0433 0.016,-0.0253 0.013,0.019 0.018,0.014 0.033,-0.0248 0.021,-0.0619 0.1276,-0.26409 0.1718,-0.32918 0.044,-0.0649 0.4244,-0.44287 0.5297,-0.52607 0.045,-0.0358 0.1047,-0.0853 0.1317,-0.10955 0.027,-0.0243 0.079,-0.0531 0.1151,-0.0641 0.083,-0.0253 0.4178,-0.15102 0.5271,-0.19792 0.1508,-0.0645 0.5347,-0.2831 0.6059,-0.3452 0.075,-0.0651 0.3093,-0.22678 0.4376,-0.30128 0.1209,-0.0704 0.2603,-0.11025 0.4479,-0.12815 0.2643,-0.0252 0.3294,-0.034 0.4368,-0.0605 0.117,-0.029 0.1395,-0.0454 0.1395,-0.0982 0,-0.0507 -0.066,-0.092 -0.2289,-0.14159 -0.1294,-0.0395 -0.232,-0.11699 -0.232,-0.17519 0,-0.0806 0.089,-0.46575 0.1243,-0.53795 0.099,-0.20058 0.3652,-0.51785 0.517,-0.61495 0.117,-0.075 0.3704,-0.18241 0.6845,-0.29094 0.136005,-0.047 0.332605,-0.1232 0.436805,-0.1695 0.253,-0.11235 0.4517,-0.16125 0.7975,-0.19585 0.095,-0.01 0.1736,-0.0156 0.2418,-0.017 z m -13.3146044,0.42582 c -0.064,5.2e-4 -0.1341,0.008 -0.232,0.0212 -0.2585,0.0341 -0.5101,0.15155 -0.6398,0.2992 -0.058,0.0654 -0.059,0.0739 -0.026,0.13798 0.03,0.0585 0.2182,0.13423 0.4225,0.17053 v 0 c 0.076,0.0133 0.1693,0.0256 0.2064,0.0264 0.1042,0.002 0.5666997,-0.13704 0.7206997,-0.21704 0.1278,-0.0665 0.29,-0.20004 0.29,-0.23874 0,-0.0296 -0.049,-0.0703 -0.085,-0.0703 -0.019,0 -0.1466,-0.0294 -0.2857,-0.0656 -0.1740997,-0.0453 -0.2645997,-0.0643 -0.3717997,-0.0636 z m 13.2810044,0 c -0.1071,-8e-4 -0.1971,0.0183 -0.3712,0.0636 -0.1391,0.0362 -0.2683,0.0656 -0.2862,0.0656 -0.036,0 -0.085,0.0407 -0.085,0.0703 0,0.0387 0.1619,0.17224 0.29,0.23874 0.078,0.0408 0.2392,0.10015 0.3876,0.14315 v 0 c 0.2868,0.0832 0.3117,0.0854 0.5257,0.0486 0.2172,-0.0373 0.4056,-0.11107 0.4366,-0.17157 0.033,-0.0641 0.031,-0.0726 -0.026,-0.13797 -0.1296,-0.14764 -0.3807,-0.26511 -0.6392,-0.29921 -0.098,-0.0129 -0.1686,-0.0208 -0.2326,-0.0212 z m -8.710605,0.26509 c 0.05,-0.004 0.1225,0.0181 0.2083,0.0661 0.1238,0.0694 0.3849,0.24936 0.4902,0.33797 0.1114,0.0936 0.3456,0.37854 0.4168,0.50642 0.03,0.0544 0.1119,0.18413 0.1828,0.28836 0.1656,0.24467 0.1913,0.34335 0.2124,0.80667 v 0 c 0.011,0.17629 0.011,0.32259 0.011,0.32659 -0.01,0.008 -0.1378,-0.18964 -0.2119,-0.32608 -0.032,-0.0589 -0.1117,-0.17281 -0.1767,-0.25321 -0.065,-0.0804 -0.1517,-0.20175 -0.1916,-0.26975 -0.04,-0.0679 -0.1267,-0.19485 -0.1918,-0.28215 -0.065,-0.0873 -0.1411,-0.19173 -0.168,-0.23203 -0.027,-0.0403 -0.098,-0.12556 -0.1569,-0.18965 -0.059,-0.0641 -0.1323,-0.15324 -0.1636,-0.19844 -0.031,-0.0452 -0.086,-0.11955 -0.1243,-0.16485 -0.1016,-0.12155 -0.1905,-0.26616 -0.2006,-0.32866 -0.01,-0.054 0.016,-0.0835 0.067,-0.0873 z m 4.1402,0 c 0.05,0.004 0.076,0.0334 0.067,0.0873 -0.011,0.0625 -0.098,0.20712 -0.2005,0.32866 -0.038,0.0454 -0.094,0.11965 -0.1249,0.16485 -0.031,0.0452 -0.1043,0.13434 -0.1633,0.19844 -0.059,0.0641 -0.1296,0.14935 -0.1566,0.18965 -0.027,0.0402 -0.1029,0.14472 -0.168,0.23203 -0.065,0.0873 -0.1522,0.21415 -0.1924,0.28215 -0.04,0.0679 -0.1267,0.18935 -0.1915,0.26975 -0.065,0.0804 -0.1448,0.19431 -0.1768,0.25321 -0.032,0.0589 -0.091,0.1575 -0.1307,0.2186 v 0 c -0.039,0.0611 -0.08,0.1111 -0.08,0.1111 -0.011,0 -0.011,-0.0985 0,-0.21859 0.024,-0.56715 0.045,-0.66076 0.2196,-0.91829 0.071,-0.10422 0.1534,-0.23395 0.1833,-0.28836 0.071,-0.12788 0.3048,-0.41272 0.4162,-0.50642 0.1053,-0.0887 0.3665,-0.26857 0.4903,-0.33797 0.086,-0.048 0.1593,-0.07 0.2087,-0.0661 z m -5.7546997,0.27802 c 0.2255,0.009 0.7179,0.21208 0.9758,0.40825 0.2026997,0.15406 0.8016997,0.75608 0.9765997,0.98133 0.1781,0.22967 0.2159,0.29153 0.2728,0.44184 v 0 c 0.049,0.13 0.044,0.13353 -0.1058,0.0687 -0.05,-0.0217 -0.1315,-0.0515 -0.1815,-0.0662 -0.1146,-0.0341 -0.7364,-0.33999 -0.9256,-0.45527 -0.2703997,-0.1649 -0.5325997,-0.35528 -0.6560997,-0.47646 -0.1156,-0.11355 -0.1344,-0.14245 -0.2863,-0.44389 -0.1167,-0.23141 -0.1633,-0.34046 -0.1643,-0.38706 0,-0.0612 -3e-4,-0.0653 0.053,-0.0703 0.013,-0.001 0.026,-0.002 0.041,-0.001 z m 7.3691997,0 c 0.016,-5.3e-4 0.029,-1.6e-4 0.041,10e-4 0.053,0.005 0.053,0.008 0.053,0.0703 0,0.0466 -0.048,0.15565 -0.1649,0.38706 -0.1518,0.30145 -0.1703,0.33034 -0.2862,0.4439 -0.1236,0.12122 -0.3855,0.31157 -0.6557,0.47645 -0.1807,0.11012 -0.8133,0.42311 -0.9033,0.44701 -0.038,0.01 -0.1217,0.0401 -0.1876,0.0672 -0.1701,0.0698 -0.1709,0.0693 -0.1219,-0.0615 0.057,-0.15029 0.094,-0.21215 0.2728,-0.44183 0.1749,-0.22524 0.7741,-0.82727 0.9765,-0.98134 0.258,-0.19618 0.7504,-0.3994 0.9758,-0.40824 z m 1.2499,0.0837 c -0.2664,-0.002 -0.3873,0.0391 -0.3873,0.12971 0,0.0751 0.056,0.17045 0.2106,0.35863 0.2712,0.32942 0.527005,0.49882 0.802705,0.53072 v -5.3e-4 c 0.1577,0.0185 0.6699,0.0177 0.7369,-0.001 0.1159,-0.0323 0.1389,-0.12539 0.077,-0.31057 -0.03,-0.089 -0.057,-0.1277 -0.1934,-0.26924 -0.087,-0.0908 -0.199,-0.19232 -0.249,-0.22582 -0.19,-0.12745 -0.445,-0.18836 -0.873405,-0.20826 -0.044,-0.002 -0.086,-0.003 -0.1236,-0.004 z m -9.8612997,5.3e-4 c -0.2611,-0.004 -0.5982,0.0348 -0.7953,0.10697 -0.1664,0.0609 -0.2757,0.13929 -0.4588,0.33021 -0.1357,0.14154 -0.1638,0.18024 -0.1939,0.26924 -0.06,0.18017 -0.039,0.27707 0.069,0.31057 v 5.3e-4 c 0.031,0.009 0.2058,0.0138 0.4238,0.01 0.3197,-0.005 0.3861,-0.0106 0.4789,-0.0403 0.2062,-0.0656 0.4321,-0.241 0.6446,-0.4992 0.2087,-0.2544 0.2585,-0.37791 0.1735,-0.43201 -0.056,-0.0355 -0.1849,-0.0533 -0.3415,-0.0558 z m -3.7641997,0.71778 c 0.018,0.006 0.038,0.014 0.063,0.0264 0.1405,0.0688 0.2789,0.22862 0.4083,0.4718 0.1397,0.2558 0.1561,0.31456 0.1302,0.37776 -0.035,0.0854 -0.082,0.11294 -0.2379,0.14004 -0.2728,0.0476 -0.6961,0.014 -0.8334,-0.0661 -0.031,-0.0184 -0.08,-0.0655 -0.1069,-0.10439 -0.026,-0.0356 -0.037,-0.0567 -0.043,-0.0894 0.1961,-0.26083 0.4027,-0.51288 0.6194,-0.75603 z m 17.3815044,5.3e-4 c 0.2167,0.243 0.4242,0.49485 0.62,0.75551 -0.01,0.033 -0.019,0.0548 -0.044,0.0909 -0.068,0.0977 -0.1457,0.13625 -0.3368,0.16795 -0.1958,0.0324 -0.4381,0.0328 -0.617,5.3e-4 -0.1392,-0.0252 -0.1892,-0.056 -0.2233,-0.13901 -0.027,-0.0633 -0.01,-0.12197 0.1302,-0.37775 0.1294,-0.24317 0.2672,-0.40311 0.4077,-0.47181 0.026,-0.0122 0.045,-0.0202 0.063,-0.0264 z m -11.6318047,1.25316 c -0.3882,5.3e-4 -0.7493,0.15421 -0.7493,0.31884 0,0.10916 0.1238,0.2338 0.2852,0.2868 v 0 c 0.2087,0.0686 0.7791997,-0.0861 0.9709997,-0.26303 0.1045,-0.0969 0.074,-0.17608 -0.1003,-0.26458 -0.1164,-0.0589 -0.2158997,-0.0782 -0.4071997,-0.078 z m 5.8884997,0 c -0.2029,-5.3e-4 -0.3101,0.0214 -0.4347,0.0904 -0.1804,0.0998 -0.1844,0.18309 -0.013,0.29972 0.1241,0.085 0.3088,0.15779 0.5165,0.20309 0.2103,0.0461 0.3492,0.0384 0.4738,-0.0253 0.1164,-0.0595 0.2019,-0.16415 0.2019,-0.24805 0,-0.1647 -0.3577,-0.31887 -0.7435,-0.31987 z m -12.0008994,0.29558 c 0.099,-0.002 0.2219,-10e-4 0.3865,0 0.7263,0.004 1.1478,0.0254 1.3375,0.0682 0.089,0.02 0.2291,0.0726 0.3709,0.13901 0.4255,0.19907 0.6717997,0.31005 0.8522997,0.38395 0.099,0.0406 0.2283,0.098 0.2883,0.12764 0.06,0.0298 0.1641,0.075 0.2321,0.10026 0.068,0.0253 0.2106,0.0823 0.3167,0.1266 0.1061,0.0443 0.2783,0.10218 0.3828,0.12868 0.1046,0.0267 0.2032,0.0551 0.2191,0.0641 0.016,0.009 0.089,0.0278 0.1609,0.0424 0.3545,0.0717 0.6855,0.16385 0.8567,0.23875 0.1,0.0436 0.2138,0.0839 0.2527,0.0899 0.077,0.0117 0.527,0.18097 0.6604,0.24857 0.1676997,0.085 0.5261997,0.34106 0.7116997,0.50849 0.3736,0.33762 0.7686,0.90273 0.8708,1.2459197 0.018,0.0675 0.064,0.17862 0.099,0.24702 0.1181,0.23527 0.2347,0.64554 0.2988,1.04438 0.056,0.35585 0.062,0.42621 0.08,0.93327 0.01,0.26733 0.029,0.60485 0.044,0.74983 0.028,0.28045 0.024,0.55214 -0.011,1.02836 -0.011,0.13967 -0.018,0.35488 -0.011,0.47801 0.01,0.12312 0.016,0.56822 0.026,0.9896 0.01,0.421366 0.021,0.851266 0.032,0.955496 0.019,0.22835 0.021,0.75639 0,0.97255 -0.01,0.0861 -0.024,0.60985 -0.034,1.16427 -0.016,0.93032 -0.016,1.03148 0.01,1.30999 0.046,0.47108 0.034,0.82913 -0.04,1.21543 -0.011,0.0494 -0.028,0.17537 -0.041,0.28009 -0.06,0.48198 -0.1291,0.96221 -0.159,1.11259 -0.067,0.33355 -0.1511,0.64577 -0.2032,0.7581 -0.132,0.28298 -0.4731,0.51514 -0.9559,0.6506 l -0.011,-5.3e-4 c -0.3003,0.0843 -0.4712,0.0507 -1.0961997,-0.21394 -0.4315,-0.18276 -0.6607,-0.32864 -0.8713,-0.55397 -0.3116,-0.33402 -0.3654,-0.78893 -0.1431,-1.22266 0.083,-0.16094 0.2662,-0.29183 0.4683,-0.33383 0.093,-0.0194 0.1577,-0.0658 0.1479,-0.10904 -0.011,-0.0581 -0.093,-0.0956 -0.2085,-0.0956 -0.097,0 -0.1283,0.009 -0.2664,0.076 -0.2035,0.0991 -0.3805,0.23428 -0.5866,0.44649 l -0.1669,0.17156 -0.011,-0.108 c -0.04,-0.42513 0.024,-0.63449 0.2804,-0.90641 0.098,-0.10409 0.1667,-0.16128 0.2326,-0.19378 0.089,-0.0434 0.1085,-0.0473 0.3826,-0.0543 l 0.2881,-0.009 0.011,-0.0517 c 0.01,-0.0603 -0.053,-0.14025 -0.1244,-0.16795 -0.083,-0.0318 -0.3349,-0.0524 -0.449,-0.0356 -0.058,0.009 -0.1095,0.0159 -0.1195,0.016 -0.031,7.9e-4 -0.01,-0.0819 0.045,-0.15968 0.07,-0.10352 0.2263,-0.21762 0.3675,-0.26872 0.093,-0.0339 0.1133,-0.0361 0.2125,-0.0196 0.06,0.0104 0.1135,0.0154 0.1233,0.0104 0.021,-0.0138 0.016,-0.12952 -0.011,-0.16381 -0.021,-0.0295 -0.016,-0.0351 0.1024,-0.0868 0.1939,-0.0856 0.3008,-0.10771 0.4815,-0.0987 0.1345,0.006 0.1773,0.0161 0.2952997,0.0672 0.1879,0.0812 0.3683,0.19311 0.4869,0.30127 0.1039,0.0956 0.1476,0.11597 0.2055,0.0977 0.083,-0.0264 0.075,-0.18296 -0.016,-0.32815 -0.09,-0.14133 -0.4138,-0.33781 -0.6671,-0.40411 -0.2906997,-0.076 -0.4941997,-0.0765 -0.8478997,-0.001 -0.199,0.0424 -0.2458,0.0581 -0.3845,0.12609 -0.062,0.0305 -0.1304,0.0553 -0.1505,0.0553 -0.061,0 -0.117,-0.058 -0.154,-0.15968 -0.093,-0.25406 -0.2056,-0.35253 -0.417,-0.36483 -0.095,-0.005 -0.114,-7.9e-4 -0.1442,0.0289 -0.019,0.0192 -0.035,0.0416 -0.035,0.0486 0,0.0305 0.07,0.10128 0.1003,0.10128 0.097,0 0.213,0.20882 0.213,0.38189 0,0.0803 0.01,0.0901 0.071,0.15142 l 0.071,0.0656 -0.084,0.0677 c -0.178,0.14403 -0.4209,0.52602 -0.5199,0.81855 -0.1079,0.31774 -0.1926,0.43625 -0.3871,0.5395 -0.085,0.0452 -0.1172,0.0439 -0.1492,-0.005 -0.044,-0.0674 -0.3649,-0.34256 -0.4905,-0.42116 -0.065,-0.0407 -0.1556,-0.10008 -0.2006,-0.13178 -0.094,-0.066 -0.3452997,-0.20705 -0.5026997,-0.28215 -0.059,-0.0281 -0.1836,-0.11065 -0.2765,-0.18345 -0.3032,-0.23697 -0.3717,-0.41028 -0.2717,-0.68368 0.04,-0.10944 0.01,-0.23461 -0.06,-0.23461 -0.037,0 -0.1383,0.10754 -0.1783,0.18914 -0.1143,0.23441 -0.081,0.47922 0.096,0.71882 0.1043,0.14032 0.2064,0.22035 0.4207,0.32814 0.089,0.045 0.1543,0.0817 0.1432,0.0817 -0.011,10e-5 -0.1281,-0.0182 -0.2609,-0.0408 -0.4678,-0.0793 -0.7443,-0.2088 -1.0827,-0.50695 -0.3077,-0.27119 -0.4858,-0.5733 -0.5477,-0.92707 -0.024,-0.14045 -0.021,-0.19773 0.016,-0.3793 0.026,-0.1215 -0.1196,-0.1755 -0.2077,-0.077 -0.064,0.0714 -0.084,0.16607 -0.084,0.35399 0.01,0.45484 0.2376,0.88739 0.6458,1.20302 0.048,0.0359 0.052,0.0442 0.024,0.0444 -0.018,2e-4 -0.087,0.0375 -0.1534,0.0827 -0.063,0.043 -0.1299,0.0778 -0.1545,0.0811 -1.4222,-1.54828 -2.4294,-3.48306 -2.848,-5.629626 0.013,0.002 0.043,-0.007 0.08,-0.0233 0.064,-0.0276 0.098,-0.0328 0.2088,-0.0238 0.2362,0.0175 0.3707,0.0307 0.3707,0.0367 0,0.003 -0.037,0.0619 -0.082,0.13126 -0.092,0.14146 -0.099,0.18257 -0.057,0.3452 0.032,0.12117 0.1661,0.331026 0.263,0.410826 0.078,0.0639 0.1172,0.0754 0.099,0.0294 -0.065,-0.167396 0.045,-0.295686 0.2683,-0.314186 0.105,-0.009 0.2431,0.0193 0.2961,0.06 0.037,0.0288 0.037,0.0288 0.01,0.135386 -0.043,0.16517 -0.013,0.33866 0.087,0.5333 0.016,0.028 0.047,0.10871 0.072,0.17932 0.06,0.16843 0.1162,0.26233 0.2278,0.37982 0.126,0.13244 0.2077,0.1771 0.3421,0.1881 0.079,0.007 0.1072,0.004 0.097,-0.01 -0.024,-0.0386 0.013,-0.0174 0.055,0.031 l 0.042,0.0501 0.1376,-0.0584 c 0.075,-0.0319 0.1558,-0.0579 0.1778,-0.0579 0.021,0 0.049,-0.0101 0.049,-0.0227 0.01,-0.0125 0.031,-0.0266 0.058,-0.0326 0.042,-0.008 0.057,-5.3e-4 0.109,0.0568 0.088,0.097 0.1712,0.13415 0.3209,0.14315 0.1442,0.009 0.2109,-0.003 0.2109,-0.0367 0,-0.0126 -0.026,-0.0308 -0.058,-0.0419 -0.08,-0.0266 -0.1509,-0.0906 -0.1638,-0.14779 -0.01,-0.0264 -0.011,-0.0841 0,-0.12764 0.011,-0.0715 0.024,-0.0917 0.1479,-0.21498 0.1513,-0.15028 0.2836,-0.22548 0.4278,-0.24288 l 0.082,-0.0103 0.036,0.0827 c 0.038,0.0875 0.098,0.1371 0.2027,0.1664 0.081,0.0224 0.097,-0.003 0.044,-0.0661 -0.026,-0.0303 -0.044,-0.0732 -0.045,-0.10387 -0.01,-0.11817 0.01,-0.18669 0.035,-0.24339 0.027,-0.0538 0.042,-0.062 0.1349,-0.0827 0.1654,-0.0366 0.4982,-0.0297 0.7048,0.015 0.2391997,0.0518 0.2283997,0.0444 0.1643997,0.11059 -0.082,0.0842 -0.05,0.0999 0.1002,0.0486 0.181,-0.0625 0.3331,-0.0769 0.584,-0.0568 0.3474,0.0279 0.382,0.04 1.007,0.34727 0.3405,0.16747 0.4267,0.18037 0.7643,0.11317 0.05,-0.01 0.1114,-0.0208 0.1374,-0.0248 0.026,-0.004 0.07,-0.0208 0.097,-0.0382 0.078,-0.0495 0.2263,-0.20123 0.2712,-0.27853 0.04,-0.0676 0.041,-0.076 0.024,-0.21187 -0.01,-0.0778 -0.021,-0.14855 -0.031,-0.15555 -0.01,-0.008 -0.049,0.003 -0.095,0.0263 -0.098,0.05 -0.2009,0.0564 -0.1818,0.0119 0.01,-0.0159 0.021,-0.0708 0.021,-0.12247 0.01,-0.124936 -0.016,-0.155686 -0.1014,-0.119886 -0.032,0.0134 -0.073,0.0243 -0.092,0.0243 -0.032,0 -0.032,-0.003 -0.011,-0.0455 0.038,-0.0758 0.047,-0.13798 0.026,-0.18758 -0.011,-0.0258 -0.024,-0.047 -0.024,-0.047 0,0 -0.029,0.0123 -0.059,0.0274 -0.063,0.0314 -0.2476,0.0731 -0.2675,0.0605 -0.011,-0.005 -0.011,-0.0164 0,-0.0274 0.043,-0.052 0.033,-0.27253 -0.013,-0.28784 -0.01,-0.003 -0.016,-0.017 -0.016,-0.0305 0,-0.0164 -0.016,-0.009 -0.048,0.0238 -0.027,0.0264 -0.071,0.0576 -0.099,0.0687 -0.048,0.0198 -0.055,0.0175 -0.1241,-0.0388 -0.088,-0.0717 -0.2084,-0.21242 -0.2455,-0.28422 -0.088,-0.17283 -0.021,-0.33608 0.1344,-0.33538 0.053,2.6e-4 0.1201,0.0764 0.2,0.22634 0.036,0.0678 0.065,0.10335 0.084,0.10335 0.016,0 0.068,-0.0374 0.1148,-0.0832 0.047,-0.0456 0.092,-0.081 0.092,-0.077 0,0.004 0.016,0.0634 0.026,0.1328 0.013,0.071 0.028,0.12609 0.039,0.12609 0.029,0 0.1874,-0.1746 0.2122,-0.2346 l 0.024,-0.0537 0.019,0.0465 c 0.021,0.0647 0.018,0.25355 -0.011,0.33124 -0.016,0.0357 -0.026,0.0716 -0.016,0.0786 0.016,0.0252 0.108,-0.0432 0.213,-0.15761 l 0.1037,-0.11317 0.013,0.078 v 0.24081 c 0,0.0912 0,0.16279 0.011,0.16279 0.054,0 0.2109,-0.1382 0.2591,-0.2279 0.027,-0.0504 0.081,-0.0453 0.1018,0.01 0.054,0.13167 0.057,0.28204 0.011,0.40359 -0.01,0.0217 0,0.0289 0.019,0.0289 0.057,-1.1e-4 0.136,-0.0644 0.1871,-0.15193 0.046,-0.0758 0.046,-0.10052 0.046,-0.18862 -0.01,-0.1621 0.043,-0.0869 0.071,0.10542 0.016,0.0715 0.013,0.11498 0,0.14418 -0.027,0.0591 -0.01,0.0699 0.064,0.0326 0.077,-0.0415 0.163,-0.15802 0.195,-0.26458 0.024,-0.0834 0.026,-0.0841 0.1688,-0.15141 0.079,-0.0373 0.2275,-0.0971 0.3299,-0.13281 0.1022,-0.0358 0.2112,-0.0848 0.2424,-0.10852 0.031,-0.0237 0.084,-0.0912 0.1167,-0.15038 0.053,-0.0971 0.063,-0.11692 0.053,-0.20412 0,-0.0658 -0.024,-0.12994 -0.06,-0.20154 l -0.053,-0.10542 -0.2587,-0.13797 c -0.6567,-0.35078 -0.7901,-0.43483 -0.9427994,-0.5948 -0.058,-0.061 -0.095,-0.0837 -0.173,-0.10594 -0.054,-0.0156 -0.1095,-0.0344 -0.1236,-0.0434 -0.013,-0.008 -0.06,-0.035 -0.1042,-0.06 -0.3929,-0.22328 -0.5866,-0.37072 -0.6326,-0.48059 -0.013,-0.0324 -0.061,-0.13811 -0.1048,-0.23461 -0.044,-0.0965 -0.095,-0.23704 -0.1138,-0.31264 -0.084,-0.34428 -0.1069,-0.38046 -0.2802,-0.45166 -0.058,-0.0241 -0.1365,-0.0641 -0.1725,-0.0889 -0.036,-0.0248 -0.1222,-0.0769 -0.1902,-0.11576 -0.1926,-0.10991 -0.3855,-0.24039 -0.6096,-0.41289 -0.4114,-0.31664 -0.7199,-0.49866 -1.0134,-0.59686 -0.091,-0.0304 -0.1750997,-0.0612 -0.1872997,-0.0682 -0.038,-0.0235 -0.2738,-0.39471 -0.2939,-0.46302 -0.011,-0.0363 -0.032,-0.12327 -0.046,-0.1932597 -0.021,-0.0986 -0.036,-0.1343 -0.069,-0.1602 -0.024,-0.0184 -0.052,-0.0336 -0.064,-0.0336 -0.034,0 -0.067,-0.0639 -0.089,-0.17002 -0.011,-0.0528 -0.055,-0.181 -0.1,-0.28474 -0.045,-0.10366 -0.1027,-0.26061 -0.1289,-0.34881 -0.072,-0.24038 -0.1736,-0.48454 -0.2548,-0.60927 -0.077,-0.12031 -0.1159,-0.15975 -0.2127,-0.21755 -0.056,-0.0332 -0.068,-0.0349 -0.1127,-0.0165 -0.027,0.0114 -0.068,0.0489 -0.091,0.0832 -0.037,0.0549 -0.044,0.0929 -0.064,0.32763 -0.026,0.3011 -0.049,0.37072 -0.1577,0.46922 l -0.066,0.0594 0.021,0.0961 c 0.016,0.0827 0.016,0.11052 -0.011,0.20102 -0.016,0.058 -0.044,0.13816 -0.061,0.17776 -0.018,0.0396 -0.032,0.0989 -0.032,0.13178 0,0.15842 -0.1011,0.3942797 -0.2254,0.5301997 -0.021,0.0232 -0.038,0.0538 -0.038,0.0687 0,0.015 -0.018,0.048 -0.04,0.0734 -0.039,0.0458 -0.041,0.0465 -0.2344,0.0465 h -0.195 l -0.1595,-0.077 c -0.2072,-0.0996 -0.3009,-0.16266 -0.3958,-0.26665 -0.1228,-0.1343497 -0.1281,-0.0817 -0.011,0.1111 0.09,0.15005 0.1466,0.25989 0.1466,0.28939 0,0.0234 -0.1636,0.10021 -0.2495,0.11731 -0.1292,0.0255 -0.3813,0.004 -0.4274,-0.0357 -0.065,-0.0565 -0.085,-0.002 -0.039,0.108 0.024,0.0489 0.026,0.0656 0.011,0.0853 -0.029,0.035 -0.1294,0.0832 -0.2005,0.0966 -0.066,0.0125 -0.077,0.0341 -0.032,0.0667 0.019,0.0115 0.029,0.0245 0.019,0.0305 -0.026,0.0254 -0.2906,0.0783 -0.3556,0.0713 -0.082,-0.009 -0.089,0.005 -0.044,0.0915 0.016,0.0298 0.028,0.0925 0.028,0.14366 0,0.11067 -0.07,0.25903 -0.2111,0.44545 -0.051,0.0675 -0.1029,0.14488 -0.1148,0.17208 -0.013,0.0272 -0.055,0.0874 -0.095,0.13384 -0.1104,0.12709 -0.1874,0.23878 -0.2085,0.30128 -0.021,0.0696 -0.024,0.32213 0,0.36483 0.016,0.022 0.013,0.0644 0,0.13901 -0.019,0.1003 -0.024,0.10749 -0.064,0.10749 -0.021,0 -0.076,-0.0197 -0.1275,-0.0439 0,-0.0292 0,-0.0581 0,-0.0873 0,-2.16503 0.5906,-4.1912797 1.6185,-5.9272797 0.114,-0.0554 0.2299,-0.10796 0.304,-0.13437 0.2947,-0.10577 0.3688,-0.13253 0.6649,-0.13745 z m 17.7260044,5.3e-4 c 0.6583,-0.003 0.6583,-0.003 1.0517,0.13694 0.072,0.0259 0.1855,0.0772 0.2971,0.13126 1.0295,1.73668 1.6206,3.7640897 1.6206,5.9303897 0,0.0301 0,0.0599 0,0.0899 -0.051,0.0231 -0.1021,0.0413 -0.1225,0.0413 -0.041,0 -0.045,-0.007 -0.064,-0.10697 -0.011,-0.0747 -0.013,-0.11701 0,-0.13901 0.026,-0.0428 0.024,-0.29575 0,-0.36535 -0.021,-0.0625 -0.098,-0.17368 -0.2083,-0.30076 -0.04,-0.0464 -0.083,-0.10654 -0.095,-0.13384 -0.013,-0.0272 -0.064,-0.1051 -0.1149,-0.1726 -0.1415,-0.1864 -0.2124,-0.33483 -0.2119,-0.44545 0,-0.0511 0.013,-0.11345 0.029,-0.14314 0.045,-0.0857 0.038,-0.10099 -0.044,-0.092 -0.065,0.007 -0.3308,-0.0453 -0.3556,-0.0708 -0.01,-0.005 0,-0.0199 0.019,-0.031 0.045,-0.0328 0.035,-0.0537 -0.032,-0.0661 -0.071,-0.0134 -0.1715,-0.0616 -0.2006,-0.0966 -0.021,-0.0196 -0.019,-0.0369 0,-0.0858 0.046,-0.10967 0.026,-0.16398 -0.039,-0.10748 -0.046,0.0402 -0.2979,0.0605 -0.427,0.0351 -0.086,-0.0169 -0.2495,-0.0934 -0.2495,-0.11679 0,-0.0294 0.056,-0.13934 0.1468,-0.28939 0.1175,-0.1929097 0.1117,-0.2454997 -0.01,-0.1111 -0.095,0.10398 -0.1887,0.16705 -0.3959,0.26665 l -0.1598,0.0765 h -0.1947 c -0.1929,0 -0.1955,-2e-4 -0.2347,-0.046 -0.021,-0.0254 -0.04,-0.0585 -0.04,-0.0734 0,-0.0148 -0.019,-0.0461 -0.039,-0.0692 -0.1241,-0.13592 -0.2241,-0.3717697 -0.2246,-0.5301997 0,-0.0328 -0.016,-0.0921 -0.032,-0.13178 -0.019,-0.0397 -0.045,-0.11925 -0.061,-0.17725 -0.026,-0.0905 -0.027,-0.11893 -0.01,-0.20153 l 0.019,-0.0961 -0.066,-0.0594 c -0.1096,-0.0985 -0.1326,-0.16761 -0.1575,-0.46871 -0.021,-0.23469 -0.028,-0.27314 -0.064,-0.32814 -0.021,-0.0341 -0.063,-0.0717 -0.091,-0.0827 -0.045,-0.0184 -0.058,-0.0167 -0.1127,0.0165 -0.097,0.0578 -0.135,0.0974 -0.213,0.21756 -0.081,0.12473 -0.1828,0.36888 -0.2548,0.60927 -0.026,0.0882 -0.084,0.24507 -0.1291,0.34881 -0.044,0.10366 -0.089,0.23142 -0.1003,0.28422 -0.021,0.10606 -0.055,0.17002 -0.089,0.17002 -0.013,0 -0.042,0.0153 -0.065,0.0336 -0.033,0.0258 -0.049,0.062 -0.069,0.16071 -0.013,0.07 -0.035,0.1570697 -0.046,0.1932697 -0.021,0.0683 -0.2559,0.43891 -0.294,0.4625 -0.013,0.007 -0.096,0.0382 -0.187,0.0687 -0.2934,0.0983 -0.6025,0.28021 -1.0139,0.59687 -0.224105,0.17249 -0.416705,0.30301 -0.609305,0.41289 -0.068,0.0388 -0.1532,0.0904 -0.19,0.11524 -0.037,0.0247 -0.1143,0.0647 -0.1733,0.0889 -0.1733,0.0713 -0.195,0.1074 -0.2799,0.45166 -0.019,0.0757 -0.07,0.21665 -0.1138,0.31315 -0.043,0.0965 -0.09,0.2017 -0.1045,0.2341 -0.046,0.10993 -0.2395,0.25785 -0.6324,0.48111 -0.043,0.0249 -0.091,0.0509 -0.1045,0.0599 -0.013,0.008 -0.069,0.0273 -0.1236,0.0429 -0.078,0.0223 -0.115,0.0449 -0.173,0.10594 -0.1527,0.15997 -0.2857,0.24402 -0.9424,0.5948 l -0.2591,0.13849 -0.053,0.1049 c -0.036,0.0715 -0.05,0.13574 -0.06,0.20154 -0.01,0.0872 0,0.10702 0.053,0.20412 0.033,0.0591 0.086,0.1272 0.1167,0.1509 0.031,0.0239 0.14,0.0723 0.2424,0.108 0.1021,0.0358 0.2508,0.0955 0.3297,0.13281 0.1428,0.0674 0.1439,0.0679 0.169,0.15141 0.032,0.10662 0.1172,0.22308 0.1942,0.26458 0.072,0.0382 0.089,0.0275 0.062,-0.0372 -0.013,-0.038 -0.011,-0.0693 0.011,-0.15865 0.037,-0.1606 0.057,-0.18653 0.058,-0.0749 0,0.10997 0.072,0.24734 0.1534,0.29714 0.067,0.041 0.1186,0.043 0.1035,0.005 -0.024,-0.0719 -0.044,-0.1833 -0.034,-0.2434 0.013,-0.0791 0.057,-0.22585 0.074,-0.24495 0.01,-0.007 0.03,0.015 0.051,0.0496 0.077,0.12427 0.2164,0.25218 0.2754,0.25218 0.011,0 0.011,-0.0721 0.011,-0.16329 -0.011,-0.0897 -0.011,-0.19802 0,-0.24082 l 0.013,-0.0775 0.1038,0.11317 c 0.105,0.11454 0.1971,0.18281 0.2129,0.15761 0,-0.008 0,-0.0428 -0.016,-0.0785 -0.035,-0.10123 -0.029,-0.35296 0.011,-0.35296 0.01,0 0.013,0.0147 0.024,0.0331 0.013,0.0424 0.187,0.23048 0.2119,0.23048 0.011,0 0.027,-0.0524 0.039,-0.1261 0.013,-0.0694 0.027,-0.1288 0.027,-0.1328 0,-0.004 0.045,0.0307 0.092,0.0765 0.047,0.0458 0.099,0.0832 0.1151,0.0832 0.019,0 0.048,-0.035 0.084,-0.10284 0.079,-0.14985 0.1474,-0.22597 0.2005,-0.22634 0.1572,-10e-4 0.2223,0.16255 0.1342,0.33538 -0.036,0.0723 -0.1585,0.21245 -0.2474,0.28525 l -0.074,0.061 -0.073,-0.0388 c -0.041,-0.0214 -0.08,-0.053 -0.09,-0.0698 -0.013,-0.0264 -0.021,-0.0271 -0.04,-0.007 -0.053,0.0536 -0.068,0.26211 -0.021,0.31781 0.011,0.0104 0.011,0.0224 0,0.0274 -0.021,0.0125 -0.2048,-0.0291 -0.2677,-0.0605 -0.031,-0.0151 -0.059,-0.0274 -0.059,-0.0274 0,0 -0.013,0.0212 -0.024,0.047 -0.021,0.0496 -0.013,0.11189 0.027,0.18759 0.021,0.0413 0.021,0.0455 -0.011,0.0455 -0.019,0 -0.06,-0.0108 -0.092,-0.0243 -0.086,-0.0358 -0.1125,-0.005 -0.1014,0.119886 0,0.0517 0.011,0.10668 0.021,0.12248 0.019,0.0441 -0.083,0.0373 -0.1815,-0.0124 -0.046,-0.0243 -0.085,-0.0348 -0.095,-0.0259 -0.01,0.008 -0.021,0.0778 -0.031,0.15554 -0.016,0.13593 -0.016,0.14428 0.024,0.21188 0.045,0.0773 0.1936,0.22903 0.2717,0.27854 0.028,0.0173 0.071,0.0342 0.097,0.0382 0.026,0.004 0.088,0.0148 0.1375,0.0248 0.3374,0.067 0.4239,0.0542 0.7642,-0.11318 0.6249,-0.30719 0.6598,-0.31926 1.007205,-0.34726 0.2509,-0.0202 0.403,-0.005 0.584,0.0568 0.1503,0.0515 0.1823,0.0356 0.1002,-0.0486 -0.064,-0.0663 -0.075,-0.0588 0.1644,-0.11059 0.2063,-0.0447 0.54,-0.0517 0.7053,-0.015 0.093,0.0208 0.1064,0.0288 0.1344,0.0827 0.024,0.0567 0.035,0.12478 0.035,0.24288 0,0.0307 -0.019,0.0741 -0.045,0.10438 -0.053,0.0641 -0.036,0.0888 0.044,0.0662 0.1045,-0.0293 0.1645,-0.079 0.2024,-0.1664 l 0.036,-0.0827 0.082,0.0103 c 0.1442,0.0175 0.2767,0.0925 0.4278,0.24288 0.1244,0.12321 0.1384,0.14338 0.1484,0.21498 0.011,0.0435 0.011,0.10062 0,0.12712 -0.013,0.0573 -0.083,0.1212 -0.1643,0.1478 -0.032,0.0105 -0.058,0.0296 -0.058,0.0424 0,0.0327 0.067,0.0457 0.2108,0.0367 0.1495,-0.009 0.2329,-0.0461 0.3207,-0.14314 0.052,-0.0573 0.067,-0.0658 0.109,-0.0568 0.027,0.005 0.048,0.0201 0.058,0.0326 0.01,0.013 0.027,0.0227 0.049,0.0227 0.021,0 0.1026,0.0264 0.1778,0.0584 l 0.1373,0.0584 0.042,-0.0501 c 0.041,-0.0483 0.079,-0.0702 0.055,-0.0315 -0.01,0.014 0.016,0.0163 0.097,0.0103 0.1344,-0.0108 0.2159,-0.0557 0.3421,-0.1881 0.1117,-0.11744 0.1678,-0.2114 0.2278,-0.37982 0.024,-0.0707 0.058,-0.15132 0.072,-0.17932 0.101,-0.19465 0.1288,-0.36864 0.087,-0.53382 -0.028,-0.106456 -0.028,-0.106486 0.01,-0.135386 0.053,-0.0408 0.1911,-0.0689 0.2961,-0.0599 0.2231,0.0185 0.3331,0.1468 0.268,0.314186 -0.018,0.0459 0.021,0.0344 0.099,-0.0295 0.097,-0.0798 0.2321,-0.289126 0.2633,-0.410306 0.042,-0.16262 0.035,-0.20374 -0.057,-0.34519 -0.045,-0.0693 -0.082,-0.12978 -0.082,-0.13178 0,-0.005 0.1342,-0.0186 0.3707,-0.0362 0.1106,-0.008 0.1447,-0.005 0.2088,0.0233 0.042,0.0186 0.076,0.0298 0.086,0.0237 0,-10e-4 0,-0.003 0,-0.004 -0.4185,2.148326 -1.4274,4.084536 -2.8511,5.633756 0,7e-5 0,0.001 0,0.001 -0.021,0 -0.093,-0.037 -0.1591,-0.0822 -0.067,-0.0453 -0.1354,-0.0825 -0.1534,-0.0827 -0.027,-10e-5 -0.021,-0.008 0.024,-0.045 0.4082,-0.31563 0.636,-0.74767 0.6461,-1.20251 0,-0.18792 -0.021,-0.28248 -0.084,-0.35398 -0.088,-0.0985 -0.2344,-0.0445 -0.2085,0.077 0.038,0.18157 0.041,0.23885 0.016,0.3793 -0.062,0.35376 -0.2405,0.65588 -0.5482,0.92708 -0.3384,0.29816 -0.6149,0.42774 -1.0827,0.50694 -0.1328,0.0225 -0.2495,0.0408 -0.2606,0.0408 -0.011,-2e-4 0.054,-0.0374 0.1428,-0.0822 0.2144,-0.1078 0.317,-0.18731 0.421,-0.32763 0.177,-0.2396 0.2103,-0.48441 0.096,-0.71882 -0.04,-0.0817 -0.1413,-0.18965 -0.1783,-0.18965 -0.07,0 -0.1,0.12574 -0.06,0.23513 0.1,0.2734 0.031,0.44619 -0.2722,0.68316 -0.093,0.0728 -0.2175,0.15535 -0.2765,0.18345 -0.1575,0.0752 -0.4083,0.21626 -0.5022,0.28216 -0.045,0.0318 -0.1363,0.091 -0.2011,0.13177 -0.1257,0.0785 -0.4463,0.35428 -0.4905,0.42168 -0.032,0.0491 -0.064,0.0497 -0.1487,0.005 -0.194505,-0.10329 -0.279705,-0.22123 -0.387605,-0.53899 -0.099,-0.29252 -0.3419,-0.67505 -0.5199,-0.81907 l -0.084,-0.0677 0.071,-0.0656 c 0.061,-0.0612 0.071,-0.0711 0.071,-0.15141 0,-0.17308 0.1159,-0.38189 0.213,-0.38189 0.03,0 0.1,-0.0702 0.1,-0.10076 0,-0.008 -0.016,-0.0301 -0.035,-0.0491 -0.03,-0.0295 -0.05,-0.0344 -0.1442,-0.0284 -0.2114,0.0119 -0.3241,0.11079 -0.417,0.36484 -0.037,0.10168 -0.093,0.15968 -0.154,0.15968 -0.021,0 -0.088,-0.0248 -0.15,-0.0553 -0.1387,-0.068 -0.1863,-0.0838 -0.385,-0.1261 -0.3537,-0.0757 -0.5567,-0.0756 -0.8474,5.3e-4 -0.2532,0.0663 -0.5776,0.2633 -0.6678,0.40463 -0.095,0.14994 -0.1009,0.30668 -0.011,0.32918 0.06,0.0151 0.091,-2.2e-4 0.1989,-0.0992 0.1188,-0.108 0.3001,-0.21976 0.4874,-0.30076 0.118,-0.0509 0.1609,-0.0612 0.295,-0.0672 0.181,-0.009 0.2879,0.0131 0.4818,0.0987 0.1172,0.0518 0.1233,0.0573 0.1021,0.0868 -0.026,0.0342 -0.032,0.1495 -0.01,0.1633 0.01,0.004 0.063,1.8e-4 0.1235,-0.01 0.099,-0.0163 0.1186,-0.0147 0.2125,0.0191 0.1413,0.051 0.2974,0.16574 0.3675,0.26923 0.055,0.0777 0.076,0.15986 0.045,0.15917 -0.01,-2.7e-4 -0.061,-0.007 -0.1196,-0.016 -0.1141,-0.0168 -0.3659,0.003 -0.449,0.0357 -0.071,0.0277 -0.1344,0.10806 -0.1246,0.16846 l 0.01,0.0512 0.2884,0.009 c 0.2741,0.008 0.2929,0.011 0.3821,0.0548 0.066,0.0325 0.1349,0.0893 0.2331,0.19327 0.2564,0.27193 0.3204,0.48126 0.2805,0.9064 l -0.011,0.10801 -0.167,-0.17157 c -0.2064,-0.21222 -0.3831,-0.34687 -0.5866,-0.44597 -0.1381,-0.0672 -0.1685,-0.0765 -0.2667,-0.0765 -0.1153,-9e-5 -0.1971,0.0374 -0.2082,0.0956 -0.01,0.0433 0.055,0.0902 0.1479,0.10956 0.2019,0.042 0.3852,0.1729 0.4683,0.33383 0.1159,0.23377 0.1635,0.51253 0.1156,0.73794 -0.07,0.33214 -0.3238,0.6245 -0.7432,0.85576 -0.2608,0.14387 -0.813,0.36526 -1.0498,0.42116 h 0.01 c -0.1966,0.0463 -0.3815,0.0134 -0.7292,-0.13022 -0.3424,-0.14149 -0.5527,-0.31544 -0.6599,-0.54519 -0.052,-0.11229 -0.1365,-0.42403 -0.2037,-0.75757 -0.03,-0.1504 -0.098,-0.63116 -0.1585,-1.11311 -0.013,-0.1047 -0.032,-0.23079 -0.041,-0.28009 -0.075,-0.38632 -0.086,-0.74434 -0.041,-1.21543 0.028,-0.2785 0.028,-0.37969 0.011,-1.30999 -0.011,-0.55444 -0.024,-1.07817 -0.034,-1.16427 -0.021,-0.21616 -0.018,-0.74369 0,-0.97204 0.01,-0.10421 0.021,-0.53464 0.032,-0.956006 0.01,-0.42138 0.026,-0.86648 0.026,-0.9896 0.01,-0.12312 0,-0.33835 -0.011,-0.47801 -0.036,-0.47621 -0.039,-0.74792 -0.01,-1.02836 0.016,-0.145 0.034,-0.48199 0.044,-0.74931 0.016,-0.50707 0.024,-0.57796 0.08,-0.93379 0.064,-0.39886 0.1807,-0.80911 0.2987,-1.04438 0.035,-0.0684 0.079,-0.17952 0.099,-0.24702 0.1018,-0.3431897 0.4963,-0.9083097 0.8702,-1.2459197 0.1855,-0.16742 0.5442,-0.42359 0.712,-0.50849 0.1333,-0.0676 0.5829,-0.23627 0.6599,-0.24857 0.04,-0.006 0.1532,-0.0463 0.2532,-0.0899 0.1714,-0.075 0.5019,-0.16705 0.8564,-0.23875 0.072,-0.0146 0.1448,-0.0334 0.1606,-0.0424 0.016,-0.009 0.1151,-0.0376 0.2196,-0.0641 0.1045,-0.0265 0.2768,-0.0845 0.3831,-0.12868 0.106105,-0.0442 0.248205,-0.1013 0.316205,-0.1266 0.068,-0.0252 0.172,-0.07 0.2321,-0.0997 0.059,-0.0297 0.1891,-0.0871 0.2884,-0.12764 0.1801,-0.0739 0.427,-0.18538 0.8524,-0.38447 0.1421,-0.0663 0.2816,-0.11901 0.3707,-0.13901 0.1897,-0.043 0.6112,-0.0637 1.3372,-0.0677 z m -10.114005,0.36691 c -0.038,-0.002 -0.1005,0.006 -0.214,0.0227 -0.2784,0.0416 -0.4326,0.14304 -0.5591,0.36794 -0.069,0.12201 -0.073,0.15605 -0.021,0.19275 0.031,0.0217 0.071,0.0257 0.2347,0.0207 0.1709,-0.005 0.2109,-0.0121 0.2919,-0.0496 0.2333,-0.10736 0.418,-0.39034 0.336,-0.51522 -0.016,-0.0245 -0.03,-0.037 -0.068,-0.0393 z m 2.8834,0 c -0.038,0.002 -0.052,0.0147 -0.068,0.0393 -0.098,0.14992 0.1678,0.48775 0.4337,0.55035 v -5.3e-4 c 0.1111,0.0269 0.3878,0.0217 0.4289,-0.007 0.05,-0.0352 0.046,-0.0695 -0.021,-0.19121 -0.1265,-0.22489 -0.2807,-0.32633 -0.5591,-0.36793 -0.1135,-0.017 -0.1759,-0.025 -0.214,-0.0227 z m -2.2137,0.54777 c 0,-0.002 0,7.9e-4 0.01,0.007 0.011,0.0118 0.011,0.0255 0,0.0315 -0.011,0.006 -0.011,-0.004 -0.011,-0.0217 0,-0.01 0,-0.0154 0,-0.017 z m 1.5322,0 c 0,-0.002 0,7.9e-4 0.01,0.007 0.011,0.0118 0.011,0.0255 0,0.0315 -0.011,0.006 -0.011,-0.004 -0.011,-0.0217 0,-0.01 0,-0.0154 0,-0.017 z m -6.0528997,0.69194 c -0.2074,0.003 -0.5707,0.0794 -0.7125,0.15607 -0.163,0.088 -0.1979,0.27527 -0.07,0.37207 0.046,0.0346 0.2524,0.10111 0.4403,0.14211 v 0 c 0.1685,0.0367 0.309,7.9e-4 0.5953,-0.15297 0.3884,-0.20852 0.4427,-0.29937 0.2368,-0.39687 -0.105,-0.0497 -0.2881,-0.10181 -0.4119,-0.11731 -0.021,-0.003 -0.049,-0.004 -0.079,-0.003 z m 10.5855047,0 c -0.03001,-5.3e-4 -0.056,2.7e-4 -0.078,0.003 -0.1238,0.0154 -0.3074,0.0676 -0.4125,0.1173 -0.2058,0.0975 -0.1516,0.18834 0.2368,0.39688 0.094,0.0504 0.2202,0.10902 0.2802,0.13022 v -5.2e-4 c 0.1601,0.0566 0.21511,0.0534 0.5379,-0.0341 0.1958,-0.053 0.2638,-0.0983 0.2889,-0.19172 0.027,-0.0997 -0.029,-0.2047 -0.1407,-0.2651 -0.1418,-0.0767 -0.5051,-0.15296 -0.7125,-0.15606 z m -1.602605,0.7059 c -0.097,0.005 -0.1821,0.0199 -0.2387,0.045 -0.1108,0.0489 -0.173,0.11077 -0.173,0.17157 0,0.056 0.045,0.10319 0.2804,0.29455 0.086,0.0696 0.222,0.18567 0.303,0.25787 0.081,0.0722 0.2048,0.16617 0.2749,0.20877 0.1079,0.0652 0.1471,0.0799 0.2484,0.091 v -5.3e-4 c 0.1564,0.0176 0.7814,0.005 0.8224,-0.017 0.061,-0.0327 0.054,-0.0873 -0.026,-0.24133 -0.2077,-0.39837 -0.5784,-0.70609 -0.9022,-0.74879 -0.066,-0.009 -0.1921,-0.0279 -0.2792,-0.0424 -0.1047,-0.0174 -0.2137,-0.0232 -0.3111,-0.0186 z m -7.3807997,5.3e-4 c -0.097,-0.005 -0.2064,10e-4 -0.3112,0.0186 -0.087,0.0144 -0.213,0.0329 -0.2791,0.0419 -0.2387,0.0315 -0.5033,0.20378 -0.7131,0.46354 -0.1069,0.13231 -0.2619,0.39785 -0.2619,0.44855 0,0.0578 0.046,0.0861 0.1508,0.0951 v 5.3e-4 c 0.2095,0.0162 0.5366,0.0168 0.6879,10e-4 0.1413,-0.0149 0.1659,-0.023 0.2815,-0.093 0.07,-0.0421 0.1924,-0.13554 0.2733,-0.20774 0.081,-0.0722 0.217,-0.18826 0.303,-0.25786 0.2357,-0.19138 0.2805,-0.23856 0.2805,-0.29456 0,-0.0608 -0.062,-0.12215 -0.1726,-0.17105 -0.057,-0.0251 -0.142,-0.0403 -0.2391,-0.045 z m 5.9384997,0.65578 c -0.086,-0.002 -0.096,0.007 -0.136,0.0403 -0.043,0.0376 -0.053,0.0564 -0.053,0.11421 0,0.0561 0.019,0.0982 0.098,0.22376 0.1037,0.1640397 0.2784,0.3800297 0.3474,0.4294297 0.076,0.0539 0.2313,0.0867 0.4686,0.0992 v 0 c 0.3892,0.0206 0.4842,0.009 0.5302,-0.0651 0.024,-0.0391 -0.034,-0.20118 -0.1177,-0.33022 -0.078,-0.1194697 -0.2839,-0.3266997 -0.3681,-0.3699997 -0.1439,-0.0742 -0.3767,-0.12252 -0.6545,-0.13643 -0.05,-0.002 -0.087,-0.004 -0.1154,-0.005 z m -4.4974,5.3e-4 c -0.028,7.9e-4 -0.065,0.002 -0.1148,0.005 -0.2775,0.0138 -0.5105997,0.0626 -0.6545997,0.13695 -0.1354,0.0698 -0.3982,0.3751297 -0.4532,0.5255497 -0.054,0.14769 -0.054,0.15163 -0.011,0.19533 0.024,0.0226 0.057,0.0441 0.077,0.0481 v 5.3e-4 c 0.059,0.0111 0.09,0.0105 0.3903,-0.005 0.2942,-0.0154 0.4293997,-0.0417 0.5103997,-0.0992 0.069,-0.049 0.2439,-0.26463 0.3474,-0.4283897 0.08,-0.12552 0.098,-0.16818 0.098,-0.22428 0,-0.0578 -0.01,-0.0766 -0.053,-0.11421 -0.04,-0.0338 -0.05,-0.0419 -0.1365,-0.0398 z m 12.437105,1.1053597 c 0.01,0.002 0,0.0183 -0.016,0.0506 -0.084,0.16613 -0.2151,0.26153 -0.4593,0.33383 v -5.3e-4 c -0.2879,0.0852 -0.594,0.068 -0.8816,-0.0496 -0.1281,-0.0523 -0.1667,-0.0829 -0.083,-0.0651 0.032,0.007 0.2132,0.0125 0.4037,0.0124 0.2881,-2e-4 0.3731,-0.006 0.5064,-0.0346 0.1659,-0.0356 0.3757,-0.12832 0.4697,-0.20722 0.034,-0.028 0.053,-0.0415 0.059,-0.0398 z m -20.3751044,5.3e-4 c 0.01,-0.002 0.026,0.0113 0.059,0.0393 0.094,0.0789 0.3038,0.17204 0.4697,0.20774 0.1333,0.0286 0.2182,0.0344 0.5064,0.0346 0.1905,0 0.3717,-0.005 0.4037,-0.0124 0.09,-0.019 0.042,0.0147 -0.099,0.0703 -0.068,0.0268 -0.1823,0.0607 -0.2532,0.0755 v 5.3e-4 c -0.1193,0.0252 -0.3228,0.0316 -0.4228,0.015 -0.114,-0.019 -0.3474,-0.0954 -0.4244,-0.139 -0.088,-0.0502 -0.1757,-0.14482 -0.2246,-0.24082 -0.016,-0.0322 -0.021,-0.0489 -0.016,-0.0506 z m 18.3375044,1.36425 c 0.3979,-5.3e-4 0.5225,0.0152 0.7885,0.0982 0.1111,0.0346 0.2902,0.0832 0.3974,0.10749 0.1074,0.0244 0.2103,0.0499 0.2283,0.0589 0.043,0.0196 -0.1545,0.003 -0.3297,-0.0274 -0.4945,-0.0864 -0.6845,-0.10922 -0.898,-0.10852 -0.2161,7.9e-4 -0.5561,0.0367 -0.9639,0.1018 -0.1087,0.0174 -0.3079,0.0427 -0.4429,0.0568 -0.2905,0.0302 -0.2786,0.0295 -0.2653,0.009 0.01,-0.01 0.024,-0.0165 0.042,-0.0165 0.052,0 0.1868,-0.0565 0.2696,-0.11369 0.062,-0.0423 0.1135,-0.0598 0.2537,-0.0853 0.3114,-0.0566 0.5797,-0.0803 0.9205,-0.0806 z m -16.3005044,5.3e-4 c 0.3411,2.7e-4 0.6096,0.0235 0.9211,0.0801 0.1399,0.0255 0.1915,0.0429 0.2537,0.0853 0.083,0.0572 0.2172,0.1142 0.2691,0.1142 0.019,0 0.032,0.008 0.042,0.0165 0.01,0.009 -0.01,0.0155 -0.036,0.0145 -0.1013,-0.004 -0.4694,-0.0482 -0.6641,-0.0791 -0.4191,-0.0667 -0.7549,-0.10266 -0.9721,-0.10336 -0.2135,-7.9e-4 -0.4035,0.0221 -0.898,0.10852 -0.1751,0.0297 -0.3723,0.0474 -0.3291,0.0279 0.019,-0.008 0.1204,-0.0351 0.2278,-0.0594 0.1071,-0.0243 0.2863,-0.0723 0.3974,-0.10697 0.2659,-0.083 0.3905,-0.0985 0.7884,-0.0982 z m 16.9567044,0.29353 0.099,0.0108 c 0.1632,0.0182 0.5704,0.15832 0.9556,0.32867 0.1109,0.0491 0.2789,0.11579 0.3731,0.14779 0.2275,0.0777 0.6964,0.15772 0.9948,0.17002 0.1728,0.007 0.2159,0.0132 0.1731,0.0232 v -5.3e-4 c -0.032,0.007 -0.2096,0.0172 -0.3953,0.0212 -0.3813,0.008 -0.6525,-0.0136 -1.0052,-0.0817 -0.3381,-0.0653 -0.4016,-0.0971 -0.8609,-0.42375 -0.086,-0.061 -0.1961,-0.13018 -0.245,-0.15348 z m -17.6134044,5.3e-4 -0.088,0.0424 c -0.049,0.0234 -0.1585,0.0925 -0.2445,0.15348 -0.3222,0.22905 -0.4117,0.28568 -0.5238,0.33228 -0.149,0.0618 -0.4731,0.12428 -0.8115,0.15658 v -5.3e-4 c -0.3239,0.0315 -0.6461,0.0309 -0.8935,-0.002 -0.078,-0.0102 -0.06,-0.0137 0.1317,-0.0227 0.2956,-0.014 0.8004,-0.10128 1.0129,-0.17518 0.091,-0.0314 0.2548,-0.0968 0.3648,-0.14573 0.3834,-0.16966 0.7911,-0.30994 0.9541,-0.32814 z m 4.4741997,0.0791 v 0.19224 -5.3e-4 c 0,0.10564 0,0.19172 -0.013,0.19172 -0.01,0 -0.03,-0.018 -0.053,-0.0403 -0.057,-0.0565 -0.2882,-0.18582 -0.3871,-0.21652 -0.045,-0.0141 -0.1527,-0.0392 -0.2387,-0.0558 l -0.1566,-0.03 0.1431,-10e-4 c 0.127,-0.002 0.1638,0.006 0.3215,0.062 0.098,0.0351 0.1908,0.0694 0.2056,0.0754 0.021,0.009 0.038,-0.004 0.068,-0.0512 0.021,-0.0347 0.056,-0.0774 0.075,-0.0946 z m 8.6660997,5.3e-4 0.035,0.0315 c 0.019,0.0173 0.053,0.0598 0.075,0.0946 0.03,0.0474 0.047,0.0602 0.068,0.0512 0.016,-0.007 0.1077,-0.0405 0.2056,-0.0755 0.1577,-0.0561 0.194,-0.063 0.321,-0.062 l 0.1436,0.001 -0.1566,0.03 c -0.086,0.0165 -0.1937,0.0417 -0.2387,0.0558 -0.097,0.0302 -0.328,0.15873 -0.3881,0.21653 v 5.3e-4 c -0.024,0.0223 -0.044,0.0403 -0.054,0.0403 0,0 -0.011,-0.0861 -0.011,-0.19171 z m -9.6312997,0.43512 c 0.035,4e-5 0.085,0.002 0.1508,0.005 0.3138,0.0111 0.3826,0.0336 0.5432,0.18087 l 0.1145,0.10542 -0.1574,5.3e-4 c -0.093,7.9e-4 -0.1844,0.0109 -0.2223,0.0248 -0.036,0.013 -0.077,0.0291 -0.092,0.0351 -0.021,0.008 -0.038,-0.008 -0.07,-0.0631 -0.047,-0.0804 -0.145,-0.16759 -0.249,-0.22169 -0.1005,-0.052 -0.1235,-0.0668 -0.019,-0.0667 z m 10.5960047,5.2e-4 c 0.1061,-1.4e-4 0.083,0.0137 -0.01901,0.0662 -0.1038,0.054 -0.2016,0.14106 -0.2485,0.22066 -0.048,0.0819 -0.047,0.0815 -0.1106,0.047 -0.053,-0.0289 -0.2497,-0.0534 -0.3577,-0.0444 l -0.074,0.006 0.1146,-0.108 c 0.1598,-0.15018 0.2259,-0.17287 0.5426,-0.18397 0.066,-0.002 0.1156,-0.004 0.15081,-0.004 z m 6.3407,0.22221 c -0.016,0.66318 -0.086,1.31235 -0.2082,1.94355 -0.01,-0.009 -0.018,-0.0189 -0.038,-0.0294 -0.024,-0.0118 -0.074,-0.0732 -0.1164,-0.13643 l -0.076,-0.11524 0.033,-0.0682 c 0.019,-0.0375 0.053,-0.093 0.079,-0.12351 0.068,-0.0812 0.1204,-0.15888 0.1204,-0.17828 0,-0.009 -0.027,-0.052 -0.06,-0.0951 -0.075,-0.0984 -0.1371,-0.22903 -0.1374,-0.29042 0,-0.0462 0,-0.0463 0.078,-0.0393 0.043,0.004 0.091,0.0142 0.1069,0.0202 0.019,0.01 0.029,0.003 0.029,-0.0372 0,-0.0339 -0.039,-0.10984 -0.1275,-0.24287 -0.07,-0.10648 -0.1246,-0.19758 -0.1246,-0.20258 0,-0.005 0.05,-0.0212 0.1071,-0.0357 0.108,-0.0274 0.1358,-0.059 0.088,-0.0987 -0.059,-0.0485 0,-0.12608 0.1481,-0.20258 0.03,-0.0151 0.066,-0.0415 0.099,-0.0682 z m -23.2759044,0.008 c 0.03,0.0237 0.062,0.0459 0.089,0.0594 0.1479,0.0764 0.2061,0.15459 0.1482,0.20309 -0.048,0.0398 -0.021,0.0713 0.088,0.0987 0.057,0.0143 0.1035,0.0329 0.1029,0.0419 0,0.009 -0.057,0.0996 -0.1246,0.20257 -0.084,0.12813 -0.1235,0.20288 -0.1235,0.23668 0,0.0412 0.01,0.0472 0.029,0.0372 0.016,-0.007 0.064,-0.0162 0.1068,-0.0202 0.078,-0.008 0.078,-0.007 0.078,0.0393 0,0.0614 -0.062,0.19141 -0.1376,0.28991 -0.033,0.0431 -0.06,0.0856 -0.06,0.0956 0,0.0194 0.053,0.097 0.1209,0.17828 0.024,0.0304 0.061,0.0859 0.079,0.12351 l 0.033,0.0682 -0.076,0.11472 c -0.042,0.0633 -0.093,0.12413 -0.1165,0.13643 -0.016,0.008 -0.024,0.0148 -0.031,0.0217 -0.1201,-0.62596 -0.1903,-1.26962 -0.2056,-1.92701 z m 1.5854,0.33487 c 0.01,0.009 -0.168,0.0932 -0.2635,0.1235 -0.058,0.0185 -0.1985,0.0524 -0.3117,0.0755 -0.1133,0.0231 -0.2596,0.0569 -0.3255,0.0749 v -5.3e-4 c -0.066,0.0181 -0.1944,0.0702 -0.2854,0.11576 -0.1871,0.0938 -0.1858,0.0968 -0.046,-0.11111 0.076,-0.11397 0.1029,-0.14076 0.1378,-0.14676 0.01,-0.002 0.056,-0.0273 0.104,-0.0574 0.1103,-0.068 0.2358,-0.0864 0.4398,-0.062 0.1386,0.0169 0.4423,0.0107 0.5352,-0.0108 0.011,-0.002 0.013,-0.002 0.016,-10e-4 z m 20.1041044,5.3e-4 c 0,-0.001 0.01,-0.001 0.016,10e-4 0.093,0.021 0.3966,0.0275 0.5352,0.0109 0.204,-0.0243 0.3297,-0.007 0.4397,0.062 0.048,0.0301 0.094,0.0564 0.104,0.0574 0.01,10e-4 0.026,0.009 0.037,0.0155 0.021,0.013 0.1625,0.2165 0.1993,0.2868 0.016,0.0204 0.016,0.0366 0.016,0.0362 0,-5.3e-4 -0.077,-0.0374 -0.1648,-0.0822 -0.1738,-0.0884 -0.2889,-0.12473 -0.6056,-0.18913 -0.1133,-0.0231 -0.2538,-0.0571 -0.3117,-0.0755 -0.095,-0.0303 -0.2701,-0.11384 -0.2635,-0.12299 z m 0.9991,0.0139 c 0.011,0.002 0.028,0.0115 0.046,0.0259 0.021,0.0192 0.034,0.0349 0.021,0.0346 -0.031,-5.3e-4 -0.089,-0.046 -0.076,-0.0589 0,-10e-4 0,-0.002 0.01,-0.002 z m -22.1041044,5.3e-4 c 0,-5.3e-4 0.01,-5.3e-4 0.01,10e-4 0.01,0.006 -0.01,0.0213 -0.021,0.0346 -0.05,0.038 -0.082,0.0287 -0.033,-0.01 0.019,-0.0139 0.034,-0.0241 0.045,-0.0259 z m 1.7346,0.15968 c 0.1352,0 0.2246,0.005 0.2146,0.0145 -0.019,0.0179 -0.2765,0.0913 -0.4115,0.11731 -0.1151,0.0211 -0.5918,0.0352 -0.7001,0.0191 l -0.074,-0.0109 0.1071,-0.0212 c 0.535,-0.105 0.6374,-0.11883 0.8639,-0.11886 z m 18.6356044,0 c 0.2268,0 0.3244,0.0133 0.8644,0.11886 l 0.1072,0.0207 -0.082,0.0114 v 5.3e-4 c -0.086,0.011 -0.4411,0.0131 -0.527,0.002 -0.2056,-0.0252 -0.5406,-0.10581 -0.5758,-0.13901 -0.011,-0.009 0.079,-0.0145 0.2141,-0.0145 z m -13.4038047,0.13591 c 0.024,-0.002 0.05,-8e-4 0.076,0.003 l 0.079,0.0124 -0.131,0.0625 c -0.084,0.04 -0.1569,0.0896 -0.205,0.13901 -0.1035,0.10756 -0.2051,0.16894 -0.3297,0.19844 v -5.3e-4 c -0.1164,0.0275 -0.1969,0.0329 -0.1969,0.0134 0,-0.007 0.046,-0.0302 0.103,-0.0522 0.063,-0.0247 0.1339,-0.069 0.1849,-0.11679 0.1212,-0.11353 0.2728,-0.21955 0.3498,-0.24495 0.021,-0.008 0.046,-0.0122 0.07,-0.0139 z m 8.1724997,0 c 0.024,0.002 0.048,0.007 0.07,0.0139 0.077,0.0253 0.2286,0.13139 0.3498,0.24495 0.051,0.0476 0.1217,0.0921 0.1854,0.11679 0.057,0.0219 0.1029,0.0452 0.1029,0.0522 0,0.0206 -0.1005,0.0122 -0.2143,-0.0176 -0.1182,-0.0311 -0.2214,-0.0952 -0.3214,-0.20102 -0.041,-0.0425 -0.1164,-0.0942 -0.1964,-0.13229 l -0.1309,-0.062 0.079,-0.0124 c 0.026,-0.004 0.052,-0.004 0.076,-0.003 z m -7.2029997,0.047 c 0.01,1.3e-4 0.011,0.002 0.016,0.005 0.01,0.005 -0.01,0.009 -0.021,0.009 -0.021,-10e-4 -0.024,-0.005 -0.011,-0.01 0.01,-0.002 0.013,-0.004 0.016,-0.004 z m 6.2438997,0 c 0.01,1.3e-4 0.011,0.002 0.016,0.005 0.01,0.005 -0.01,0.009 -0.021,0.009 -0.021,-10e-4 -0.024,-0.005 -0.011,-0.01 0.01,-0.002 0.011,-0.004 0.016,-0.004 z m -6.2991997,0.0171 -0.082,0.0294 c -0.098,0.0347 -0.2688,0.11993 -0.4283,0.21343 v 5.3e-4 c -0.1045,0.0615 -0.1257,0.0677 -0.2275,0.0677 -0.1352,0 -0.1358,-0.0112 -0.011,-0.11524 0.1265,-0.10434 0.3402,-0.17035 0.6035,-0.18655 z m 6.3435997,0 0.1403,0.009 c 0.2632,0.0162 0.4775,0.0827 0.604,0.18707 0.043,0.0353 0.082,0.0755 0.092,0.0894 v 0 c 0.013,0.0212 0,0.0248 -0.098,0.0248 -0.1016,0 -0.1225,-0.006 -0.2268,-0.0672 -0.1595,-0.0935 -0.3304,-0.17924 -0.4283,-0.21394 z m -8.8224997,0.2682 c 0,0.004 -0.056,0.0438 -0.1225,0.0889 -0.155,0.1037 -0.2791,0.14492 -0.5323,0.17622 -0.1111997,0.0137 -0.2402997,0.0397 -0.2883997,0.0584 v 5.3e-4 c -0.048,0.0187 -0.1046,0.0445 -0.1276,0.0579 -0.033,0.0194 -0.031,0.015 0.011,-0.0217 0.3375997,-0.3042 0.3341997,-0.30218 0.6511997,-0.29818 0.2103,0.003 0.246,-5.3e-4 0.323,-0.0325 0.048,-0.0192 0.087,-0.0335 0.087,-0.0295 z m 11.3030047,0 c 0,-0.004 0.038,0.01 0.086,0.0294 0.077,0.0321 0.1127,0.0346 0.3228,0.0326 0.2818,-0.004 0.327,0.0108 0.4932,0.15761 0.059,0.052 0.1299,0.11441 0.1579,0.13901 0.028,0.0246 0.05,0.0451 0.04,0.0455 -0.01,5.3e-4 -0.011,-0.005 -0.021,-0.014 -0.024,-0.0395 -0.2354,-0.10217 -0.4246,-0.12557 -0.2538,-0.0314 -0.3784,-0.0725 -0.5334,-0.17622 -0.067,-0.045 -0.122,-0.0844 -0.122,-0.0884 z m -13.2162044,0.41755 c 0.011,-0.001 0,0.005 -0.016,0.0191 -0.094,0.0741 -0.3167,0.18475 -0.486,0.24185 -0.1492,0.0502 -0.2104,0.0612 -0.3458,0.0672 -0.1474,0.006 -0.1747,0.002 -0.2625,-0.0351 -0.082,-0.0346 -0.3122,-0.17445 -0.3014,-0.18345 0,-10e-4 0.071,0.0115 0.1519,0.0289 0.2821,0.0602 0.8596,0.006 1.1737,-0.11007 0.048,-0.018 0.075,-0.0272 0.085,-0.0284 z m 2.9754997,0.005 -0.1476,0.0315 c -0.097,0.021 -0.1702,0.0478 -0.2141,0.0785 -0.074,0.0515 -0.1497,0.17632 -0.1659,0.27182 v 0 c -0.013,0.0749 -0.033,0.0792 -0.047,0.01 -0.021,-0.0988 -0.011,-0.15595 0.038,-0.23254 0.074,-0.11665 0.1508,-0.14903 0.3633,-0.15503 z m 9.1778997,0 0.1725,0.004 c 0.2124,0.005 0.2892,0.0384 0.3632,0.15503 0.048,0.0767 0.058,0.13375 0.038,0.23255 v 5.3e-4 c -0.013,0.0697 -0.034,0.065 -0.047,-0.0103 -0.016,-0.0955 -0.093,-0.22022 -0.1659,-0.27182 -0.044,-0.0307 -0.1175,-0.0576 -0.2146,-0.0785 z m 2.979205,0 c 0.01,-0.002 0.034,0.006 0.081,0.0233 0.3152,0.11576 0.8919,0.17017 1.1737,0.11007 0.082,-0.018 0.1519,-0.0299 0.1519,-0.0289 0.011,0.009 -0.2204,0.14892 -0.3014,0.18242 v 5.3e-4 c -0.223,0.0917 -0.6133,0.0157 -0.9548,-0.18552 -0.112,-0.0659 -0.1609,-0.0981 -0.1509,-0.1018 z m -5.755805,0.0941 c 0.024,-0.004 0.043,0.0131 0.053,0.0501 v 0 c 0.011,0.0303 0.011,0.0896 0.011,0.13178 l -0.011,0.077 -0.031,-0.0796 c -0.016,-0.0435 -0.045,-0.0897 -0.065,-0.10283 -0.03,-0.0209 -0.031,-0.0264 -0.011,-0.047 0.019,-0.0173 0.035,-0.0272 0.049,-0.0294 z m -3.6271,5.3e-4 c 0.019,0.003 0.043,0.0166 0.057,0.03 0.019,0.0216 0.016,0.0258 -0.011,0.0408 l 0.01,5.3e-4 c -0.016,0.009 -0.048,0.0549 -0.069,0.1018 l -0.039,0.0853 v -0.0904 c 0,-0.12628 0.019,-0.17395 0.056,-0.16795 z m 11.160905,0.0749 c 0,-0.003 0.046,10e-4 0.095,0.0114 0.049,0.009 0.2445,0.0277 0.435,0.0413 0.3448,0.0246 0.4442,0.0413 0.6202,0.10491 0.1722,0.0622 0.4781,0.0819 0.667,0.0424 0.045,-0.009 0.057,-0.004 0.088,0.0398 l 0.036,0.0512 -0.05,-0.0103 c -0.028,-0.006 -0.1085,-0.003 -0.1783,0.007 v 0 c -0.1593,0.0215 -0.3681,0.0323 -0.4662,0.0253 -0.3633,-0.0286 -0.6525,-0.0844 -0.8784,-0.16898 -0.092,-0.0345 -0.2138,-0.0795 -0.271,-0.10025 -0.056,-0.0207 -0.097,-0.0399 -0.097,-0.0439 z m -18.6928044,5.2e-4 c 0,0.004 -0.051,0.027 -0.122,0.0522 -0.071,0.0251 -0.1842,0.0672 -0.2511,0.0935 -0.1574,0.0612 -0.3403,0.10376 -0.5778,0.13436 v 5.3e-4 c -0.2694,0.0354 -0.4649,0.0416 -0.6263,0.0227 -0.077,-0.009 -0.1892,-0.0176 -0.2493,-0.0186 l -0.1095,-0.002 0.033,-0.047 c 0.029,-0.0402 0.041,-0.0452 0.085,-0.0362 0.1889,0.0395 0.4953,0.0204 0.6676,-0.0418 0.1759,-0.0636 0.2754,-0.0803 0.6201,-0.10491 0.1905,-0.0136 0.3861,-0.0318 0.435,-0.0418 0.049,-0.0101 0.095,-0.0148 0.095,-0.0109 z m 15.8816044,0.9462 0.1225,0.0124 c 0.067,0.006 0.1646,0.0243 0.2164,0.0403 0.1273,0.039 0.472,0.227626 0.503,0.275426 0.099,0.15078 0.1333,0.42321 0.07,0.54829 -0.035,0.0684 -0.15,0.14942 -0.1241,0.0873 0.041,-0.0852 0.047,-0.17616 0.031,-0.25476 -0.011,-0.0558 -0.011,-0.0769 0,-0.0646 0.028,0.0277 0.06,0.0194 0.06,-0.015 0,-0.0276 -0.077,-0.0997 -0.1058,-0.0997 -0.01,0 -0.055,-0.0475 -0.1101,-0.10593 -0.1185,-0.1267 -0.2233,-0.19907 -0.4749,-0.327626 z m -13.0683044,5.3e-4 -0.1881,0.0961 c -0.2519,0.128576 -0.3564,0.200926 -0.475,0.327626 -0.055,0.0584 -0.1,0.10593 -0.1095,0.10593 -0.029,0 -0.1061,0.0727 -0.1061,0.10026 0,0.0356 0.032,0.0421 0.062,0.0124 0.013,-0.0149 0.013,-0.007 0,0.0367 -0.021,0.0772 -0.019,0.15939 0.011,0.23719 v 10e-4 c 0.011,0.0358 0.018,0.0662 0.018,0.0682 -0.016,0.0154 -0.1005,-0.0568 -0.1267,-0.10852 -0.064,-0.12476 -0.029,-0.39743 0.07,-0.54828 0.031,-0.0478 0.3757,-0.236436 0.5027,-0.275436 0.052,-0.0159 0.1497,-0.0348 0.2167,-0.0408 z m -1.3457,0.299206 -0.073,0.12764 c -0.066,0.11527 -0.1723,0.40984 -0.1985,0.55087 -0.01,0.0302 -0.024,0.0697 -0.04,0.0879 -0.06,0.0668 -0.083,0.27772 -0.041,0.37827 0.024,0.0542 0.082,0.0972 0.1741,0.12506 v 0 c 0.055,0.0167 -0.1368,0.0167 -0.2056,0 -0.137,-0.0333 -0.2471,-0.13872 -0.2632,-0.25167 -0.021,-0.14304 0.086,-0.40378 0.2384,-0.58187 0.059,-0.069 0.1412,-0.16568 0.1833,-0.21498 0.042,-0.0494 0.1101,-0.11944 0.1511,-0.15554 z m 15.7581044,0 0.074,0.0656 c 0.041,0.036 0.1088,0.10614 0.1509,0.15554 0.042,0.0494 0.1243,0.14598 0.1833,0.21498 0.1527,0.17809 0.2582,0.43882 0.2384,0.58187 -0.013,0.0844 -0.082,0.1717 -0.1778,0.22066 -0.046,0.0228 -0.1085,0.0353 -0.199,0.0393 -0.082,0.005 -0.119,0.002 -0.092,-0.007 0.096,-0.0323 0.1521,-0.0729 0.1741,-0.12661 0.042,-0.10052 0.018,-0.31147 -0.041,-0.37827 -0.016,-0.0182 -0.03,-0.0577 -0.04,-0.0879 -0.026,-0.14102 -0.1325,-0.4356 -0.1984,-0.55087 z m -16.0756044,4.97747 c 0.073,7.9e-4 0.1627,0.0137 0.258,0.0382 0.094,0.0242 0.2077,0.0613 0.2527,0.0822 l 0.082,0.0377 -0.058,0.0248 c -0.1074,0.046 -0.1971,0.18399 -0.1974,0.30541 0,0.01 0,0.0177 0,0.0243 -0.1672,-0.15319 -0.3297,-0.31125 -0.4879,-0.47388 0,-0.002 0,-0.003 0,-0.005 0.024,-0.0231 0.077,-0.0345 0.1498,-0.0336 z m 16.3931044,5.3e-4 c 0.072,-7.9e-4 0.1267,0.01 0.1497,0.0331 0,0.002 0,0.004 0,0.005 -0.1575,0.16189 -0.3194,0.31927 -0.4858,0.47181 0,-0.006 -0.01,-0.0131 -0.01,-0.0217 0,-0.12139 -0.089,-0.25993 -0.1969,-0.30592 l -0.058,-0.0248 0.082,-0.0377 c 0.045,-0.0209 0.1587,-0.0575 0.2526,-0.0817 0.095,-0.0246 0.1855,-0.0374 0.258,-0.0382 z m -0.8922,0.47801 c 0.132,0.005 0.2246,0.0541 0.2704,0.14521 0.019,0.0405 0.037,0.0887 0.037,0.10748 0,0.002 0,0.005 -0.01,0.007 -0.5315,0.459 -1.1052,0.87044 -1.7142,1.22835 -0.019,0.01 -0.046,0.0244 -0.049,0.0243 -0.013,-5.2e-4 -0.054,-0.0172 -0.095,-0.0372 -0.059,-0.0291 -0.079,-0.0496 -0.097,-0.10283 -0.013,-0.0399 -0.021,-0.0896 -0.013,-0.12402 0.051,-0.27184 0.757,-0.97687 1.1298,-1.1281 0.05,-0.0205 0.1662,-0.0577 0.2564,-0.0822 0.1053,-0.0287 0.1987,-0.0413 0.2778,-0.0382 z m -14.5968044,0.002 c 0.1381,-0.004 0.3162,0.0351 0.5212,0.11833 0.3727997,0.15123 1.0786997,0.85626 1.1297997,1.1281 0.01,0.0344 0,0.084 -0.013,0.12402 -0.019,0.0532 -0.038,0.0737 -0.097,0.10284 -0.041,0.0201 -0.085,0.0364 -0.099,0.0362 0,-5e-5 -0.024,-0.0126 -0.036,-0.0181 -0.6127997,-0.3594 -1.1894997,-0.77291 -1.7239997,-1.23455 0,-0.002 0,-0.005 0,-0.006 0,-0.0188 0.019,-0.0671 0.037,-0.10749 0.046,-0.091 0.1445,-0.13889 0.2828,-0.14314 z m 5.2495994,3.83439 c -0.01,0 -0.016,0.008 -0.016,0.0165 0,0.01 0.01,0.0165 0.016,0.0165 0.01,0 0.016,-0.007 0.016,-0.0165 0,-0.009 -0.01,-0.0165 -0.016,-0.0165 z"
       id="path851"
       inkscape:export-filename="C:\Users\ashunt\Personal\Allyn\Inkscape\Destiny\IronBanner.png"
       inkscape:export-xdpi="96"
       inkscape:export-ydpi="96" />
  </g>
</svg>
