<?xml version="1.0" encoding="UTF-8" standalone="no"?>
<svg
   xmlns:dc="http://purl.org/dc/elements/1.1/"
   xmlns:cc="http://creativecommons.org/ns#"
   xmlns:rdf="http://www.w3.org/1999/02/22-rdf-syntax-ns#"
   xmlns:svg="http://www.w3.org/2000/svg"
   xmlns="http://www.w3.org/2000/svg"
   xmlns:sodipodi="http://sodipodi.sourceforge.net/DTD/sodipodi-0.dtd"
   xmlns:inkscape="http://www.inkscape.org/namespaces/inkscape"
   width="32"
   height="32"
   viewBox="0 0 8.4666665 8.466667"
   version="1.1"
   id="svg8"
   inkscape:version="1.0.2-2 (e86c870879, 2021-01-15)"
   sodipodi:docname="faction_ironbanner2.svg">
  <defs
     id="defs2" />
  <sodipodi:namedview
     id="base"
     pagecolor="#ffffff"
     bordercolor="#666666"
     borderopacity="1.0"
     inkscape:pageopacity="0.0"
     inkscape:pageshadow="2"
     inkscape:zoom="7.9195959"
     inkscape:cx="22.374199"
     inkscape:cy="36.837701"
     inkscape:document-units="px"
     inkscape:current-layer="layer1"
     inkscape:document-rotation="0"
     showgrid="false"
     units="px"
     inkscape:window-width="1920"
     inkscape:window-height="1121"
     inkscape:window-x="-9"
     inkscape:window-y="-9"
     inkscape:window-maximized="1" />
  <metadata
     id="metadata5">
    <rdf:RDF>
      <cc:Work
         rdf:about="">
        <dc:format>image/svg+xml</dc:format>
        <dc:type
           rdf:resource="http://purl.org/dc/dcmitype/StillImage" />
        <dc:title></dc:title>
      </cc:Work>
    </rdf:RDF>
  </metadata>
  <g
     inkscape:label="Layer 1"
     inkscape:groupmode="layer"
     id="layer1">
    <g
       id="g887"
       transform="matrix(0.47635337,0,0,0.47637284,0.20020793,0.20004309)"
       style="stroke-width:2.09923">
      <circle
         style="opacity:1;fill:none;stroke:#000000;stroke-width:1.11085;stroke-miterlimit:4;stroke-dasharray:none;stroke-opacity:1"
         id="path40"
         cx="8.4666672"
         cy="8.4666672"
         r="8.2020836" />
      <path
         style="fill:#000000;stroke-width:2.09923"
         d="m 7.0801822,16.954425 c 0,-0.0061 0.00499,-0.0111 0.011099,-0.0111 0.0061,0 0.011099,0.005 0.011099,0.0111 0,0.0061 -0.00499,0.0111 -0.011099,0.0111 -0.0061,0 -0.011099,-0.005 -0.011099,-0.0111 z M 8.0395319,16.476344 C 7.4022633,16.441955 6.7318981,16.324324 6.1403872,16.143123 5.8103509,16.042017 5.7892478,16.036359 5.7109421,16.02798 5.6649091,16.02308 5.6138971,16.00916 5.5845218,15.99352 l -0.049252,-0.02619 0.037718,-3.92e-4 c 0.029246,-3.01e-4 -7.841e-4,-0.01617 -0.1342106,-0.07072 C 5.2150228,15.8047 5.076043,15.741754 4.8696355,15.638428 3.5284649,14.967059 2.3978113,13.92491 1.6199914,12.643153 1.5145919,12.469466 1.3241144,12.126342 1.3241144,12.11016 c 0,-0.0056 -0.039476,-0.09209 -0.087738,-0.192105 C 0.39928644,10.18303 0.23155086,8.1270734 0.77545326,6.268475 1.2586428,4.6173551 2.2253919,3.200196 3.5845476,2.1506247 3.7794472,2.0001219 4.1934286,1.7223127 4.4239701,1.5873213 5.2050919,1.1299471 6.1234001,0.79102171 7.0210066,0.62882262 7.5422022,0.53464462 7.9113118,0.50234755 8.4665454,0.50234755 c 0.55523,0 0.9243433,0.0323085 1.4455348,0.12647507 0.8976058,0.16219909 1.8159148,0.50112448 2.5970368,0.95849868 0.230541,0.1349914 0.644525,0.4128006 0.839422,0.5633034 0.874135,0.6750238 1.601385,1.5199474 2.121994,2.4653306 0.05375,0.097601 0.106141,0.1874345 0.116429,0.1996367 0.02807,0.03325 0.03922,0.054988 0.02313,0.045044 -0.0074,-0.00455 0.01368,0.045824 0.04679,0.1119635 0.372971,0.7450211 0.649223,1.671356 0.755243,2.532493 0.186443,1.5143479 -0.06487,3.0646315 -0.715402,4.4129615 -0.04825,0.100017 -0.08773,0.186463 -0.08773,0.192105 0,0.01619 -0.190477,0.359306 -0.295881,0.532994 -0.88883,1.464685 -2.229577,2.606866 -3.817441,3.252063 -0.09381,0.03811 -0.164026,0.07149 -0.156035,0.07415 0.02231,0.0075 -0.09582,0.05082 -0.190304,0.06989 -0.0464,0.0094 -0.121264,0.02964 -0.166363,0.04504 -0.875249,0.298928 -1.9690836,0.444611 -2.9434041,0.392024 z M 7.1080806,16.144751 c 0.3249937,-0.0912 0.5546926,-0.247547 0.6435184,-0.438037 0.035249,-0.07559 0.091632,-0.285643 0.136944,-0.510173 0.020431,-0.101228 0.066659,-0.424771 0.1070551,-0.749205 0.00879,-0.07047 0.021135,-0.155314 0.027489,-0.188544 0.049678,-0.260039 0.057706,-0.50098 0.027248,-0.818093 -0.017999,-0.187473 -0.018471,-0.255475 -0.00592,-0.881714 0.00749,-0.373214 0.017685,-0.725989 0.022698,-0.783937 0.012662,-0.145503 0.01219,-0.500646 -7.843e-4,-0.654352 -0.00592,-0.07015 -0.015761,-0.359617 -0.021837,-0.643263 -0.00601,-0.283645 -0.013846,-0.5835288 -0.017296,-0.6664102 -0.00351,-0.082882 -3.912e-4,-0.2276132 0.00666,-0.3216306 0.024307,-0.3205549 0.026194,-0.5034259 0.00712,-0.6922054 -0.00988,-0.097597 -0.023057,-0.32468 -0.029328,-0.5046297 C 7.999715,7.9512281 7.995637,7.9038236 7.9575561,7.664291 7.914857,7.395806 7.8358141,7.1195064 7.7563984,6.9611224 7.733304,6.9150745 7.7033671,6.8402112 7.6898632,6.7947632 7.6212146,6.563747 7.3555334,6.183565 7.1039083,5.9562934 6.9791391,5.8435967 6.7376696,5.6709678 6.6247921,5.6137686 6.5349664,5.56825 6.2325455,5.4545612 6.1803614,5.4466957 6.1537773,5.4426963 6.0770984,5.4153671 6.009999,5.3860146 5.8947065,5.3355595 5.6721795,5.2735101 5.4335014,5.2252703 5.3848228,5.2154282 5.3361164,5.2026467 5.3252624,5.1968039 5.3144038,5.1910047 5.2479944,5.1716313 5.1776735,5.1537322 5.1073517,5.1358525 4.9913636,5.0968393 4.9199199,5.0670355 4.8484789,5.0372364 4.7525885,4.9989159 4.7068381,4.9818835 4.6610915,4.964827 4.5908122,4.9345496 4.5506659,4.9145565 4.5105243,4.8945597 4.4231829,4.8558637 4.3565774,4.8285572 4.2351879,4.7787918 4.0690524,4.7039251 3.7826437,4.5699218 3.6871372,4.5252379 3.5929709,4.4899576 3.5331016,4.4764339 3.4054262,4.4475754 3.1216767,4.4331734 2.6328719,4.4306918 2.189861,4.4283425 2.1897472,4.4283425 1.9250104,4.5229408 1.8070948,4.5650248 1.5322385,4.7024393 1.4864808,4.7421824 1.4751135,4.7520633 1.4220877,4.8474841 1.3686633,4.9542327 0.94215478,5.8064063 0.67073263,6.7470254 0.57658572,7.6991878 0.55200129,7.9476759 0.53464049,8.3009795 0.53867316,8.4699928 l 0.003515,0.1497264 0.071034,0.036035 c 0.0390502,0.01984 0.0843714,0.036035 0.10067502,0.036035 0.0277199,0 0.0305039,-0.00462 0.0429441,-0.072255 0.009258,-0.05026 0.009841,-0.078729 0.001942,-0.093543 -0.0154092,-0.028784 -0.0144658,-0.1988559 0.001202,-0.2456802 0.0141976,-0.042044 0.0661782,-0.1171785 0.14024135,-0.2027264 0.027054,-0.03125 0.0557081,-0.071762 0.0636994,-0.090061 0.007954,-0.018311 0.0428147,-0.07048 0.077379,-0.1159511 0.09539,-0.1254752 0.1428533,-0.2254602 0.1423872,-0.2999509 -2.082e-4,-0.034465 -0.00842,-0.076451 -0.018785,-0.096495 -0.030032,-0.057952 -0.02525,-0.067915 0.029718,-0.06172 0.043962,0.00494 0.2220414,-0.030622 0.2392071,-0.047781 0.00352,-0.00353 -0.00231,-0.01294 -0.012866,-0.020742 -0.030079,-0.021997 -0.023169,-0.036269 0.02168,-0.0447 0.047957,-0.00898 0.1153359,-0.041496 0.1349017,-0.065073 0.010942,-0.013175 0.01023,-0.024742 -0.00351,-0.057619 -0.030855,-0.07382 -0.017527,-0.1104853 0.026268,-0.072468 0.030902,0.026819 0.2008237,0.040802 0.287611,0.023683 0.058094,-0.01145 0.1679909,-0.062998 0.1679909,-0.078796 0,-0.019841 -0.037487,-0.0937 -0.098766,-0.194704 -0.078757,-0.1297883 -0.075104,-0.1652379 0.00777,-0.074762 0.06406,0.06999 0.1270677,0.1124105 0.266533,0.1794553 l 0.1073447,0.0516 h 0.1312548 c 0.1300625,0 0.1315017,-2.784e-4 0.1580424,-0.031133 0.014743,-0.017095 0.026776,-0.0393 0.026776,-0.049302 0,-0.01 0.011645,-0.030937 0.025879,-0.046518 0.083622,-0.091496 0.1509575,-0.250229 0.1513931,-0.3568718 8.23e-5,-0.022114 0.00968,-0.062026 0.021292,-0.088724 0.011645,-0.026701 0.029958,-0.080439 0.040715,-0.1194212 0.016824,-0.060928 0.017721,-0.079945 0.0062,-0.1355521 l -0.013374,-0.064684 0.044091,-0.039829 c 0.073365,-0.06628 0.08907,-0.1130497 0.1060506,-0.3157408 0.013217,-0.1579957 0.018193,-0.183737 0.042694,-0.2207236 0.015252,-0.023016 0.042944,-0.048181 0.061563,-0.055898 0.030032,-0.012429 0.038625,-0.011175 0.075871,0.011136 0.065004,0.038896 0.090957,0.06541 0.1432455,0.1463504 0.054247,0.083963 0.1229731,0.2483194 0.1714954,0.4101381 0.017805,0.059363 0.056864,0.165034 0.086804,0.2348196 0.029958,0.069785 0.060323,0.1559647 0.067519,0.1915123 0.014429,0.071401 0.036932,0.1145357 0.059713,0.1145357 0.00823,0 0.02772,0.010116 0.043407,0.022428 0.022115,0.01737 0.032548,0.041735 0.046329,0.1081367 0.0098,0.047134 0.023761,0.1056586 0.031013,0.1300588 0.013689,0.045962 0.1723657,0.295579 0.1979583,0.3113962 0.00795,0.00494 0.064587,0.025722 0.1257885,0.046232 0.1975514,0.066159 0.4054804,0.188548 0.6824502,0.4017002 0.1508872,0.1161158 0.2807075,0.2040869 0.4103584,0.2780718 0.045747,0.026113 0.1032584,0.061105 0.1277966,0.077777 0.024547,0.016664 0.076944,0.043609 0.1164523,0.059862 0.1166299,0.047978 0.1316275,0.072161 0.1884779,0.3038993 0.012505,0.050925 0.046958,0.1457501 0.076584,0.2107212 0.029644,0.064976 0.061295,0.1359794 0.070359,0.1577955 0.030744,0.073994 0.1613795,0.1732213 0.4258925,0.3235165 0.029486,0.016741 0.061082,0.034934 0.070239,0.040391 0.00916,0.00546 0.046579,0.018508 0.083178,0.028978 0.05224,0.014938 0.077268,0.030273 0.1164524,0.071376 0.1026747,0.1076813 0.1923792,0.1642884 0.634493,0.40041 l 0.1742248,0.093049 0.035841,0.070646 c 0.024427,0.048142 0.037367,0.091345 0.040567,0.1356546 0.00425,0.058677 7.844e-4,0.07207 -0.035804,0.1374417 -0.022272,0.03984 -0.057641,0.0855 -0.078591,0.101475 -0.020945,0.016 -0.094391,0.04873 -0.1632002,0.07279 -0.068805,0.02408 -0.1686411,0.06427 -0.2218565,0.08937 -0.096127,0.04533 -0.09686,0.04599 -0.1136766,0.10215 -0.021486,0.07177 -0.079136,0.150083 -0.131043,0.17804 -0.046709,0.02518 -0.061165,0.01776 -0.043055,-0.02196 0.00897,-0.01961 0.0098,-0.04889 0.00277,-0.09709 -0.018739,-0.129471 -0.052711,-0.179867 -0.047698,-0.07075 0.00277,0.05933 -0.0012,0.07599 -0.030976,0.126981 -0.034231,0.05889 -0.087396,0.102012 -0.1258357,0.102091 -0.015058,0 -0.018582,-0.0052 -0.013171,-0.01933 0.031364,-0.08179 0.029921,-0.183114 -0.00398,-0.271747 -0.014151,-0.03709 -0.050362,-0.04064 -0.068509,-0.0067 -0.032344,0.06044 -0.1381279,0.15367 -0.174358,0.15367 -0.00555,0 -0.00758,-0.04842 -0.00462,-0.109779 0.00277,-0.06038 0.00157,-0.13336 -0.00277,-0.162183 l -0.00786,-0.05241 -0.069887,0.07623 c -0.070636,0.07705 -0.13278,0.123103 -0.1432408,0.106168 -0.00314,-0.0051 0.0012,-0.02886 0.00984,-0.05286 0.018628,-0.05229 0.021218,-0.179597 0.00462,-0.223131 l -0.011959,-0.031159 -0.015326,0.036229 c -0.017093,0.04043 -0.1233892,0.157866 -0.1428884,0.157866 -0.00703,0 -0.018425,-0.03721 -0.026037,-0.08495 -0.00749,-0.04673 -0.015446,-0.0869 -0.017842,-0.08927 -0.00231,-0.0023 -0.030189,0.0209 -0.061813,0.05169 -0.031605,0.03078 -0.066446,0.05599 -0.077388,0.05599 -0.013097,0 -0.032465,-0.02372 -0.056661,-0.06931 C 5.5175353,9.9523185 5.4722945,9.9011851 5.4363197,9.9009427 5.3307472,9.9001584 5.2866562,10.010146 5.3458345,10.126492 c 0.024585,0.04833 0.1065095,0.143129 0.1653715,0.191365 0.046329,0.03796 0.051148,0.03948 0.08328,0.02616 0.018739,-0.0078 0.048697,-0.02874 0.066539,-0.04656 0.02168,-0.02168 0.032428,-0.02693 0.032428,-0.01588 0,0.0091 0.00527,0.01831 0.011682,0.02047 0.030976,0.01031 0.037839,0.158854 0.00897,0.193826 -0.00583,0.0071 -0.00647,0.01541 -0.00157,0.01854 0.01368,0.0085 0.1378772,-0.01961 0.1802118,-0.04073 0.020311,-0.01012 0.038033,-0.01843 0.039411,-0.01843 0.00157,0 0.00842,0.0142 0.015567,0.03157 0.013846,0.03341 0.00795,0.07546 -0.017759,0.126474 -0.014309,0.02839 -0.013763,0.0305 0.00749,0.0305 0.012551,0 0.040567,-0.0074 0.062238,-0.01646 0.057752,-0.02411 0.075131,-0.0035 0.068065,0.08075 -0.00277,0.03478 -0.00897,0.072 -0.013569,0.08268 -0.012745,0.02991 0.056226,0.02537 0.1222405,-0.008 0.031327,-0.01588 0.05839,-0.02333 0.064042,-0.01768 0.00536,0.0054 0.01478,0.0526 0.020857,0.104918 0.010664,0.09148 0.010035,0.09695 -0.016667,0.142456 -0.030541,0.05205 -0.1301643,0.154346 -0.1827952,0.18767 -0.018471,0.01168 -0.047781,0.02325 -0.065161,0.02568 -0.01737,0.0023 -0.059056,0.0099 -0.092609,0.01658 -0.2271896,0.04518 -0.2852238,0.03658 -0.51439,-0.07607 -0.42065,-0.206816 -0.4441208,-0.214905 -0.6779874,-0.233718 -0.168802,-0.01357 -0.2711086,-0.0035 -0.3929727,0.03803 -0.1009848,0.03455 -0.1225032,0.0242 -0.067538,-0.0325 0.043222,-0.04458 0.050695,-0.03955 -0.1105393,-0.07446 -0.1389446,-0.03007 -0.3634159,-0.0349 -0.474745,-0.01023 -0.062959,0.01396 -0.071978,0.01952 -0.090476,0.05577 -0.019451,0.03815 -0.026111,0.084 -0.023687,0.163544 7.843e-4,0.02063 0.013171,0.04959 0.030347,0.06999 0.035841,0.0426 0.024547,0.05957 -0.029607,0.04441 -0.070479,-0.01972 -0.1109555,-0.05291 -0.1364029,-0.111788 l -0.024076,-0.05573 -0.055458,0.0067 c -0.097111,0.01177 -0.1861296,0.06229 -0.2879339,0.163493 -0.083456,0.08296 -0.092978,0.09678 -0.099784,0.144935 -0.00416,0.02929 -0.00435,0.06782 -3.922e-4,0.08566 0.00851,0.03854 0.0563,0.08156 0.1105717,0.09948 0.021486,0.0071 0.039087,0.01992 0.039087,0.02847 0,0.02262 -0.04534,0.03054 -0.1421272,0.02474 -0.1007657,-0.006 -0.157075,-0.03117 -0.2160702,-0.09646 -0.03486,-0.03858 -0.045238,-0.04401 -0.073393,-0.03838 -0.018036,0.0035 -0.035443,0.01349 -0.038699,0.02196 -0.00314,0.0085 -0.018156,0.01541 -0.033094,0.01541 -0.014974,0 -0.068768,0.01765 -0.1195739,0.03921 l -0.092381,0.03921 -0.028543,-0.03368 c -0.027563,-0.0325 -0.053072,-0.04695 -0.036978,-0.02089 0.00573,0.0093 -0.011839,0.01117 -0.065448,0.0068 -0.090531,-0.0072 -0.145445,-0.03744 -0.2302557,-0.126589 -0.075224,-0.07905 -0.11323,-0.142402 -0.1534511,-0.255781 -0.01686,-0.04752 -0.038697,-0.10184 -0.048501,-0.120707 -0.068186,-0.131023 -0.087341,-0.247916 -0.058853,-0.359095 0.018388,-0.07172 0.018388,-0.07174 -0.00694,-0.09112 -0.035757,-0.02737 -0.1286437,-0.04614 -0.199354,-0.04026 -0.1504127,0.01247 -0.2240799,0.09878 -0.1804865,0.21147 0.011959,0.03094 -0.014309,0.02313 -0.066733,-0.01984 -0.06554,-0.0537 -0.1559964,-0.194842 -0.1771577,-0.276413 -0.028386,-0.109474 -0.023835,-0.137054 0.03831,-0.232272 0.030504,-0.04672 0.055458,-0.08661 0.055458,-0.08865 0,-0.0039 -0.090457,-0.01266 -0.24954314,-0.02451 -0.0743912,-0.0055 -0.0970712,-0.0031 -0.14038995,0.01588 -0.0284229,0.01235 -0.0546167,0.01952 -0.0582239,0.01592 -0.0126622,-0.01266 -0.006289,-0.02446 0.0209402,-0.03874 0.0151317,-0.008 0.0504268,-0.04926 0.0784427,-0.091854 L 0.92599421,9.9063 0.90375911,9.860396 C 0.89152241,9.835146 0.86745591,9.797723 0.85027081,9.777218 0.80440391,9.7225 0.76911811,9.6703515 0.76911811,9.6573064 c 0,-0.00629 0.0181932,-0.035212 0.0404746,-0.064227 0.0507967,-0.066243 0.0923627,-0.1540162 0.092508,-0.1953232 1.2949e-4,-0.031096 -7.8433e-4,-0.031568 -0.0525726,-0.026388 -0.0289778,0.00277 -0.0614148,0.00888 -0.0720884,0.013411 -0.0160012,0.00675 -0.0194049,0.00231 -0.0194049,-0.025056 0,-0.022744 0.0262308,-0.072976 0.083132,-0.1592309 0.0457189,-0.069304 0.083391,-0.1306943 0.0837147,-0.1364307 3.3297e-4,-0.00573 -0.0308184,-0.018387 -0.0691934,-0.028118 -0.0725324,-0.018388 -0.0915396,-0.039679 -0.0593153,-0.066419 0.0393092,-0.032622 0.001202,-0.085139 -0.0995346,-0.1365759 -0.0303837,-0.015529 -0.0749927,-0.048651 -0.099099,-0.073587 -0.0241127,-0.024936 -0.0481514,-0.045321 -0.0534235,-0.045321 -0.0156404,0 0.0130599,0.4294609 0.0481422,0.7208956 0.11146608,0.9254107 0.37730447,1.8031787 0.79775099,2.6340497 0.2787336,0.550831 0.6151149,1.062875 0.9981742,1.519434 0.1987824,0.236922 0.2752097,0.316085 0.3051541,0.316085 0.014198,0 0.062395,-0.02494 0.1070976,-0.05537 0.044702,-0.03047 0.091253,-0.05547 0.1034517,-0.05558 0.018156,-1.65e-4 0.015132,-0.0056 -0.016621,-0.03024 -0.2747703,-0.212462 -0.4310563,-0.503512 -0.4347773,-0.809685 -0.00157,-0.126503 0.013522,-0.190058 0.056503,-0.238137 0.059232,-0.06629 0.1573839,-0.02999 0.1400684,0.05178 -0.025879,0.122216 -0.027563,0.160745 -0.011053,0.255286 0.041529,0.238137 0.1618031,0.441593 0.3689792,0.624149 0.2277584,0.200703 0.4137853,0.287792 0.7286594,0.341133 0.089458,0.01518 0.1684921,0.02753 0.1756316,0.02744 0.00712,0 -0.036229,-0.02482 -0.096354,-0.05502 C 3.6707085,13.887626 3.601899,13.834027 3.5318703,13.739567 3.4123047,13.578281 3.3902407,13.413381 3.4671163,13.255596 c 0.026776,-0.05495 0.095056,-0.127545 0.1199698,-0.127545 0.045663,0 0.067214,0.08447 0.040345,0.158145 -0.067112,0.184043 -0.020746,0.300507 0.1831846,0.460021 0.062617,0.04897 0.1462839,0.104541 0.1859325,0.123471 0.1059767,0.05059 0.275108,0.145547 0.3384198,0.189983 0.03043,0.02137 0.091234,0.06128 0.1351561,0.08873 0.084566,0.05285 0.300276,0.238235 0.3300095,0.283613 0.021643,0.03306 0.043333,0.0338 0.1004743,0.0035 0.1308673,-0.06953 0.1880108,-0.149126 0.2606117,-0.363016 0.066835,-0.196911 0.2302363,-0.454205 0.3500146,-0.551152 l 0.056254,-0.04553 -0.047939,-0.04416 c -0.044748,-0.04123 -0.047939,-0.048 -0.047939,-0.102043 0,-0.116504 -0.078276,-0.256957 -0.1432094,-0.256957 -0.020431,0 -0.06751,-0.04748 -0.06751,-0.06804 0,-0.0053 0.010507,-0.02012 0.023373,-0.03297 0.020117,-0.02012 0.033602,-0.02278 0.097178,-0.01921 0.1422762,0.008 0.218253,0.07447 0.2807537,0.245478 0.025019,0.06842 0.062747,0.107626 0.1036117,0.107626 0.013763,0 0.05925,-0.01678 0.1010912,-0.03728 0.093354,-0.04578 0.1252631,-0.05622 0.2590781,-0.08477 0.2380898,-0.05081 0.374822,-0.05066 0.5705614,7.83e-4 0.1703855,0.04463 0.388941,0.177025 0.4492736,0.272163 0.061979,0.09774 0.067436,0.203111 0.011451,0.220884 -0.038736,0.01231 -0.068379,-0.0019 -0.1383554,-0.06571 -0.079664,-0.07278 -0.2015064,-0.148131 -0.3279507,-0.202797 -0.079451,-0.03435 -0.1081604,-0.04089 -0.1986131,-0.04525 -0.1217226,-0.0058 -0.1935197,0.0089 -0.3240808,0.06644 -0.078905,0.03482 -0.083354,0.03858 -0.06886,0.0584 0.016824,0.02301 0.021255,0.100824 0.0062,0.110093 -0.00509,0.0031 -0.042389,2.51e-4 -0.082891,-0.0065 -0.066687,-0.01106 -0.080209,-0.0098 -0.1432446,0.01294 -0.09517,0.03434 -0.2002919,0.111308 -0.2472178,0.180991 -0.035249,0.05236 -0.050963,0.107941 -0.030347,0.107388 0.00462,-1.26e-4 0.040761,-0.005 0.080403,-0.01082 0.07687,-0.01129 0.2464529,0.0023 0.3024486,0.02407 0.047698,0.01863 0.087507,0.0726 0.083539,0.113262 l -0.00351,0.0345 -0.1940885,0.0055 c -0.184497,0.0053 -0.1972128,0.0071 -0.2573494,0.03663 -0.0446,0.02192 -0.090846,0.06037 -0.1567521,0.130381 -0.1723112,0.183046 -0.2158972,0.323813 -0.1888581,0.609993 l 0.00684,0.07273 0.1122772,-0.115531 c 0.1388299,-0.14285 0.2580552,-0.233495 0.3948891,-0.300226 0.093065,-0.04539 0.1137044,-0.05129 0.1793729,-0.05131 0.07774,0 0.1326663,0.02513 0.1403672,0.06425 0.00573,0.02913 -0.036775,0.06056 -0.099507,0.0736 -0.1359913,0.02827 -0.2595563,0.116394 -0.3150858,0.224723 -0.1496599,0.291972 -0.1139273,0.598051 0.096061,0.822904 0.1416491,0.151675 0.2963433,0.250021 0.5868013,0.373046 0.4206352,0.178165 0.5355355,0.200569 0.7377013,0.143841 z M 6.1743697,7.0426787 c -0.013254,-0.00275 -0.036581,-0.017174 -0.05186,-0.032466 -0.02945,-0.029447 -0.029329,-0.032308 0.00675,-0.1317369 0.036738,-0.1012514 0.2140816,-0.3067577 0.3052447,-0.3537271 0.096989,-0.049969 0.2535184,-0.082634 0.4405645,-0.091939 0.1330862,-0.00662 0.1331805,-0.00662 0.1691313,0.023644 0.030079,0.02529 0.035952,0.037916 0.035952,0.076875 0,0.037798 -0.012431,0.066288 -0.06579,0.1507929 -0.06961,0.1102344 -0.1872857,0.2555811 -0.2336557,0.2885879 -0.054358,0.0387 -0.1457308,0.056462 -0.3438103,0.066845 -0.202311,0.010587 -0.2228526,0.010861 -0.262553,0.00314 z M 5.0302446,6.7065412 c -0.070803,-0.00564 -0.1016628,-0.025094 -0.1016628,-0.064088 0,-0.034073 0.1044625,-0.2130189 0.176353,-0.30208 0.1411515,-0.17486 0.3194386,-0.2906307 0.4801864,-0.3118118 0.044544,-0.00588 0.128997,-0.018624 0.1876621,-0.028349 0.1410691,-0.023408 0.2940152,-0.016115 0.3703759,0.017684 0.074429,0.032897 0.116308,0.074455 0.116308,0.1153748 0,0.03772 -0.030236,0.069437 -0.1889524,0.1982525 -0.057724,0.046844 -0.1494165,0.124938 -0.203765,0.1735424 -0.054348,0.048601 -0.1371835,0.1115597 -0.184078,0.1399084 -0.077878,0.047079 -0.094292,0.052494 -0.1895406,0.062527 -0.1017609,0.010704 -0.3219507,0.010273 -0.4628866,-7.842e-4 z M 4.6734947,5.9635826 C 4.5469801,5.936018 4.4080401,5.8911075 4.3771625,5.8678244 4.2908025,5.8027006 4.314351,5.6766885 4.4239543,5.6174425 4.5331692,5.5584084 4.8370218,5.4996603 4.9563091,5.5145129 5.0396723,5.5249035 5.1630588,5.5600163 5.233746,5.5934855 5.3723447,5.6591069 5.3359582,5.7200783 5.0744133,5.8604532 4.8816345,5.96392 4.7868726,5.9882967 4.6734974,5.9635827 Z M 10.116548,16.161337 c 0.159443,-0.0376 0.531164,-0.186749 0.706756,-0.283593 0.282268,-0.155679 0.453081,-0.352265 0.500341,-0.575839 0.03208,-0.151734 0.0023,-0.339588 -0.07811,-0.496945 -0.05553,-0.108328 -0.179098,-0.19646 -0.315086,-0.224722 -0.06272,-0.01302 -0.105239,-0.04448 -0.09951,-0.07361 0.0077,-0.03913 0.06263,-0.06426 0.140367,-0.06424 0.06566,0 0.08631,0.0059 0.17937,0.05131 0.136838,0.06673 0.256063,0.157376 0.394893,0.300225 l 0.112278,0.115532 0.0068,-0.07273 c 0.02705,-0.28618 -0.01655,-0.426947 -0.188857,-0.609993 -0.0659,-0.07002 -0.112156,-0.108483 -0.156753,-0.130381 -0.06014,-0.02952 -0.07285,-0.03133 -0.25735,-0.03662 l -0.194088,-0.0055 -0.0035,-0.0345 c -0.004,-0.04067 0.03584,-0.09463 0.08354,-0.113261 0.05599,-0.02188 0.225579,-0.03537 0.302449,-0.02408 0.03965,0.0058 0.07583,0.0107 0.0804,0.01082 0.02063,3.93e-4 0.0049,-0.05502 -0.03035,-0.107383 -0.04693,-0.06969 -0.152052,-0.146649 -0.247218,-0.180996 -0.06303,-0.02274 -0.07657,-0.02396 -0.143246,-0.0129 -0.0405,0.0068 -0.0778,0.0096 -0.08289,0.0065 -0.01497,-0.0092 -0.01059,-0.08708 0.0062,-0.110094 0.01451,-0.01984 0.01003,-0.0236 -0.06886,-0.0584 -0.13056,-0.05758 -0.20236,-0.0723 -0.324084,-0.06644 -0.09045,0.0043 -0.119162,0.01091 -0.198613,0.04525 -0.126067,0.0545 -0.2480801,0.129874 -0.3279471,0.202573 -0.07318,0.06661 -0.093608,0.07675 -0.134167,0.06657 -0.060212,-0.0151 -0.056762,-0.120591 0.00721,-0.221524 0.060333,-0.09514 0.2788911,-0.227534 0.4492771,-0.272163 0.195736,-0.05127 0.332468,-0.05142 0.570561,-7.84e-4 0.133812,0.02854 0.165724,0.03898 0.259075,0.08477 0.04184,0.02051 0.08734,0.03728 0.101095,0.03728 0.04086,0 0.0786,-0.03921 0.103608,-0.107627 0.0625,-0.171005 0.138481,-0.237439 0.280753,-0.245476 0.06356,-0.0035 0.07706,-7.84e-4 0.09718,0.01921 0.01287,0.01287 0.02337,0.02768 0.02337,0.03297 0,0.02059 -0.04711,0.06804 -0.06751,0.06804 -0.06493,0 -0.143213,0.140453 -0.143213,0.256958 0,0.05404 -0.0031,0.06081 -0.04793,0.102042 l -0.04794,0.04417 0.05625,0.04552 c 0.119778,0.09695 0.283177,0.354242 0.350014,0.551157 0.0726,0.213885 0.129745,0.293485 0.260608,0.363011 0.05714,0.03035 0.07881,0.02961 0.100479,-0.0035 0.02972,-0.04538 0.245441,-0.230762 0.330005,-0.283613 0.04392,-0.02744 0.104741,-0.06738 0.135159,-0.08873 0.06331,-0.04443 0.232445,-0.139386 0.338417,-0.189982 0.03965,-0.01894 0.123322,-0.07449 0.185936,-0.123472 0.203922,-0.159513 0.250299,-0.275978 0.183184,-0.460021 -0.02686,-0.07367 -0.0053,-0.158144 0.04035,-0.158144 0.02494,0 0.0932,0.0726 0.119974,0.127545 0.07687,0.157784 0.05481,0.322685 -0.06475,0.48397 -0.07003,0.09446 -0.138838,0.14806 -0.283255,0.22063 -0.06014,0.03023 -0.103495,0.05498 -0.09635,0.05502 0.0071,0 0.08618,-0.01231 0.175628,-0.02749 0.314878,-0.05334 0.500905,-0.14043 0.728663,-0.341133 0.207172,-0.182556 0.327453,-0.386012 0.36898,-0.624149 0.01646,-0.09454 0.01482,-0.13307 -0.01106,-0.255287 -0.01733,-0.08179 0.08084,-0.118068 0.140069,-0.05178 0.04295,0.04808 0.05803,0.111634 0.05649,0.238137 -0.0035,0.306173 -0.160003,0.597223 -0.434773,0.809685 -0.0318,0.02458 -0.03481,0.03008 -0.01662,0.03024 0.01219,1.24e-4 0.05875,0.02513 0.103451,0.05558 0.04469,0.03047 0.09289,0.05537 0.107094,0.05537 0.06739,0 0.52883,-0.568087 0.828808,-1.020348 0.195441,-0.294654 0.315466,-0.500842 0.474525,-0.815171 0.420442,-0.830871 0.686285,-1.70864 0.79775,-2.6340503 0.03509,-0.2914346 0.06378,-0.7208956 0.04814,-0.7208956 -0.0053,0 -0.02933,0.020385 -0.05342,0.045321 -0.02411,0.024936 -0.0687,0.058039 -0.0991,0.073587 -0.100574,0.051435 -0.138846,0.1039531 -0.09953,0.136576 0.03223,0.026739 0.01322,0.048022 -0.05931,0.066419 -0.03838,0.00972 -0.07078,0.020468 -0.07202,0.023835 -0.0012,0.00351 0.03642,0.064782 0.08371,0.1364306 0.05909,0.08956 0.08595,0.1406613 0.08595,0.1635051 0,0.027368 -0.0035,0.031762 -0.0194,0.025056 -0.01066,-0.00453 -0.04311,-0.010544 -0.07209,-0.013411 -0.05178,-0.00518 -0.05267,-0.00462 -0.05257,0.026388 1.26e-4,0.041307 0.04171,0.1290783 0.09251,0.1953232 0.02227,0.029015 0.04047,0.057928 0.04047,0.064217 0,0.01306 -0.03529,0.065189 -0.08115,0.1199106 -0.01718,0.020506 -0.04125,0.057937 -0.05349,0.083178 l -0.02224,0.045904 0.05093,0.077435 c 0.028,0.042593 0.06331,0.083927 0.07844,0.091854 0.02725,0.01427 0.03364,0.02607 0.02094,0.03874 -0.0035,0.0035 -0.0298,-0.0035 -0.05822,-0.01592 -0.04331,-0.01882 -0.06599,-0.02141 -0.140386,-0.01588 -0.159086,0.01184 -0.249543,0.0207 -0.249543,0.02451 0,0.0019 0.02494,0.04194 0.05546,0.08865 0.06215,0.09522 0.0667,0.122797 0.03831,0.232271 -0.02117,0.08157 -0.111622,0.222708 -0.177161,0.276413 -0.05241,0.04295 -0.0787,0.05076 -0.06673,0.01984 0.04359,-0.112685 -0.03008,-0.198998 -0.18049,-0.21147 -0.07071,-0.0059 -0.163576,0.0129 -0.199351,0.04026 -0.02532,0.01937 -0.02532,0.01941 -0.0069,0.09112 0.02851,0.111179 0.0093,0.228072 -0.05886,0.359098 -0.0098,0.01886 -0.03164,0.07318 -0.04849,0.120703 -0.04022,0.113379 -0.07823,0.176731 -0.153452,0.255781 -0.08481,0.08913 -0.139728,0.119324 -0.230255,0.126589 -0.05363,0.0043 -0.07121,0.0023 -0.06545,-0.0068 0.01608,-0.02604 -0.0094,-0.01161 -0.03698,0.02094 l -0.02854,0.03369 -0.09237,-0.03921 c -0.05081,-0.02157 -0.104616,-0.03921 -0.119575,-0.03921 -0.01498,0 -0.02984,-0.0069 -0.03309,-0.01537 -0.0031,-0.0085 -0.02066,-0.01835 -0.0387,-0.02196 -0.02815,-0.0056 -0.03854,-2.08e-4 -0.07339,0.03838 -0.059,0.0653 -0.115305,0.09044 -0.216069,0.09646 -0.09679,0.0057 -0.142128,-0.0019 -0.142128,-0.02474 0,-0.0085 0.0176,-0.02137 0.0391,-0.02847 0.05426,-0.01792 0.102106,-0.06095 0.110571,-0.09948 0.0039,-0.01784 0.0039,-0.05638 -3.92e-4,-0.08566 -0.0068,-0.04815 -0.01631,-0.06198 -0.09978,-0.144935 -0.101808,-0.101204 -0.190822,-0.151746 -0.287937,-0.163493 l -0.05545,-0.0067 -0.02407,0.05573 c -0.02544,0.05888 -0.06592,0.09205 -0.1364,0.111787 -0.05414,0.01518 -0.06545,-0.0019 -0.02961,-0.04442 0.01717,-0.02038 0.02972,-0.04935 0.03035,-0.06999 0.0023,-0.07954 -0.0042,-0.125401 -0.02368,-0.163544 -0.01851,-0.03627 -0.02753,-0.04182 -0.09048,-0.05577 -0.111328,-0.0247 -0.335796,-0.01984 -0.47474,0.01023 -0.161238,0.0349 -0.153757,0.02988 -0.110544,0.07446 0.05497,0.05672 0.03345,0.06707 -0.06754,0.0325 -0.12186,-0.04171 -0.224166,-0.05162 -0.392968,-0.03803 -0.23387,0.01882 -0.257337,0.0269 -0.677992,0.233717 -0.229161,0.112669 -0.287199,0.121252 -0.514389,0.07607 -0.03356,-0.0067 -0.07522,-0.01415 -0.09261,-0.01658 -0.01737,-0.0023 -0.04671,-0.01399 -0.06516,-0.02569 -0.05263,-0.03332 -0.152275,-0.135622 -0.1828,-0.187669 -0.0267,-0.04551 -0.02733,-0.05098 -0.01667,-0.142457 0.0061,-0.05232 0.01549,-0.09953 0.02086,-0.104917 0.0056,-0.0056 0.0327,0.0019 0.06404,0.01768 0.06601,0.03341 0.134984,0.03796 0.122237,0.0081 -0.0045,-0.01066 -0.01066,-0.04787 -0.01357,-0.08267 -0.007,-0.08426 0.01031,-0.104874 0.06807,-0.08075 0.02168,0.0091 0.04969,0.01646 0.06224,0.01646 0.02121,0 0.02176,-0.0019 0.0075,-0.0305 -0.02568,-0.05101 -0.0316,-0.09307 -0.01776,-0.126475 0.0072,-0.01737 0.0142,-0.03157 0.01557,-0.03157 0.0016,0 0.01909,0.0082 0.03941,0.01842 0.04234,0.02114 0.166529,0.0492 0.180213,0.04073 0.0051,-0.0031 0.0043,-0.01145 -0.0016,-0.01854 -0.03098,-0.03752 -0.02126,-0.177749 0.01486,-0.213854 0.01368,-0.01368 0.0173,-0.01306 0.02682,0.0048 0.006,0.01133 0.03329,0.03239 0.06048,0.04682 l 0.04946,0.02623 0.05021,-0.04115 c 0.05978,-0.04898 0.141676,-0.143578 0.166413,-0.192218 0.05919,-0.116347 0.01509,-0.2262651 -0.09048,-0.2255557 -0.036,2.433e-4 -0.08122,0.051379 -0.13474,0.1523037 -0.0242,0.04561 -0.04356,0.06931 -0.05666,0.06931 -0.01094,0 -0.04578,-0.02521 -0.07739,-0.056 -0.0316,-0.03078 -0.05944,-0.05406 -0.06181,-0.05169 -0.0023,0.0023 -0.01039,0.04255 -0.01784,0.08927 -0.0079,0.04962 -0.0189,0.08495 -0.02646,0.08495 -0.01721,0 -0.133732,-0.126476 -0.14279,-0.155005 -0.0039,-0.01235 -0.01121,-0.02243 -0.01616,-0.02243 -0.02607,0 -0.0305,0.169583 -0.0062,0.237717 0.0085,0.02399 0.01298,0.04778 0.0098,0.05286 -0.01047,0.01694 -0.07261,-0.02914 -0.143242,-0.106168 l -0.06989,-0.07623 -0.0079,0.05241 c -0.0043,0.02882 -0.0055,0.101805 -0.0028,0.162183 0.0031,0.06136 7.84e-4,0.10978 -0.0046,0.10978 -0.03972,0 -0.133761,-0.08629 -0.185215,-0.169947 -0.01436,-0.02333 -0.02984,-0.03831 -0.03439,-0.03329 -0.01176,0.0129 -0.04149,0.111571 -0.04968,0.164814 -0.0062,0.04048 0.0043,0.115634 0.02282,0.164062 0.0099,0.02584 -0.02462,0.02423 -0.06964,-0.0031 -0.05493,-0.0336 -0.102687,-0.126093 -0.103225,-0.200118 -3.92e-4,-0.07509 -0.01404,-0.05771 -0.0391,0.05042 -0.01396,0.06017 -0.01478,0.0813 -0.0042,0.106913 0.01804,0.04355 0.0057,0.05091 -0.04201,0.02518 -0.05186,-0.02796 -0.109503,-0.106266 -0.130997,-0.178039 -0.01683,-0.05616 -0.01757,-0.05682 -0.113678,-0.10215 -0.05322,-0.02509 -0.1530466,-0.06531 -0.2218561,-0.08937 -0.068814,-0.02408 -0.1422448,-0.05682 -0.1631915,-0.07279 -0.02094,-0.016 -0.056318,-0.06164 -0.078591,-0.101475 -0.036544,-0.065373 -0.040049,-0.078757 -0.035794,-0.1374468 0.00314,-0.044304 0.016112,-0.087507 0.040567,-0.1356547 l 0.035841,-0.070645 0.1742285,-0.093049 C 10.181411,9.3322931 10.271111,9.275686 10.373786,9.1680047 c 0.03917,-0.041094 0.06421,-0.056439 0.116453,-0.071376 0.03658,-0.01047 0.07403,-0.023521 0.08318,-0.028978 0.0092,-0.00546 0.04076,-0.023641 0.07024,-0.040391 0.264513,-0.1502953 0.395137,-0.2495237 0.425888,-0.3235166 0.0091,-0.0218 0.04073,-0.092821 0.07036,-0.1577954 0.02964,-0.064967 0.0641,-0.1597957 0.07659,-0.2107214 0.05685,-0.2317376 0.07185,-0.2559222 0.188473,-0.3038953 0.03951,-0.016272 0.09192,-0.043194 0.116454,-0.059866 0.02455,-0.016664 0.08205,-0.051671 0.127796,-0.077777 0.129651,-0.073985 0.259471,-0.161956 0.410358,-0.2780719 0.27697,-0.2131521 0.484899,-0.3355415 0.68245,-0.4017002 0.06121,-0.020507 0.11781,-0.0413 0.125793,-0.046232 0.0256,-0.015801 0.184274,-0.2654346 0.197958,-0.3113963 0.0072,-0.024388 0.02121,-0.082925 0.03101,-0.1300588 0.0138,-0.066402 0.02423,-0.090751 0.04633,-0.1081366 0.01569,-0.012351 0.03521,-0.022429 0.04341,-0.022429 0.02278,0 0.04527,-0.043135 0.0597,-0.1145356 0.0072,-0.035563 0.03756,-0.1217268 0.06752,-0.1915124 0.02996,-0.069785 0.06901,-0.1754559 0.08681,-0.2348195 0.04852,-0.1618148 0.117245,-0.3261743 0.171492,-0.4101382 0.05229,-0.080941 0.07824,-0.1074504 0.143245,-0.1463505 0.03725,-0.02231 0.04585,-0.023565 0.07587,-0.011136 0.01863,0.00772 0.04633,0.032858 0.06157,0.055893 0.02446,0.036975 0.02945,0.062728 0.04269,0.2207237 0.01698,0.202691 0.0327,0.2494644 0.106051,0.3157406 l 0.04409,0.039829 -0.01337,0.064684 c -0.01149,0.055607 -0.01063,0.074624 0.0062,0.1355561 0.01078,0.038974 0.0291,0.092715 0.04071,0.1194173 0.01164,0.026701 0.02121,0.066625 0.02129,0.088724 3.92e-4,0.1066427 0.06777,0.2653756 0.151397,0.3568756 0.01423,0.015566 0.02588,0.036504 0.02588,0.046514 0,0.01 0.01203,0.032191 0.02678,0.049302 0.02655,0.030819 0.028,0.031133 0.158043,0.031133 h 0.131258 l 0.107337,-0.0516 c 0.139465,-0.067045 0.202475,-0.1094659 0.266533,-0.1794553 0.08282,-0.090477 0.08647,-0.055023 0.0078,0.074765 -0.06129,0.1010005 -0.09877,0.1748756 -0.09877,0.1947001 0,0.015801 0.109894,0.067343 0.167991,0.078796 0.08679,0.017095 0.256707,0.00314 0.287611,-0.023683 0.04383,-0.038034 0.05714,-0.00117 0.02627,0.072468 -0.01373,0.032858 -0.01443,0.044456 -0.0035,0.057619 0.01956,0.023565 0.08694,0.056078 0.134897,0.065077 0.04483,0.00843 0.05177,0.022702 0.02168,0.044695 -0.01066,0.00781 -0.01643,0.017135 -0.01286,0.020702 0.01718,0.017174 0.195241,0.052737 0.239207,0.047785 0.05497,-0.0062 0.05976,0.00392 0.02972,0.061716 -0.01039,0.020036 -0.01854,0.062046 -0.01878,0.096495 -3.92e-4,0.074491 0.04699,0.1744757 0.142386,0.2999509 0.03458,0.045472 0.06939,0.097652 0.07739,0.1159512 0.008,0.018311 0.03666,0.058827 0.0637,0.090061 0.07406,0.085548 0.126035,0.1606817 0.140241,0.2027263 0.0158,0.046828 0.01674,0.2168929 0.0012,0.2456811 -0.008,0.014817 -0.0073,0.043286 0.0019,0.093543 0.01247,0.067593 0.01521,0.072255 0.04294,0.072255 0.01631,0 0.0616,-0.016232 0.100671,-0.036035 l 0.07104,-0.036035 0.0035,-0.1497264 C 16.3979,8.3010186 16.38053,7.947715 16.355945,7.699227 16.261799,6.7470645 15.990377,5.8064455 15.563868,4.9542718 15.510441,4.8475232 15.457422,4.7521023 15.446047,4.7422215 c -0.04576,-0.039743 -0.32061,-0.1771577 -0.438529,-0.2192416 -0.264734,-0.094484 -0.264847,-0.094495 -0.707859,-0.092249 -0.488805,0.00235 -0.772554,0.016899 -0.900233,0.045742 -0.05987,0.013527 -0.154035,0.048804 -0.249539,0.093488 -0.286408,0.1340033 -0.452543,0.2088705 -0.573936,0.2586354 -0.0666,0.02729 -0.153943,0.066006 -0.194089,0.085999 -0.04014,0.019997 -0.110419,0.050291 -0.156168,0.067327 -0.04575,0.017017 -0.141638,0.055353 -0.213082,0.085156 -0.07145,0.029799 -0.187438,0.068813 -0.257758,0.086693 -0.07032,0.01788 -0.136732,0.037249 -0.147586,0.043075 -0.01086,0.0058 -0.05955,0.018624 -0.108238,0.028466 -0.238678,0.048244 -0.461205,0.1102893 -0.576497,0.1607444 -0.0671,0.029368 -0.143763,0.05667 -0.170366,0.060681 -0.05218,0.00788 -0.354602,0.1215542 -0.444432,0.1670768 C 10.194862,5.6710111 9.9533928,5.84364 9.8286239,5.9563368 9.5769988,6.1836084 9.311313,6.5637903 9.242669,6.7948065 9.229137,6.8402545 9.199216,6.9151178 9.17613,6.9611658 9.096716,7.1195498 9.0176751,7.3958493 8.9749751,7.6643344 c -0.03807,0.2395324 -0.042167,0.2869371 -0.054034,0.6282661 -0.00629,0.1799488 -0.019451,0.4070329 -0.029329,0.5046298 -0.0191,0.1887794 -0.017213,0.3716495 0.00712,0.6922054 0.00712,0.094017 0.010119,0.2387483 0.00666,0.3216297 -0.00351,0.082882 -0.011256,0.3827666 -0.017287,0.6664096 -0.00601,0.283648 -0.015881,0.573118 -0.021837,0.643264 -0.01306,0.153706 -0.013532,0.508849 -7.843e-4,0.654353 0.00509,0.05795 0.015252,0.410722 0.022698,0.783936 0.012505,0.626239 0.012033,0.69424 -0.00592,0.881715 -0.030467,0.317112 -0.022429,0.558052 0.027248,0.818092 0.00638,0.03321 0.018702,0.118072 0.027489,0.188544 0.040391,0.324433 0.086628,0.647976 0.1070551,0.749205 0.045312,0.224531 0.1016943,0.434582 0.136944,0.510174 0.072107,0.154651 0.2136496,0.271539 0.4441366,0.366788 0.2339452,0.09668 0.3587455,0.119005 0.4909565,0.08783 z m 0.351854,-9.1214146 c -0.16004,-0.00847 -0.264906,-0.030701 -0.315839,-0.067001 -0.04663,-0.03321 -0.1641675,-0.1783495 -0.2339029,-0.2887839 -0.053359,-0.084505 -0.06579,-0.1129986 -0.06579,-0.150793 0,-0.038936 0.00592,-0.05158 0.035952,-0.076875 0.035952,-0.03027 0.036035,-0.03027 0.1691349,-0.023644 0.187043,0.00929 0.343575,0.04197 0.440561,0.091939 0.05656,0.029133 0.195277,0.1684727 0.247786,0.2488841 0.05673,0.086865 0.09564,0.1961156 0.07923,0.2224292 -0.03113,0.049906 -0.09478,0.057721 -0.357154,0.043849 z m 0.950288,-0.333142 c -0.06834,-0.00769 -0.09477,-0.01737 -0.167364,-0.061261 -0.04741,-0.028663 -0.130678,-0.09188 -0.185023,-0.1404808 -0.05435,-0.048605 -0.146045,-0.126699 -0.203765,-0.1735429 -0.158717,-0.1288158 -0.188957,-0.1605405 -0.188957,-0.1982524 0,-0.04092 0.04188,-0.082462 0.116313,-0.1153748 0.07636,-0.03376 0.229306,-0.041065 0.370371,-0.017684 0.05867,0.00972 0.143116,0.022506 0.187662,0.028349 0.217971,0.028741 0.467765,0.2360586 0.607481,0.5042299 0.05401,0.1036628 0.05775,0.1402455 0.01662,0.1622618 -0.0274,0.014665 -0.448093,0.023604 -0.553328,0.011723 z M 12.047183,5.9480986 C 12.006623,5.9337876 11.921778,5.8943416 11.858639,5.8604526 11.597094,5.7200777 11.560707,5.6591064 11.699305,5.593485 11.769995,5.56 11.893378,5.524896 11.976742,5.514512 c 0.119292,-0.014861 0.42314,0.043895 0.532355,0.1029296 0.07524,0.040673 0.112694,0.1112813 0.09462,0.1784046 -0.01694,0.062846 -0.06278,0.093268 -0.194438,0.1289805 -0.217308,0.058944 -0.254299,0.061324 -0.362098,0.023252 z M 4.5958585,15.354128 c 0.039799,-0.01952 0.053054,-0.0336 0.065429,-0.06939 0.0093,-0.0269 0.012625,-0.06036 0.00823,-0.0835 -0.03435,-0.182995 -0.5095295,-0.657524 -0.760398,-0.75932 -0.2762521,-0.1121 -0.4798294,-0.105835 -0.5416003,0.01667 -0.013726,0.02721 -0.024936,0.05982 -0.024936,0.07247 0,0.03627 0.4016456,0.349826 0.7319881,0.57146 0.1672805,0.112233 0.436518,0.275558 0.4547233,0.275848 0.00916,1.25e-4 0.039096,-0.01075 0.066539,-0.02423 z m 7.9768725,-0.07066 c 0.297705,-0.180823 0.561198,-0.365254 0.843034,-0.590079 0.124487,-0.09931 0.174679,-0.145951 0.174679,-0.162328 0,-0.01262 -0.01121,-0.04526 -0.02494,-0.07247 -0.04947,-0.09811 -0.179597,-0.123464 -0.369038,-0.0719 -0.06085,0.01655 -0.138505,0.04142 -0.172563,0.05524 -0.250868,0.101796 -0.72607,0.576325 -0.760403,0.75932 -0.0043,0.02313 -0.0012,0.05661 0.0082,0.0835 0.01239,0.0358 0.02565,0.04985 0.06543,0.06939 0.02744,0.01348 0.05609,0.0247 0.06363,0.02494 0.0076,2.51e-4 0.08491,-0.04278 0.171908,-0.09562 z m -9.3964228,-0.91596 c 2.081e-4,-0.08172 0.060268,-0.174726 0.1328503,-0.205726 l 0.038976,-0.01667 -0.055449,-0.02549 c -0.030504,-0.01404 -0.1070783,-0.03878 -0.1701746,-0.05501 -0.1284005,-0.03306 -0.2431436,-0.03439 -0.2742839,-0.0031 -0.015529,0.01553 -0.00157,0.03239 0.1459851,0.174147 0.089745,0.08632 0.1674184,0.156957 0.1725979,0.156957 0.00518,0 0.00945,-0.01121 0.00949,-0.02494 z M 13.938823,14.235509 c 0.147382,-0.141763 0.161513,-0.15862 0.14599,-0.174146 -0.03113,-0.03113 -0.145884,-0.02976 -0.274288,0.0031 -0.0631,0.01623 -0.139673,0.04099 -0.17017,0.05502 l -0.05546,0.02548 0.03898,0.01667 c 0.07259,0.03101 0.13265,0.124013 0.132855,0.205726 0,0.01373 0.0043,0.02494 0.0095,0.02494 0.0052,0 0.08285,-0.07063 0.172597,-0.156957 z M 3.0430851,11.542871 c -0.061628,-0.01874 -0.1019967,-0.04776 -0.117257,-0.08429 -0.028266,-0.06767 -0.012782,-0.20976 0.027803,-0.254707 0.011016,-0.01219 0.023132,-0.03882 0.02698,-0.05916 0.017842,-0.09493 0.089116,-0.293005 0.1333765,-0.370594 l 0.04903,-0.08593 -0.050159,0.04416 c -0.027563,0.02427 -0.073263,0.07134 -0.1015028,0.104568 -0.028229,0.03321 -0.08378,0.09843 -0.1234318,0.144896 -0.1023029,0.119879 -0.1742369,0.295382 -0.1605406,0.391674 0.010822,0.07599 0.085028,0.146954 0.1771772,0.169387 0.046255,0.01126 0.1755807,0.01126 0.1385635,7e-6 z m 11.0428579,-0.0211 c 0.06438,-0.03286 0.111669,-0.0914 0.119761,-0.148315 0.01368,-0.09629 -0.05823,-0.271794 -0.16054,-0.391674 -0.03965,-0.04647 -0.09519,-0.111665 -0.123432,-0.144896 -0.02823,-0.03321 -0.07391,-0.08028 -0.101503,-0.104568 l -0.05016,-0.04416 0.04903,0.08594 c 0.04427,0.07759 0.115551,0.275664 0.133376,0.370595 0.0039,0.02035 0.01595,0.04696 0.02698,0.05916 0.04056,0.04495 0.05606,0.187043 0.0278,0.254707 -0.01509,0.03616 -0.05267,0.06343 -0.117253,0.0852 -0.01796,0.006 0.0039,0.0079 0.06183,0.0051 0.06153,-0.0031 0.103585,-0.01145 0.134141,-0.02705 z M 3.5255884,11.10362 c -0.018665,-0.05235 -0.020626,-0.107745 -0.00573,-0.159717 0.00842,-0.02926 0.00786,-0.03497 -0.00231,-0.0249 -0.019997,0.02 -0.041955,0.01564 -0.041955,-0.0083 0,-0.01858 0.051666,-0.0673 0.071413,-0.0673 0.00388,0 0.037052,-0.03215 0.073846,-0.07147 0.079784,-0.08529 0.1502712,-0.133889 0.3196966,-0.220437 l 0.1266755,-0.06472 -0.082318,0.0079 c -0.045275,0.0044 -0.1109084,0.01662 -0.1458482,0.02733 -0.085611,0.02627 -0.317376,0.153204 -0.3384513,0.185372 -0.066539,0.101549 -0.089976,0.285089 -0.047134,0.369069 0.017759,0.03478 0.074743,0.08374 0.085389,0.07335 0.0012,-0.0012 -0.00481,-0.02199 -0.013374,-0.04615 z m 9.9538406,-0.02709 c 0.04289,-0.08408 0.01949,-0.267554 -0.04709,-0.369163 -0.02106,-0.03215 -0.252833,-0.159101 -0.338447,-0.185372 -0.03493,-0.0107 -0.100577,-0.02301 -0.145849,-0.02733 l -0.08232,-0.0079 0.126679,0.06472 c 0.169425,0.08655 0.239913,0.135149 0.319693,0.220438 0.03677,0.03931 0.07,0.07147 0.07385,0.07147 0.01976,0 0.0714,0.0487 0.0714,0.0673 0,0.02313 -0.02176,0.02851 -0.0403,0.01 -0.0079,-0.0079 -0.008,0.0056 -1.69e-4,0.04362 0.01082,0.0529 0.0035,0.11403 -0.02066,0.171371 -0.01765,0.0419 0.0597,-0.01306 0.08322,-0.05914 z M 1.5348144,10.038106 c 0.15987,-0.02059 0.2829929,-0.049252 0.3889298,-0.090494 0.04533,-0.017648 0.1213461,-0.046006 0.1689112,-0.063006 0.047569,-0.017018 0.084556,-0.032816 0.082207,-0.035175 -0.00231,-0.00231 -0.031133,7.844e-4 -0.063921,0.00703 -0.032779,0.0062 -0.1646186,0.018785 -0.2929248,0.027914 -0.2321138,0.01651 -0.2989348,0.02784 -0.4173961,0.070655 -0.1159704,0.041927 -0.3220727,0.054931 -0.44931239,0.028349 -0.0294495,-0.0062 -0.0378386,-0.00277 -0.0569845,0.02439 l -0.0224664,0.03157 0.0736238,0.0016 c 0.0404931,7.84e-4 0.11604169,0.0066 0.16789279,0.01266 0.1086386,0.0127 0.2400617,0.0079 0.4214464,-0.01553 z m 14.3766846,0.0048 c 0.04745,-0.0065 0.101396,-0.0088 0.119876,-0.0051 l 0.0336,0.0067 -0.02435,-0.03419 C 16.019575,9.980685 16.011605,9.977041 15.981755,9.983312 15.854512,10.009894 15.648409,9.996881 15.532438,9.954963 15.413978,9.912148 15.347157,9.900837 15.115046,9.884308 14.986737,9.875148 14.85492,9.862628 14.822118,9.856394 c -0.03282,-0.0062 -0.06149,-0.00945 -0.06375,-0.00721 -0.0023,0.00231 0.02725,0.015567 0.06557,0.029523 0.03831,0.013957 0.120397,0.044406 0.182392,0.067621 0.152153,0.056985 0.347077,0.094464 0.591546,0.113743 0.06585,0.0052 0.2064,-0.0023 0.313631,-0.01718 z M 5.0224225,9.9921652 c 0.010942,-0.064301 0.062256,-0.1483622 0.111751,-0.1830274 0.029523,-0.020663 0.078628,-0.038625 0.1441787,-0.052721 l 0.099404,-0.021366 -0.1164524,0.00314 c -0.1430022,0.00351 -0.1947553,0.025759 -0.2445716,0.1043053 -0.032742,0.051601 -0.03905,0.090217 -0.025759,0.1567411 0.00933,0.04669 0.022855,0.043703 0.031447,-0.00694 z m 6.9196625,0.00694 c 0.01329,-0.06652 0.0069,-0.1051415 -0.02576,-0.1567411 C 11.866505,9.7638101 11.814756,9.74174 11.671758,9.7380579 l -0.116453,-0.00314 0.0994,0.021366 c 0.06555,0.014077 0.114649,0.03203 0.144177,0.05272 0.0495,0.034666 0.100833,0.1187351 0.111752,0.1830273 0.0086,0.050639 0.02211,0.053618 0.03145,0.00694 z m -4.66565,-0.152373 c 0.017758,-0.010072 0.018156,-0.013171 0.00351,-0.027757 -0.00916,-0.00906 -0.026268,-0.018036 -0.03807,-0.020034 -0.026508,-0.00453 -0.037247,0.027757 -0.037524,0.11281 l -2.118e-4,0.060999 0.026194,-0.057336 c 0.014429,-0.031521 0.035212,-0.062442 0.046228,-0.068694 z m 2.4457498,-0.014429 c -0.010544,-0.03979 -0.036507,-0.045053 -0.068592,-0.01392 -0.014271,0.013837 -0.013448,0.017758 0.00657,0.031836 0.012588,0.00879 0.032391,0.039984 0.044008,0.069277 l 0.021135,0.053266 0.00351,-0.051712 c 0.00194,-0.028423 -0.0012,-0.068361 -0.00647,-0.088728 z m -6.6845734,0.074993 c 0.1140263,-0.038384 0.2634901,-0.1126185 0.3271737,-0.1624857 0.024233,-0.018979 0.018314,-0.01823 -0.047319,0.00601 -0.2113642,0.078156 -0.6001756,0.1145905 -0.7900335,0.07404 -0.054894,-0.011719 -0.1008396,-0.020505 -0.1020901,-0.019488 -0.0074,0.00592 0.1472051,0.1004558 0.2024673,0.1237694 0.058982,0.024899 0.077749,0.027368 0.1768905,0.02353 0.091234,-0.00351 0.1325488,-0.011608 0.2329065,-0.045395 z m 11.2676236,0.021171 c 0.05486,-0.02255 0.210097,-0.1169037 0.202471,-0.1230563 -0.0012,-0.0012 -0.04719,0.00777 -0.10209,0.019488 -0.189693,0.040521 -0.577874,0.00416 -0.790038,-0.07392 -0.08531,-0.03141 -0.07342,-0.017999 0.04696,0.052887 0.230013,0.1354817 0.492459,0.1863598 0.6427,0.1246009 z M 4.0275289,9.6686477 c 0.032076,-0.012542 0.119402,-0.030347 0.1940885,-0.039605 0.1704216,-0.021097 0.2541187,-0.048762 0.3584481,-0.1185436 0.045284,-0.030273 0.082337,-0.057132 0.082337,-0.059658 0,-0.00231 -0.026194,0.00629 -0.058224,0.019608 -0.051713,0.021487 -0.076057,0.023956 -0.2175633,0.022079 -0.2134073,-0.00278 -0.2110709,-0.00389 -0.4383345,0.2007419 -0.027452,0.024705 -0.028821,0.027683 -0.00675,0.014623 0.015252,-0.00906 0.05396,-0.026703 0.086018,-0.039254 z m 8.9572421,0.023604 c -0.01898,-0.016547 -0.06688,-0.058696 -0.106455,-0.093703 -0.111735,-0.09884 -0.142139,-0.1085526 -0.331879,-0.1060193 -0.141508,0.00194 -0.165853,-3.921e-4 -0.217564,-0.022078 -0.03203,-0.013291 -0.05822,-0.022152 -0.05822,-0.019608 0,0.00231 0.03705,0.029366 0.08234,0.059658 0.104388,0.069822 0.188026,0.097456 0.358867,0.1185944 0.127459,0.015761 0.26954,0.057623 0.285992,0.084242 0.0035,0.00546 0.0096,0.00968 0.01376,0.00941 0.0043,-2.432e-4 -0.0079,-0.013957 -0.02682,-0.030504 z M 5.3719534,9.5063072 c 0.08389,-0.019766 0.1524244,-0.060915 0.2220729,-0.1333211 0.031993,-0.033251 0.081541,-0.066955 0.1379596,-0.093836 l 0.088053,-0.041955 -0.053081,-0.00795 c -0.034971,-0.00527 -0.068574,-0.00277 -0.09853,0.00703 -0.051712,0.017055 -0.1535695,0.088469 -0.2352429,0.1648933 -0.034352,0.03215 -0.081883,0.062155 -0.1247702,0.078785 -0.038107,0.01478 -0.069295,0.030624 -0.069295,0.035249 0,0.013217 0.054644,0.00953 0.1328308,-0.00888 z m 6.3219766,0.00888 c 0,-0.00462 -0.03117,-0.020468 -0.0693,-0.035249 -0.04289,-0.016621 -0.09043,-0.046653 -0.12477,-0.078785 -0.08167,-0.076426 -0.183533,-0.1478248 -0.235242,-0.1648924 -0.02996,-0.00988 -0.06353,-0.012274 -0.09853,-0.00703 l -0.05308,0.00795 0.08805,0.041927 c 0.05378,0.025602 0.105322,0.060157 0.132415,0.088756 0.06745,0.071201 0.136662,0.114547 0.21627,0.135465 0.07664,0.020154 0.144182,0.025685 0.144182,0.011839 z M 5.9879239,9.433747 C 6.095288,9.3707506 6.2103603,9.3133379 6.2761038,9.2899568 l 0.055458,-0.019719 -0.094273,0.00583 c -0.1772437,0.010942 -0.3215233,0.05556 -0.4064913,0.1257774 -0.084741,0.070026 -0.084362,0.07737 0.00407,0.07737 0.068491,0 0.082864,-0.00425 0.1530478,-0.045451 z m 5.1763291,0.028469 c -0.0053,-0.00933 -0.03313,-0.036507 -0.062,-0.06037 -0.08497,-0.070211 -0.229252,-0.1148569 -0.406496,-0.1257765 l -0.09427,-0.00583 0.05546,0.019719 c 0.06574,0.023373 0.180816,0.080792 0.288184,0.1437903 0.07018,0.041187 0.08456,0.045451 0.153047,0.045451 0.06466,0 0.07422,-0.00231 0.06608,-0.017019 z M 1.0936654,9.2022122 c 0.044387,-0.012117 0.1430882,-0.03474 0.2193351,-0.050297 0.076251,-0.015529 0.170625,-0.038384 0.2097289,-0.050815 0.073494,-0.023327 0.2165205,-0.093692 0.1673554,-0.082337 -0.062525,0.014429 -0.2671046,0.018739 -0.3604477,0.00758 -0.1371947,-0.01639 -0.2217196,-0.00444 -0.295928,0.041742 -0.032428,0.020191 -0.0639676,0.037524 -0.0700721,0.038467 -0.0238352,0.00388 -0.0411405,0.022235 -0.0927355,0.098934 -0.0941108,0.1399352 -0.0950284,0.1377126 0.0308184,0.074549 0.0611744,-0.030698 0.1475344,-0.065734 0.1919242,-0.07786 z M 16.128897,9.3101173 c -0.02502,-0.04731 -0.12035,-0.1842621 -0.13436,-0.19301 -0.0078,-0.00481 -0.01902,-0.00956 -0.02513,-0.010507 -0.0061,-7.844e-4 -0.03764,-0.018267 -0.07007,-0.038467 -0.07421,-0.046218 -0.158733,-0.058141 -0.295928,-0.041742 -0.09334,0.011173 -0.297928,0.00684 -0.360448,-0.00758 -0.04917,-0.011367 0.09387,0.059019 0.167359,0.082337 0.0391,0.012394 0.133478,0.035286 0.209726,0.050815 0.21312,0.043425 0.290901,0.067676 0.407911,0.1271888 0.0593,0.030152 0.10923,0.055088 0.110971,0.055403 0.0016,3.099e-4 -0.0028,-0.010664 -0.01004,-0.02439 z m -9.7504321,-0.04829 c -0.00351,-0.00351 -0.013254,-0.00407 -0.021255,-7.843e-4 -0.00888,0.00351 -0.0062,0.0062 0.00666,0.00666 0.011682,3.922e-4 0.01823,-0.00194 0.014549,-0.00583 z m 4.2033861,0 c -0.0035,-0.00351 -0.01325,-0.00407 -0.02126,-7.843e-4 -0.0089,0.00351 -0.0062,0.0062 0.0067,0.00666 0.01168,3.922e-4 0.01823,-0.00194 0.01455,-0.00583 z M 2.0616251,9.224229 c 0.09092,-0.017527 0.2638147,-0.066835 0.2767155,-0.078914 0.0062,-0.00583 -0.053359,-0.00984 -0.1441787,-0.00984 -0.1524864,7.4e-6 -0.2214606,0.00949 -0.5817123,0.080126 l -0.072088,0.014151 0.049909,0.0074 c 0.073013,0.010822 0.3939753,0.00194 0.4713562,-0.012856 z m 13.2756109,0.012782 0.05546,-0.0074 -0.07209,-0.014077 C 14.957041,9.144472 14.89151,9.135454 14.738897,9.135445 c -0.09083,-3.7e-6 -0.150366,0.00407 -0.144182,0.00984 0.0238,0.022272 0.249147,0.076732 0.387624,0.093652 0.05781,0.00703 0.297132,0.00573 0.354903,-0.00194 z M 1.0182879,9.0520113 c 0.011765,-0.00888 0.018267,-0.019294 0.014429,-0.023095 -0.00388,-0.00388 -0.020348,0.00351 -0.0367379,0.01651 -0.0330567,0.026 -0.011728,0.032308 0.0222721,0.00657 z m 14.9187601,-0.00657 c -0.01639,-0.012903 -0.03294,-0.020348 -0.03674,-0.01651 -0.0087,0.00869 0.03059,0.039134 0.05118,0.039615 0.0084,1.887e-4 0.0019,-0.010193 -0.01443,-0.023095 z M 5.1887189,8.8503754 c 0.025842,-0.00933 0.08735,-0.016158 0.1497264,-0.01651 L 5.4442999,8.8330822 5.3670874,8.7622886 C 5.2589982,8.6631776 5.2129852,8.6478193 5.0016525,8.6403339 c -0.177377,-0.00629 -0.1800547,-0.00499 -0.089708,0.041991 0.070072,0.03646 0.1360034,0.095154 0.1677282,0.1492908 0.021726,0.037089 0.033843,0.047883 0.047199,0.042176 0.00988,-0.00425 0.037718,-0.014826 0.06185,-0.023567 z m 6.6650341,-0.019257 c 0.03136,-0.053553 0.09753,-0.1123086 0.167351,-0.1486525 0.09035,-0.047023 0.08767,-0.048272 -0.08971,-0.041992 -0.213203,0.00749 -0.257945,0.022707 -0.365435,0.1237148 l -0.07721,0.072569 0.04991,-0.00407 c 0.07266,-0.00592 0.204969,0.010544 0.240775,0.029958 0.0428,0.023216 0.04204,0.023521 0.07432,-0.031568 z M 1.4154283,8.7522227 C 1.643194,8.7304962 1.8616745,8.6882828 1.9618084,8.6466419 2.0373931,8.6151945 2.0973725,8.5771525 2.3142381,8.4229622 2.3720549,8.3818503 2.4461745,8.3353397 2.4789464,8.3195974 l 0.059584,-0.028624 -0.066539,0.00741 C 2.3623053,8.3106164 2.0879429,8.4049468 1.829872,8.519145 1.755638,8.551998 1.6451586,8.596173 1.5843643,8.617318 1.4413233,8.66706 1.1015466,8.7258706 0.90265135,8.7353048 c -0.12933744,0.0061 -0.14141785,0.00823 -0.0887278,0.015132 0.16646936,0.021921 0.38360135,0.02255 0.60150935,0.00194 z m 14.7258867,-0.00314 c 0.02874,-0.00666 -0.0016,-0.010664 -0.116453,-0.015372 -0.200848,-0.00823 -0.516307,-0.062229 -0.669539,-0.114488 -0.06325,-0.021569 -0.176224,-0.066317 -0.251056,-0.099428 -0.25913,-0.1146613 -0.533328,-0.2089765 -0.643201,-0.2212335 l -0.06654,-0.00741 0.05958,0.028623 c 0.03278,0.015723 0.106886,0.062254 0.164709,0.1033648 0.309227,0.219857 0.352213,0.2409878 0.579786,0.2849614 0.237435,0.045885 0.419941,0.06073 0.676534,0.055051 0.125048,-0.00277 0.24483,-0.00906 0.26618,-0.01404 z M 5.5496606,8.4739358 V 8.3446826 l -0.023604,0.021134 c -0.012977,0.011606 -0.035757,0.040253 -0.050621,0.06363 -0.020117,0.031643 -0.031799,0.04048 -0.045691,0.034623 -0.010276,-0.00436 -0.072616,-0.027211 -0.13852,-0.050824 C 5.1850877,8.3752522 5.1603811,8.3704491 5.0749553,8.371374 l -0.096444,0.00117 0.1053644,0.020272 c 0.057946,0.011136 0.1303132,0.028035 0.1608153,0.037484 0.066705,0.020703 0.2221469,0.1077089 0.2603795,0.1457307 0.015095,0.015021 0.031327,0.027331 0.036035,0.027331 0.00472,0 0.0086,-0.058168 0.0086,-0.1292625 z m 5.8776904,0.1019218 c 0.04059,-0.038893 0.195519,-0.1253776 0.261031,-0.1457157 0.0305,-0.00949 0.102867,-0.026349 0.160815,-0.037484 l 0.105365,-0.020272 -0.09645,-0.00117 c -0.08542,-7.843e-4 -0.110132,0.00392 -0.21627,0.041872 -0.0659,0.023604 -0.128239,0.046476 -0.13852,0.050824 -0.01392,0.00588 -0.0256,-0.00314 -0.04569,-0.034623 -0.01486,-0.023369 -0.03764,-0.052012 -0.05062,-0.063629 l -0.0236,-0.021135 v 0.1292622 c 0,0.071099 0.0035,0.1292635 0.0078,0.1292635 0.0043,0 0.02054,-0.012311 0.03627,-0.027331 z M 3.9803246,8.2926669 c -0.00388,-0.00611 -0.016464,-0.011096 -0.028266,-0.011096 -0.034897,0 -0.1253029,-0.038308 -0.1812358,-0.076793 C 3.7293867,8.1762728 3.6943044,8.1644745 3.5999586,8.1473283 3.3904064,8.1092557 3.209598,8.0934655 2.9801858,8.0932426 2.7121905,8.0929838 2.6284897,8.1033982 2.4494302,8.1592598 c -0.074872,0.023369 -0.1952566,0.055877 -0.2675171,0.072263 -0.072264,0.01639 -0.1413623,0.034308 -0.1535611,0.039802 -0.029052,0.013136 0.1039927,0.00196 0.2218139,-0.018664 0.3329267,-0.058179 0.4606992,-0.073632 0.6044423,-0.073091 0.1462135,3.921e-4 0.3722969,0.024506 0.6543566,0.069342 0.1309764,0.020821 0.3788685,0.050475 0.4470538,0.053482 0.01823,7.842e-4 0.028312,-0.00314 0.024307,-0.00972 z m 9.1511924,-0.00616 c 0.09076,-0.00949 0.224912,-0.02678 0.298113,-0.038465 0.274338,-0.043774 0.503277,-0.067947 0.648808,-0.068496 0.143747,-3.92e-4 0.271515,0.0149 0.604446,0.073091 0.117817,0.020585 0.250868,0.031799 0.221814,0.018664 -0.01219,-0.00549 -0.0813,-0.023408 -0.153566,-0.039802 -0.07226,-0.01639 -0.192641,-0.048906 -0.267513,-0.072263 -0.179063,-0.055866 -0.26276,-0.066276 -0.530754,-0.066017 -0.229413,2.235e-4 -0.410225,0.015998 -0.619778,0.054086 -0.09435,0.017135 -0.129423,0.028937 -0.170861,0.057451 -0.05594,0.038504 -0.146346,0.076793 -0.181234,0.076793 -0.01177,0 -0.02451,0.00498 -0.02827,0.011096 -0.0087,0.013998 -0.01658,0.014272 0.178788,-0.00616 z M 2.3404809,7.4539972 c 0.047929,-0.00988 0.1245694,-0.032701 0.1703198,-0.050737 0.094951,-0.037446 0.1269456,-0.060219 0.066687,-0.047483 -0.021255,0.00451 -0.143547,0.00812 -0.2717237,0.008 C 2.1117652,7.3636403 2.0546679,7.3597356 1.9650115,7.3404871 1.8532753,7.3164909 1.7117474,7.2540762 1.6486437,7.2009747 c -0.044776,-0.03768 -0.051629,-0.035917 -0.029561,0.00757 0.032816,0.064614 0.092289,0.1281846 0.1515457,0.1619599 0.051435,0.029329 0.2087364,0.081015 0.285443,0.093802 0.067048,0.011175 0.2042127,0.0062 0.2843997,-0.010312 z M 15.004513,7.4330588 c 0.164435,-0.048687 0.25266,-0.1127085 0.309444,-0.2245426 0.02208,-0.043483 0.01521,-0.045236 -0.02956,-0.00757 -0.06311,0.053102 -0.204636,0.1155121 -0.316368,0.1395123 -0.08965,0.019252 -0.146758,0.023173 -0.340753,0.02329 -0.128176,8.62e-5 -0.250452,-0.00353 -0.271723,-0.008 -0.0566,-0.011959 -0.03043,0.0087 0.0556,0.043888 0.19361,0.079192 0.399563,0.09079 0.593353,0.033407 z M 8.0118074,6.0522946 C 8.0416454,5.941429 8.0453358,5.7769087 8.0227862,5.5591533 8.010753,5.4430453 7.9934199,5.3056228 7.9842077,5.2537757 7.9749585,5.2019246 7.9673834,5.1445295 7.9673094,5.1262302 c -1.258e-4,-0.024781 -0.00277,-0.029133 -0.01047,-0.017017 -0.00814,0.0129 -0.012708,0.00945 -0.022032,-0.016625 C 7.9199071,5.050912 7.8489841,4.9148973 7.8193227,4.871147 7.789716,4.8274749 7.5333738,4.5728429 7.4626514,4.5168434 7.4322677,4.4927686 7.3924036,4.4596759 7.3741086,4.4432973 7.3557952,4.4269077 7.3208701,4.4074205 7.2964707,4.3999786 7.2407228,4.3829619 7.0152471,4.2983982 6.9415604,4.2668656 6.8401251,4.2234526 6.5820542,4.0762355 6.5341081,4.0344301 6.4838376,3.9905974 6.3257906,3.8818492 6.2394195,3.8316565 6.1579061,3.7842912 6.0640496,3.7574638 5.937782,3.7454417 5.7598834,3.7285027 5.7160939,3.7223862 5.6439444,3.7045065 c -0.078665,-0.019526 -0.094273,-0.030427 -0.094273,-0.065951 0,-0.034073 0.044951,-0.061818 0.1542049,-0.09515 0.087081,-0.026584 0.1563368,-0.078847 0.1563368,-0.1180058 0,-0.054262 -0.060101,-0.313439 -0.083955,-0.3620435 C 5.7099875,2.9283412 5.5305656,2.7148088 5.4284634,2.649446 5.3496323,2.5989832 5.1789286,2.5263705 4.9674155,2.4533266 4.875913,2.4217238 4.7436611,2.370386 4.6735104,2.3392339 4.5031443,2.2635753 4.3696235,2.2307875 4.1368816,2.2074656 3.8794461,2.1816658 3.8105736,2.1930359 3.6088712,2.2947699 3.4754835,2.362034 3.3143038,2.4618977 3.2515996,2.5161288 3.2020053,2.5590202 3.1222067,2.70194 3.0876359,2.8097904 c -0.061526,0.1919241 -0.063792,0.2803225 -0.011525,0.4494343 0.040882,0.1323251 0.1544426,0.2920893 0.3458377,0.4865619 0.2508843,0.2549147 0.486178,0.408323 0.8587025,0.5598649 0.084936,0.034544 0.2217973,0.099334 0.3041459,0.1439704 0.1806984,0.097934 0.4321699,0.2065611 0.4946863,0.2136816 0.025482,0.00275 0.07343,-0.00275 0.1089291,-0.013253 0.05445,-0.015841 0.065651,-0.0238 0.079257,-0.05636 0.019248,-0.046118 0.019368,-0.075969 3.921e-4,-0.1290551 C 5.2511262,4.4172032 5.1251065,4.2410492 5.0510979,4.1613357 5.022786,4.1308308 4.9835878,4.078434 4.9640072,4.0448826 4.9443988,4.011319 4.9130902,3.9633812 4.8943883,3.9383183 c -0.03917,-0.052462 -0.056096,-0.1336859 -0.03117,-0.1494756 0.029135,-0.018468 0.108807,-0.010273 0.1719458,0.017645 0.040003,0.017684 0.090689,0.054968 0.1395088,0.1025886 0.1089799,0.1063134 0.2532243,0.2750174 0.296285,0.3465243 0.020191,0.033564 0.065309,0.100926 0.1002477,0.1497265 0.034934,0.048797 0.085204,0.1297843 0.1117205,0.179965 0.059685,0.112979 0.1935316,0.260545 0.2936693,0.3237865 0.086619,0.054709 0.1516198,0.08125 0.2740407,0.1118966 0.3347534,0.083799 0.7801691,0.2779228 1.0483485,0.4568958 0.1163506,0.077651 0.3467589,0.3050639 0.4358243,0.4301705 0.1078422,0.1514752 0.1509029,0.1876854 0.223907,0.1882853 0.038736,3.177e-4 0.041871,-0.00235 0.053118,-0.04404 z M 6.9609579,5.0709797 C 6.9268839,5.0462777 6.9294369,5.0235987 6.9755809,4.9415287 7.0606739,4.7901398 7.1645092,4.7217814 7.3519244,4.693766 7.5046152,4.670946 7.5199032,4.671848 7.5416019,4.704941 c 0.055079,0.084062 -0.069045,0.2743783 -0.226076,0.3466497 -0.054802,0.025212 -0.081504,0.02976 -0.1965081,0.033329 -0.1100694,0.00353 -0.1374027,0.00117 -0.1580424,-0.013959 z M 6.1743383,4.6396526 C 6.0656646,4.6039321 5.9821986,4.5200588 5.9821986,4.4465679 c 0,-0.1108068 0.2431094,-0.2141912 0.5043241,-0.2144735 0.1287695,-1.254e-4 0.1959586,0.012704 0.274257,0.052369 0.1175706,0.059579 0.1377441,0.1132417 0.067085,0.1784358 -0.1290751,0.1191076 -0.513002,0.222939 -0.6535301,0.1767539 z M 4.2220447,3.5897244 C 4.1493366,3.5671785 4.13488,3.5016746 4.1758356,3.3803912 4.1960637,3.3204784 4.2146916,3.2946037 4.3061461,3.1993204 4.4294918,3.0708103 4.5029085,3.0179399 4.6149619,2.9769226 4.8272278,2.8992208 5.2803954,2.8789216 5.3805293,2.9426135 5.4378005,2.9790397 5.4043276,3.062223 5.2634878,3.2334756 5.1205364,3.4072808 4.9682461,3.5251571 4.8295651,3.5693387 c -0.062895,0.020037 -0.1071014,0.0238 -0.3224344,0.02729 -0.1467269,0.00235 -0.2641874,-3.921e-4 -0.285086,-0.00694 z M 3.6766329,2.9061293 C 3.5391126,2.8816623 3.4126258,2.8305252 3.3922442,2.7911075 c -0.022309,-0.043115 -0.021255,-0.04857 0.017407,-0.092606 0.087266,-0.099385 0.2565651,-0.178675 0.4305901,-0.2016559 0.1757732,-0.023212 0.2189319,-0.020154 0.4062758,0.028624 0.093711,0.024388 0.1803534,0.044362 0.1925365,0.044362 0.023992,0 0.057003,0.02733 0.057003,0.047197 0,0.025996 -0.1092462,0.115861 -0.1953001,0.1606151 C 4.1970783,2.8315647 3.8856782,2.9252881 3.8154535,2.923704 3.7902405,2.9233119 3.7277805,2.915234 3.6766467,2.906138 Z m 5.35902,3.1780939 c 0.043157,-0.022154 0.086055,-0.068645 0.1626069,-0.1761734 0.08907,-0.1251067 0.3194774,-0.3525195 0.4358243,-0.4301706 0.2681827,-0.178973 0.7135989,-0.3730967 1.0483519,-0.4568959 0.122421,-0.030662 0.187414,-0.057187 0.27404,-0.1118968 0.100138,-0.063242 0.233977,-0.2108074 0.29367,-0.3237865 0.02651,-0.050181 0.07679,-0.1311685 0.11172,-0.1799651 0.03493,-0.048801 0.08004,-0.1161786 0.100248,-0.1497264 0.04306,-0.071507 0.187305,-0.2402108 0.296285,-0.3465243 0.04882,-0.04762 0.09951,-0.084901 0.139509,-0.1025886 0.06313,-0.027918 0.142805,-0.036113 0.171942,-0.017645 0.02494,0.015801 0.008,0.097013 -0.03117,0.1494757 -0.0187,0.025055 -0.05004,0.073016 -0.06962,0.1065643 -0.01956,0.033564 -0.05878,0.085956 -0.0871,0.1164531 -0.074,0.079713 -0.200017,0.2558673 -0.21696,0.3032994 -0.01898,0.053086 -0.01886,0.082937 3.92e-4,0.1290551 0.01361,0.032583 0.02482,0.040527 0.07926,0.05636 0.03548,0.010312 0.08345,0.016155 0.108925,0.013253 0.06252,-0.00714 0.313992,-0.1157472 0.494686,-0.2136814 0.08235,-0.044637 0.219218,-0.1094228 0.30415,-0.1439706 0.372526,-0.1515419 0.60782,-0.3049502 0.858704,-0.5598649 0.191297,-0.1943706 0.304955,-0.3542446 0.34578,-0.4863698 0.0523,-0.1692686 0.05006,-0.2576632 -0.01141,-0.4494342 -0.03462,-0.108019 -0.114395,-0.2509348 -0.164023,-0.2938539 -0.0627,-0.054231 -0.22388,-0.1540943 -0.357268,-0.2213587 -0.201703,-0.1017141 -0.270574,-0.1131007 -0.528015,-0.087304 -0.232737,0.02333 -0.366258,0.05611 -0.536625,0.1317683 -0.07015,0.031172 -0.202408,0.082494 -0.293904,0.1140927 -0.211517,0.073044 -0.382217,0.1456565 -0.461048,0.1961194 -0.102107,0.065362 -0.28153,0.2788953 -0.347798,0.4139102 -0.02384,0.048605 -0.08397,0.3077811 -0.08397,0.3620436 0,0.03917 0.06927,0.091437 0.156342,0.1180057 0.109254,0.033329 0.1542,0.061065 0.1542,0.09515 0,0.035524 -0.0156,0.04644 -0.09427,0.065951 -0.07214,0.01788 -0.115935,0.023996 -0.293834,0.040935 -0.126271,0.012038 -0.220131,0.038857 -0.301641,0.086215 -0.08637,0.050193 -0.244414,0.158941 -0.294685,0.2027736 C 10.351,4.0762442 10.092931,4.2234607 9.9914961,4.2668738 9.9178071,4.2983988 9.6923331,4.3829739 9.636589,4.399987 9.612199,4.407437 9.577255,4.426924 9.55896,4.443306 9.540647,4.459696 9.50081,4.492781 9.470408,4.516852 9.399689,4.572851 9.1433555,4.8274836 9.1137404,4.8711555 c -0.029681,0.04375 -0.1006047,0.179765 -0.1154849,0.2214411 -0.00933,0.026074 -0.013883,0.029525 -0.022032,0.016624 -0.00768,-0.012116 -0.01035,-0.00776 -0.01047,0.017017 -1.258e-4,0.018311 -0.00777,0.075695 -0.016935,0.1275455 -0.00925,0.051848 -0.026545,0.1892695 -0.038578,0.3053775 -0.02255,0.2177555 -0.018859,0.3822758 0.010979,0.4931414 0.011099,0.041127 0.014817,0.044378 0.051074,0.044378 0.021523,0 0.05002,-0.00561 0.063339,-0.01243 z M 9.6835628,5.0753478 C 9.5045903,5.0331815 9.3253385,4.8058825 9.3914696,4.7049565 c 0.02168,-0.033133 0.036978,-0.033995 0.1896738,-0.011175 0.1874188,0.027996 0.2912543,0.096374 0.3763431,0.2477627 0.046034,0.081894 0.048706,0.1049528 0.0149,0.1286199 -0.027803,0.019448 -0.2140692,0.02282 -0.2888353,0.00522 z M 10.496131,4.6314421 c -0.139681,-0.030545 -0.26407,-0.079416 -0.347658,-0.1366108 -0.114716,-0.078498 -0.112104,-0.1346856 0.0094,-0.2019029 0.08396,-0.046456 0.155832,-0.061434 0.292419,-0.060948 0.259773,7.842e-4 0.500568,0.1045332 0.500568,0.2153911 0,0.056474 -0.05736,0.1271652 -0.135713,0.1672336 -0.08385,0.042884 -0.177315,0.047817 -0.319007,0.016821 z m 1.713518,-1.040914 C 12.024163,3.5690804 11.851945,3.4552348 11.669566,3.2334878 11.56538,3.1068206 11.527567,3.0425009 11.527567,2.9919634 c 0,-0.069687 0.106215,-0.095907 0.343815,-0.084874 0.288372,0.01341 0.459997,0.054301 0.587813,0.1401083 0.03356,0.022506 0.109023,0.090978 0.167712,0.1521221 0.09146,0.095284 0.110073,0.1211583 0.13031,0.1810708 0.04209,0.1246596 0.02658,0.1875678 -0.05158,0.2092821 -0.04518,0.012548 -0.389699,0.013135 -0.495984,7.843e-4 z m 0.683375,-0.7165038 c -0.09985,-0.028976 -0.207953,-0.068955 -0.260636,-0.096354 -0.08612,-0.044789 -0.195381,-0.1346346 -0.195381,-0.1606581 0,-0.019879 0.03301,-0.047197 0.05701,-0.047197 0.01219,0 0.09882,-0.019958 0.192532,-0.044362 0.187348,-0.04878 0.230506,-0.05182 0.40628,-0.028623 0.174024,0.022977 0.343325,0.1022709 0.430586,0.2016559 0.03866,0.044037 0.03969,0.049491 0.01741,0.092606 -0.0211,0.040778 -0.147629,0.090622 -0.293827,0.1157355 -0.144143,0.024781 -0.161058,0.023212 -0.353958,-0.032819 z M 7.9528353,5.052061 c -0.00351,-0.00886 -0.0062,-0.00623 -0.00666,0.00671 -3.921e-4,0.011684 0.00194,0.018232 0.00583,0.014547 0.00351,-0.00353 0.00407,-0.013253 7.835e-4,-0.021252 z m 1.0314409,0 c -0.00351,-0.00886 -0.0062,-0.00623 -0.00666,0.00671 -3.922e-4,0.011684 0.00194,0.018232 0.00583,0.014547 0.00351,-0.00353 0.00407,-0.013253 7.843e-4,-0.021252 z M 8.0900345,4.011112 C 8.0760756,3.6992333 8.0585881,3.6328629 7.9469694,3.4681662 7.8994201,3.398016 7.8439581,3.3106762 7.8237134,3.2740778 7.7760974,3.1879966 7.6184306,2.9961784 7.5434933,2.9331566 7.4724871,2.8734436 7.2967028,2.7523171 7.213272,2.7056065 7.0977724,2.6409498 7.0163922,2.647219 7.0281785,2.719879 c 0.00684,0.042061 0.066317,0.1396771 0.1349803,0.2214882 0.025602,0.030505 0.063376,0.080356 0.083955,0.1107873 0.020589,0.030427 0.070044,0.090617 0.1099252,0.1337406 0.039873,0.043123 0.087387,0.1005731 0.1055919,0.1276631 0.018193,0.027094 0.069092,0.09733 0.1130967,0.1560902 0.044008,0.058756 0.1021336,0.1442528 0.1291765,0.189991 0.027054,0.045735 0.085065,0.1274239 0.1289573,0.1815256 0.043888,0.054101 0.097527,0.1308118 0.1191938,0.1704607 0.050196,0.091853 0.1366416,0.2252524 0.1422956,0.2195983 0.00231,-0.00235 0,-0.1014279 -0.00536,-0.2201001 z M 8.8920152,4.1585643 C 8.9187542,4.1173903 8.9583322,4.0512628 8.9799942,4.0116139 9.0016742,3.9719649 9.0553012,3.895255 9.0991881,3.8411531 9.1430761,3.7870521 9.2011062,3.7053619 9.228149,3.6596275 9.255203,3.6138895 9.313316,3.5283924 9.3573218,3.4696365 9.4013298,3.4108775 9.4522208,3.3406363 9.4704223,3.3135464 9.4886153,3.2864524 9.5361383,3.2290054 9.5760142,3.1858832 9.6158872,3.1427602 9.6653622,3.0825772 9.6859347,3.0521426 9.7065237,3.0217156 9.7442977,2.9718566 9.7698897,2.9413553 9.8385465,2.8595441 9.898038,2.7619275 9.9048649,2.7198672 9.9166669,2.6472191 9.8352737,2.64095 9.7197717,2.7055947 9.6363437,2.7523051 9.4605594,2.8734322 9.3895504,2.9331447 9.3146131,2.9961661 9.1569509,3.1879848 9.109334,3.2740659 9.089106,3.3106484 9.0336199,3.3980041 8.986078,3.4681544 8.8685786,3.6415125 8.8534783,3.7046795 8.8382772,4.0864613 c -0.00314,0.080827 -0.00351,0.1469543 -3.764e-4,0.1469543 0.00314,0 0.027368,-0.033681 0.05408,-0.074863 z M 7.4843964,4.0810465 C 7.4463238,3.9798735 7.4205703,3.9382093 7.300593,3.7836089 7.1829244,3.6319846 6.7796315,3.2266771 6.6432286,3.1229673 6.4579703,2.9821061 6.0932531,2.836179 5.9586298,2.8490516 c -0.035878,0.00353 -0.037367,0.00541 -0.035952,0.047276 0.0012,0.031368 0.032271,0.1048587 0.1108113,0.2606312 0.1022899,0.2029185 0.1147394,0.2222175 0.1926335,0.2986648 0.083151,0.081599 0.2596785,0.2098194 0.4416865,0.3208184 0.1272554,0.077608 0.5458392,0.2833966 0.623122,0.3063462 0.033565,0.00996 0.08845,0.030035 0.1219972,0.044593 0.100565,0.043653 0.1044238,0.041154 0.071487,-0.046334 z m 2.0467226,0.041523 c 0.044313,-0.018272 0.1011458,-0.038661 0.1262953,-0.045338 0.060795,-0.016115 0.4862867,-0.2266561 0.6078497,-0.30079 0.182007,-0.110999 0.358537,-0.2392189 0.441685,-0.3208184 0.0779,-0.076448 0.09035,-0.095746 0.192638,-0.2986648 0.07853,-0.1557726 0.109768,-0.2292557 0.11081,-0.2606313 0.0016,-0.041868 -1.24e-4,-0.043844 -0.03595,-0.047276 C 10.83982,2.836191 10.475102,2.9821066 10.289843,3.1229677 10.153441,3.2266776 9.7501489,3.6319851 9.632484,3.7836094 9.5125021,3.9382098 9.4867569,3.979874 9.4486769,4.081047 9.4155089,4.169171 9.4166839,4.169767 9.5311429,4.12257 Z M 2.8613083,4.0721025 c 0.1046781,-0.018272 0.1360459,-0.03674 0.1598506,-0.094205 0.017647,-0.042574 0.00398,-0.082179 -0.087488,-0.2543463 C 2.8466723,3.559858 2.7535724,3.4522075 2.6589473,3.4059125 c -0.054478,-0.026663 -0.06899,-0.028976 -0.1471347,-0.023644 -0.04768,0.00314 -0.1002052,0.013017 -0.116716,0.021683 -0.01651,0.00867 -0.059722,0.052843 -0.096013,0.098197 -0.080274,0.100326 -0.1018904,0.164336 -0.1033369,0.3060833 -7.844e-4,0.095899 7.843e-4,0.1042942 0.032391,0.1491933 0.018388,0.026153 0.050787,0.057713 0.072005,0.070107 0.092418,0.053968 0.3774257,0.076604 0.5611624,0.044566 z m 11.6161947,-0.00117 c 0.128655,-0.021369 0.180894,-0.047397 0.227099,-0.1131633 0.03192,-0.045405 0.03368,-0.053529 0.0327,-0.1496286 -0.0016,-0.1417473 -0.02306,-0.2057573 -0.103334,-0.3060833 -0.03631,-0.045354 -0.0795,-0.089544 -0.09601,-0.098197 -0.01651,-0.00867 -0.06904,-0.018389 -0.116719,-0.021683 -0.07814,-0.00537 -0.09266,-0.00314 -0.147135,0.023644 -0.09462,0.046295 -0.187729,0.1539455 -0.274723,0.3176385 -0.09149,0.1721663 -0.105118,0.2117722 -0.08749,0.2543461 0.02313,0.055882 0.05622,0.076432 0.150303,0.093417 0.120327,0.021722 0.283494,0.021604 0.41531,-2.94e-4 z M 8.2903218,2.9365913 C 8.3159699,2.725482 8.3145178,2.6707962 8.2767995,2.4199908 8.2391181,2.1695579 8.174948,1.9317819 8.1100129,1.8018643 8.0925226,1.7668893 8.0357694,1.6672062 7.983871,1.5803408 7.8701546,1.3899969 7.8258203,1.2800998 7.8096027,1.148402 c -0.01404,-0.1139671 -0.00388,-0.15357292 0.039522,-0.15357292 0.035684,0 0.09684,0.0428479 0.1238748,0.086791 0.0122,0.01984 0.051259,0.074546 0.086795,0.1215856 0.035526,0.04704 0.074919,0.1054939 0.087516,0.1298942 0.039929,0.077325 0.1407556,0.2023812 0.2279739,0.2827417 0.046376,0.042739 0.087442,0.077705 0.091262,0.077705 0.00388,0 0.044877,-0.034975 0.091262,-0.077705 0.087211,-0.080361 0.1880423,-0.2054162 0.2279693,-0.2827417 0.012588,-0.024388 0.051981,-0.082855 0.087516,-0.1298942 0.035526,-0.04704 0.074586,-0.1017532 0.086795,-0.1215856 0.027054,-0.043942 0.088182,-0.086791 0.1238758,-0.086791 0.04336,0 0.053553,0.0396061 0.039522,0.15357292 C 9.1072909,1.2800998 9.0629316,1.3899969 8.9492189,1.5803408 8.8973215,1.6672058 8.84056,1.7668931 8.8230771,1.8018643 8.7582308,1.9316016 8.6941475,2.1689502 8.6561924,2.4199908 8.619214,2.6646205 8.6172532,2.7342963 8.6420781,2.9301649 c 0.012348,0.097597 0.028784,0.2465746 0.036544,0.3310599 l 0.014077,0.1536121 0.031207,-0.037171 c 0.017176,-0.020429 0.051971,-0.074588 0.07736,-0.1203387 0.025408,-0.045746 0.078147,-0.1293571 0.1172293,-0.1857955 0.075825,-0.1095051 0.2502719,-0.458433 0.3746185,-0.7493146 0.041242,-0.096468 0.095483,-0.2058827 0.1205386,-0.2431477 0.025056,-0.037249 0.050482,-0.076863 0.056513,-0.088006 0.01404,-0.025996 0.079182,-0.027133 0.1169,-0.00196 0.078128,0.052023 0.07503,0.090136 -0.021763,0.2676696 -0.084991,0.1558823 -0.102079,0.2020636 -0.074761,0.2020636 0.035563,0 0.2771307,-0.067554 0.370497,-0.1036157 C 10.538065,2.0937534 10.903229,1.5730594 10.70186,1.156283 10.583698,0.91171593 10.301253,0.74867378 9.8917587,0.6886515 9.8246557,0.6788095 9.7671027,0.6665375 9.7638562,0.6614005 9.7560862,0.6490491 9.4227042,0.6015155 9.1708599,0.5768173 8.884589,0.5487431 8.0486128,0.5487431 7.7623383,0.5768173 7.510494,0.6015192 7.1771048,0.6490648 7.1693456,0.6614005 7.1662056,0.6665805 7.1085416,0.6788094 7.0414391,0.6886515 6.6319445,0.7486734 6.3495047,0.91171593 6.2313376,1.156283 6.0299681,1.5730594 6.395133,2.0937534 7.0721604,2.35522 c 0.093366,0.036073 0.33493,0.1036157 0.370497,0.1036157 0.027331,0 0.01023,-0.046181 -0.074762,-0.2020636 -0.096797,-0.1775341 -0.099894,-0.215646 -0.021763,-0.2676696 0.037718,-0.025134 0.1028514,-0.023996 0.1169,0.00196 0.00601,0.011135 0.031447,0.050745 0.056513,0.088006 0.025056,0.037249 0.079294,0.1466798 0.1205386,0.2431477 0.1239932,0.2900582 0.2988183,0.639829 0.3745168,0.7493146 0.039013,0.056439 0.09018,0.1375517 0.1136766,0.1802512 0.023484,0.042699 0.058076,0.096868 0.076843,0.120374 l 0.034111,0.042743 0.013846,-0.1425589 c 0.00758,-0.078404 0.02439,-0.2294987 0.03733,-0.3357612 z M 6.9851261,1.6056154 C 6.9176345,1.5948328 6.9039586,1.5878534 6.7754564,1.4984786 6.6545209,1.4143658 6.5328733,1.2948113 6.5384996,1.2655961 c 0.00453,-0.023448 0.1172015,-0.1181273 0.1782436,-0.149746 0.1108067,-0.057395 0.2928462,-0.05193 0.4299511,0.0129 0.087229,0.041253 0.103361,0.054301 0.1841483,0.1488834 0.1009775,0.1182175 0.1172145,0.1448056 0.1132697,0.1854701 -0.00314,0.033329 -0.011099,0.039688 -0.1102267,0.089234 -0.096986,0.048479 -0.1152333,0.05376 -0.1996324,0.057803 -0.051083,0.00235 -0.118194,3.921e-4 -0.1491271,-0.00455 z m 2.750335,0.00314 C 9.7166391,1.6060034 9.6542531,1.580088 9.5968273,1.5512692 9.5001943,1.5027515 9.4921603,1.496179 9.488937,1.4630473 9.484957,1.4224691 9.501285,1.3958184 9.6022066,1.2776518 9.6829986,1.18307 9.6991326,1.170021 9.786355,1.1287723 c 0.1371091,-0.064841 0.319148,-0.070307 0.429955,-0.0129 0.06105,0.031603 0.173723,0.1262869 0.178239,0.1497461 0.0083,0.043409 -0.264395,0.274641 -0.381844,0.323712 -0.03721,0.015527 -0.2178528,0.028192 -0.2772439,0.019448 z M 6.1818357,2.3997925 c 0,-0.00807 -0.00712,-0.03674 -0.015798,-0.063771 -0.00869,-0.027015 -0.02415,-0.088551 -0.034389,-0.1367558 C 6.0985927,2.043615 5.951445,1.7964248 5.8053415,1.6511173 5.7403287,1.586456 5.6093902,1.5113658 5.5223874,1.4888476 5.4242104,1.46344 5.1643833,1.4659493 5.001055,1.4938696 4.929901,1.5060249 4.8648713,1.5222573 4.856547,1.5299036 4.848227,1.5375526 4.82165,1.5557034 4.7975,1.5702385 4.712352,1.6214542 4.6749497,1.7449612 4.724302,1.811959 4.77804,1.884913 4.9801614,1.9953824 5.1836794,2.063031 5.2936397,2.099575 5.438033,2.153256 5.7049425,2.2567979 c 0.097981,0.037994 0.4417762,0.1528436 0.4685841,0.1565136 0.00462,7.842e-4 0.00832,-0.00545 0.00832,-0.013527 z m 4.7660463,-0.046668 c 0.09008,-0.028113 0.216187,-0.071428 0.280236,-0.096291 0.264404,-0.1026433 0.41108,-0.1571763 0.521263,-0.1938022 0.203518,-0.067649 0.40564,-0.1781182 0.459377,-0.251072 0.04935,-0.066998 0.01196,-0.1905045 -0.0732,-0.2417204 -0.02415,-0.014507 -0.05072,-0.032662 -0.05905,-0.040335 -0.0083,-0.00765 -0.07336,-0.023879 -0.144512,-0.036034 -0.163328,-0.027918 -0.423152,-0.030427 -0.521333,-0.00502 -0.087,0.022506 -0.21794,0.097609 -0.282953,0.1622698 -0.146104,0.1453075 -0.293251,0.3924977 -0.326304,0.5481487 -0.01024,0.048204 -0.02572,0.1097442 -0.03439,0.1367558 -0.02031,0.063171 -0.02015,0.082473 7.84e-4,0.074495 0.0091,-0.00353 0.09014,-0.02929 0.180224,-0.057391 z"
         id="path883" />
    </g>
  </g>
</svg>
