<?xml version="1.0" encoding="UTF-8" standalone="no"?>
<svg
   width="96"
   height="96"
   viewBox="0 0 25.399999 25.400001"
   version="1.1"
   id="svg8"
   inkscape:version="1.1 (c68e22c387, 2021-05-23)"
   sodipodi:docname="Nightfall.svg"
   xmlns:inkscape="http://www.inkscape.org/namespaces/inkscape"
   xmlns:sodipodi="http://sodipodi.sourceforge.net/DTD/sodipodi-0.dtd"
   xmlns="http://www.w3.org/2000/svg"
   xmlns:svg="http://www.w3.org/2000/svg"
   xmlns:rdf="http://www.w3.org/1999/02/22-rdf-syntax-ns#"
   xmlns:cc="http://creativecommons.org/ns#"
   xmlns:dc="http://purl.org/dc/elements/1.1/">
  <defs
     id="defs2" />
  <sodipodi:namedview
     id="base"
     pagecolor="#ffffff"
     bordercolor="#666666"
     borderopacity="1.0"
     inkscape:pageopacity="0.0"
     inkscape:pageshadow="2"
     inkscape:zoom="2.8"
     inkscape:cx="30"
     inkscape:cy="91.964286"
     inkscape:document-units="px"
     inkscape:current-layer="layer1"
     inkscape:document-rotation="0"
     showgrid="false"
     units="px"
     inkscape:window-width="1920"
     inkscape:window-height="1137"
     inkscape:window-x="-8"
     inkscape:window-y="-8"
     inkscape:window-maximized="1"
     inkscape:pagecheckerboard="0" />
  <metadata
     id="metadata5">
    <rdf:RDF>
      <cc:Work
         rdf:about="">
        <dc:format>image/svg+xml</dc:format>
        <dc:type
           rdf:resource="http://purl.org/dc/dcmitype/StillImage" />
        <dc:title />
      </cc:Work>
    </rdf:RDF>
  </metadata>
  <g
     inkscape:label="Layer 1"
     inkscape:groupmode="layer"
     id="layer1">
    <path
       style="stroke-width:0.999995"
       d="m 12.675812,24.866519 c -0.01217,-0.0198 -0.179609,-0.310489 -0.372102,-0.645961 -0.192499,-0.335473 -0.414513,-0.722386 -0.493372,-0.859809 -0.07886,-0.137422 -0.16211,-0.276314 -0.185003,-0.308649 -0.04048,-0.0572 -0.04182,-0.06509 -0.04898,-0.291743 l -0.0073,-0.232954 -0.176375,-0.05033 c -0.742191,-0.211788 -1.8165028,-0.644825 -2.5303177,-1.019915 -0.1586609,-0.08337 -0.1949509,-0.09747 -0.2022211,-0.07852 -0.00489,0.0127 -0.00832,0.168369 -0.00764,0.345935 l 0.00122,0.322847 -0.076444,0.134902 C 8.4579086,22.392975 7.9941184,23.181202 7.97136,23.212097 7.949348,23.242027 7.914433,23.186377 7.4484358,22.377713 l -0.1745465,-0.302898 -0.00306,-0.758038 c -0.00183,-0.416921 -0.00611,-0.765826 -0.00954,-0.775347 -0.00367,-0.0095 -0.047816,-0.04377 -0.098035,-0.0761 C 7.113057,20.432992 6.9726237,20.337757 6.8512006,20.253695 5.1819044,19.098053 4.1000779,17.871226 3.9783123,16.995754 c -0.0088,-0.06338 -0.021584,-0.118855 -0.028433,-0.123283 -0.00679,-0.0044 -0.016571,-0.107261 -0.021646,-0.228517 -0.00489,-0.121255 -0.010578,-2.42951 -0.012229,-5.129456 -0.00183,-2.6999459 -0.00697,-5.150401 -0.011801,-5.4454547 L 3.8953333,5.5325814 3.8538763,5.4150007 C 3.7933423,5.2433482 3.6796294,5.0295088 3.6015586,4.9404929 3.5188776,4.8462269 3.4431239,4.8050508 3.3523653,4.8050508 h -0.067823 l 0.00825,-0.1286034 c 0.00428,-0.070732 0.012351,-0.2074124 0.017427,-0.3037334 l 0.00917,-0.1751292 3.021191,0.00978 c 1.661659,0.00538 3.5758009,0.00978 4.2536567,0.00978 h 1.232587 l -0.0043,0.2976261 -0.0037,0.2976261 H 8.1297939 c -3.1075226,0 -3.6938855,0.00318 -3.7194811,0.020233 -0.016693,0.011129 -0.046471,0.043725 -0.066141,0.072434 -0.030267,0.044202 -0.035709,0.069261 -0.035281,0.1634895 3.852e-4,0.093716 0.00783,0.1269666 0.047082,0.2106188 0.048183,0.1026845 0.1642557,0.2393586 0.2464538,0.2901603 l 0.046654,0.02883 0.010395,5.7186154 0.010395,5.718616 0.035648,0.137196 c 0.1874666,0.721516 0.8366201,1.506947 1.8957432,2.293726 0.2547452,0.18924 0.632381,0.447849 0.6539716,0.447849 0.00984,0 0.014797,-1.225659 0.014797,-3.681745 V 12.550682 H 7.51989 7.7697497 l 0.00122,0.121255 c 6.114e-4,0.06669 0.00306,0.167553 0.00428,0.224138 0.00183,0.05658 0.0085,2.077137 0.015225,4.490112 0.00703,2.527941 0.017732,4.398066 0.025314,4.412797 0.021217,0.04119 0.099105,0.07404 0.1543317,0.06507 0.077141,-0.01252 0.1342026,-0.06164 0.153115,-0.1318 0.01229,-0.04552 0.015225,-1.257814 0.011373,-4.617976 l -0.0055,-4.556251 h 0.2572094 0.2572094 l 0.00734,4.066821 c 0.00489,2.804627 0.012107,4.0716 0.022746,4.082215 0.063885,0.06389 1.0908149,0.511098 1.6821798,0.732564 0.472516,0.176958 1.1956,0.414426 1.211994,0.398033 0.0031,-0.0033 1.65e-4,-1.804856 -0.007,-4.003468 -0.0072,-2.198607 -0.01498,-5.227659 -0.01743,-6.731222 -0.0024,-1.503562 -0.0078,-3.0909014 -0.0118,-3.5274194 -0.0055,-0.6223067 -0.0037,-0.7983165 0.01101,-0.8151915 0.01241,-0.014516 0.0184,-0.015714 0.0184,-0.00367 0,0.013623 0.110447,0.017848 0.466645,0.017848 l 0.466652,-6e-7 -0.0037,4.4921955 c -0.0024,3.130217 0.0012,4.497852 0.01174,4.51085 0.01082,0.01307 0.01082,0.02153 0,0.02825 -0.01082,0.0067 -0.01541,1.062898 -0.01516,3.495546 l 3.37e-4,3.485949 0.10333,0.17281 c 0.05687,0.09504 0.10602,0.17281 0.10931,0.17281 0.0031,0 0.05246,-0.07777 0.109304,-0.17281 l 0.10333,-0.17281 3.36e-4,-3.485949 c 2.76e-4,-2.432648 -0.0043,-3.488849 -0.01516,-3.495546 -0.01088,-0.0067 -0.01088,-0.01518 0,-0.02825 0.01082,-0.013 0.01437,-1.380633 0.01174,-4.51085 l -0.0037,-4.4921955 0.466652,6e-7 c 0.356198,0 0.466646,-0.00422 0.466646,-0.017848 0,-0.01204 0.0061,-0.010841 0.01834,0.00367 0.01443,0.016876 0.01681,0.1928848 0.01101,0.8151915 -0.0043,0.436518 -0.0094,2.0238574 -0.0118,3.5274194 -0.0025,1.503563 -0.01027,4.532615 -0.01743,6.731226 -0.0072,2.198612 -0.01027,4.000173 -0.007,4.003468 0.01639,0.01639 0.739478,-0.221075 1.211993,-0.398033 0.591365,-0.221466 1.618294,-0.668677 1.682179,-0.732564 0.01064,-0.01062 0.01767,-1.277588 0.02275,-4.082215 l 0.0073,-4.066821 h 0.257209 0.25721 l -0.0055,4.556251 c -0.0037,3.360162 -6.12e-4,4.572455 0.01137,4.617976 0.01889,0.07016 0.07597,0.11928 0.153115,0.1318 0.05521,0.009 0.133132,-0.02389 0.154332,-0.06507 0.0076,-0.01473 0.01834,-1.884856 0.02531,-4.412797 0.0067,-2.412975 0.01351,-4.433526 0.01516,-4.490112 0.0018,-0.05658 0.0037,-0.157447 0.0043,-0.224138 l 0.0012,-0.121255 h 0.24986 0.24986 v 3.681745 c 0,2.456086 0.0049,3.681745 0.0148,3.681745 0.02158,0 0.399226,-0.258609 0.653972,-0.447849 1.059129,-0.786779 1.708276,-1.57221 1.895743,-2.293725 l 0.03565,-0.137196 0.01039,-5.718616 0.0104,-5.718616 0.04665,-0.02883 c 0.0822,-0.0508 0.19829,-0.1874758 0.246454,-0.2901603 0.03926,-0.083652 0.04665,-0.1169026 0.04708,-0.2106188 3.86e-4,-0.094229 -0.0049,-0.1192861 -0.03528,-0.1634895 -0.01969,-0.028714 -0.04941,-0.061308 -0.06614,-0.072434 -0.02562,-0.017041 -0.611958,-0.020233 -3.719475,-0.020233 h -3.689052 l -0.0037,-0.2976261 -0.0043,-0.2976261 h 1.232459 c 0.677849,0 2.591996,-0.0044 4.253649,-0.00978 l 3.021191,-0.00978 0.0092,0.1751292 c 0.0049,0.096321 0.01284,0.2330012 0.01743,0.3037334 l 0.0083,0.1286034 h -0.06783 c -0.09076,0 -0.166512,0.041176 -0.249187,0.1354421 -0.07807,0.089016 -0.191783,0.3028553 -0.252324,0.4745078 l -0.04146,0.1175807 -0.0089,0.5364619 c -0.0049,0.2950537 -0.01021,2.7455088 -0.0118,5.4454543 -0.0018,2.699947 -0.0071,5.008202 -0.01223,5.129457 -0.0049,0.121255 -0.01486,0.224087 -0.02164,0.228517 -0.0068,0.0044 -0.01957,0.05991 -0.02843,0.123283 -0.09456,0.679841 -0.780384,1.592334 -1.89345,2.519233 -0.328157,0.273267 -0.94516,0.727288 -1.291495,0.950338 -0.0502,0.03233 -0.09432,0.06658 -0.09803,0.0761 -0.0037,0.0095 -0.008,0.358426 -0.0095,0.775347 l -0.0031,0.758038 -0.174553,0.302898 c -0.466004,0.808664 -0.500881,0.864313 -0.522924,0.834384 -0.02275,-0.0309 -0.486549,-0.819122 -0.605917,-1.029775 l -0.07644,-0.134902 0.0012,-0.322847 c 6.12e-4,-0.177566 -0.0031,-0.333237 -0.0076,-0.345935 -0.0073,-0.01894 -0.04354,-0.0048 -0.202221,0.07852 -0.713815,0.37509 -1.78812,0.808127 -2.530282,1.019916 l -0.176375,0.05033 -0.0073,0.232954 c -0.0072,0.226728 -0.0084,0.234524 -0.04904,0.291743 -0.02293,0.03233 -0.109965,0.177841 -0.193441,0.323347 -0.711026,1.23932 -0.845975,1.473335 -0.864062,1.498422 -0.02018,0.028 -0.02116,0.02783 -0.0428,-0.0074 z M 5.6702813,12.583746 c -0.00777,-0.01493 -0.010211,-0.264716 -0.0055,-0.595252 l 0.00758,-0.569532 0.3322902,-4e-6 0.3322964,-3e-6 -0.0055,0.244424 -0.0055,0.244422 0.6699245,-0.0064 c 0.3684579,-0.0035 0.6741865,-0.0107 0.67939,-0.01591 0.0055,-0.0052 0.010334,-0.616608 0.011373,-1.358668 l 0.00183,-1.3492021 -0.1602691,-0.00422 -0.160269,-0.00422 0.010272,-0.3473437 c 0.0055,-0.1910393 0.013697,-0.3528461 0.017855,-0.3595709 0.00887,-0.014388 0.7827384,-0.016332 1.051168,-0.00263 l 0.1855405,0.00946 0.00245,0.342285 c 0.00306,0.4001522 0.015531,0.3735477 -0.1744854,0.3735477 h -0.118702 l 6.115e-4,1.344251 c 4.402e-4,0.938043 0.0055,1.347188 0.016326,1.353968 0.00862,0.0053 0.295505,0.0048 0.6374623,-0.0011 L 9.618167,11.871208 9.628684,11.67082 c 0.0055,-0.110212 0.016571,-0.21196 0.023969,-0.226107 0.012168,-0.02325 0.043046,-0.02572 0.321608,-0.02572 h 0.308132 l -2.26e-4,0.576881 c -1.65e-4,0.317283 -0.0055,0.585282 -0.01205,0.595551 -0.0091,0.01436 -0.08466,0.01775 -0.3267999,0.0147 l -0.3149584,-0.004 0.00489,-0.12493 c 0.00245,-0.06871 5.504e-4,-0.153174 -0.00489,-0.187696 l -0.00936,-0.06277 -0.6420727,0.0055 c -0.3531409,0.0031 -0.6519967,0.0055 -0.6641219,0.0055 -0.012107,-1.5e-5 -0.4635211,-0.0014 -1.0031075,-0.0031 l -0.9810645,-0.003 v 0.188899 0.188889 h -0.322826 c -0.2925577,0 -0.3240844,-0.0024 -0.3362157,-0.02572 z m 9.4572357,0.0028 c -0.0049,-0.01294 -0.009,-0.280931 -0.009,-0.595534 v -0.572003 h 0.308132 c 0.278525,0 0.309428,0.0025 0.321608,0.02572 0.0074,0.01415 0.01822,0.115894 0.02397,0.226107 l 0.01052,0.200387 0.621741,0.01084 c 0.341958,0.006 0.628811,0.0065 0.637463,0.0011 0.01094,-0.0068 0.0159,-0.415925 0.01633,-1.353968 l 6.11e-4,-1.3442508 h -0.118708 c -0.189992,0 -0.177561,0.026604 -0.174486,-0.3735483 l 0.0024,-0.342285 0.185541,-0.00946 c 0.268429,-0.013691 1.042271,-0.011746 1.051168,0.00263 0.0043,0.00673 0.01217,0.168531 0.01785,0.3595703 l 0.01027,0.3473437 -0.160269,0.00422 -0.160269,0.00422 0.0018,1.3492031 c 0.0012,0.74206 0.0062,1.353461 0.01137,1.358667 0.0055,0.0052 0.310932,0.01236 0.67939,0.01591 l 0.669919,0.0064 -0.0055,-0.244423 -0.0055,-0.244423 0.33229,3e-6 0.332296,4e-6 0.0076,0.569531 c 0.0043,0.330537 0.0018,0.580326 -0.0055,0.595253 -0.01211,0.02331 -0.04366,0.02572 -0.336222,0.02572 h -0.322826 v -0.188892 -0.188889 l -0.981064,0.003 c -0.539581,0.0016 -0.990983,0.003 -1.003108,0.0031 -0.01211,1.4e-5 -0.310981,-0.0024 -0.664122,-0.0055 l -0.642072,-0.0055 -0.0094,0.06277 c -0.0049,0.03452 -0.0072,0.118986 -0.0049,0.187697 l 0.0049,0.12493 -0.317988,0.004 c -0.280343,0.0035 -0.319054,0.0012 -0.327015,-0.01958 z M 8.8998201,6.9058462 c -0.00783,-0.00489 -0.011801,-0.3061022 -0.0096,-0.7275307 l 0.00367,-0.7192269 h 0.3821362 0.3821362 l 0.00734,0.1763711 0.00734,0.1763711 h 0.8818495 c 0.769586,0 0.881856,0.00275 0.881856,0.021798 0,0.013556 -0.01963,0.024984 -0.05185,0.030231 -0.149917,0.024366 -0.32812,0.28224 -0.370317,0.5358785 l -0.01957,0.1175808 -0.558101,0.00895 c -0.306952,0.00495 -0.6060522,0.00988 -0.6646543,0.011025 l -0.1065586,0.00208 v 0.1694837 c 0,0.1222963 -0.00489,0.1713064 -0.018344,0.1760312 -0.029289,0.010432 -0.7326662,0.030163 -0.7474879,0.020973 z m 7.2254479,-0.00257 c -0.194009,-0.00641 -0.36101,-0.014644 -0.371112,-0.018289 -0.01327,-0.00477 -0.0184,-0.053869 -0.0184,-0.1761187 V 6.5393872 l -0.106558,-0.00208 c -0.05858,-0.00116 -0.357703,-0.00611 -0.664654,-0.011025 l -0.558101,-0.00895 -0.01957,-0.1175808 c -0.04219,-0.2536385 -0.2204,-0.5115101 -0.370317,-0.5358785 -0.03222,-0.00526 -0.05185,-0.016674 -0.05185,-0.03023 0,-0.019022 0.112264,-0.021799 0.88185,-0.021799 h 0.881855 l 0.0073,-0.1763705 0.0073,-0.1763711 h 0.382137 0.382136 l 0.0037,0.7222305 c 0.0031,0.5704956 -1.72e-4,0.723424 -0.01468,0.7279109 -0.01015,0.00312 -0.177243,4.329e-4 -0.371253,-0.00599 z M 11.406929,6.5299119 c -0.03754,-0.027436 -0.03528,-0.1160013 0.0055,-0.2238049 0.04806,-0.1264499 0.08753,-0.1700486 0.257032,-0.283828 0.166536,-0.1117896 0.284438,-0.2255836 0.333629,-0.3220153 0.01578,-0.030946 0.0469,-0.1243214 0.06912,-0.2074998 l 0.04042,-0.1512322 -0.0049,-1.511742 c -0.0055,-1.6457128 -0.0084,-1.5840278 0.07862,-1.7217261 0.112203,-0.1775097 0.252447,-0.246926 0.507082,-0.2509952 0.256408,-0.0041 0.416096,0.075632 0.532132,0.2656922 0.0752,0.1231737 0.07378,0.087537 0.06826,1.7070291 l -0.0049,1.511742 0.04042,0.1512322 c 0.0222,0.083178 0.05332,0.1765528 0.06912,0.2074998 0.04922,0.096432 0.167099,0.2102257 0.333636,0.3220153 0.169502,0.1137794 0.208984,0.1573781 0.257032,0.283828 0.04097,0.1078036 0.04323,0.1963713 0.0055,0.2238049 -0.04348,0.031777 -2.544157,0.031777 -2.587613,0 z m 0.25041,-5.0074787 c -0.01938,-0.029582 -0.02201,-0.1040693 -0.01871,-0.52543843 l 0.0037,-0.4909682 h 1.05823 1.058225 l 0.0037,0.4909682 c 0.0031,0.42136913 6.11e-4,0.49585373 -0.01871,0.52543843 l -0.02256,0.034468 h -1.02087 -1.020803 z M 6.814348,0.80732697 c 0,-0.00808 0.0066,-0.014699 0.014675,-0.014699 0.00807,0 0.014675,0.00662 0.014675,0.014699 0,0.00808 -0.0066,0.014699 -0.014675,0.014699 -0.00807,0 -0.014675,-0.00662 -0.014675,-0.014699 z"
       id="path24" />
  </g>
</svg>
