<?xml version="1.0" encoding="UTF-8" standalone="no"?>
<svg
   xmlns:dc="http://purl.org/dc/elements/1.1/"
   xmlns:cc="http://creativecommons.org/ns#"
   xmlns:rdf="http://www.w3.org/1999/02/22-rdf-syntax-ns#"
   xmlns:svg="http://www.w3.org/2000/svg"
   xmlns="http://www.w3.org/2000/svg"
   xmlns:sodipodi="http://sodipodi.sourceforge.net/DTD/sodipodi-0.dtd"
   xmlns:inkscape="http://www.inkscape.org/namespaces/inkscape"
   width="96"
   height="96"
   viewBox="0 0 25.399999 25.399999"
   version="1.1"
   id="svg8"
   inkscape:version="1.0.2-2 (e86c870879, 2021-01-15)"
   sodipodi:docname="Raid.svg">
  <defs
     id="defs2" />
  <sodipodi:namedview
     id="base"
     pagecolor="#ffffff"
     bordercolor="#666666"
     borderopacity="1.0"
     inkscape:pageopacity="0.0"
     inkscape:pageshadow="2"
     inkscape:zoom="2.8"
     inkscape:cx="67.899945"
     inkscape:cy="97.475058"
     inkscape:document-units="px"
     inkscape:current-layer="layer1"
     inkscape:document-rotation="0"
     showgrid="false"
     units="px"
     inkscape:window-width="1920"
     inkscape:window-height="1121"
     inkscape:window-x="-9"
     inkscape:window-y="-9"
     inkscape:window-maximized="1" />
  <metadata
     id="metadata5">
    <rdf:RDF>
      <cc:Work
         rdf:about="">
        <dc:format>image/svg+xml</dc:format>
        <dc:type
           rdf:resource="http://purl.org/dc/dcmitype/StillImage" />
        <dc:title></dc:title>
      </cc:Work>
    </rdf:RDF>
  </metadata>
  <g
     inkscape:label="Layer 1"
     inkscape:groupmode="layer"
     id="layer1">
    <path
       style="fill:#000000;stroke-width:0.999997"
       d="m 12.62962,24.826418 c -0.215383,-0.06465 -0.47737,-0.508573 -0.610803,-1.034973 -0.08358,-0.329734 -0.08304,-0.314294 -0.08834,-2.527568 l -0.0049,-2.035991 0.05844,-0.04992 c 0.164913,-0.140863 0.367384,-0.18791 0.759747,-0.176541 0.354624,0.01028 0.548082,0.05697 0.672083,0.162238 l 0.05844,0.04961 -0.0049,2.035992 c -0.0053,2.213272 -0.0048,2.197833 -0.08834,2.527567 -0.113013,0.445836 -0.318761,0.838554 -0.514545,0.982124 -0.038,0.02787 -0.19583,0.09307 -0.19583,0.0809 0,-5.35e-4 -0.0185,-0.0066 -0.04113,-0.01345 z m -1.589159,-3.117614 c -0.0033,-0.0032 -0.361688,-0.06309 -0.796313,-0.133074 l -0.7902247,-0.127248 -0.10832,0.04906 c -0.104472,0.04732 -0.11455,0.04901 -0.283647,0.0477 -0.1695694,-0.0013 -0.3839022,-0.03814 -0.4604555,-0.07911 -0.025739,-0.01376 -1.2558644,-1.004358 -1.4271728,-1.149259 -0.053096,-0.04491 -0.091537,-0.09542 -0.1278423,-0.167994 -0.044675,-0.0893 -0.051971,-0.118265 -0.052295,-0.207736 -2.286e-4,-0.06055 0.01296,-0.155822 0.031563,-0.228151 L 7.0576996,19.5888 6.6588213,19.026296 6.259943,18.463792 6.156066,18.463444 C 6.063409,18.463177 6.0403533,18.456844 5.9426108,18.405014 5.8148969,18.337294 5.6557203,18.188561 5.6067591,18.091196 5.5885751,18.055036 5.3791026,17.667126 5.1412663,17.229177 l -0.4324309,-0.796272 0.00426,-0.109575 c 0.00533,-0.138865 0.031296,-0.215812 0.111455,-0.33048 l 0.063888,-0.09138 -0.1449762,-0.880927 c -0.079736,-0.484512 -0.1449746,-0.88927 -0.1449746,-0.899464 0,-0.01017 -0.016525,-0.01854 -0.036745,-0.01854 -0.07746,0 -0.2206851,-0.19019 -0.256282,-0.340313 -0.00993,-0.04184 -0.023546,-0.07969 -0.030278,-0.0841 -0.00672,-0.0043 0.1059916,-0.503687 0.2504983,-1.109508 0.1445094,-0.605822 0.2627427,-1.103539 0.2627427,-1.106037 0,-0.0024 0.00722,-0.0046 0.016013,-0.0046 0.00882,0 0.04443,-0.02501 0.079155,-0.05557 0.039941,-0.03516 0.101152,-0.06827 0.1666107,-0.09013 0.056913,-0.01901 0.1034753,-0.0399 0.1034753,-0.04641 0,-0.0065 0.1152185,-0.272084 0.2560404,-0.590138 L 5.6657579,10.097456 5.6350029,9.9941865 c -0.016914,-0.05677 -0.036196,-0.136913 -0.04285,-0.178073 -0.015111,-0.09355 0.00818,-0.399822 0.036621,-0.481438 0.011676,-0.03351 0.021331,-0.0701 0.021439,-0.08131 1.105e-4,-0.01122 0.2260034,-0.32022 0.5019687,-0.686694 0.2759656,-0.366442 0.5103317,-0.682445 0.5208137,-0.7021968 0.010474,-0.01975 0.019736,-0.048997 0.020566,-0.064981 0.00217,-0.041543 0.2052578,-0.2121658 0.3170998,-0.2663911 0.051429,-0.024932 0.1378056,-0.060197 0.1919492,-0.078355 0.090086,-0.030221 0.1148953,-0.032199 0.2922103,-0.023359 0.1065707,0.00533 0.2287015,0.013414 0.271399,0.017997 0.077348,0.0083 0.079911,0.00722 0.7013035,-0.2960362 l 0.6236712,-0.3043714 0.0014,-0.1042371 c 0.0012,-0.089426 0.0082,-0.1160844 0.04917,-0.1876276 0.02624,-0.045865 0.08147,-0.1177643 0.12273,-0.1597792 l 0.07502,-0.076387 0.8525257,-0.2433443 c 0.814661,-0.2325346 0.854111,-0.2423059 0.888159,-0.2199974 0.03778,0.024758 0.08329,0.1130758 0.09759,0.1893875 0.0062,0.032877 -0.0019,0.067182 -0.02856,0.1205367 -0.02045,0.041017 -0.04151,0.075325 -0.04681,0.076241 -0.0053,8.659e-4 -0.02631,0.00368 -0.04667,0.0062 -0.02036,0.00246 -0.296498,0.066706 -0.613641,0.1426995 -0.317144,0.075999 -0.6029247,0.1441398 -0.6350677,0.1514259 -0.03214,0.00728 -0.0564,0.019332 -0.05391,0.026765 0.0025,0.00745 -0.01982,0.020357 -0.04958,0.028706 -0.02977,0.00834 -0.06723,0.032762 -0.08327,0.054236 -0.03068,0.041081 -0.04944,0.1611178 -0.0345,0.2206506 0.0082,0.032682 0.01394,0.034464 0.09051,0.028114 0.04945,-0.00411 0.09495,3.472e-4 0.115162,0.011103 0.03611,0.019317 0.0729,0.086215 0.104766,0.1904641 0.03969,0.1298332 0.01981,0.1866714 -0.07953,0.2274011 l -0.03886,0.015926 0.03619,0.019418 c 0.09114,0.048911 0.11702,0.045981 0.6679467,-0.075618 l 0.532261,-0.1174785 0.03563,0.033468 c 0.05048,0.047417 0.0487,0.143657 -0.0046,0.2478342 -0.0394,0.077066 -0.04189,0.078938 -0.127842,0.096157 -0.144785,0.029001 -1.0498767,0.2674972 -1.0787527,0.2842529 -0.0462,0.026808 -0.196074,-0.023813 -0.244474,-0.082567 -0.0475,-0.057657 -0.135431,-0.1082099 -0.188229,-0.1082099 -0.02933,0 -0.0598,0.0065 -0.06771,0.014382 -0.0079,0.0079 -0.263745,0.1219806 -0.5685274,0.2534959 l -0.5541512,0.2391206 -0.00174,0.05109 c -0.00159,0.045894 -0.053442,0.2339223 -0.098913,0.3587155 -0.0095,0.02611 -0.2736984,0.398855 -0.5870935,0.828323 C 6.970756,10.153233 6.9563795,10.17137 6.8849612,10.20093 c -0.040179,0.01663 -0.1092139,0.03615 -0.153411,0.04339 -0.044199,0.0072 -0.1166098,0.02676 -0.160918,0.04339 l -0.080561,0.03025 -0.1057232,0.256804 c -0.058147,0.141243 -0.1057232,0.269012 -0.1057232,0.283929 0,0.01492 -0.00628,0.02931 -0.013898,0.03199 -0.00764,0.0026 -0.066569,0.13163 -0.1309532,0.286556 l -0.1170549,0.281686 0.085622,0.08095 c 0.1095543,0.103579 0.1831312,0.244235 0.1826614,0.34919 -1.66e-4,0.04018 -0.031599,0.220983 -0.069823,0.401789 -0.115725,0.547411 -0.3010578,1.457175 -0.3076093,1.509996 -0.00982,0.07926 -0.049481,0.141176 -0.160814,0.251129 -0.076385,0.07543 -0.1303412,0.114258 -0.2025266,0.145704 -0.0542,0.02361 -0.098403,0.05205 -0.098403,0.06333 0,0.02064 0.1686846,1.168695 0.1841221,1.253116 0.00802,0.04385 0.011552,0.0458 0.098381,0.05419 0.1643766,0.01587 0.2329315,0.04574 0.3507896,0.152816 l 0.1080431,0.09816 0.3753734,0.836852 c 0.2064556,0.460265 0.3854254,0.870694 0.3977092,0.912061 0.016755,0.05642 0.021164,0.12843 0.017673,0.288157 l -0.00469,0.212945 0.3333282,0.474841 c 0.1833282,0.261162 0.3449626,0.486857 0.3591834,0.501541 0.022969,0.02372 0.033028,0.02473 0.090067,0.009 0.091928,-0.02523 0.2910787,-0.02321 0.343212,0.0034 0.1045593,0.05353 0.1641825,0.0941 0.3760438,0.255856 0.124209,0.09484 0.4239044,0.323646 0.6659893,0.508469 0.242086,0.184822 0.476029,0.36078 0.519872,0.391017 0.06933,0.04781 0.08771,0.0716 0.141098,0.18263 0.0429,0.08923 0.0633,0.15259 0.06775,0.210503 0.0054,0.06985 0.01131,0.084 0.03757,0.09018 0.01716,0.004 0.2876167,0.04778 0.6010127,0.0972 0.313394,0.04942 0.584601,0.09279 0.602682,0.09638 0.03123,0.0062 0.03289,0.01328 0.03314,0.141382 1.66e-4,0.07418 0.0043,0.234043 0.0094,0.355257 0.005,0.121215 0.0046,0.244491 -9.37e-4,0.273947 -0.0091,0.04877 -0.01434,0.05356 -0.0581,0.05356 -0.02642,0 -0.05078,-0.0026 -0.05413,-0.0058 z M 9.2947013,21.219529 c 0.0044,-0.0072 -0.0022,-0.02144 -0.01471,-0.03181 -0.06354,-0.05273 -0.07877,-0.150966 -0.04865,-0.313868 0.02144,-0.115985 0.04317,-0.153312 0.114432,-0.196566 0.05631,-0.03419 0.05961,-0.03981 0.05124,-0.08767 -0.0094,-0.05371 -0.02982,-0.08767 -0.05275,-0.08767 -0.01769,0 -1.1433752,-0.882437 -1.2086548,-0.947475 -0.047879,-0.0477 -0.052721,-0.04919 -0.1308838,-0.04 -0.1547092,0.01818 -0.1453543,0.0075 -0.1369375,0.15521 0.00678,0.118767 0.00411,0.136506 -0.031057,0.208425 -0.021158,0.04324 -0.051126,0.09008 -0.066605,0.104081 -0.04041,0.03657 -0.1306861,0.04495 -0.1949857,0.01807 -0.1484594,-0.06202 -0.053731,0.02988 0.6421793,0.622996 0.2988461,0.254706 0.5524698,0.463103 0.5636099,0.463103 0.011137,0 0.036196,0.01731 0.055672,0.03846 0.067925,0.07375 0.1666126,0.107347 0.3158106,0.107507 0.07386,1.66e-4 0.137888,-0.0057 0.142292,-0.0128 z m -3.1183176,-3.27391 c 0,-0.08929 0.037509,-0.151204 0.1229822,-0.203007 0.090839,-0.05506 0.127887,-0.0569 0.2188256,-0.01085 l 0.069159,0.03501 0.013675,-0.03597 c 0.022435,-0.05902 0.016005,-0.09863 -0.030026,-0.184901 -0.024037,-0.04504 -0.1758581,-0.376345 -0.3373814,-0.736229 -0.1615226,-0.359885 -0.3040395,-0.665935 -0.3167052,-0.68011 -0.035192,-0.0394 -0.1688751,-0.124578 -0.2128,-0.135603 -0.032956,-0.0082 -0.03909,-0.005 -0.03909,0.02045 0,0.07114 -0.060319,0.191099 -0.1197566,0.238175 -0.07359,0.05829 -0.1281021,0.05954 -0.2385911,0.0055 -0.043773,-0.02141 -0.086245,-0.03482 -0.094385,-0.02979 -0.00814,0.005 -0.0148,0.03514 -0.0148,0.06689 0,0.04631 0.073992,0.205439 0.373495,0.803263 0.2054217,0.410033 0.3944455,0.769378 0.420051,0.798541 0.052974,0.06033 0.1221532,0.106457 0.1597887,0.106548 0.020061,0 0.025567,-0.01243 0.025567,-0.0579 z M 5.4495438,13.732123 c 0.00865,-0.02528 0.020299,-0.04924 0.025898,-0.05326 0.00563,-0.004 0.092041,-0.401789 0.1920841,-0.883936 0.1422145,-0.685385 0.1789638,-0.885498 0.168455,-0.91728 -0.00739,-0.02235 -0.034876,-0.057 -0.061077,-0.07699 l -0.04764,-0.03633 -0.093222,0.0441 c -0.1555642,0.07359 -0.2429424,0.05657 -0.2897538,-0.05644 -0.00889,-0.02147 -0.029088,-0.04712 -0.044862,-0.05696 -0.024968,-0.01559 -0.036434,-0.01085 -0.088372,0.036 -0.032826,0.02965 -0.07482,0.08392 -0.09332,0.120592 -0.022428,0.04446 -0.092592,0.344227 -0.2105379,0.899508 -0.1589847,0.748482 -0.1752901,0.838748 -0.1609922,0.89124 0.01716,0.06298 0.088647,0.199973 0.1006186,0.192793 0.062664,-0.03759 0.1629615,-0.07185 0.2085029,-0.07122 0.070971,10e-4 0.2029011,0.06346 0.2473731,0.117167 l 0.032919,0.03975 0.049106,-0.07139 c 0.027009,-0.03926 0.056176,-0.09206 0.064814,-0.117343 z M 6.6730781,9.8107295 c 0.067312,-0.0473 0.139694,-0.142736 0.5290817,-0.69765 C 7.7707755,8.3027479 7.7900352,8.2746031 7.7816639,8.266231 7.7778339,8.262401 7.7499629,8.2669266 7.7196699,8.276211 7.6463659,8.2987071 7.5768832,8.2633697 7.5452963,8.1875 7.4978649,8.0735846 7.476714,8.0080173 7.476714,7.9748644 c 0,-0.041102 -0.030668,-0.052056 -0.1465058,-0.052345 -0.087372,-1.762e-4 -0.1389356,0.02491 -0.1600268,0.077981 -0.00685,0.017268 -0.2528392,0.3272609 -0.5466124,0.6888701 -0.2937746,0.36161 -0.5342592,0.667334 -0.5344115,0.679389 -1.659e-4,0.01206 0.00664,0.04683 0.015104,0.07729 l 0.015378,0.05538 0.044104,-0.03711 c 0.024261,-0.02041 0.052295,-0.03711 0.062311,-0.03711 0.04461,0 0.1987591,0.0903 0.240416,0.140842 0.083344,0.101108 0.1068643,0.173734 0.083327,0.257295 -0.016453,0.0584 0.026635,0.0533 0.1232824,-0.01461 z M 14.247534,21.647908 c -0.0057,-0.03025 -0.0062,-0.154178 -0.0013,-0.275392 0.005,-0.121215 0.0093,-0.28108 0.0094,-0.355258 2.69e-4,-0.128095 0.0019,-0.135196 0.03314,-0.141383 0.01807,-0.0037 0.289289,-0.04696 0.602685,-0.09638 0.313394,-0.04942 0.58385,-0.09317 0.601011,-0.0972 0.02631,-0.0062 0.0322,-0.02033 0.03757,-0.09018 0.0045,-0.05791 0.02484,-0.121266 0.06775,-0.210503 0.05339,-0.111025 0.07177,-0.134818 0.141097,-0.182632 0.04384,-0.03024 0.277787,-0.206192 0.519872,-0.391015 0.242086,-0.184823 0.541781,-0.413633 0.665991,-0.508468 0.211861,-0.161762 0.271485,-0.202327 0.376043,-0.255857 0.05213,-0.02668 0.251284,-0.0287 0.343212,-0.0034 0.05704,0.01566 0.06709,0.01464 0.09007,-0.009 0.01422,-0.01469 0.175854,-0.240379 0.359184,-0.501542 l 0.333328,-0.47484 -0.0047,-0.212945 c -0.0034,-0.159729 8.66e-4,-0.231742 0.01767,-0.288158 0.01228,-0.04136 0.191255,-0.451796 0.39771,-0.912062 l 0.375375,-0.836851 0.108044,-0.09816 c 0.117858,-0.107085 0.186414,-0.136946 0.35079,-0.152815 0.08683,-0.0083 0.09036,-0.01039 0.09838,-0.05419 0.01543,-0.08442 0.184122,-1.232469 0.184122,-1.253114 0,-0.01131 -0.04421,-0.03972 -0.0984,-0.06333 -0.07219,-0.03145 -0.126143,-0.07026 -0.202525,-0.145705 -0.111334,-0.109951 -0.150985,-0.171871 -0.160816,-0.251129 -0.0065,-0.05282 -0.191883,-0.962582 -0.307609,-1.509994 -0.03822,-0.180806 -0.06964,-0.361612 -0.06983,-0.401789 -4.55e-4,-0.104948 0.0731,-0.245609 0.18266,-0.34919 l 0.08562,-0.08104 L 19.26602,11.1627 c -0.06438,-0.154925 -0.123309,-0.283877 -0.130953,-0.286555 -0.0077,-0.0026 -0.0139,-0.01708 -0.0139,-0.03199 0,-0.01493 -0.04757,-0.142687 -0.105725,-0.283929 l -0.105726,-0.256804 -0.08056,-0.03025 c -0.04431,-0.01663 -0.116722,-0.03616 -0.160918,-0.04339 -0.04419,-0.0072 -0.11323,-0.02676 -0.153411,-0.04339 -0.07141,-0.02956 -0.08579,-0.0477 -0.642861,-0.8110855 -0.313397,-0.429468 -0.577594,-0.802214 -0.587109,-0.828324 -0.04547,-0.1247923 -0.09732,-0.312821 -0.09892,-0.3587145 l -0.0017,-0.05109 -0.554149,-0.2391806 C 16.325354,7.7664841 16.069517,7.6524116 16.06161,7.6445041 c -0.0079,-0.0079 -0.03838,-0.014382 -0.06771,-0.014382 -0.05279,0 -0.140738,0.050555 -0.18823,0.1082099 -0.0484,0.05876 -0.198276,0.1093772 -0.244474,0.082567 -0.02888,-0.016754 -0.933964,-0.2552491 -1.078749,-0.2842526 -0.08595,-0.01721 -0.08844,-0.019094 -0.127842,-0.096157 -0.05325,-0.1041766 -0.05502,-0.2004201 -0.0046,-0.2478341 l 0.03563,-0.033469 0.532259,0.1174786 c 0.550928,0.1215982 0.576813,0.1245286 0.667948,0.075618 l 0.03619,-0.019418 -0.03886,-0.015926 c -0.09934,-0.040728 -0.119217,-0.097568 -0.07953,-0.2274018 0.03187,-0.1042498 0.06866,-0.1711432 0.104754,-0.1904634 0.02021,-0.010806 0.06571,-0.015211 0.115161,-0.011103 0.07658,0.00635 0.08231,0.00455 0.09051,-0.028114 0.01494,-0.059532 -0.0038,-0.1795664 -0.0345,-0.2206505 -0.01604,-0.021482 -0.05351,-0.045887 -0.08327,-0.054236 -0.02976,-0.00834 -0.05311,-0.021519 -0.05189,-0.029254 0.0013,-0.00774 -0.02305,-0.019787 -0.05391,-0.026765 -0.03087,-0.007 -0.315604,-0.074877 -0.632749,-0.1508767 -0.317142,-0.075999 -0.593281,-0.1402128 -0.61364,-0.1426995 -0.02036,-0.00246 -0.04136,-0.00527 -0.04666,-0.0062 -0.0054,-8.66e-4 -0.02637,-0.035222 -0.04681,-0.076241 -0.02659,-0.053356 -0.03471,-0.087656 -0.02856,-0.1205366 0.0143,-0.076312 0.05981,-0.1646285 0.09759,-0.1893875 0.03405,-0.022312 0.0735,-0.012534 0.88816,0.2199974 l 0.852526,0.2433443 0.07502,0.076388 c 0.04126,0.042012 0.09648,0.1139142 0.122729,0.15978 0.04094,0.071541 0.04792,0.098202 0.04917,0.1876267 l 0.0015,0.1042372 0.623672,0.3043715 c 0.621391,0.3032586 0.623955,0.3043418 0.701302,0.2960368 0.0427,-0.00455 0.164829,-0.012694 0.271399,-0.017997 0.177317,-0.00884 0.202125,-0.00685 0.29221,0.023359 0.05414,0.018163 0.140522,0.05342 0.191951,0.078355 0.111836,0.054222 0.314938,0.2248423 0.317099,0.2663903 7.94e-4,0.015983 0.01005,0.045237 0.02057,0.064988 0.01051,0.01975 0.244848,0.3357542 0.520814,0.7022274 0.275965,0.366474 0.501851,0.675485 0.501969,0.686694 1.65e-4,0.01122 0.0098,0.0478 0.02145,0.08131 0.02844,0.08162 0.05173,0.387892 0.03662,0.481437 -0.0066,0.04117 -0.02594,0.121303 -0.04285,0.178099 l -0.03076,0.1032705 0.25604,0.578279 c 0.140822,0.318053 0.256041,0.583616 0.256041,0.590139 0,0.0065 0.04657,0.0274 0.103475,0.04641 0.06546,0.02186 0.126671,0.05498 0.166609,0.09013 0.03472,0.03056 0.07034,0.05557 0.07916,0.05557 0.0088,0 0.01603,0.0021 0.01603,0.0046 0,0.0025 0.118233,0.500214 0.262742,1.106035 0.144507,0.605824 0.257232,1.1051 0.250499,1.109508 -0.0067,0.0043 -0.02037,0.04225 -0.03028,0.0841 -0.03559,0.150124 -0.178823,0.340314 -0.256283,0.340314 -0.02021,0 -0.03675,0.0083 -0.03675,0.01854 0,0.01017 -0.06524,0.414953 -0.144976,0.899462 l -0.144975,0.880925 0.06388,0.09139 c 0.08016,0.114668 0.106114,0.191614 0.11146,0.33048 l 0.0042,0.109574 -0.432431,0.796273 c -0.237837,0.43795 -0.44731,0.825859 -0.465494,0.86202 -0.04896,0.09736 -0.208136,0.246099 -0.335851,0.313818 -0.09774,0.05182 -0.120798,0.05814 -0.213456,0.05842 l -0.103875,3.49e-4 -0.398878,0.562502 -0.398878,0.562504 0.03195,0.12419 c 0.01861,0.07233 0.03179,0.167605 0.03156,0.228152 -3.47e-4,0.08947 -0.0077,0.11843 -0.05229,0.207733 -0.0363,0.07257 -0.07475,0.123081 -0.127842,0.167996 -0.171309,0.1449 -1.401435,1.135484 -1.427173,1.149257 -0.07655,0.04097 -0.290886,0.0778 -0.460457,0.07911 -0.169097,0.0013 -0.179173,-4.01e-4 -0.283646,-0.0477 l -0.108318,-0.04906 -0.790224,0.12839 c -0.434625,0.07061 -0.814462,0.131148 -0.844082,0.13452 -0.05221,0.0059 -0.05418,0.0045 -0.06417,-0.04888 z m 2.207333,-0.46477 c 0.04018,-0.01895 0.08899,-0.05177 0.108478,-0.07291 0.01949,-0.02115 0.04454,-0.03846 0.05567,-0.03846 0.02151,0 1.049615,-0.870213 1.189764,-1.007048 0.04554,-0.04447 0.07991,-0.08551 0.07638,-0.09122 -0.0035,-0.0057 -0.03069,-2.29e-4 -0.06037,0.01216 -0.06431,0.02687 -0.154575,0.01849 -0.194986,-0.01807 -0.01548,-0.014 -0.04545,-0.06085 -0.0666,-0.104081 -0.03518,-0.07193 -0.03783,-0.08965 -0.03106,-0.208425 0.0085,-0.147631 0.01777,-0.137028 -0.136937,-0.155211 -0.07816,-0.0091 -0.08301,-0.0077 -0.130883,0.04 -0.06529,0.06504 -1.19097,0.947475 -1.208655,0.947475 -0.02294,0 -0.04337,0.03397 -0.05275,0.08767 -0.0083,0.04786 -0.005,0.05348 0.05124,0.08767 0.07126,0.04326 0.09299,0.08058 0.114433,0.196567 0.03011,0.162902 0.01488,0.261136 -0.04865,0.313867 -0.04064,0.03374 -0.0091,0.04476 0.12758,0.04463 0.110489,-1.67e-4 0.147231,-0.0063 0.207338,-0.0346 z m 2.854522,-3.215153 c 0.09266,-0.04792 0.146632,-0.139752 0.519084,-0.883187 0.299909,-0.598634 0.373985,-0.757934 0.373985,-0.804242 0,-0.03175 -0.0066,-0.06186 -0.0148,-0.06689 -0.0081,-0.005 -0.05061,0.0083 -0.09438,0.02979 -0.110489,0.05405 -0.165001,0.0528 -0.238592,-0.0055 -0.05944,-0.04707 -0.119757,-0.167037 -0.119757,-0.238175 0,-0.02551 -0.0062,-0.02872 -0.0391,-0.02045 -0.04392,0.01097 -0.177607,0.09621 -0.212799,0.135604 -0.01267,0.01418 -0.155182,0.320224 -0.316706,0.680108 -0.161522,0.359886 -0.313343,0.69119 -0.33738,0.736236 -0.04603,0.08626 -0.05248,0.125881 -0.03003,0.184899 l 0.01367,0.03597 0.06916,-0.03501 c 0.09093,-0.04604 0.127986,-0.04421 0.218825,0.01085 0.08547,0.0518 0.122983,0.113721 0.122983,0.203008 0,0.06489 0.01737,0.07238 0.08584,0.03697 z m 0.899365,-4.179693 c 0.0429,-0.021 0.104035,-0.03853 0.135852,-0.03896 0.04554,-6.14e-4 0.145841,0.03364 0.208504,0.07122 0.01197,0.0072 0.08346,-0.129804 0.10062,-0.192795 0.0143,-0.05249 -0.0021,-0.142757 -0.160992,-0.89124 -0.117947,-0.55528 -0.188111,-0.855051 -0.210539,-0.899505 -0.0185,-0.03667 -0.0605,-0.09093 -0.09332,-0.120596 -0.05194,-0.04692 -0.0634,-0.05159 -0.08837,-0.036 -0.01579,0.0098 -0.03597,0.03549 -0.04486,0.05696 -0.04681,0.113013 -0.134189,0.130029 -0.289753,0.05644 l -0.09322,-0.0441 -0.04764,0.03633 c -0.0262,0.01999 -0.05369,0.05462 -0.06107,0.07699 -0.01051,0.03179 0.02624,0.231895 0.168454,0.917281 0.100048,0.482147 0.186671,0.879918 0.192508,0.883935 0.0058,0.004 0.01545,0.02375 0.02138,0.04383 0.0059,0.02009 0.03467,0.07299 0.06387,0.11755 l 0.0531,0.08102 0.03374,-0.0401 c 0.01856,-0.02206 0.06884,-0.05727 0.111745,-0.07827 z m -1.35861,-3.9775625 c -0.02354,-0.08357 0,-0.156184 0.08333,-0.257295 0.04166,-0.05054 0.195806,-0.140839 0.240417,-0.140839 0.01005,0 0.03805,0.0167 0.06231,0.03711 l 0.0441,0.03711 0.01538,-0.05538 c 0.0085,-0.03046 0.01526,-0.06523 0.0151,-0.07729 -1.66e-4,-0.01206 -0.240639,-0.317777 -0.534412,-0.679388 -0.293774,-0.3616097 -0.539748,-0.671601 -0.546613,-0.6888713 -0.02109,-0.053067 -0.07266,-0.078194 -0.160025,-0.077979 -0.115839,3.478e-4 -0.146508,0.01124 -0.146508,0.052345 0,0.033151 -0.02114,0.098721 -0.06858,0.2126376 -0.03158,0.075859 -0.101076,0.1112094 -0.174374,0.088712 -0.0983,-0.03017 -0.153291,-0.1190934 0.517509,0.8368607 0.389389,0.554916 0.46177,0.650358 0.529083,0.697651 0.09665,0.06791 0.139731,0.07301 0.123282,0.01461 z M 14.70262,19.546724 c -0.07854,-0.04042 -0.16894,-0.104127 -0.245323,-0.172904 -0.157566,-0.141879 -0.284955,-0.237819 -0.440588,-0.331826 -0.656381,-0.396473 -1.427717,-0.483121 -2.154298,-0.242005 -0.297299,0.09866 -0.727004,0.338168 -0.815965,0.454802 -0.02061,0.02701 -0.04391,0.0491 -0.05178,0.0491 -0.0079,0 -0.03503,0.009 -0.06037,0.02013 -0.07142,0.03123 -0.247072,0.06753 -0.326698,0.06753 -0.117202,0 -0.237161,-0.02852 -0.324305,-0.07712 -0.1167,-0.06507 -0.134986,-0.102036 -0.06346,-0.128286 0.07703,-0.02827 0.333132,-0.164787 0.43425,-0.231476 0.09196,-0.06065 0.105246,-0.07571 0.13663,-0.154844 0.05048,-0.127259 0.04896,-0.125271 0.111505,-0.146771 0.07436,-0.02556 0.124071,-0.06305 0.165615,-0.124865 0.02193,-0.03263 0.07229,-0.06994 0.146104,-0.108239 0.0765,-0.03969 0.113996,-0.06781 0.116866,-0.08767 0.01155,-0.07997 0.02535,-0.105166 0.10102,-0.1845 0.0682,-0.07152 0.07667,-0.08579 0.05081,-0.08579 -0.0468,0 -0.176656,0.06202 -0.253782,0.121205 -0.05774,0.04431 -0.07654,0.05128 -0.119596,0.04429 -0.077,-0.01249 -0.175032,0.04126 -0.24829,0.136128 l -0.06037,0.07817 -0.07306,-0.0099 c -0.04018,-0.0055 -0.108181,-0.0104 -0.151117,-0.01097 -0.06929,-8.66e-4 -0.08189,0.0038 -0.112019,0.04155 -0.01868,0.0234 -0.04302,0.07511 -0.05409,0.114912 l -0.02014,0.07236 -0.201494,0.0025 -0.2014927,0.0025 -0.217671,0.112008 c -0.214795,0.110534 -0.218399,0.111756 -0.272692,0.09309 -0.07744,-0.02664 -0.128734,-0.107119 -0.156583,-0.245736 -0.02904,-0.144517 -0.02876,-0.322092 7.21e-4,-0.479111 0.01813,-0.09647 0.02302,-0.215181 0.02191,-0.531887 -0.0017,-0.475013 -0.02465,-0.742479 -0.09797,-1.140035 -0.04517,-0.244875 -0.04842,-0.278072 -0.02839,-0.289283 0.01245,-0.007 0.02263,-0.02121 0.02263,-0.03165 0,-0.01039 0.01955,-0.04599 0.04344,-0.07896 0.04276,-0.05903 0.07176,-0.07339 0.200086,-0.09904 0.04078,-0.0081 0.04877,-0.0029 0.09143,0.06031 0.02571,0.03808 0.06226,0.109404 0.08123,0.15849 0.01896,0.04908 0.0584,0.146871 0.08762,0.21731 0.06541,0.157649 0.07467,0.251495 0.05309,0.537763 -0.02217,0.294092 0.01633,0.708961 0.07219,0.777951 0.0257,0.03173 0.0257,0.03173 0.1263617,0.0058 0.08353,-0.02152 0.149469,-0.0328 0.226966,-0.03884 0.0059,-4.55e-4 0.04002,-0.059 0.07572,-0.130078 0.24129,-0.480386 0.620975,-0.864934 1.09187,-1.105802 0.831893,-0.425522 1.885603,-0.326134 2.762817,0.260598 0.237615,0.15893 0.369526,0.269698 0.588853,0.494466 0.159162,0.163112 0.374218,0.421676 0.389934,0.468822 0.01119,0.03371 0.131636,0.02239 0.191491,-0.01801 0.116777,-0.07881 0.220636,-0.351871 0.250072,-0.657473 0.005,-0.05223 0.01532,-0.407266 0.02286,-0.788966 0.0075,-0.381699 0.02001,-0.743309 0.02773,-0.803576 0.01653,-0.129075 0.05177,-0.207334 0.125007,-0.277599 l 0.05331,-0.05114 0.132639,0.0033 c 0.195011,0.0048 0.224962,0.04163 0.244968,0.30075 0.02089,0.270581 0.02272,0.78221 0.0031,0.870654 -0.0096,0.0434 -0.02412,0.263661 -0.03222,0.48945 -0.0081,0.225793 -0.02452,0.522 -0.03648,0.658241 -0.01196,0.136239 -0.02174,0.324104 -0.02174,0.417477 0,0.179397 -0.02945,0.420816 -0.06766,0.554724 -0.0126,0.04416 -0.04776,0.123059 -0.07812,0.175327 -0.03036,0.05227 -0.07663,0.137715 -0.102812,0.189882 -0.06929,0.13805 -0.169852,0.301596 -0.247128,0.401908 -0.03715,0.04821 -0.09843,0.131341 -0.136183,0.184723 -0.0437,0.06178 -0.08416,0.10247 -0.111334,0.11194 -0.02347,0.0082 -0.07636,0.03805 -0.117508,0.06635 -0.107884,0.07421 -0.21888,0.111825 -0.329964,0.111825 -0.08215,0 -0.1093,-0.008 -0.218193,-0.064 z m -4.121429,-0.710776 c -0.0051,-0.0082 -0.0046,-0.05877 0.0011,-0.112225 0.01636,-0.152699 0.100997,-0.214038 0.167146,-0.121134 0.03969,0.05574 0.03157,0.08004 -0.058,0.173461 -0.0727,0.07583 -0.09346,0.08711 -0.110272,0.0599 z m -0.423449,-2.405814 c -0.127142,-0.02923 -0.138799,-0.03501 -0.138799,-0.06867 0,-0.01861 -0.01644,-0.05156 -0.03653,-0.07324 -0.0309,-0.03334 -0.03653,-0.05355 -0.03653,-0.131189 0,-0.05048 -0.0074,-0.128551 -0.01641,-0.173494 -0.01225,-0.06097 -0.012,-0.151529 10e-4,-0.35674 0.03795,-0.60028 0.03809,-0.574398 -0.004,-0.709511 C 9.884413,14.78256 9.804855,14.65365 9.608354,14.401928 9.474922,14.230992 9.34916,14.121703 9.132109,13.988061 8.8388884,13.80752 8.556254,13.77655 8.4097502,13.908901 c -0.067925,0.06136 -0.2025079,0.227672 -0.2025079,0.250242 0,0.02537 -0.069829,0.03597 -0.1146353,0.01741 -0.022557,-0.0094 -0.061705,-0.03893 -0.086992,-0.06574 -0.080251,-0.08508 -0.322486,-0.120105 -0.497577,-0.07194 -0.033345,0.0091 -0.034219,0.0072 -0.027753,-0.06205 0.00368,-0.03968 0.037315,-0.143045 0.075511,-0.232226 L 7.624636,13.583884 7.614459,13.386641 C 7.598108,13.069701 7.599283,13.050609 7.640567,12.962649 7.678308,12.882239 7.724641,12.82469 7.7866839,12.781177 l 0.033375,-0.02341 -0.00483,-0.529315 c -0.00339,-0.37092 -0.010771,-0.557737 -0.024599,-0.624287 -0.062845,-0.302239 -0.024484,-0.75044 0.081468,-0.951907 0.03852,-0.07324 0.1601935,-0.19732 0.225463,-0.229915 0.071974,-0.03595 0.1299052,-0.03673 0.3061985,-0.0041 0.090231,0.01669 0.1717593,-0.0082 0.2510019,-0.07675 l 0.055802,-0.04824 -0.079975,0.01168 c -0.043989,0.0064 -0.102943,0.01867 -0.1310152,0.02722 -0.028071,0.0086 -0.082756,0.01552 -0.121521,0.01552 -0.084201,0 -0.084445,0.003 0.015724,-0.197241 C 8.6033722,9.7313335 8.8897634,9.3433925 9.246574,8.9952295 9.941813,8.3168437 10.818383,7.882857 11.823363,7.7194712 c 0.54275,-0.088239 1.185149,-0.077637 1.731345,0.028575 1.386149,0.2695445 2.547612,1.0857863 3.227781,2.2683848 0.07542,0.131136 0.08567,0.161707 0.05958,0.177827 -0.02383,0.01472 -0.01665,0.03653 0.012,0.03653 0.01464,0 0.05757,-0.01051 0.0954,-0.02344 l 0.06878,-0.02344 0.0814,0.049 c 0.07861,0.04734 0.191469,0.16313 0.301246,0.309107 0.05652,0.07515 0.100722,0.194382 0.127663,0.344313 0.0091,0.05117 0.0223,0.103772 0.02913,0.116882 0.01676,0.0322 0.03973,0.261357 0.02844,0.28365 -0.005,0.0098 -0.0031,0.08682 0.0045,0.171197 0.0073,0.08438 0.0097,0.431194 0.0054,0.770704 -0.0045,0.339512 -0.0027,0.617295 0.0038,0.617295 0.01351,0 0.104857,0.130974 0.13756,0.197242 0.01189,0.02411 0.03498,0.100962 0.05129,0.170798 0.01826,0.0782 0.04406,0.145852 0.06715,0.176132 0.09731,0.127574 0.138028,0.315167 0.15418,0.71039 l 0.01108,0.272213 -0.04302,0.10616 c -0.06495,0.160294 -0.229487,0.380196 -0.429682,0.57427 -0.267598,0.259412 -0.402123,0.348642 -0.526607,0.349291 -0.05156,2.68e-4 -0.07101,-0.0088 -0.120537,-0.05586 -0.05651,-0.05374 -0.05905,-0.06007 -0.05905,-0.145961 0,-0.08257 0.0054,-0.09757 0.06642,-0.186796 0.08854,-0.12931 0.204784,-0.372994 0.226677,-0.475145 0.04227,-0.197236 -0.01346,-0.43017 -0.129909,-0.543019 -0.07612,-0.07375 -0.225509,-0.153792 -0.30733,-0.164645 -0.152092,-0.02017 -0.46669,0.05943 -0.61584,0.155829 -0.113002,0.07304 -0.310655,0.262572 -0.379549,0.363962 -0.08854,0.130295 -0.234971,0.434212 -0.302705,0.628251 -0.01263,0.03616 -0.02825,0.07258 -0.03474,0.08094 -0.0065,0.0083 -0.02285,0.06753 -0.03638,0.131494 -0.02226,0.105292 -0.02287,0.150477 -0.0063,0.477314 0.02208,0.435813 0.0061,0.618085 -0.05943,0.677374 -0.0474,0.0429 -0.269177,0.05458 -0.34513,0.01817 -0.02227,-0.01062 -0.07129,-0.06539 -0.108912,-0.121586 -0.03763,-0.05619 -0.07887,-0.112647 -0.09165,-0.125442 -0.01421,-0.01422 -0.026,-0.05862 -0.03031,-0.114178 -0.05473,-0.704258 -0.778099,-1.283314 -1.734358,-1.388374 -0.632641,-0.0695 -1.31273,0.09693 -1.74692,0.427528 -0.04402,0.03351 -0.0917,0.06953 -0.105931,0.08001 -0.02142,0.01579 -0.0346,0.01543 -0.07632,-0.0021 -0.05482,-0.02291 -0.103327,-0.08233 -0.151071,-0.185093 -0.04225,-0.09093 -0.06651,-0.107804 -0.140751,-0.09784 -0.07781,0.01039 -0.099,0.03989 -0.099,0.137629 0,0.07092 0.0305,0.17937 0.05044,0.17937 0.0045,0 0.03182,-0.01271 0.0608,-0.02825 0.0397,-0.02128 0.06156,-0.02488 0.08859,-0.0146 0.07391,0.0281 0.09179,0.04482 0.108878,0.101853 0.01639,0.05472 0.0151,0.06114 -0.0199,0.09838 -0.06038,0.06426 -0.151589,0.215216 -0.198687,0.328839 -0.04859,0.117237 -0.07203,0.223755 -0.08724,0.396515 -0.0099,0.112248 -0.0115,0.116122 -0.05402,0.129749 -0.06049,0.01939 -0.09152,0.04948 -0.122598,0.118904 -0.0331,0.07394 -0.06603,0.103589 -0.146607,0.132019 -0.06287,0.02218 -0.09873,0.02501 -0.1545,0.01219 z m -1.9587123,-3.19214 c 0.064165,-0.02592 0.089456,-0.04442 0.097125,-0.07104 0.0057,-0.01979 0.023488,-0.07701 0.039508,-0.127155 l 0.029139,-0.09116 -0.089738,0.07836 c -0.094503,0.08252 -0.1825928,0.133781 -0.2796723,0.162763 -0.067182,0.02006 -0.08008,0.05107 -0.038526,0.09262 0.026628,0.02661 0.034233,0.02744 0.092215,0.0098 0.034753,-0.01051 0.1022314,-0.03495 0.1499488,-0.05422 z m 2.0702753,-0.335795 c 0.02773,-0.07044 0.06167,-0.12792 0.09162,-0.155176 0.02617,-0.02382 0.06303,-0.08195 0.08193,-0.129191 0.05045,-0.126113 0.06808,-0.147574 0.143426,-0.174594 0.03752,-0.01344 0.103019,-0.04072 0.145558,-0.06059 0.08087,-0.03777 0.0839,-0.05632 0.01517,-0.0931 -0.03468,-0.01856 -0.06268,-0.0032 -0.191753,0.105177 -0.09772,0.08205 -0.141837,0.104115 -0.141837,0.07094 0,-0.02633 -0.130357,-0.07417 -0.15953,-0.05856 -0.02275,0.01218 -0.126453,0.15708 -0.197129,0.275478 -0.0063,0.01051 0.03507,-0.0042 0.09189,-0.03287 0.05683,-0.02862 0.110066,-0.05203 0.118301,-0.05203 0.0281,0 0.01704,0.10014 -0.01283,0.116121 -0.01528,0.0082 -0.04908,0.04175 -0.07508,0.07458 -0.044,0.05556 -0.04715,0.06698 -0.04532,0.164616 0.0011,0.0577 0.0064,0.147651 0.01191,0.199884 l 0.0099,0.09497 0.03483,-0.116884 c 0.01915,-0.06428 0.05465,-0.167232 0.07887,-0.228769 z m 2.052996,0.215563 c 0.047,-0.03539 0.100037,-0.08415 0.117864,-0.108353 0.0403,-0.05474 0.16803,-0.104903 0.267109,-0.104903 0.03957,0 0.107656,0.01335 0.151279,0.02968 0.07935,0.0297 0.09141,0.04408 0.11901,0.141961 0.01198,0.0425 0.05954,0.05504 0.204553,0.05391 0.0899,-6.94e-4 0.130853,-0.0082 0.177409,-0.03237 0.07857,-0.04085 0.158313,-0.134918 0.179895,-0.212235 0.05161,-0.184873 0.02114,-0.777942 -0.05191,-1.010988 -0.135472,-0.432127 -0.309725,-0.739383 -0.565521,-0.997168 -0.0897,-0.0904 -0.173068,-0.16435 -0.185254,-0.164331 -0.03814,5.7e-5 -0.189344,0.09959 -0.294995,0.194164 -0.05573,0.04988 -0.154698,0.159308 -0.219924,0.243158 -0.130485,0.167736 -0.173243,0.262559 -0.267255,0.592683 -0.0644,0.226152 -0.07835,0.317564 -0.08911,0.584418 -0.0074,0.184182 -0.0039,0.249248 0.02232,0.4077 0.03667,0.221826 0.06281,0.287694 0.150483,0.379198 0.05876,0.06133 0.07138,0.06781 0.131783,0.06781 0.05628,0 0.08027,-0.01017 0.152262,-0.06434 z M 9.6894823,12.836304 c 0.02808,-0.0224 0.04629,-0.045 0.04049,-0.05024 -0.0057,-0.0053 -0.06912,-0.02472 -0.140688,-0.04332 l -0.130134,-0.03381 -0.04154,0.04974 c -0.05105,0.06114 -0.05464,0.111688 -0.0087,0.121806 0.01808,0.004 0.07711,0.0048 0.131176,0.0018 0.08092,-0.0043 0.107329,-0.01255 0.149351,-0.04608 z M 8.7620321,12.700166 c 0.031275,-0.01596 0.061294,-0.03619 0.066706,-0.04494 0.00664,-0.01074 0.045635,-0.01256 0.119372,-0.0056 l 0.1095332,0.01028 0.08616,-0.09056 c 0.09853,-0.103533 0.109879,-0.148398 0.04599,-0.181768 -0.05709,-0.02982 -0.120044,-0.09997 -0.132919,-0.14811 -0.01,-0.03735 -0.01272,-0.0332 -0.0298,0.04535 -0.01035,0.04755 -0.02145,0.100494 -0.02469,0.117634 -0.0069,0.03624 -0.053638,0.08615 -0.1763271,0.187988 -0.08325,0.06911 -0.1482544,0.1388 -0.1294667,0.1388 0.00469,0 0.034161,-0.01307 0.065435,-0.02901 z m 7.5677369,-0.681065 c 0.106491,-0.03519 0.118747,-0.04353 0.166436,-0.11323 0.02832,-0.04138 0.0596,-0.09332 0.06952,-0.115416 0.0099,-0.0221 0.02388,-0.04018 0.03103,-0.04018 0.0072,0 0.02323,-0.02444 0.03571,-0.05433 0.03595,-0.08602 0.01458,-0.323243 -0.04578,-0.508179 -0.02623,-0.08036 -0.05262,-0.169117 -0.05868,-0.197243 -0.01825,-0.08494 -0.07707,-0.186084 -0.133374,-0.229399 -0.02924,-0.02249 -0.0988,-0.08133 -0.154575,-0.130736 -0.05578,-0.04941 -0.148605,-0.112567 -0.206289,-0.140339 -0.05768,-0.02778 -0.155877,-0.08381 -0.218212,-0.124508 -0.06233,-0.04071 -0.157666,-0.0885 -0.211852,-0.106228 -0.05419,-0.01773 -0.158266,-0.05737 -0.231288,-0.08812 -0.256598,-0.108045 -0.431602,-0.15046 -0.875353,-0.2121325 -0.03214,-0.0045 -0.129998,-0.02762 -0.217454,-0.05145 -0.177956,-0.04848 -0.360952,-0.06776 -0.420742,-0.04433 -0.02531,0.0099 -0.05092,0.04017 -0.07237,0.0855 -0.03125,0.066011 -0.03325,0.08866 -0.03389,0.3842745 -10e-4,0.456743 0.05344,0.813639 0.149456,0.979935 0.02993,0.05183 0.06392,0.112591 0.07555,0.135024 0.04235,0.08172 0.297349,0.294591 0.415478,0.346843 0.09428,0.0417 0.409469,0.09877 0.498455,0.09025 0.122323,-0.01172 0.49951,0.0432 0.883936,0.128688 0.06831,0.01518 0.137338,0.03038 0.15341,0.03376 0.01607,0.0034 0.08698,0.007 0.157572,0.0079 0.102207,0.0015 0.151768,-0.0061 0.243308,-0.0363 z m -6.033674,-0.107839 c 0.158761,-0.09593 0.207742,-0.106399 0.454745,-0.09722 0.212773,0.0079 0.213414,0.0079 0.303547,-0.03479 0.184317,-0.08716 0.357415,-0.232369 0.417741,-0.350418 0.05163,-0.101031 0.101054,-0.314269 0.09991,-0.431009 -0.0037,-0.367101 -0.0178,-0.932009 -0.02492,-0.992897 -0.01346,-0.1148945 -0.02008,-0.1176865 -0.268324,-0.1131275 -0.308389,0.0057 -0.552127,0.04361 -0.938414,0.1461325 -0.272381,0.07228 -0.7763417,0.257082 -0.8035777,0.294663 -0.004,0.0056 -0.08949,0.0515 -0.189937,0.102127 -0.232121,0.116994 -0.3976824,0.224323 -0.4996918,0.323938 -0.070414,0.06876 -0.08415,0.09198 -0.1112162,0.188028 -0.028648,0.101659 -0.030632,0.140212 -0.027422,0.533283 0.00187,0.233037 0.0092,0.435889 0.016214,0.450782 0.01177,0.02498 0.032125,0.02685 0.262643,0.02428 0.211158,-0.0024 0.95779,0.0205 1.0753817,0.03295 0.06527,0.007 0.130302,-0.01448 0.233319,-0.07672 z m -1.1554707,3.898814 c -0.02675,-0.04826 -0.02372,-0.179608 0.0089,-0.385262 0.0259,-0.163334 0.03136,-0.179155 0.0797,-0.231316 0.06643,-0.07167 0.116349,-0.09742 0.188905,-0.09742 0.07803,0 0.110618,0.04351 0.140255,0.187265 0.01273,0.06174 0.03609,0.136566 0.05191,0.166281 0.0403,0.07569 0.03759,0.150334 -0.0071,0.195012 -0.01972,0.01973 -0.04729,0.03587 -0.06125,0.03587 -0.01396,0 -0.07668,0.03367 -0.139377,0.07484 -0.139637,0.09168 -0.23091,0.110751 -0.26196,0.05475 z M 8.2437688,15.388288 c -0.027118,-0.04296 -0.046644,-0.05845 -0.073706,-0.05845 -0.057996,0 -0.1224331,-0.03329 -0.2379041,-0.122885 -0.1314636,-0.102013 -0.270503,-0.243925 -0.3184481,-0.325032 -0.047287,-0.07999 -0.070047,-0.220272 -0.048636,-0.299781 0.00886,-0.03293 0.018278,-0.115397 0.020905,-0.183264 0.00404,-0.104309 0.00991,-0.128858 0.037971,-0.158721 0.040576,-0.04319 0.065176,-0.04381 0.187779,-0.0047 0.227404,0.07251 0.2507704,0.0925 0.2844991,0.243292 0.013025,0.05823 0.039588,0.141852 0.059027,0.185814 0.049762,0.11251 0.1600485,0.278828 0.2233689,0.336837 0.049337,0.0452 0.054063,0.05665 0.059669,0.144738 0.00865,0.135883 -0.00769,0.224663 -0.048932,0.265909 -0.053428,0.05342 -0.1018705,0.04552 -0.1455996,-0.02376 z M 11.898046,7.3113571 c -0.004,-0.00657 -0.01206,-0.4898059 -0.0178,-1.0738713 l -0.0104,-1.0619331 -0.351985,1.09e-4 c -0.193591,5.56e-5 -0.395327,0.00418 -0.448304,0.0092 l -0.09631,0.0091 -0.01573,0.1016283 c -0.0087,0.055895 -0.01841,0.1043068 -0.02168,0.107577 -0.01332,0.013321 -0.691453,0.022175 -0.709883,0.00927 -0.01609,-0.011262 -0.01672,-0.096915 -0.0037,-0.4941739 0.02498,-0.759787 0.02861,-0.8092735 0.05941,-0.8092735 0.01433,0 0.02918,-0.011885 0.03299,-0.026411 0.0064,-0.024542 0.02804,-0.026158 0.304871,-0.022811 0.163881,0.00202 0.312758,0.00806 0.330837,0.013516 0.0299,0.00901 0.03287,0.018891 0.03287,0.1093224 v 0.099425 l 0.602684,0.00483 c 0.331475,0.00267 0.604354,0.00426 0.606396,0.00354 0.0021,-6.949e-4 0.008,-0.5315351 0.01335,-1.1795544 l 0.0096,-1.178221 -0.07275,-0.077004 c -0.233947,-0.247668 -0.284616,-0.5739417 -0.135385,-0.87209658 0.125571,-0.2508807 0.420971,-0.4248786 0.721322,-0.4248786 0.27373,0 0.541882,0.1655976 0.664343,0.4102676 0.148575,0.29684288 0.09844,0.62455258 -0.13303,0.86956158 l -0.07035,0.074464 v 0.5903138 c 1.1e-5,0.3246739 0.0043,0.8615207 0.0097,1.1929965 l 0.0097,0.6026843 h 0.603955 0.603959 V 4.1983621 c 0,-0.088281 0.0037,-0.1015015 0.02923,-0.108211 0.01607,-0.00418 0.02922,-0.018978 0.02922,-0.032826 0,-0.021569 0.0099,-0.023885 0.0694,-0.01615 0.03817,0.00498 0.173195,0.013414 0.300057,0.018783 0.126864,0.00533 0.234089,0.015313 0.238282,0.022102 0.0042,0.00678 0.01974,0.01234 0.03454,0.01234 0.03179,0 0.0351,0.04453 0.06024,0.8092736 0.01306,0.3973716 0.01244,0.482675 -0.0037,0.4928808 -0.02203,0.013978 -0.35463,0.014021 -0.574669,1.111e-4 l -0.146104,-0.00924 -0.01272,-0.089369 -0.01272,-0.089366 -0.09685,-0.00915 c -0.05327,-0.00505 -0.256287,-0.00918 -0.451155,-0.00926 l -0.354285,-1.104e-4 -0.0021,0.5734613 c -0.0011,0.3154048 -0.0061,0.7896861 -0.01097,1.0539579 -0.0088,0.4728524 -0.0095,0.4806775 -0.04002,0.4919736 -0.02344,0.00866 -0.04999,-0.00122 -0.107873,-0.04023 -0.189787,-0.12777 -0.396558,-0.1841932 -0.679278,-0.1853442 -0.287428,-0.00122 -0.469239,0.048088 -0.662879,0.1795823 -0.08941,0.060724 -0.111265,0.069109 -0.124434,0.047792 z"
       id="path847" />
  </g>
</svg>
