<?xml version="1.0" standalone="no"?>
<!DOCTYPE svg PUBLIC "-//W3C//DTD SVG 20010904//EN"
 "http://www.w3.org/TR/2001/REC-SVG-20010904/DTD/svg10.dtd">
<svg version="1.0" xmlns="http://www.w3.org/2000/svg"
 width="656.000000pt" height="656.000000pt" viewBox="0 0 656.000000 656.000000"
 preserveAspectRatio="xMidYMid meet">
<metadata>
Created by potrace 1.11, written by Peter Selinger 2001-2013
</metadata>
<g transform="translate(0.000000,656.000000) scale(0.100000,-0.100000)"
fill="#000000" stroke="none">
<path d="M3159 5803 c0 -21 0 -181 -1 -355 0 -175 -3 -318 -6 -319 -4 -1 -18
-3 -32 -4 -107 -15 -132 -20 -210 -40 -36 -9 -72 -18 -80 -20 -42 -9 -176 -63
-260 -105 -99 -50 -245 -143 -314 -202 -66 -55 -228 -222 -271 -278 -22 -29
-46 -58 -52 -65 -7 -8 -13 -18 -13 -23 0 -6 -3 -12 -7 -14 -10 -4 -53 -65 -53
-74 0 -3 -8 -18 -18 -32 -61 -87 -146 -289 -182 -431 -20 -80 -25 -105 -44
-228 -1 -7 -5 -15 -8 -19 -4 -3 -189 -6 -412 -6 l-406 0 -1 -56 c-1 -77 -1
-161 0 -258 l1 -81 410 1 410 1 5 -25 c3 -14 7 -43 11 -65 3 -22 7 -47 9 -55
3 -8 7 -33 11 -55 11 -71 81 -271 133 -377 102 -210 265 -420 434 -560 28 -23
54 -45 57 -49 3 -3 48 -35 100 -71 107 -74 262 -155 360 -188 36 -12 74 -26
85 -31 18 -7 88 -27 125 -34 8 -2 26 -6 40 -9 37 -9 79 -16 132 -23 l46 -6 0
-415 0 -415 196 -1 c124 -1 196 3 197 9 0 6 2 191 2 412 1 221 5 404 8 408 4
3 22 7 40 9 35 4 83 12 131 22 15 3 30 5 33 5 2 0 23 6 45 14 22 8 43 14 45
14 3 0 36 9 73 21 302 97 629 333 824 595 33 44 65 87 71 96 67 89 206 398
223 499 3 14 7 33 10 42 3 10 7 28 10 40 2 13 6 34 9 48 3 14 8 50 11 80 3 30
8 57 10 59 2 2 187 5 411 6 225 1 410 3 413 3 3 1 5 89 5 194 l0 193 -385 2
c-212 1 -400 2 -419 3 -24 0 -32 4 -28 14 3 8 3 17 0 20 -3 3 -7 20 -9 38 -4
50 -19 123 -38 193 -1 6 -8 30 -15 55 -49 178 -183 434 -306 580 -58 69 -296
300 -310 300 -7 0 -15 3 -17 8 -3 8 -84 72 -91 72 -3 0 -34 17 -68 38 -59 35
-123 67 -209 105 -44 20 -215 73 -255 80 -16 3 -39 8 -50 10 -11 3 -40 8 -65
11 -25 4 -54 8 -65 10 -11 3 -25 5 -31 5 -8 1 -11 105 -10 356 l1 355 -197 0
-198 0 -1 -37z m0 -1299 c0 -124 3 -229 6 -233 4 -3 92 -6 196 -7 184 0 189 0
190 20 1 12 1 117 2 234 0 203 1 212 20 212 31 0 201 -41 215 -52 6 -6 12 -8
12 -5 0 10 141 -52 208 -91 114 -66 126 -73 172 -110 66 -54 108 -92 157 -142
48 -49 165 -196 176 -220 4 -8 18 -33 32 -55 23 -38 57 -105 75 -150 19 -46
32 -85 32 -92 0 -4 5 -19 10 -33 5 -14 18 -62 28 -107 15 -69 16 -83 4 -84 -8
0 -114 -1 -236 -2 l-223 -2 0 -195 0 -195 232 -1 c128 0 234 -2 237 -5 3 -3
-26 -137 -48 -220 -10 -39 -62 -159 -94 -219 -188 -353 -563 -632 -937 -696
-77 -13 -70 -34 -72 206 0 118 -1 222 -2 231 -1 14 -24 16 -196 16 l-195 0 -1
-41 c0 -23 0 -124 0 -226 0 -101 -2 -187 -5 -191 -8 -14 -231 40 -309 75 -16
8 -52 24 -80 36 -193 87 -417 284 -552 485 -40 60 -105 180 -109 201 -1 6 -9
27 -17 45 -35 81 -74 224 -73 273 l1 29 230 1 230 1 0 148 c0 81 3 147 7 147
4 0 3 11 -2 24 -5 13 -6 26 -3 29 2 3 2 15 -2 26 -6 19 -13 20 -231 19 -124 0
-227 2 -230 5 -8 8 15 123 43 211 31 99 125 298 153 326 3 3 25 32 49 65 55
76 207 227 288 288 34 26 64 47 67 47 3 0 24 13 48 29 42 28 169 91 183 91 4
0 21 7 38 15 41 18 202 61 244 63 l31 3 1 -227z"/>
<path d="M3270 3701 c-92 -30 -172 -99 -211 -181 -41 -86 -30 -239 22 -308 38
-50 90 -97 134 -120 44 -24 62 -27 140 -27 83 0 94 3 146 32 67 39 102 73 137
132 28 49 29 50 40 126 19 127 -61 265 -186 323 -59 27 -174 39 -222 23z"/>
</g>
</svg>
