<?xml version="1.0" encoding="UTF-8" standalone="no"?>
<!-- Created with Inkscape (http://www.inkscape.org/) -->

<svg
   width="96"
   height="96"
   viewBox="0 0 25.4 25.400001"
   version="1.1"
   id="svg5"
   inkscape:version="1.1 (c68e22c387, 2021-05-23)"
   sodipodi:docname="platform_playstation.svg"
   xmlns:inkscape="http://www.inkscape.org/namespaces/inkscape"
   xmlns:sodipodi="http://sodipodi.sourceforge.net/DTD/sodipodi-0.dtd"
   xmlns="http://www.w3.org/2000/svg"
   xmlns:svg="http://www.w3.org/2000/svg">
  <sodipodi:namedview
     id="namedview7"
     pagecolor="#ffffff"
     bordercolor="#666666"
     borderopacity="1.0"
     inkscape:pageshadow="2"
     inkscape:pageopacity="0.0"
     inkscape:pagecheckerboard="0"
     inkscape:document-units="px"
     showgrid="false"
     units="px"
     showborder="true"
     inkscape:zoom="2.6650657"
     inkscape:cx="173.35408"
     inkscape:cy="115.00655"
     inkscape:window-width="1920"
     inkscape:window-height="1137"
     inkscape:window-x="-8"
     inkscape:window-y="-8"
     inkscape:window-maximized="1"
     inkscape:current-layer="layer1" />
  <defs
     id="defs2" />
  <g
     inkscape:label="Layer 1"
     inkscape:groupmode="layer"
     id="layer1">
    <path
       d="M 11.657,21.44858 C 10.614845,21.117961 9.7297128,20.838391 9.6900381,20.827314 l -0.072139,-0.02014 v -8.729277 c 0,-8.5327622 8.902e-4,-8.7292784 0.036189,-8.7292784 0.044184,0 0.4718349,0.08903 0.9256509,0.1927067 1.133474,0.2589468 2.955499,0.7762539 4.309042,1.2234181 2.12013,0.7004178 3.314022,1.476421 3.991993,2.5947041 0.371014,0.6119719 0.608247,1.4615695 0.682137,2.4429228 0.02736,0.3633157 0.02802,1.1939197 0.0012,1.4626107 -0.10237,1.024455 -0.426746,1.802897 -0.965833,2.317824 -0.330341,0.315538 -0.696279,0.503165 -1.160592,0.595073 -0.258133,0.0511 -0.772675,0.04692 -1.071025,-0.0087 -0.300339,-0.05599 -0.62496,-0.155412 -0.934411,-0.286196 l -0.254845,-0.107723 v -3.008348 c 0,-2.041433 -0.0068,-3.0753494 -0.02108,-3.2168065 -0.05145,-0.5087171 -0.204891,-0.8264454 -0.486657,-1.0076883 -0.202657,-0.1303567 -0.43781,-0.1791216 -0.612535,-0.1270236 -0.11827,0.035265 -0.25382,0.1696053 -0.331088,0.3281334 -0.136511,0.2800767 -0.126059,-0.3726052 -0.126059,7.87098 0,5.93897 -0.0048,7.438212 -0.02404,7.436875 -0.01323,-8.9e-4 -0.876719,-0.27218 -1.918871,-0.602801 z m 2.693152,-0.800616 c 0,-1.065107 0.0021,-1.137905 0.03366,-1.15032 0.01851,-0.0073 0.405896,-0.145254 0.860846,-0.30659 1.944598,-0.689597 3.926641,-1.392696 4.732251,-1.678694 0.476111,-0.169023 0.926252,-0.337475 1.000313,-0.374336 0.544596,-0.271059 0.49418,-0.58883 -0.117941,-0.743364 -0.448327,-0.113183 -1.047745,-0.112371 -1.674328,0.0023 -0.310417,0.0568 -0.371303,0.07576 -1.39142,0.433496 -0.449659,0.157685 -1.198452,0.420025 -1.663983,0.582977 -0.465531,0.162952 -1.052577,0.368946 -1.304549,0.457763 -0.251971,0.08882 -0.461892,0.161487 -0.466493,0.161487 -0.0046,0 -0.0084,-0.532567 -0.0084,-1.183481 V 15.66572 l 0.341452,-0.108648 c 0.768687,-0.244591 1.582511,-0.423698 2.495973,-0.549317 1.557328,-0.214163 3.282439,-0.111395 4.857292,0.28936 0.338821,0.08622 1.237106,0.383181 1.537523,0.508287 0.68567,0.285537 1.123457,0.646868 1.252948,1.034134 0.03423,0.10235 0.04035,0.156947 0.03395,0.302636 -0.007,0.15906 -0.0156,0.193598 -0.08185,0.328329 -0.180338,0.366768 -0.766745,0.797218 -1.530653,1.123571 -0.111094,0.04746 -0.543921,0.208487 -0.96184,0.357841 -6.011177,2.148219 -7.929904,2.833143 -7.936684,2.833143 -0.0045,0 -0.0081,-0.511679 -0.0081,-1.137064 z M 6.0206176,19.915026 C 5.3196113,19.892878 4.5167085,19.799041 3.818006,19.657602 3.2798503,19.548662 2.2928741,19.271253 1.875089,19.111506 1.449627,18.948822 1.1134427,18.743365 0.86322681,18.493114 0.73045075,18.360318 0.68107249,18.294083 0.61314858,18.157663 l -0.0846354,-0.169985 v -0.221607 c 0,-0.214846 0.002106,-0.22599 0.0690075,-0.365194 C 0.71384363,17.15884 0.92177776,16.969107 1.3504211,16.713878 1.6160722,16.5557 2.2113772,16.274482 2.60779,16.119903 2.8078777,16.041883 4.2917109,15.511551 5.9051972,14.941394 l 2.9336124,-1.036649 0.00497,1.138473 c 0.00272,0.62616 8.902e-4,1.142525 -0.00409,1.14748 -0.00499,0.0049 -0.4270546,0.157762 -0.937947,0.339574 -2.8275908,1.006254 -3.2574068,1.161711 -3.3902948,1.226199 -0.337913,0.163986 -0.4603892,0.370676 -0.3163718,0.533918 0.2775677,0.314618 1.4293989,0.389976 2.3645826,0.1547 0.1076098,-0.02707 0.6514575,-0.213761 1.2085515,-0.414862 0.5570922,-0.201101 1.0280446,-0.36998 1.0465608,-0.375286 0.031762,-0.0091 0.033664,0.0482 0.033664,1.01438 v 1.024028 l -0.3222151,0.0503 c -0.6497714,0.101426 -1.0095959,0.138024 -1.6207005,0.164839 -0.4112837,0.01805 -0.5000229,0.0187 -0.8848924,0.0065 z"
       id="path852"
       sodipodi:nodetypes="cscsssssscsscscscssssccccssssssssssscsssssssscsccssssscsssssccsssssssscssss" />
  </g>
</svg>
