<?xml version="1.0" encoding="UTF-8" standalone="no"?>
<!-- Created with Inkscape (http://www.inkscape.org/) -->

<svg
   width="96"
   height="96"
   viewBox="0 0 25.4 25.400001"
   version="1.1"
   id="svg5"
   inkscape:version="1.1 (c68e22c387, 2021-05-23)"
   sodipodi:docname="platform_stadia.svg"
   xmlns:inkscape="http://www.inkscape.org/namespaces/inkscape"
   xmlns:sodipodi="http://sodipodi.sourceforge.net/DTD/sodipodi-0.dtd"
   xmlns="http://www.w3.org/2000/svg"
   xmlns:svg="http://www.w3.org/2000/svg">
  <sodipodi:namedview
     id="namedview7"
     pagecolor="#ffffff"
     bordercolor="#666666"
     borderopacity="1.0"
     inkscape:pageshadow="2"
     inkscape:pageopacity="0.0"
     inkscape:pagecheckerboard="0"
     inkscape:document-units="px"
     showgrid="false"
     units="px"
     showborder="true"
     inkscape:zoom="2.1883723"
     inkscape:cx="168.16151"
     inkscape:cy="155.13813"
     inkscape:window-width="1920"
     inkscape:window-height="1137"
     inkscape:window-x="-8"
     inkscape:window-y="-8"
     inkscape:window-maximized="1"
     inkscape:current-layer="layer1" />
  <defs
     id="defs2" />
  <g
     inkscape:label="Layer 1"
     inkscape:groupmode="layer"
     id="layer1">
    <path
       style="fill:#000000;stroke-width:0.999999"
       d="M 8.6869188,20.633223 C 8.6393776,20.605587 8.5685198,20.506009 8.5294626,20.41194 8.490406,20.317872 8.1548048,19.551201 7.7836826,18.708227 7.4125604,17.865253 7.1089151,17.115671 7.1089151,17.04249 c 0,-0.134622 0.099639,-0.316283 0.2322778,-0.423489 0.039866,-0.03222 0.3362129,-0.236579 0.6585531,-0.45413 1.4959666,-1.009645 3.249584,-1.705008 5.035537,-1.996744 0.306867,-0.05013 0.565265,-0.09847 0.57422,-0.107421 0.009,-0.009 -0.168273,-0.05155 -0.393839,-0.09466 -2.148579,-0.410652 -5.1628385,-0.0064 -8.8812476,1.19123 C 3.4878209,15.429933 3.4533231,15.436995 3.2937463,15.37032 3.0866262,15.283779 3.1564414,15.425006 1.7891241,12.326619 0.58782129,9.6044251 0.59438449,9.6246431 0.83865219,9.3986802 0.89627869,9.3453724 1.2477984,9.0979318 1.6198064,8.8488133 5.0263878,6.5675645 8.4470434,5.2627502 12.219472,4.8055548 c 0.858896,-0.1040929 3.561169,-0.1175604 4.430712,-0.022082 2.561744,0.2812887 4.908999,0.9420246 7.039621,1.9816037 0.786885,0.3839392 1.001299,0.5502517 1.001299,0.7766654 0,0.1156813 -0.906575,3.0587186 -0.990665,3.2160186 -0.05014,0.0938 -0.280094,0.223193 -0.396644,0.223193 -0.04354,0 -0.403878,-0.147297 -0.800755,-0.327327 -2.055981,-0.9326299 -4.024656,-1.472061 -6.181057,-1.6936541 -0.818416,-0.084101 -2.573522,-0.071413 -3.422667,0.024743 -1.871888,0.21197 -3.8711868,0.7546815 -5.0300186,1.3654032 l -0.3149665,0.165992 0.2813148,-0.02804 c 0.1547233,-0.01542 0.5872448,-0.05845 0.9611596,-0.09561 1.6308807,-0.162088 3.6952197,-0.132651 5.2611387,0.07502 2.58696,0.343086 5.034387,1.172835 6.746255,2.287179 0.540031,0.351535 0.652025,0.469581 0.651324,0.686515 -1.77e-4,0.07807 -0.241991,0.912046 -0.537196,1.853279 -0.45656,1.455695 -0.556051,1.728052 -0.666028,1.823252 l -0.12929,0.111919 -0.962797,-0.03236 c -2.759756,-0.09276 -5.596508,0.523434 -8.089443,1.757184 -0.894138,0.442508 -1.2991614,0.761625 -1.9769262,1.557618 -0.1521534,0.178694 -0.2551765,0.209369 -0.406924,0.12116 z"
       id="path1741" />
  </g>
</svg>
