<?xml version="1.0" encoding="UTF-8" standalone="no"?>
<!-- Created with Inkscape (http://www.inkscape.org/) -->

<svg
   width="96"
   height="96"
   viewBox="0 0 25.4 25.400001"
   version="1.1"
   id="svg5"
   inkscape:version="1.1 (c68e22c387, 2021-05-23)"
   sodipodi:docname="platform_pc.svg"
   xmlns:inkscape="http://www.inkscape.org/namespaces/inkscape"
   xmlns:sodipodi="http://sodipodi.sourceforge.net/DTD/sodipodi-0.dtd"
   xmlns="http://www.w3.org/2000/svg"
   xmlns:svg="http://www.w3.org/2000/svg">
  <sodipodi:namedview
     id="namedview7"
     pagecolor="#ffffff"
     bordercolor="#666666"
     borderopacity="1.0"
     inkscape:pageshadow="2"
     inkscape:pageopacity="0.0"
     inkscape:pagecheckerboard="0"
     inkscape:document-units="px"
     showgrid="false"
     units="px"
     showborder="true"
     inkscape:zoom="2.1883723"
     inkscape:cx="168.16151"
     inkscape:cy="114.9256"
     inkscape:window-width="1920"
     inkscape:window-height="1137"
     inkscape:window-x="-8"
     inkscape:window-y="-8"
     inkscape:window-maximized="1"
     inkscape:current-layer="layer1" />
  <defs
     id="defs2" />
  <g
     inkscape:label="Layer 1"
     inkscape:groupmode="layer"
     id="layer1">
    <path
       style="stroke-width:1"
       d="M 1.4017091,18.38398 C 1.1531766,18.32524 0.9444295,18.138976 0.8418616,17.884434 L 0.7807506,17.732776 V 12.672233 7.6116889 l 0.060407,-0.133592 c 0.07161,-0.158366 0.2616086,-0.344813 0.4326071,-0.42452 l 0.1219382,-0.05684 H 12.708258 24.020814 l 0.128115,0.06825 c 0.247649,0.131927 0.398007,0.346424 0.447936,0.639007 0.01973,0.115624 0.02581,1.62107 0.02062,5.1091651 -0.007,4.733016 -0.0094,4.950457 -0.05454,5.066801 -0.06984,0.179882 -0.24153,0.356551 -0.431939,0.444471 l -0.161438,0.07454 -11.235687,0.0039 c -6.4907841,0.0023 -11.2764323,-0.0057 -11.3321721,-0.0189 z M 23.988606,17.980402 c 0.06684,-0.03292 0.147555,-0.09634 0.179361,-0.140927 l 0.05783,-0.08108 0.007,-5.009297 c 0.0063,-4.5334201 0.0031,-5.0195741 -0.03387,-5.1174671 -0.04826,-0.127754 -0.155538,-0.225504 -0.287801,-0.262237 -0.138146,-0.03837 -22.2723964,-0.03685 -22.4129248,0.0015 -0.1373211,0.03751 -0.2665622,0.138885 -0.310195,0.243314 -0.030124,0.0721 -0.035716,0.866596 -0.035716,5.0746981 v 4.989218 l 0.053445,0.110403 c 0.064207,0.132632 0.1630922,0.208117 0.3109278,0.237349 0.06031,0.01193 5.1138253,0.02003 11.230036,0.01801 l 11.120382,-0.0037 z M 2.4736987,16.629157 c -0.060367,-0.06037 -0.060367,-1.293992 0,-1.354359 0.03575,-0.03575 0.2207275,-0.04027 1.6495466,-0.04027 1.4656868,0 1.6124181,0.0038 1.6444468,0.04237 0.027712,0.03339 0.035166,0.176472 0.035166,0.675072 0,0.498599 -0.00745,0.64168 -0.035166,0.675071 -0.032029,0.03859 -0.17876,0.04237 -1.6444468,0.04237 -1.4288191,0 -1.613797,-0.0045 -1.6495466,-0.04027 z m 4.0603161,-0.0093 c -0.016259,-0.03038 -0.026524,-0.297816 -0.026524,-0.690919 0,-0.607869 0.00259,-0.642744 0.049561,-0.667884 0.033764,-0.01807 1.9851363,-0.02652 6.1220682,-0.02652 5.486296,0 6.076393,0.0039 6.112771,0.04027 0.06037,0.06037 0.06037,1.293992 0,1.354359 -0.03638,0.03638 -0.628569,0.04027 -6.135808,0.04027 -6.0002617,0 -6.095958,-7.66e-4 -6.1220688,-0.04956 z m 13.0554722,-0.0074 c -0.03336,-0.04763 -0.03989,-0.155708 -0.03989,-0.660497 0,-0.50479 0.0065,-0.612868 0.03989,-0.660497 l 0.03989,-0.05695 h 1.610966 c 1.43035,0 1.615481,0.0045 1.65123,0.04027 0.06037,0.06037 0.06037,1.293991 0,1.354358 -0.03575,0.03575 -0.22088,0.04027 -1.65123,0.04027 H 19.629375 Z M 2.4641819,14.460719 c -0.02229,-0.02229 -0.030747,-0.208564 -0.030747,-0.67718 0,-0.553501 0.00579,-0.65222 0.040264,-0.686696 0.035742,-0.03574 0.2194019,-0.04026 1.6349742,-0.04026 1.3368238,0 1.6027537,0.0059 1.6444486,0.03637 0.046931,0.03432 0.049736,0.0724 0.049736,0.675071 0,0.503689 -0.00744,0.64766 -0.035166,0.681076 -0.032032,0.0386 -0.1794242,0.04237 -1.6539651,0.04237 -1.2249006,0 -1.6262803,-0.0075 -1.6495451,-0.03075 z m 4.0954563,-0.01881 c -0.016206,-0.03028 -0.026524,-0.292881 -0.026524,-0.675038 0,-0.573411 0.0039,-0.629007 0.046857,-0.667883 0.040929,-0.03704 0.1266161,-0.04241 0.67718,-0.04241 0.5388562,0 0.6361643,0.0058 0.6705867,0.04027 0.034476,0.03448 0.040264,0.133195 0.040264,0.686696 0,0.468616 -0.00846,0.65489 -0.030747,0.67718 -0.022323,0.02232 -0.2116161,0.03075 -0.69092,0.03075 -0.626468,0 -0.6615257,-0.0025 -0.6866962,-0.04956 z m 2.1821789,0.01881 c -0.022322,-0.02232 -0.030748,-0.211617 -0.030748,-0.69092 0,-0.626469 0.00253,-0.661526 0.049562,-0.686697 0.030281,-0.0162 0.2928816,-0.02652 0.6750382,-0.02652 0.5734107,0 0.6290067,0.0039 0.6678827,0.04686 0.037,0.04089 0.04241,0.12597 0.04241,0.667882 0,0.379089 -0.01033,0.640333 -0.02652,0.670587 -0.02517,0.04703 -0.06023,0.04956 -0.6866965,0.04956 -0.4793033,0 -0.6685964,-0.0084 -0.6909197,-0.03075 z m 2.1592989,-0.03081 c -0.03447,-0.05261 -0.03921,-0.151665 -0.03262,-0.681112 0.0072,-0.578829 0.01098,-0.62194 0.05745,-0.655884 0.03976,-0.02904 0.176984,-0.03633 0.683963,-0.03633 0.626343,0 0.63472,7.07e-4 0.674112,0.05695 0.05979,0.08536 0.05945,1.277844 -3.83e-4,1.337677 -0.03449,0.03449 -0.133607,0.04026 -0.69123,0.04026 h -0.650965 l -0.04034,-0.06156 z m 2.166765,0.012 c -0.01621,-0.03028 -0.02652,-0.292882 -0.02652,-0.675039 0,-0.573411 0.0039,-0.629007 0.04686,-0.667882 0.04089,-0.037 0.12597,-0.04241 0.667883,-0.04241 0.379088,0 0.640333,0.01033 0.670586,0.02652 0.04703,0.02517 0.04956,0.06023 0.04956,0.686696 0,0.479304 -0.0084,0.668597 -0.03075,0.69092 -0.02232,0.02232 -0.211616,0.03075 -0.690919,0.03075 -0.626469,0 -0.661527,-0.0025 -0.686697,-0.04956 z m 2.182179,0.01881 c -0.02229,-0.02229 -0.03075,-0.208563 -0.03075,-0.67718 0,-0.553501 0.0058,-0.65222 0.04026,-0.686696 0.06037,-0.06037 1.293991,-0.06037 1.354358,0 0.03448,0.03448 0.04026,0.133195 0.04026,0.686696 0,0.468617 -0.0085,0.65489 -0.03075,0.67718 -0.04377,0.04377 -1.329625,0.04377 -1.373392,0 z m 2.177955,0 c -0.02232,-0.02232 -0.03075,-0.211617 -0.03075,-0.69092 0,-0.626468 0.0025,-0.661526 0.04956,-0.686696 0.03028,-0.01621 0.292882,-0.02652 0.675039,-0.02652 0.57341,0 0.629006,0.0039 0.667882,0.04686 0.037,0.04089 0.04241,0.12597 0.04241,0.667883 0,0.379088 -0.01033,0.640333 -0.02652,0.670586 -0.02517,0.04703 -0.06023,0.04956 -0.686695,0.04956 -0.479303,0 -0.668597,-0.0084 -0.69092,-0.03075 z m 2.172831,0.0057 c -0.03214,-0.02029 -0.03969,-0.129075 -0.04609,-0.664561 -0.0074,-0.616518 -0.0057,-0.642245 0.04484,-0.692787 0.05179,-0.05179 0.07391,-0.05249 1.66491,-0.05249 1.431671,0 1.616932,0.0045 1.652684,0.04027 0.03448,0.03448 0.04026,0.133195 0.04026,0.686696 0,0.468617 -0.0085,0.65489 -0.03075,0.67718 -0.0386,0.0386 -3.265003,0.04412 -3.325866,0.0057 z M 2.4903811,12.299246 c -0.05631,-0.03944 -0.056947,-0.0472 -0.056947,-0.69123 v -0.651343 l 0.060777,-0.03982 c 0.053046,-0.03476 0.2016343,-0.03891 1.1679279,-0.03262 1.061947,0.0069 1.108635,0.0092 1.1435038,0.05694 0.029029,0.03972 0.036353,0.17525 0.036353,0.672604 0,0.588702 -0.0028,0.625677 -0.051247,0.674112 -0.049648,0.04965 -0.08541,0.05125 -1.1473342,0.05125 -0.9505739,0 -1.1036466,-0.0053 -1.1530344,-0.03989 z m 3.1215491,-0.01011 c -0.050026,-0.05003 -0.05249,-0.08173 -0.05249,-0.675357 0,-0.497494 0.00733,-0.632878 0.036368,-0.672605 0.034357,-0.04699 0.072555,-0.04974 0.6905406,-0.04974 0.5025916,0 0.6618899,0.0077 0.6874812,0.03331 0.048234,0.04824 0.048277,1.31997 5.01e-5,1.368268 -0.025077,0.02511 -0.1902849,0.03519 -0.6713593,0.04096 -0.6142998,0.0074 -0.6400514,0.0057 -0.6905848,-0.04484 z m 2.1824118,0.01011 c -0.056304,-0.03944 -0.056947,-0.04723 -0.056947,-0.690368 0,-0.643142 6.188e-4,-0.650931 0.056947,-0.690368 0.047629,-0.03336 0.1557083,-0.03989 0.6604971,-0.03989 0.5047897,0 0.6128683,0.0065 0.6604971,0.03989 0.056305,0.03944 0.056947,0.04723 0.056947,0.690368 0,0.643141 -6.482e-4,0.650931 -0.056947,0.690368 -0.047629,0.03336 -0.1557074,0.03989 -0.6604971,0.03989 -0.5047888,0 -0.6128677,-0.0065 -0.6604971,-0.03989 z m 2.1779557,0 c -0.056305,-0.03944 -0.056947,-0.04723 -0.056947,-0.690368 0,-0.643142 6.482e-4,-0.650931 0.056947,-0.690368 0.047629,-0.03336 0.1557073,-0.03989 0.6604963,-0.03989 0.50479,0 0.612868,0.0065 0.660497,0.03989 0.05631,0.03944 0.05695,0.04723 0.05695,0.690368 0,0.643141 -6.48e-4,0.650931 -0.05695,0.690368 -0.04763,0.03336 -0.155707,0.03989 -0.660497,0.03989 -0.504789,0 -0.612867,-0.0065 -0.6604963,-0.03989 z m 2.1786603,0.01347 -0.05765,-0.02317 v -0.680469 -0.680469 l 0.06904,-0.02625 c 0.04233,-0.0161 0.305813,-0.02329 0.681112,-0.01858 0.571449,0.0072 0.614479,0.01097 0.6484,0.0574 0.029,0.0397 0.03633,0.175429 0.03633,0.672604 0,0.588702 -0.0028,0.625677 -0.05125,0.674112 -0.04847,0.04847 -0.08424,0.05116 -0.659792,0.04962 -0.3347,-8.84e-4 -0.63449,-0.01205 -0.666198,-0.0248 z m 2.147171,-0.02358 c -0.05003,-0.05003 -0.05249,-0.08173 -0.05249,-0.675357 0,-0.497494 0.0073,-0.632878 0.03637,-0.672604 0.03436,-0.04699 0.07255,-0.04974 0.69054,-0.04974 0.502592,0 0.66189,0.0077 0.687481,0.03331 0.04824,0.04824 0.04828,1.31997 5.1e-5,1.368268 -0.02508,0.02511 -0.190284,0.03519 -0.671359,0.04096 -0.614301,0.0074 -0.640052,0.0057 -0.690586,-0.04484 z m 2.182412,0.01011 c -0.0563,-0.03944 -0.05695,-0.04723 -0.05695,-0.690368 0,-0.643142 6.48e-4,-0.650931 0.05695,-0.690368 0.04763,-0.03336 0.155707,-0.03989 0.660497,-0.03989 0.504789,0 0.612868,0.0065 0.660496,0.03989 0.0563,0.03944 0.05695,0.04723 0.05695,0.690368 0,0.643141 -6.48e-4,0.650931 -0.05695,0.690368 -0.04763,0.03336 -0.155707,0.03989 -0.660496,0.03989 -0.50479,0 -0.612868,-0.0065 -0.660497,-0.03989 z m 2.177955,0 c -0.05631,-0.03944 -0.05695,-0.04723 -0.05695,-0.690368 0,-0.643142 6.48e-4,-0.650931 0.05695,-0.690368 0.04763,-0.03336 0.155707,-0.03989 0.660497,-0.03989 0.504789,0 0.612867,0.0065 0.660496,0.03989 0.0563,0.03944 0.05695,0.04723 0.05695,0.690368 0,0.643141 -6.48e-4,0.650931 -0.05695,0.690368 -0.04763,0.03336 -0.155707,0.03989 -0.660496,0.03989 -0.50479,0 -0.612868,-0.0065 -0.660497,-0.03989 z m 2.180074,0.01399 c -0.08045,-0.0324 -0.08882,-0.113463 -0.07981,-0.773591 0.0059,-0.434194 0.01637,-0.590128 0.04122,-0.614952 0.02589,-0.02587 0.255752,-0.03487 1.034495,-0.04053 0.87136,-0.0063 1.009108,-0.0021 1.062099,0.03262 l 0.06089,0.03989 v 0.651343 c 0,0.644032 -6.77e-4,0.65179 -0.05695,0.69123 -0.04922,0.03448 -0.189124,0.03967 -1.031326,0.03826 -0.535908,-8.84e-4 -0.999686,-0.01182 -1.030616,-0.02427 z M 2.4736987,10.120914 c -0.034476,-0.03448 -0.040264,-0.1331951 -0.040264,-0.6866971 0,-0.468616 0.00846,-0.654889 0.030747,-0.677179 0.043767,-0.04377 1.3296244,-0.04377 1.3733916,0 0.02229,0.02229 0.030747,0.208563 0.030747,0.677179 0,0.553502 -0.00579,0.6522211 -0.040264,0.6866971 -0.034446,0.03444 -0.1323296,0.04026 -0.6771783,0.04026 -0.5448501,0 -0.642736,-0.0058 -0.6771793,-0.04026 z m 2.0985572,-0.02126 c -0.058191,-0.08881 -0.045949,-1.3107761 0.013516,-1.3483121 0.050439,-0.03184 1.3075803,-0.03184 1.3580195,0 0.032143,0.02029 0.039687,0.129076 0.046084,0.664561 0.00736,0.6165181 0.0057,0.6422461 -0.04484,0.6927881 -0.050104,0.0501 -0.081596,0.05249 -0.6924758,0.05249 H 4.6125754 Z m 2.1292375,0.02126 c -0.034476,-0.03448 -0.040264,-0.1331951 -0.040264,-0.6866971 0,-0.468616 0.00846,-0.654889 0.030748,-0.677179 0.043767,-0.04377 1.3296244,-0.04377 1.373393,0 0.02229,0.02229 0.030747,0.208563 0.030747,0.677179 0,0.553502 -0.00579,0.6522211 -0.040264,0.6866971 -0.034445,0.03444 -0.132331,0.04026 -0.6771797,0.04026 -0.5448505,0 -0.6427346,-0.0058 -0.6771803,-0.04026 z m 2.1007093,-0.01668 c -0.033394,-0.04768 -0.039887,-0.1564091 -0.039887,-0.6678831 0,-0.372133 0.010369,-0.630308 0.026524,-0.660497 0.025172,-0.04703 0.060228,-0.04956 0.6866965,-0.04956 0.4793032,0 0.6685958,0.0084 0.6909198,0.03075 0.02232,0.02232 0.03075,0.211616 0.03075,0.690919 0,0.6264691 -0.0025,0.6615261 -0.04956,0.6866971 -0.0303,0.01621 -0.2936637,0.02652 -0.6775567,0.02652 -0.6199056,0 -0.6285087,-7.37e-4 -0.6678827,-0.05695 z m 2.1316623,0.02927 c -0.04087,-0.0238 -0.04484,-0.08457 -0.04484,-0.6859171 0,-0.479014 0.0084,-0.668225 0.03075,-0.690548 0.02232,-0.02232 0.211617,-0.03075 0.69092,-0.03075 0.626468,0 0.661526,0.0025 0.686696,0.04956 0.01621,0.03028 0.02652,0.292881 0.02652,0.675038 0,0.5734111 -0.0039,0.6290071 -0.04686,0.6678831 -0.04096,0.03707 -0.125589,0.04231 -0.672604,0.04163 -0.377158,-4.71e-4 -0.643559,-0.01115 -0.670586,-0.02689 z m 2.098652,-0.01918 c -0.037,-0.04089 -0.04241,-0.1259701 -0.04241,-0.6678831 0,-0.379088 0.01033,-0.640333 0.02652,-0.670587 0.02517,-0.04703 0.06023,-0.04956 0.686696,-0.04956 0.479303,0 0.668596,0.0084 0.69092,0.03075 0.02232,0.02232 0.03075,0.211616 0.03075,0.690919 0,0.6264691 -0.0025,0.6615261 -0.04956,0.6866971 -0.03028,0.0162 -0.292881,0.02652 -0.675038,0.02652 -0.573411,0 -0.629007,-0.0039 -0.667883,-0.04686 z m 2.129144,0.01918 c -0.04087,-0.0238 -0.04484,-0.08457 -0.04484,-0.6859171 0,-0.479014 0.0084,-0.668225 0.03075,-0.690548 0.02232,-0.02232 0.211616,-0.03075 0.69092,-0.03075 0.626468,0 0.661526,0.0025 0.686696,0.04956 0.01616,0.03019 0.02652,0.288363 0.02652,0.660496 0,0.511475 -0.0065,0.6202071 -0.03989,0.6678831 -0.03941,0.05627 -0.0474,0.05694 -0.672604,0.05617 -0.381894,-4.71e-4 -0.650492,-0.01113 -0.677556,-0.02689 z m 2.096511,-0.01259 c -0.03448,-0.03448 -0.04026,-0.1331951 -0.04026,-0.6866971 0,-0.468616 0.0085,-0.654889 0.03075,-0.677179 0.04377,-0.04377 1.329624,-0.04377 1.373392,0 0.02229,0.02229 0.03075,0.208563 0.03075,0.677179 0,0.553502 -0.0058,0.6522211 -0.04026,0.6866971 -0.03444,0.03444 -0.132329,0.04026 -0.677179,0.04026 -0.544849,0 -0.642735,-0.0058 -0.677179,-0.04026 z m 2.098557,-0.02126 c -0.05819,-0.08881 -0.04595,-1.3107761 0.01351,-1.3483121 0.05044,-0.03184 1.307582,-0.03184 1.35802,0 0.03214,0.02029 0.03969,0.129076 0.04608,0.664561 0.0074,0.6165181 0.0057,0.6422461 -0.04484,0.6927871 -0.0501,0.0501 -0.0816,0.05249 -0.692476,0.05249 h -0.639984 z m 2.129238,0.02126 c -0.03448,-0.03448 -0.04026,-0.1331951 -0.04026,-0.6866971 0,-0.468616 0.0085,-0.654889 0.03075,-0.677179 0.04377,-0.04377 1.329626,-0.04377 1.373394,0 0.02229,0.02229 0.03075,0.208563 0.03075,0.677179 0,0.553502 -0.0058,0.6522211 -0.04026,0.6866971 -0.03444,0.03444 -0.13233,0.04026 -0.67718,0.04026 -0.544849,0 -0.642735,-0.0058 -0.677179,-0.04026 z"
       id="path2037" />
  </g>
</svg>
