<?xml version="1.0" encoding="UTF-8" standalone="no"?>
<!-- Created with Inkscape (http://www.inkscape.org/) -->

<svg
   width="96"
   height="96"
   viewBox="0 0 25.4 25.400001"
   version="1.1"
   id="svg5"
   inkscape:version="1.1 (c68e22c387, 2021-05-23)"
   sodipodi:docname="platform_xbox.svg"
   xmlns:inkscape="http://www.inkscape.org/namespaces/inkscape"
   xmlns:sodipodi="http://sodipodi.sourceforge.net/DTD/sodipodi-0.dtd"
   xmlns="http://www.w3.org/2000/svg"
   xmlns:svg="http://www.w3.org/2000/svg">
  <sodipodi:namedview
     id="namedview7"
     pagecolor="#ffffff"
     bordercolor="#666666"
     borderopacity="1.0"
     inkscape:pageshadow="2"
     inkscape:pageopacity="0.0"
     inkscape:pagecheckerboard="0"
     inkscape:document-units="px"
     showgrid="false"
     units="px"
     showborder="true"
     inkscape:zoom="3.9525859"
     inkscape:cx="143.95639"
     inkscape:cy="88.929124"
     inkscape:window-width="1920"
     inkscape:window-height="1137"
     inkscape:window-x="-8"
     inkscape:window-y="-8"
     inkscape:window-maximized="1"
     inkscape:current-layer="layer1" />
  <defs
     id="defs2" />
  <g
     inkscape:label="Layer 1"
     inkscape:groupmode="layer"
     id="layer1">
    <path
       style="fill:#000000;stroke-width:0.999999"
       d="M 11.287491,24.915819 C 9.2979577,24.67148 7.119879,23.788364 5.419467,22.536592 4.5602294,21.904057 4.3680001,21.542399 4.444225,20.701775 c 0.1776403,-1.959048 3.4154567,-6.22905 7.180382,-9.469424 1.068895,-0.919969 1.084381,-0.925289 1.601995,-0.550331 0.602363,0.43635 3.742202,3.563589 4.741844,4.722817 2.29219,2.658119 3.552553,5.307647 2.979823,6.264164 -0.596218,0.995744 -3.513464,2.569427 -5.566829,3.002975 -0.950102,0.200606 -3.304275,0.340824 -4.093949,0.243843 z M 2.5413757,19.443581 C 0.94246847,16.92933 0.25475857,13.930965 0.6457216,11.178668 1.0161261,8.571093 2.0612909,6.2518545 3.6291592,4.5583696 4.1065896,4.0426878 4.2831324,3.9221789 4.5610621,3.9222488 5.3250369,3.9224452 6.9729358,4.9693368 8.7120218,6.5593183 L 9.3556032,7.1477207 8.5483409,8.1812111 C 6.4807229,10.828262 4.3116358,14.45004 3.4957523,16.617643 c -0.3880454,1.030941 -0.643748,2.306392 -0.5849871,2.91793 0.028346,0.295023 0.046473,0.535974 0.040282,0.535449 -0.0062,-5.36e-4 -0.1905454,-0.282873 -0.4096692,-0.627441 z M 22.568698,19.228113 c -0.007,-0.406109 -0.119546,-1.126953 -0.250073,-1.601874 -0.575806,-2.095064 -2.783832,-6.010387 -5.171911,-9.1709586 L 16.16081,7.150458 17.055539,6.3115578 c 1.413041,-1.3248707 2.71991,-2.1667101 3.724599,-2.3992566 0.36191,-0.083768 0.410127,-0.058237 0.957668,0.5070678 1.223297,1.2629841 2.26809,3.2009379 2.82835,5.2462179 0.269537,0.9839671 0.294954,1.2455991 0.295415,3.0407661 4.54e-4,1.700293 -0.03286,2.088773 -0.247893,2.891689 -0.325805,1.216572 -0.785669,2.354872 -1.314818,3.254565 -0.71837,1.221421 -0.715578,1.219985 -0.730162,0.375506 z M 12.051333,3.5939648 C 10.496639,2.7704538 8.2828413,2.0810517 7.1182376,2.057742 L 6.6498755,2.0483677 7.6585267,1.5605956 C 10.814905,0.03420749 14.984588,0.08929732 18.189354,1.699729 c 0.40511,0.203572 0.736563,0.3842057 0.736563,0.4014079 0,0.017202 -0.163971,0.012134 -0.364379,-0.011262 -0.911226,-0.106381 -2.907836,0.4510803 -4.82645,1.3475627 -0.570563,0.2665986 -1.047783,0.4824081 -1.060489,0.4795767 -0.01271,-0.00283 -0.293176,-0.1482038 -0.623266,-0.3230495 z"
       id="path1328" />
  </g>
</svg>
