<?xml version="1.0" encoding="UTF-8" standalone="no"?>
<!-- Created with Inkscape (http://www.inkscape.org/) -->

<svg
   width="32"
   height="32"
   viewBox="0 0 8.4666665 8.4666669"
   version="1.1"
   id="svg5"
   inkscape:version="1.1 (c68e22c387, 2021-05-23)"
   sodipodi:docname="Earth_Worm.svg"
   xmlns:inkscape="http://www.inkscape.org/namespaces/inkscape"
   xmlns:sodipodi="http://sodipodi.sourceforge.net/DTD/sodipodi-0.dtd"
   xmlns="http://www.w3.org/2000/svg"
   xmlns:svg="http://www.w3.org/2000/svg">
  <sodipodi:namedview
     id="namedview7"
     pagecolor="#ffffff"
     bordercolor="#666666"
     borderopacity="1.0"
     inkscape:pageshadow="2"
     inkscape:pageopacity="0.0"
     inkscape:pagecheckerboard="0"
     inkscape:document-units="px"
     showgrid="true"
     units="px"
     showborder="true"
     inkscape:zoom="14.481547"
     inkscape:cx="34.664805"
     inkscape:cy="15.847755"
     inkscape:window-width="1920"
     inkscape:window-height="1137"
     inkscape:window-x="-8"
     inkscape:window-y="-8"
     inkscape:window-maximized="1"
     inkscape:current-layer="layer1"
     inkscape:snap-bbox="false"
     showguides="true"
     inkscape:guide-bbox="true"
     inkscape:snap-global="false" />
  <defs
     id="defs2" />
  <g
     inkscape:label="Layer 1"
     inkscape:groupmode="layer"
     id="layer1">
    <path
       id="path3097"
       style="opacity:1;fill:#000000;stroke-width:0.999997"
       d="M 3.947924,0.1105955 C 3.7680235,0.11040505 3.5965295,0.143119 3.4456396,0.2067495 3.4066886,0.2231742 3.3099009,0.2784838 3.2734226,0.305173 3.2060796,0.3544347 3.1278414,0.4330566 3.108425,0.47096716 c -0.0047,0.009184 -0.0102,0.0175844 -0.012216,0.0186899 -0.00201,0.001084 -0.00264,0.003902 -0.00135,0.006209 0.0026,0.004746 0.025007,-0.0106037 0.063507,-0.0435376 0.028905,-0.0247284 0.1607349,-0.0932188 0.2234575,-0.1160993 0.046541,-0.016979 0.1420759,-0.041476 0.1862949,-0.047763 0.1146504,-0.0163009 0.2329473,-0.0122086 0.3366108,0.0116853 0.068111,0.0156993 0.1745847,0.0522113 0.1725556,0.0591603 -4.655e-4,0.001549 -0.014896,0.005411 -0.032093,0.008622 -0.026651,0.004962 -0.039195,0.0102035 -0.084925,0.0354708 -0.054866,0.0303171 -0.086834,0.0548753 -0.125348,0.096323 -0.029354,0.0315929 -0.077036,0.1111568 -0.089682,0.14963977 -0.013225,0.0402482 -0.029149,0.1237079 -0.0319,0.16724278 -0.00396,0.062644 0.00326,0.13191858 0.013183,0.12648268 0.00283,-0.00155 0.00754,-8.129e-4 0.010456,0.00166 0.00291,0.00249 0.00728,0.00218 0.00969,-6.593e-4 0.00405,-0.00479 0.00642,-0.0561828 0.00468,-0.10199738 -0.00135,-0.0355257 0.025833,-0.1159574 0.05648,-0.1672187 0.047372,-0.0792312 0.094838,-0.12455638 0.1720724,-0.16432115 0.049739,-0.0256087 0.050175,-0.0257596 0.091928,-0.0276989 0.1284332,-0.005961 0.2500282,0.0450921 0.3884305,0.1630413 0.1492959,0.12723322 0.2005199,0.18843582 0.2593163,0.30973523 0.047114,0.097198 0.073119,0.19018021 0.082897,0.29655081 0.00376,0.040926 0.00395,0.1525946 2.657e-4,0.1546142 -0.00432,0.00237 -0.074324,-0.020943 -0.1036395,-0.034506 -0.015521,-0.00718 -0.029738,-0.012216 -0.031632,-0.011181 -0.0026,0.00143 -0.031896,0.047383 -0.037356,0.058629 -5.042e-4,0.00101 0.014043,0.012294 0.032283,0.025066 0.042008,0.029409 0.078481,0.069771 0.1054987,0.1167273 l 0.021032,0.036511 -0.00616,0.042595 c -0.00337,0.023417 -0.013223,0.078556 -0.021855,0.1225222 l -0.015672,0.079927 -0.076233,-0.02417 c -0.041914,-0.013299 -0.083648,-0.027524 -0.092749,-0.031608 -0.018999,-0.00852 -0.031713,-0.00764 -0.035711,0.00249 -0.00151,0.00388 -0.00899,0.016723 -0.016564,0.028568 l -0.013787,0.02154 0.018399,0.00652 c 0.040416,0.014331 0.101274,0.079301 0.1259274,0.1344511 0.0081,0.018124 0.014028,0.036348 0.013186,0.040494 -8.516e-4,0.00415 -0.01511,0.042184 -0.031705,0.084563 -0.016595,0.042379 -0.038217,0.1007165 -0.048052,0.1296219 l -0.017868,0.052568 -0.015913,-0.0019 c -0.031201,-0.00368 -0.119086,-0.029338 -0.14479,-0.04228 -0.014381,-0.00724 -0.026769,-0.012842 -0.027504,-0.012434 -0.00373,0.00206 -0.03264,0.050807 -0.036391,0.061382 l -0.00432,0.012194 0.019609,0.00987 c 0.037072,0.01869 0.061428,0.046837 0.1060541,0.1225708 l 0.04023,0.06824 -0.00988,0.040229 c -0.015668,0.063724 -0.034675,0.1628995 -0.044721,0.2334546 -0.034997,0.2458038 -0.023305,0.4368459 0.035929,0.5868471 0.049983,0.1265724 0.055213,0.1365765 0.072031,0.1379045 0.01689,0.00132 0.066806,-0.021997 0.1772399,-0.082897 0.1608868,-0.088722 0.2888302,-0.1938526 0.41393,-0.340112 0.023867,-0.027904 0.054564,-0.063104 0.06824,-0.078237 0.031713,-0.035095 0.075239,-0.094395 0.1093383,-0.1490119 0.030956,-0.049584 0.032496,-0.050681 0.1301529,-0.091953 0.062501,-0.026415 0.07415,-0.03063 0.1747769,-0.063144 0.095529,-0.030868 0.1784616,-0.045076 0.2133397,-0.036534 0.00666,0.00162 0.014203,5.042e-4 0.016805,-0.0026 0.00445,-0.00525 0.016917,-0.057975 0.014683,-0.062058 -5.816e-4,-0.00105 -0.00849,-0.00425 -0.017627,-0.00715 -0.00914,-0.00291 -0.054121,-0.020558 -0.099945,-0.039239 -0.045824,-0.018682 -0.1171182,-0.04728 -0.1584049,-0.063556 -0.041286,-0.016273 -0.07637,-0.032024 -0.077995,-0.03499 -0.00584,-0.010677 0.00731,-0.05346 0.023882,-0.07756 0.00927,-0.013489 0.030363,-0.037061 0.04687,-0.052376 0.016506,-0.015312 0.033982,-0.032598 0.038828,-0.038419 C 5.6491352,2.2668185 5.6901142,2.2287385 5.742271,2.18423 5.784467,2.14822 5.796685,2.139806 5.826858,2.125987 5.846257,2.117097 5.867701,2.108077 5.8745,2.105944 5.88605,2.102334 5.886736,2.100364 5.88515,2.07617 5.884221,2.061929 5.88204,2.047626 5.8803,2.044391 5.8752,2.034931 5.859907,2.034121 5.821164,2.041211 5.747114,2.054746 5.6073004,2.065951 5.5955576,2.059295 c -0.00194,-0.00113 -0.00135,-0.030634 0.00132,-0.065632 0.00545,-0.070674 0.00768,-0.1524599 0.00548,-0.2023288 l -0.00143,-0.032768 0.032357,-0.042981 c 0.032337,-0.042978 0.071969,-0.079056 0.1098933,-0.100041 0.010065,-0.00557 0.016491,-0.012268 0.017941,-0.018667 0.00186,-0.00829 -0.010599,-0.048255 -0.021491,-0.068794 -0.00489,-0.00922 -0.048502,0.0038 -0.1339683,0.04006 -0.013927,0.00591 -0.0255,0.010363 -0.02574,0.00992 -2.437e-4,-4.21e-4 -0.00424,-0.026235 -0.00884,-0.05732 C 5.5458386,1.350436 5.4953554,1.174416 5.4260879,1.0153476 5.3996145,0.95455529 5.3198384,0.80921271 5.2821469,0.7531097 5.2327748,0.67961363 5.1923612,0.62954378 5.1601315,0.60192437 5.0938985,0.54516944 5.0757944,0.52931759 5.0514697,0.50671247 5.0056754,0.46415575 4.9765226,0.44097565 4.9436284,0.42101407 4.9257962,0.41019354 4.889326,0.38524834 4.8625906,0.36557211 4.7855679,0.30889382 4.6919275,0.25995355 4.574612,0.21508726 4.4992097,0.18625187 4.4639717,0.17617687 4.3755189,0.15817285 4.3481149,0.15259885 4.3059956,0.14390805 4.2819247,0.13885506 4.2115808,0.12408241 4.180324,0.12089439 4.0255306,0.1127037 3.9995226,0.1113487 3.9736456,0.1106447 3.9479456,0.1106057 Z M 2.093715,1.1232291 c -0.013314,1.392e-4 -0.025229,8.516e-4 -0.035762,0.00213 -0.086585,0.010533 -0.1105282,0.013187 -0.1436273,0.015867 -0.062311,0.00504 -0.099085,0.010898 -0.1360207,0.021684 -0.020024,0.00585 -0.063034,0.015902 -0.095599,0.022336 -0.093814,0.018542 -0.1931538,0.054572 -0.3054613,0.1108113 -0.072184,0.036146 -0.1034134,0.055333 -0.1764189,0.1084202 -0.022618,0.016448 -0.057459,0.041655 -0.07744,0.055998 -0.058393,0.041913 -0.081842,0.062821 -0.19240404,0.1714686 C 0.78237705,1.7779755 0.67160801,1.946867 0.6088107,2.123169 0.5946241,2.16299 0.5700738,2.2717315 0.5651284,2.3166598 c -0.009134,0.082936 -0.003987,0.1937282 0.010867,0.2336476 0.003607,0.00967 0.006101,0.019426 0.00555,0.02166 -5.4299e-4,0.00225 0.001084,0.00457 0.003646,0.00519 0.005257,0.00128 0.009041,-0.02562 0.010747,-0.076257 C 0.5972164,2.4628844 0.6357096,2.3194049 0.6611836,2.2576908 0.6800864,2.2118988 0.7265395,2.1248708 0.7517593,2.088009 0.8171494,1.992434 0.90005607,1.9079543 0.98767704,1.8476244 1.045248,1.8079854 1.1440647,1.7540944 1.1478205,1.7602834 c 8.129e-4,0.00135 -0.00606,0.014636 -0.015308,0.029483 -0.01433,0.02301 -0.018933,0.035797 -0.031175,0.086592 -0.014684,0.060939 -0.018162,0.1011166 -0.013594,0.1575117 0.00349,0.042986 0.029968,0.1318821 0.049815,0.1671946 0.020757,0.036933 0.071572,0.1050326 0.1018283,0.1364551 0.043537,0.045216 0.099502,0.086666 0.1021906,0.075677 7.741e-4,-0.00314 0.00451,-0.00608 0.00831,-0.00656 0.0038,-4.654e-4 0.00653,-0.00391 0.00606,-0.00761 -7.741e-4,-0.00624 -0.037115,-0.042663 -0.07208,-0.072321 -0.027109,-0.022998 -0.068098,-0.09737 -0.085215,-0.1545897 -0.026458,-0.088441 -0.027842,-0.1540297 -0.00503,-0.2378495 0.014699,-0.053978 0.014889,-0.054412 0.041654,-0.086519 0.082324,-0.098759 0.2020851,-0.1539722 0.3825386,-0.1764188 0.1946564,-0.024212 0.2743737,-0.020691 0.4035466,0.017843 0.1035068,0.030879 0.1896582,0.0745 0.2747217,0.1391113 0.032729,0.02486 0.1152391,0.1001131 0.1142401,0.1041949 -0.00116,0.00477 -0.065656,0.040682 -0.095454,0.053149 -0.015777,0.0066 -0.029091,0.013694 -0.029603,0.015792 -6.981e-4,0.00291 0.013427,0.055508 0.018038,0.067129 3.879e-4,0.00105 0.018538,-0.00206 0.040277,-0.00691 0.050057,-0.011127 0.1044652,-0.010763 0.1573429,0.00101 l 0.041147,0.00915 0.027238,0.033276 c 0.014985,0.01831 0.049025,0.062805 0.075629,0.098858 l 0.048367,0.065535 -0.069303,0.039891 c -0.038108,0.021936 -0.076782,0.04313 -0.085939,0.047087 -0.019116,0.00826 -0.027066,0.018235 -0.022312,0.028009 0.00183,0.00373 0.00628,0.017902 0.0099,0.031488 l 0.00656,0.024728 0.017239,-0.00917 c 0.03786,-0.020136 0.1268684,-0.021156 0.1841941,-0.0021 0.018837,0.00627 0.03629,0.014206 0.03878,0.017627 0.00249,0.00341 0.020923,0.039628 0.040977,0.080482 0.020055,0.040856 0.048489,0.096209 0.063169,0.1229811 l 0.026682,0.048657 -0.012123,0.010456 c -0.023782,0.020524 -0.1020672,0.06804 -0.1289696,0.078261 -0.015051,0.00572 -0.027544,0.011064 -0.027745,0.01188 -0.00101,0.00414 0.015452,0.058379 0.020718,0.068288 l 0.00606,0.011422 0.020547,-0.0078 c 0.038816,-0.014727 0.076007,-0.013679 0.1620031,0.00454 l 0.077513,0.016421 0.022987,0.034432 c 0.036421,0.054586 0.096749,0.1355674 0.1420092,0.1906175 0.1576784,0.1917862 0.3064879,0.312151 0.4571291,0.3697408 0.1271115,0.048596 0.1380289,0.051496 0.1503639,0.039988 0.012388,-0.011558 0.028885,-0.064125 0.058533,-0.1867058 0.04319,-0.1785797 0.052027,-0.343922 0.028614,-0.5349552 -0.00447,-0.036445 -0.00969,-0.082876 -0.011616,-0.1031807 -0.00448,-0.047088 -0.01886,-0.119242 -0.036123,-0.1812726 -0.015672,-0.056313 -0.015404,-0.058191 0.02009,-0.158091 0.02272,-0.063937 0.027439,-0.075363 0.071403,-0.171541 0.041735,-0.091306 0.087286,-0.1620626 0.1171376,-0.1820211 0.0057,-0.0038 0.00992,-0.010157 0.00941,-0.014152 -8.516e-4,-0.00683 -0.031314,-0.05163 -0.035835,-0.052737 -0.00116,-2.843e-4 -0.00889,0.00341 -0.017193,0.00819 -0.00831,0.00478 -0.051723,0.026019 -0.096444,0.047208 C 3.8570017,2.019322 3.7877868,2.052609 3.7479046,2.072073 3.7080226,2.091537 3.6727116,2.10678 3.6694266,2.105978 3.6576016,2.103068 3.6349206,2.06449 3.6283286,2.036001 3.6246386,2.020057 3.6214986,1.988587 3.6213486,1.96607 3.6211993,1.943557 3.6202586,1.918979 3.6192186,1.911473 c -0.00307,-0.022622 -0.00349,-0.07858 -0.00113,-0.1471041 0.00194,-0.05544 0.00397,-0.070121 0.014148,-0.1017077 0.00655,-0.020307 0.014366,-0.042227 0.017386,-0.048681 0.00513,-0.010964 0.00416,-0.012771 -0.014753,-0.02794 -0.011135,-0.00893 -0.023161,-0.016979 -0.026729,-0.017868 -0.010413,-0.00264 -0.021319,0.0081 -0.042257,0.041461 C 3.5258996,1.6734002 3.4397385,1.7840887 3.4269013,1.788258 3.4247713,1.7889561 3.4033943,1.768583 3.3794033,1.742958 3.3309519,1.6912159 3.2721348,1.6343501 3.2338644,1.6023009 l -0.025163,-0.021056 -0.00985,-0.052907 c -0.00986,-0.052872 -0.00972,-0.106458 4.266e-4,-0.1486013 0.00268,-0.011181 0.00205,-0.020447 -0.00167,-0.025837 -0.00484,-0.00699 -0.042741,-0.024759 -0.065246,-0.030596 -0.010105,-0.00264 -0.029949,0.038345 -0.060923,0.1258549 -0.00505,0.014261 -0.00959,0.02581 -0.010065,0.025694 C 3.0608688,1.4747321 3.0391895,1.4602593 3.0131509,1.4426676 2.8704923,1.3462793 2.7065539,1.264681 2.5424514,1.2083679 2.4797355,1.1868468 2.3186733,1.1475517 2.251841,1.137472 2.1861793,1.1275665 2.1336439,1.1228317 2.0937015,1.1232498 Z m 4.8925931,0.2999316 c -0.00167,-2.087e-4 -0.00349,6.593e-4 -0.00457,0.0023 -0.00295,0.00454 0.021168,0.017022 0.068385,0.035401 0.035447,0.013795 0.1581112,0.097631 0.2079065,0.1421058 0.036948,0.033001 0.1036752,0.1056427 0.1301047,0.141647 0.068527,0.093351 0.1207658,0.1995692 0.1486742,0.3022253 0.018337,0.06745 0.036472,0.1785228 0.029386,0.1800168 -0.00154,3.269e-4 -0.011798,-0.010576 -0.022747,-0.02422 -0.016967,-0.021145 -0.027529,-0.029704 -0.071402,-0.058074 -0.052639,-0.034037 -0.089385,-0.050637 -0.1441098,-0.065004 -0.041715,-0.010948 -0.1343775,-0.015389 -0.1742699,-0.00836 -0.041722,0.00735 -0.1227921,0.03276 -0.1624619,0.050902 -0.057081,0.026105 -0.1147113,0.065178 -0.1052331,0.071355 0.00272,0.00175 0.00426,0.00626 0.00345,0.00999 -8.128e-4,0.00373 0.00151,0.00745 0.00514,0.00824 0.00613,0.00132 0.052559,-0.020877 0.092121,-0.044045 0.030677,-0.017964 0.1144173,-0.032015 0.1740767,-0.029219 0.092212,0.00433 0.1545808,0.024744 0.2261136,0.074035 0.046066,0.031744 0.046398,0.032066 0.067829,0.06795 0.065923,0.1103846 0.078376,0.2416831 0.039794,0.4193872 -0.041614,0.1916945 -0.071367,0.2657649 -0.1505052,0.3748873 -0.063414,0.08744 -0.1330906,0.1542561 -0.222226,0.2131228 -0.034296,0.022649 -0.1326213,0.07558 -0.1361413,0.073287 -0.00412,-0.00268 -0.01665,-0.075404 -0.018546,-0.1076478 -0.00101,-0.017072 -0.0033,-0.032 -0.0051,-0.033179 -0.00249,-0.00163 -0.056834,-0.00572 -0.069326,-0.00522 -0.00113,3.96e-5 -0.00419,0.018189 -0.00684,0.040302 -0.00607,0.050917 -0.024402,0.1021242 -0.053028,0.1481182 l -0.022265,0.035785 -0.040446,0.014707 c -0.022238,0.00807 -0.075492,0.02545 -0.1183209,0.038612 l -0.07785,0.023929 -0.014684,-0.078599 c -0.00807,-0.043225 -0.015284,-0.086734 -0.015987,-0.096684 -0.00147,-0.020773 -0.00823,-0.031578 -0.019027,-0.030329 -0.00412,4.654e-4 -0.018992,-1.5e-6 -0.033008,-0.00109 l -0.025476,-0.00198 0.00291,0.019295 c 0.00646,0.042391 -0.022052,0.1267298 -0.059016,0.1745113 -0.012147,0.015704 -0.025407,0.029522 -0.029459,0.03074 -0.00405,0.0012 -0.044323,0.00663 -0.089513,0.012027 -0.045191,0.00539 -0.1068392,0.013873 -0.1369625,0.01886 l -0.054767,0.00906 -0.00584,-0.0149 c -0.011492,-0.029239 -0.030391,-0.118818 -0.031128,-0.1475873 -4.267e-4,-0.016095 -0.00132,-0.029653 -0.00202,-0.030111 -0.00356,-0.00233 -0.060188,-0.00477 -0.071283,-0.00311 l -0.012799,0.00194 5.816e-4,0.021952 c 0.00105,0.041503 -0.012283,0.076269 -0.057953,0.1513785 l -0.041147,0.067684 -0.040108,0.010285 c -0.063554,0.016294 -0.1599401,0.046402 -0.226872,0.070877 -0.2331824,0.085268 -0.3960523,0.1858455 -0.5002805,0.3089142 -0.087949,0.1038459 -0.094307,0.1131813 -0.087534,0.1286318 0.0068,0.015518 0.050942,0.048474 0.1567872,0.117041 0.1541996,0.099894 0.3072987,0.1629921 0.495306,0.2041639 0.035867,0.00785 0.081402,0.018302 0.1011999,0.023204 0.045912,0.011375 0.1187402,0.021703 0.1829867,0.025957 0.058325,0.00388 0.060034,0.00473 0.1425406,0.071307 0.052805,0.042609 0.062027,0.05088 0.1382182,0.1242127 0.072331,0.069618 0.1240076,0.1359916 0.1329542,0.1707681 0.00171,0.00664 0.0063,0.012752 0.010239,0.013593 0.00672,0.00143 0.059081,-0.012473 0.061624,-0.016371 6.594e-4,-0.00101 -2.656e-4,-0.00951 -0.00201,-0.01893 -0.00175,-0.00942 -0.00744,-0.057397 -0.012627,-0.1066094 -0.00518,-0.049214 -0.013629,-0.125556 -0.018787,-0.1696337 -0.00516,-0.044078 -0.00788,-0.082454 -0.00604,-0.085288 0.00665,-0.0102 0.050595,-0.018813 0.079662,-0.015599 0.016266,0.00178 0.046994,0.00927 0.068288,0.016587 0.021296,0.00731 0.044786,0.014536 0.052207,0.016056 0.022366,0.00459 0.075317,0.02272 0.1391839,0.047666 0.051672,0.020182 0.064844,0.026974 0.091276,0.047039 0.016995,0.012904 0.035091,0.027541 0.040181,0.032527 0.00865,0.00847 0.010673,0.00817 0.031248,-0.00466 0.012108,-0.00755 0.023693,-0.016247 0.025717,-0.019318 0.00592,-0.00896 -5.816e-4,-0.022801 -0.025112,-0.053607 -0.046909,-0.058874 -0.1228399,-0.17681 -0.1225226,-0.1903035 6.19e-5,-0.00225 0.026362,-0.015668 0.058485,-0.02982 0.064868,-0.028579 0.137996,-0.065248 0.1809103,-0.090745 l 0.028203,-0.016781 0.053172,0.00824 c 0.053156,0.00821 0.1036899,0.026085 0.1401015,0.049599 0.00966,0.00624 0.018596,0.00874 0.024918,0.00701 0.0082,-0.00225 0.037507,-0.032155 0.050468,-0.051458 0.00581,-0.00866 -0.026252,-0.040942 -0.098568,-0.09915 -0.011782,-0.00949 -0.021184,-0.017596 -0.020912,-0.018015 2.757e-4,-4.267e-4 0.021118,-0.016103 0.046338,-0.034843 0.1381857,-0.1026945 0.2694717,-0.2303422 0.376953,-0.3665356 0.041077,-0.05205 0.1314933,-0.1910204 0.1631382,-0.2507436 0.041457,-0.078235 0.066509,-0.1375003 0.075628,-0.1789541 0.018735,-0.085188 0.024162,-0.1086597 0.032601,-0.1407779 0.015878,-0.060465 0.022529,-0.097092 0.02458,-0.1355135 0.00116,-0.02083 0.00588,-0.064768 0.010575,-0.097627 0.013571,-0.094661 0.012472,-0.2003046 -0.0034,-0.3248994 C 7.9180333,2.5169684 7.910277,2.4811399 7.8843654,2.3946732 7.876342,2.3678851 7.8640895,2.326663 7.8571771,2.3030588 7.8369662,2.2340797 7.8250367,2.2050308 7.7591338,2.0647269 7.6705419,1.8761469 7.5478309,1.715699 7.4022737,1.59806 7.3693972,1.5714859 7.2749411,1.5122979 7.2341855,1.4927543 c -0.07523,-0.036084 -0.1814994,-0.0679 -0.2240854,-0.067105 -0.010313,1.917e-4 -0.020334,-6.592e-4 -0.022261,-0.00194 -4.654e-4,-3.146e-4 -0.00101,-5.042e-4 -0.00154,-5.818e-4 z M 4.7273207,3.097305 a 0.07877999,0.07877999 0 0 1 0.059088,0.040301 0.07877999,0.07877999 0 0 1 -0.031224,0.1069478 0.07877999,0.07877999 0 0 1 -0.1069476,-0.031248 0.07877999,0.07877999 0 0 1 0.031248,-0.1069477 0.07877999,0.07877999 0 0 1 0.047836,-0.00906 z m -1.075899,0.01381 a 0.07877999,0.07877999 0 0 1 0.024558,0.00201 0.07877999,0.07877999 0 0 1 0.057808,0.095236 0.07877999,0.07877999 0 0 1 -0.095285,0.057808 0.07877999,0.07877999 0 0 1 -0.05776,-0.095261 0.07877999,0.07877999 0 0 1 0.070679,-0.059813 z M 2.2702784,3.145814 c -0.00568,-4.46e-5 -0.00973,2.308e-4 -0.01065,9.29e-4 -9.291e-4,7.368e-4 -0.00291,0.00905 -0.00435,0.018523 -0.00143,0.00948 -0.011906,0.056656 -0.023255,0.1048228 -0.011348,0.048167 -0.028552,0.123038 -0.038224,0.1663495 -0.00967,0.04331 -0.019779,0.080421 -0.022455,0.082486 -0.00964,0.00743 -0.05396,0.00105 -0.080338,-0.011565 -0.014761,-0.00706 -0.041303,-0.024243 -0.058991,-0.038178 -0.017689,-0.013931 -0.037492,-0.028521 -0.043996,-0.032408 -0.019601,-0.011708 -0.063581,-0.046269 -0.115641,-0.090889 -0.042119,-0.036099 -0.052323,-0.046878 -0.070654,-0.074542 -0.011786,-0.017786 -0.02403,-0.037562 -0.027191,-0.043948 -0.00536,-0.010848 -0.0074,-0.011239 -0.031054,-0.00591 -0.013923,0.00314 -0.027718,0.0075 -0.030642,0.00973 -0.00855,0.0065 -0.00699,0.021741 0.00601,0.058918 0.024856,0.071055 0.057609,0.2074439 0.052858,0.2200767 -7.742e-4,0.0021 -0.030034,0.0061 -0.065028,0.00887 -0.070663,0.00558 -0.1518108,0.016049 -0.2007351,0.025957 L 1.4738033,3.551556 1.4263303,3.52625 C 1.3788573,3.500975 1.3370383,3.467424 1.3104244,3.433215 c -0.00706,-0.00908 -0.01468,-0.014384 -0.021227,-0.014827 -0.00848,-5.818e-4 -0.046016,0.017953 -0.064617,0.0319 -0.00836,0.00627 0.011282,0.04731 0.060343,0.1261201 0.00799,0.01284 0.014206,0.0236 0.01381,0.023906 -3.878e-4,3.08e-4 -0.025256,0.00824 -0.055249,0.017604 -0.164337,0.051335 -0.33041151,0.1285361 -0.47681025,0.2216392 -0.0559505,0.035583 -0.18713654,0.1369283 -0.23671425,0.1828663 -0.064948,0.060175 -0.10815815,0.1078645 -0.13044254,0.1439891 -0.0457943,0.074235 -0.058664,0.094599 -0.0772231,0.1221363 -0.0349397,0.05184 -0.0533084,0.084226 -0.0679254,0.1198179 -0.007924,0.019298 -0.0268961,0.05918 -0.0421852,0.088644 -0.0440447,0.084883 -0.0778758,0.1849968 -0.10400172,0.3078518 -0.0167932,0.078963 -0.0212648,0.1153412 -0.0253292,0.2055164 -0.001239,0.02794 -0.003298,0.07089 -0.004567,0.095453 -0.003685,0.071783 -0.00202,0.1031455 0.0139078,0.2573357 0.0213965,0.2072456 0.0842751,0.3992041 0.18286617,0.5582814 0.022265,0.035933 0.0919223,0.1229589 0.12394712,0.1548554 0.0591115,0.058886 0.14892274,0.1239759 0.18938595,0.1372765 0.0098,0.00322 0.0189763,0.00735 0.0203807,0.00918 0.001393,0.00182 0.004242,0.00197 0.006325,3.855e-4 0.004289,-0.0033 -0.01435,-0.023045 -0.0528586,-0.055973 C 0.53333286,6.1424446 0.44520419,6.0228404 0.4128719,5.9644263 0.38888047,5.9210823 0.34987795,5.8304747 0.33680847,5.7877659 0.30291931,5.6770318 0.28861891,5.5595405 0.29614458,5.4534248 c 0.004947,-0.069722 0.0244993,-0.1805571 0.031682,-0.1796301 0.001587,2.052e-4 0.007641,0.013885 0.0134736,0.030375 0.009041,0.025558 0.0161646,0.037123 0.0482221,0.078382 0.0384614,0.049498 0.0677063,0.077285 0.11462637,0.1089034 0.0357657,0.0241 0.12175856,0.058867 0.16173745,0.06539 0.0418127,0.00683 0.12670657,0.00959 0.17014058,0.00556 0.0624993,-0.00581 0.12981816,-0.023688 0.12290896,-0.032647 -0.00198,-0.00256 -0.00194,-0.00731 4.93e-5,-0.010576 0.00197,-0.00326 0.00105,-0.00753 -0.00213,-0.00947 -0.00536,-0.00326 -0.0564987,0.00237 -0.10149018,0.011181 -0.0348922,0.00684 -0.11858782,-0.00752 -0.17398302,-0.029847 C 0.59575741,5.4565299 0.54361806,5.4166743 0.49235412,5.3465429 0.45934211,5.3013772 0.45914005,5.3009476 0.45074886,5.2599997 0.42493891,5.1340456 0.45650866,5.0060189 0.55156294,4.8509959 0.65409792,4.6837711 0.70659092,4.623666 0.8173022,4.5467664 0.9060156,4.4851458 0.99386644,4.4450432 1.0974331,4.4188831 c 0.039846,-0.010065 0.1501397,-0.027595 0.1527064,-0.024266 0.00299,0.00389 -0.00919,0.076681 -0.018039,0.1077443 -0.00468,0.016444 -0.00744,0.031298 -0.00613,0.033008 0.00182,0.00237 0.051767,0.024146 0.063724,0.027792 0.00105,3.277e-4 0.00994,-0.015785 0.019729,-0.035786 0.022537,-0.046061 0.056759,-0.088355 0.098955,-0.1223291 l 0.032815,-0.026443 0.043031,-5.43e-4 c 0.023658,-2.854e-4 0.079656,8.903e-4 0.12443,0.0026 l 0.0814,0.00311 -0.012073,0.079057 c -0.00663,0.04347 -0.014183,0.086892 -0.016804,0.096516 -0.00547,0.020093 -0.00268,0.032532 0.00794,0.034916 0.00405,8.903e-4 0.017915,0.00628 0.030787,0.011929 l 0.023421,0.010285 0.00361,-0.019197 c 0.00789,-0.042148 0.06264,-0.1123351 0.1132981,-0.1452449 0.016646,-0.010812 0.03373,-0.019508 0.037961,-0.019318 0.00422,1.865e-4 0.044011,0.00839 0.088451,0.018208 0.044441,0.00982 0.1054324,0.022125 0.1355137,0.027358 l 0.054693,0.00952 6.204e-4,0.01601 c 0.0012,0.031391 -0.010518,0.1221906 -0.019318,0.1495914 -0.00493,0.015331 -0.00855,0.028432 -0.00804,0.0291 0.0026,0.00337 0.055254,0.024353 0.066284,0.026419 l 0.012725,0.00241 0.00671,-0.020912 c 0.01271,-0.039528 0.036758,-0.067949 0.1046533,-0.1237838 l 0.061165,-0.050322 0.041267,0.00353 c 0.065383,0.0056 0.1662999,0.00897 0.2375593,0.00794 0.2482576,-0.00356 0.4351973,-0.044744 0.5741945,-0.1265308 0.117292,-0.069013 0.1263598,-0.075737 0.125063,-0.092557 -0.00132,-0.01689 -0.032093,-0.062545 -0.1093864,-0.1621962 v -2.45e-5 C 3.1377447,4.0012879 3.0140296,3.8912174 2.8501353,3.7903191 2.8188684,3.771071 2.779335,3.7461843 2.7622639,3.735022 2.7226756,3.7091343 2.6573329,3.6753591 2.5980877,3.6501451 2.5443025,3.6272552 2.5429788,3.6258823 2.4870594,3.5358084 2.4512704,3.4781622 2.4452984,3.4673254 2.3975699,3.3729601 2.3522594,3.2833754 2.3253842,3.2036351 2.3284128,3.1678542 c 5.817e-4,-0.00683 -0.00175,-0.014105 -0.00519,-0.016203 -0.00441,-0.00268 -0.035886,-0.00568 -0.052907,-0.00582 z M 4.1899023,3.6201844 A 0.66420167,0.66420167 0 0 0 3.5257114,4.2844 0.66420167,0.66420167 0 0 0 4.1899023,4.9485905 0.66420167,0.66420167 0 0 0 4.8541172,4.2844 0.66420167,0.66420167 0 0 0 4.1899023,3.6201844 Z m 1.1925298,0.4224538 a 0.07877999,0.07877999 0 0 1 0.047014,0.012679 0.07877999,0.07877999 0 0 1 0.022987,0.109 0.07877999,0.07877999 0 0 1 -0.1090241,0.022987 0.07877999,0.07877999 0 0 1 -0.022987,-0.1090241 0.07877999,0.07877999 0 0 1 0.06201,-0.035642 z m -2.3740967,0.08326 a 0.07877999,0.07877999 0 0 1 0.064641,0.030619 0.07877999,0.07877999 0 0 1 -0.014273,0.1105216 0.07877999,0.07877999 0 0 1 -0.1104972,-0.014295 0.07877999,0.07877999 0 0 1 0.014273,-0.1104732 0.07877999,0.07877999 0 0 1 0.045855,-0.016371 z m 5.2687811,0.5696789 c -0.00542,3.362e-4 -0.00101,0.027145 0.012433,0.075991 0.010105,0.036669 0.016118,0.1851117 0.010188,0.2516128 -0.00441,0.049344 -0.022838,0.1462497 -0.035929,0.1889512 -0.033947,0.1107155 -0.087905,0.2160447 -0.1535761,0.2997385 -0.043152,0.05499 -0.1214164,0.1358597 -0.1268449,0.1310704 -0.00116,-0.00105 0.00139,-0.015766 0.00581,-0.032695 0.00681,-0.026237 0.00743,-0.039819 0.00395,-0.091953 -0.0041,-0.062547 -0.012789,-0.1019464 -0.033947,-0.1544196 -0.016126,-0.039997 -0.067894,-0.1169658 -0.097362,-0.144762 -0.030819,-0.029071 -0.099612,-0.078915 -0.1378557,-0.099897 -0.05503,-0.030193 -0.1207897,-0.05309 -0.1200836,-0.041799 2.017e-4,0.00322 -0.00249,0.00715 -0.00596,0.00874 -0.00349,0.00158 -0.00508,0.00567 -0.00353,0.00906 0.0026,0.00571 0.048124,0.029673 0.090334,0.04757 0.032734,0.013876 0.094014,0.072663 0.1273997,0.1221844 0.051598,0.076544 0.072493,0.1387468 0.075675,0.2255582 0.00209,0.055906 0.00201,0.056373 -0.014004,0.094994 C 7.8246618,5.7043209 7.7267921,5.792712 7.5612189,5.8678974 7.382614,5.9490008 7.3054509,5.9693817 7.1706635,5.9710781 7.0626578,5.9724355 6.9674385,5.9564646 6.8669893,5.9201279 6.8283419,5.9061466 6.7271505,5.8588823 6.7268878,5.854689 6.7265834,5.849779 6.7774478,5.796311 6.8021788,5.775535 6.8152718,5.764537 6.8258798,5.753785 6.8257478,5.751629 6.8255659,5.748639 6.7963738,5.702646 6.7885118,5.692927 6.7878137,5.6920754 6.7714308,5.700397 6.7521208,5.711496 6.7076528,5.737031 6.6556208,5.752913 6.601636,5.757424 L 6.559644,5.760954 6.523711,5.737289 C 6.503951,5.724269 6.458212,5.691937 6.4220761,5.665447 l -0.065704,-0.04815 0.054282,-0.058725 c 0.029843,-0.032295 0.060436,-0.064053 0.067998,-0.070558 0.015788,-0.013582 0.020393,-0.025458 0.012942,-0.033372 -0.00283,-0.00303 -0.011309,-0.01525 -0.01881,-0.027141 L 6.4591401,5.405888 6.4454261,5.419773 C 6.4152831,5.450272 6.3305896,5.47775 6.2701902,5.47664 6.2503412,5.4762751 6.2313302,5.47389 6.2279332,5.47138 6.2245232,5.46885 6.1961512,5.439789 6.1648372,5.406765 6.1335192,5.373738 6.0899252,5.329355 6.0679342,5.308172 l -0.039987,-0.038491 0.00845,-0.013593 c 0.016587,-0.026679 0.077164,-0.095334 0.0998,-0.1131053 0.012663,-0.00994 0.022991,-0.018768 0.02294,-0.019609 -2.672e-4,-0.00425 -0.032128,-0.051125 -0.040108,-0.059016 l -0.0092,-0.0091 -0.017267,0.013547 c -0.032667,0.02562 -0.068496,0.035696 -0.1560145,0.043923 l -0.078889,0.00744 -0.03219,-0.026031 C 5.7744406,5.0528722 5.6927203,4.993553 5.6331159,4.9544855 5.425462,4.8183814 5.2475278,4.7477909 5.08657,4.7376927 c -0.1358171,-0.00852 -0.1470883,-0.00802 -0.1554352,0.00664 -0.00838,0.014722 -0.00846,0.069794 -2.408e-4,0.1956401 v 2.49e-5 c 0.011969,0.1833381 0.052799,0.343803 0.1320605,0.5191871 0.015122,0.033458 0.033932,0.076235 0.041822,0.095043 0.018299,0.043618 0.053494,0.1081973 0.088451,0.1622688 0.031736,0.049089 0.032062,0.050945 0.02794,0.1568838 -0.00264,0.067801 -0.00376,0.080156 -0.017073,0.1850636 -0.012639,0.099593 -0.035017,0.1806856 -0.057567,0.2086309 -0.00431,0.00533 -0.00646,0.012663 -0.00478,0.016324 0.00287,0.00627 0.045266,0.03994 0.049912,0.03965 0.0012,-7.4e-5 0.00748,-0.00588 0.013981,-0.012919 0.00651,-0.00705 0.041617,-0.040269 0.077995,-0.073818 0.036379,-0.033548 0.092544,-0.085927 0.1248162,-0.116389 0.032271,-0.030461 0.061436,-0.055544 0.064811,-0.055756 0.012151,-7.741e-4 0.045297,0.029339 0.060078,0.054573 0.00828,0.014121 0.020628,0.043217 0.027478,0.064666 0.00686,0.021447 0.015094,0.04462 0.018302,0.051481 0.00968,0.020679 0.026753,0.073978 0.04489,0.1401019 0.014672,0.053497 0.017092,0.068111 0.016781,0.1012973 -1.966e-4,0.021334 -0.00113,0.044591 -0.0021,0.051651 -0.00162,0.011996 -1.446e-4,0.013446 0.022432,0.022289 0.01329,0.0052 0.027164,0.00931 0.030836,0.0091 0.01072,-5.818e-4 0.017937,-0.014098 0.027986,-0.052182 0.019205,-0.072785 0.068456,-0.2041111 0.079469,-0.2119151 0.00182,-0.00128 0.028312,0.011786 0.058846,0.0291 0.061663,0.034959 0.1347572,0.071721 0.1808379,0.090914 l 0.030282,0.012581 0.025163,0.04757 c 0.02517,0.047532 0.041013,0.098738 0.043899,0.1419847 7.743e-4,0.011472 0.00409,0.02014 0.00927,0.02417 0.0067,0.00523 0.048182,0.010891 0.071404,0.00975 0.010425,-5.043e-4 0.017146,-0.0455 0.020643,-0.1382663 5.817e-4,-0.015114 0.00147,-0.02752 0.00194,-0.027552 5.042e-4,-2.48e-5 0.025539,0.00733 0.055635,0.016371 0.1648959,0.049513 0.3457115,0.078584 0.5191387,0.083453 0.06628,0.00186 0.2317298,-0.00861 0.298531,-0.018907 0.087508,-0.013473 0.1500145,-0.028774 0.1887096,-0.046218 0.079515,-0.035848 0.1015523,-0.045511 0.1323503,-0.057928 0.05798,-0.023379 0.091347,-0.039914 0.1233919,-0.061214 0.017378,-0.011538 0.055443,-0.033971 0.084612,-0.049815 0.08404,-0.045653 0.1681232,-0.1096346 0.258577,-0.1967796 0.05814,-0.05601 0.082242,-0.083637 0.136117,-0.1560627 0.016691,-0.02244 0.042455,-0.056879 0.05725,-0.076522 0.043252,-0.057406 0.059417,-0.084344 0.1325924,-0.2209946 0.098354,-0.1836638 0.1537826,-0.3778856 0.1612069,-0.5648903 0.00171,-0.04224 -0.00728,-0.1533557 -0.015964,-0.1977166 -0.015987,-0.081891 -0.053929,-0.1861294 -0.08,-0.2198114 -0.00635,-0.00816 -0.011589,-0.016708 -0.011737,-0.019003 -1.394e-4,-0.0023 -0.0024,-0.00402 -0.00503,-0.00388 z m -4.880954,0.2181936 c -0.1837284,5.042e-4 -0.3464417,0.031232 -0.5264316,0.099389 -0.034338,0.013004 -0.078194,0.02911 -0.097458,0.035808 -0.044675,0.015537 -0.1113361,0.046651 -0.1674844,0.078164 -0.050973,0.02861 -0.052858,0.028816 -0.1583327,0.018084 -0.067503,-0.00687 -0.079743,-0.00875 -0.1836147,-0.028591 -0.098609,-0.018833 -0.1781635,-0.046234 -0.2046471,-0.070485 -0.00506,-0.00463 -0.012225,-0.00724 -0.015987,-0.00579 -0.00643,0.00249 -0.042692,0.042697 -0.042692,0.047352 0,0.0012 0.0054,0.00782 0.012027,0.014753 0.00662,0.00694 0.037585,0.044037 0.068795,0.082438 0.031213,0.038404 0.079985,0.097732 0.1083722,0.1318434 0.028386,0.034114 0.051602,0.064786 0.051602,0.068167 0,0.012173 -0.032112,0.043375 -0.058219,0.056552 -0.01461,0.00737 -0.044424,0.017902 -0.066259,0.023398 -0.021835,0.00549 -0.045473,0.012268 -0.05252,0.015043 -0.021242,0.00837 -0.075486,0.02208 -0.1426131,0.036053 -0.054308,0.011305 -0.069064,0.01281 -0.1021661,0.010433 -0.02128,-0.00151 -0.044422,-0.00391 -0.051409,-0.00531 -0.011872,-0.00237 -0.013407,-0.00101 -0.023639,0.020982 -0.00602,0.012938 -0.010995,0.026528 -0.01101,0.030208 -7.4e-5,0.010739 0.012942,0.018791 0.050322,0.031197 0.071445,0.023712 0.1994532,0.081077 0.2065545,0.092556 0.00116,0.0019 -0.013535,0.02752 -0.032717,0.056915 -0.038741,0.059358 -0.07999,0.1300085 -0.1020214,0.1748008 l -0.014467,0.029436 -0.049042,0.022145 c -0.049011,0.022153 -0.1011054,0.034758 -0.144448,0.03494 -0.011499,4.93e-5 -0.020357,0.00283 -0.024701,0.00775 -0.00563,0.00637 -0.013881,0.047407 -0.014198,0.070654 -1.437e-4,0.010436 0.044353,0.019958 0.1367207,0.029243 0.015052,0.00151 0.027358,0.00318 0.027358,0.00369 0,5.041e-4 -0.0089,0.025026 -0.019798,0.054499 -0.05971,0.1614833 -0.1000025,0.3401237 -0.1156886,0.512909 -0.00599,0.066034 -0.00588,0.2318217 2.175e-4,0.2991346 0.00798,0.088179 0.019364,0.1515126 0.034363,0.1912207 0.030813,0.081599 0.039079,0.1042182 0.04955,0.1357311 0.019713,0.059326 0.034133,0.093654 0.053389,0.1269656 0.010441,0.018062 0.030437,0.057457 0.044431,0.087558 0.040313,0.086716 0.098932,0.174633 0.180258,0.270351 0.052271,0.06152 0.078328,0.087291 0.1472493,0.145583 0.021354,0.018061 0.054122,0.045915 0.072803,0.061911 0.054594,0.046759 0.080461,0.064573 0.2122772,0.1461387 0.1771729,0.1096282 0.3675653,0.1770628 0.5537416,0.1961468 0.042052,0.00434 0.1535046,0.00233 0.1983204,-0.00356 0.082729,-0.010846 0.1891312,-0.0422 0.224375,-0.066114 0.00853,-0.00581 0.017402,-0.010529 0.019705,-0.010529 0.0023,0 0.00418,-0.00216 0.00418,-0.0048 0,-0.00542 -0.027028,-0.00271 -0.076619,0.00767 -0.037232,0.0078 -0.1857567,0.00449 -0.2517578,-0.00558 C 3.0538647,8.263305 2.9582955,8.2388995 2.916495,8.2231685 2.8081105,8.1823802 2.7063489,8.1219402 2.6269183,8.0511737 2.5747294,8.0046773 2.4988904,7.9215038 2.5040097,7.9163843 c 0.00113,-0.00109 0.015665,0.0024 0.032284,0.00787 0.025759,0.00845 0.03927,0.00987 0.091518,0.00969 0.062684,-2.229e-4 0.10254,-0.00643 0.1562318,-0.024239 0.040927,-0.013602 0.1209759,-0.060462 0.1505573,-0.088137 0.030937,-0.028944 0.084995,-0.094477 0.1083242,-0.1313365 0.033567,-0.053038 0.060524,-0.1172582 0.049211,-0.1172582 -0.00322,0 -0.00699,-0.00291 -0.00836,-0.0065 -0.00135,-0.00356 -0.00533,-0.00542 -0.00882,-0.00408 -0.00587,0.00225 -0.032628,0.046184 -0.053123,0.087195 -0.015894,0.031802 -0.078378,0.089299 -0.1298876,0.1195282 -0.079611,0.046728 -0.1430104,0.063675 -0.2298516,0.061437 -0.055925,-0.00139 -0.056383,-0.00155 -0.093933,-0.019896 C 2.4526632,7.7542112 2.3705543,7.651008 2.3058519,7.4810644 2.2360566,7.2977446 2.2205316,7.2194646 2.2272527,7.0848342 c 0.00539,-0.10788 0.027273,-0.2019222 0.06981,-0.2999072 0.016367,-0.037701 0.069857,-0.135731 0.07406,-0.135731 0.00492,0 0.055108,0.054092 0.074301,0.080072 0.010161,0.013757 0.020225,0.025015 0.022385,0.025015 0.00299,0 0.050732,-0.026252 0.060923,-0.033493 C 2.529622,6.7201307 2.5223117,6.70328 2.5124547,6.683314 2.4897467,6.637338 2.4771507,6.584406 2.4760177,6.5302454 l -8.893e-4,-0.042136 0.025861,-0.034385 c 0.014222,-0.018907 0.049348,-0.062539 0.078044,-0.096951 l 0.052158,-0.062565 0.055225,0.057833 c 0.030367,0.031802 0.060143,0.064318 0.066164,0.072273 0.012569,0.016606 0.024138,0.021963 0.0325,0.01502 0.00318,-0.00264 0.015917,-0.010351 0.028254,-0.017096 l 0.022432,-0.012268 -0.012992,-0.014559 c -0.028556,-0.031989 -0.050709,-0.118211 -0.045831,-0.1784231 0.00158,-0.019786 0.00516,-0.038612 0.0079,-0.041847 0.00272,-0.00322 0.033516,-0.029751 0.068433,-0.058943 0.034916,-0.029192 0.081921,-0.069952 0.1044362,-0.090575 l 0.04093,-0.0375 0.013039,0.00929 c 0.02559,0.01822 0.090334,0.082956 0.1066576,0.1066576 0.00913,0.01326 0.017293,0.024123 0.018135,0.024123 0.00426,0 0.053034,-0.02887 0.061407,-0.03634 l 0.00966,-0.00862 -0.012461,-0.018088 c -0.023536,-0.034203 -0.03135,-0.070592 -0.034096,-0.1584532 l -0.00249,-0.079178 0.027987,-0.030523 c 0.044357,-0.048353 0.1086622,-0.1261998 0.1513742,-0.183249 0.1488025,-0.1987518 0.2303514,-0.3719233 0.250478,-0.5319368 0.016983,-0.1350201 0.0172,-0.1463103 0.0031,-0.1555558 -0.014172,-0.00928 -0.06914,-0.012806 -0.1952536,-0.012461 z m 1.761001,0.033636 a 0.07877999,0.07877999 0 0 1 0.083525,0.073721 0.07877999,0.07877999 0 0 1 -0.073697,0.083525 0.07877999,0.07877999 0 0 1 -0.083549,-0.073697 0.07877999,0.07877999 0 0 1 0.073721,-0.083549 z m -1.8613324,0.112936 a 0.07877999,0.07877999 0 0 1 0.078792,0.078792 0.07877999,0.07877999 0 0 1 -0.078792,0.078768 0.07877999,0.07877999 0 0 1 -0.078768,-0.078768 0.07877999,0.07877999 0 0 1 0.078768,-0.078792 z m 0.9665848,0.087365 c -0.00194,1.323e-4 -0.00384,6.206e-4 -0.00585,0.00128 -0.016052,0.00542 -0.052741,0.046498 -0.1302979,0.1459452 -0.112987,0.1448796 -0.1892185,0.291888 -0.246663,0.475578 -0.01096,0.035044 -0.025356,0.079492 -0.031969,0.098786 -0.015342,0.044742 -0.031992,0.1163875 -0.041847,0.1800168 -0.00895,0.057765 -0.00994,0.059381 -0.083476,0.135755 -0.047061,0.048879 -0.056093,0.057354 -0.1358034,0.1268446 -0.075673,0.065971 -0.1463302,0.111651 -0.1817555,0.1175243 -0.00676,0.00113 -0.013256,0.00516 -0.014439,0.00901 -0.00201,0.00657 0.00725,0.059934 0.010914,0.062806 9.29e-4,7.368e-4 0.00949,5.817e-4 0.019027,-3.623e-4 0.00954,-9.29e-4 0.057856,-0.00241 0.1073339,-0.00326 0.049478,-8.516e-4 0.1262633,-0.00264 0.1706235,-0.00391 0.044359,-0.00128 0.08282,-6.206e-4 0.085481,0.00147 0.00958,0.00751 0.014315,0.052026 0.00857,0.0807 -0.00322,0.016049 -0.013329,0.046001 -0.022483,0.066574 -0.00915,0.020575 -0.018406,0.043354 -0.020574,0.050613 -0.00653,0.021882 -0.029211,0.073034 -0.059644,0.1344753 -0.02462,0.049711 -0.03254,0.062255 -0.054838,0.086833 -0.014334,0.015804 -0.030495,0.032527 -0.035905,0.037163 -0.00919,0.00787 -0.00905,0.00994 0.00194,0.031561 0.00646,0.012725 0.01409,0.025027 0.016975,0.027311 0.0084,0.00669 0.022754,0.00139 0.055587,-0.020357 0.062748,-0.041585 0.1868865,-0.106898 0.2003003,-0.1054025 0.00221,2.338e-4 0.013314,0.027614 0.024608,0.060851 0.022801,0.067117 0.05294,0.1431754 0.07459,0.1881545 l 0.014222,0.029557 -0.012845,0.052255 c -0.012814,0.052237 -0.035044,0.1010079 -0.061647,0.1352238 -0.00705,0.00908 -0.010313,0.017766 -0.00913,0.02422 0.00154,0.00836 0.028727,0.04017 0.046821,0.054765 0.00812,0.00656 0.043076,-0.022587 0.1073826,-0.089537 0.010479,-0.01091 0.019383,-0.019555 0.019775,-0.019244 3.879e-4,3.277e-4 0.014198,0.022447 0.030666,0.049212 0.090219,0.1466382 0.2059122,0.288582 0.3321918,0.4075549 0.048261,0.045466 0.1788016,0.1476933 0.2355309,0.184436 0.074312,0.048138 0.131164,0.078255 0.1716621,0.090962 0.083223,0.026113 0.1061143,0.03356 0.1373727,0.04477 0.058846,0.021097 0.094762,0.030936 0.1328575,0.036339 0.020653,0.00295 0.064002,0.011512 0.096323,0.019075 0.093113,0.021793 0.1984515,0.029921 0.3239578,0.02499 0.080666,-0.00318 0.1170437,-0.00777 0.2054433,-0.026035 0.027388,-0.00565 0.069525,-0.014252 0.093643,-0.019075 0.070481,-0.014105 0.1004605,-0.02345 0.2459869,-0.076836 0.1955994,-0.071758 0.3661446,-0.1799659 0.4960543,-0.3146856 0.029343,-0.030429 0.096547,-0.1193668 0.1195766,-0.1582602 0.042521,-0.071788 0.083517,-0.1748559 0.086447,-0.2173483 6.98e-4,-0.010289 0.00249,-0.020187 0.00389,-0.021998 0.00143,-0.00182 8.903e-4,-0.00461 -0.0012,-0.00624 -0.00426,-0.00334 -0.018806,0.019578 -0.041243,0.065004 -0.016837,0.034118 -0.111075,0.1489665 -0.1597308,0.1946854 -0.036103,0.033924 -0.1143126,0.094052 -0.1524892,0.1172341 -0.098983,0.060107 -0.209331,0.1028959 -0.3140331,0.1217259 -0.068793,0.012371 -0.1810565,0.020717 -0.1819245,0.013547 -1.916e-4,-0.00162 0.011581,-0.010839 0.026128,-0.020546 0.022545,-0.015052 0.031992,-0.024814 0.064086,-0.066043 0.038507,-0.049462 0.05825,-0.084644 0.077343,-0.137904 0.014555,-0.040597 0.027087,-0.132491 0.023569,-0.1728449 -0.00369,-0.042206 -0.021905,-0.1251975 -0.036511,-0.1663015 -0.021016,-0.059144 -0.054908,-0.1199784 -0.061889,-0.1110765 -0.00198,0.00252 -0.00661,0.00369 -0.010262,0.00256 -0.00365,-0.00113 -0.00757,8.516e-4 -0.00867,0.00442 -0.00186,0.006 0.016211,0.054162 0.035835,0.095599 0.015215,0.032131 0.021909,0.1167982 0.013908,0.1759841 -0.012368,0.091481 -0.03817,0.1518209 -0.093522,0.2187731 -0.035649,0.043115 -0.036007,0.043409 -0.073624,0.061624 -0.1157256,0.056028 -0.2475954,0.056961 -0.4212481,0.00299 C 5.2862048,7.6789808 5.2150152,7.6428915 5.1132261,7.5545187 5.0316619,7.4837071 4.9711904,7.4084352 4.9203387,7.3144961 4.9007726,7.2783542 4.85663,7.1757695 4.8592222,7.1724624 c 0.00303,-0.00388 0.076569,-0.00998 0.1088555,-0.00906 0.017092,5.041e-4 0.032182,-4.654e-4 0.033517,-0.00217 0.00182,-0.00233 0.010639,-0.056114 0.011228,-0.068602 6.21e-5,-0.00113 -0.017735,-0.00575 -0.039529,-0.010313 -0.050191,-0.010498 -0.09961,-0.033264 -0.1429268,-0.065797 l -0.033711,-0.025283 -0.011108,-0.041582 c -0.0061,-0.022859 -0.01874,-0.077427 -0.028106,-0.1212424 l -0.017049,-0.079637 0.079589,-0.00778 c 0.043766,-0.00428 0.087725,-0.00763 0.097699,-0.00744 0.020823,3.736e-4 0.032174,-0.00543 0.031875,-0.016301 -1.114e-4,-0.00415 0.00167,-0.018922 0.00398,-0.032791 l 0.0042,-0.025209 -0.019485,0.0012 C 4.8954579,6.663175 4.8139516,6.627416 4.769583,6.58642 4.755005,6.572947 4.74238,6.558524 4.741523,6.554377 4.7406714,6.550237 4.738803,6.509653 4.737373,6.464163 4.735943,6.418673 4.732873,6.3565334 4.730533,6.3260899 l -0.00425,-0.055369 0.015382,-0.00451 c 0.03013,-0.0089 0.1210129,-0.019892 0.1497364,-0.018112 0.016068,0.00101 0.029665,0.00128 0.030184,6.204e-4 0.00264,-0.00334 0.010014,-0.059552 0.00929,-0.070751 l -8.129e-4,-0.012919 -0.021924,-0.00135 c -0.041432,-0.0026 -0.074891,-0.018934 -0.145722,-0.070993 l -0.063831,-0.046902 -0.00673,-0.040856 C 4.6811687,5.9402044 4.6595936,5.841569 4.6410603,5.7727539 4.5764973,5.5330121 4.490549,5.361969 4.3770598,5.247385 4.2932678,5.1627834 4.2761007,5.1467539 4.2624093,5.1476811 Z m -0.01782,0.2865052 a 0.07877999,0.07877999 0 0 1 0.04571,0.016759 0.07877999,0.07877999 0 0 1 0.013376,0.1105941 0.07877999,0.07877999 0 0 1 -0.1105937,0.013376 0.07877999,0.07877999 0 0 1 -0.013403,-0.1105941 0.07877999,0.07877999 0 0 1 0.064908,-0.030135 z" />
  </g>
</svg>
