<?xml version="1.0" encoding="UTF-8" standalone="no"?>
<!-- Created with Inkscape (http://www.inkscape.org/) -->

<svg
   width="32"
   height="32"
   viewBox="0 0 8.4666665 8.4666669"
   version="1.1"
   id="svg5"
   inkscape:version="1.1 (c68e22c387, 2021-05-23)"
   sodipodi:docname="Murcery_Sulpher.svg"
   xmlns:inkscape="http://www.inkscape.org/namespaces/inkscape"
   xmlns:sodipodi="http://sodipodi.sourceforge.net/DTD/sodipodi-0.dtd"
   xmlns="http://www.w3.org/2000/svg"
   xmlns:svg="http://www.w3.org/2000/svg">
  <sodipodi:namedview
     id="namedview7"
     pagecolor="#ffffff"
     bordercolor="#666666"
     borderopacity="1.0"
     inkscape:pageshadow="2"
     inkscape:pageopacity="0.0"
     inkscape:pagecheckerboard="0"
     inkscape:document-units="px"
     showgrid="true"
     units="px"
     showborder="true"
     inkscape:zoom="10.732997"
     inkscape:cx="13.789252"
     inkscape:cy="23.618753"
     inkscape:window-width="1920"
     inkscape:window-height="1137"
     inkscape:window-x="-8"
     inkscape:window-y="-8"
     inkscape:window-maximized="1"
     inkscape:current-layer="layer1"
     inkscape:snap-bbox="false"
     showguides="true"
     inkscape:guide-bbox="true"
     inkscape:snap-global="true" />
  <defs
     id="defs2" />
  <g
     inkscape:label="Layer 1"
     inkscape:groupmode="layer"
     id="layer1">
    <path
       id="path4815"
       style="opacity:1;stroke-width:10.5833;stroke-linecap:square"
       d="M 2.1479089,0.18088613 V 0.82598127 H 3.9108373 V 3.9556934 A 1.5034823,1.5034823 0 0 1 2.7298967,2.4880798 1.5034823,1.5034823 0 0 1 2.7377055,2.3411637 H 2.1002807 A 2.1383622,2.1383622 0 0 0 2.0949707,2.4880798 2.1383622,2.1383622 0 0 0 3.1279071,4.318327 2.1383622,2.1383622 0 0 0 2.0949707,6.1474081 2.1383622,2.1383622 0 0 0 4.2333234,8.2857806 2.1383622,2.1383622 0 0 0 6.3716959,6.1474081 2.1383622,2.1383622 0 0 0 5.3388969,4.3184061 2.1383622,2.1383622 0 0 0 6.3716959,2.4880798 2.1383622,2.1383622 0 0 0 6.366386,2.3411637 H 5.7289413 a 1.5034823,1.5034823 0 0 1 0.00781,0.1469161 1.5034823,1.5034823 0 0 1 -1.1809197,1.4684841 V 0.82598127 H 6.3187588 V 0.18088613 Z M 4.2333755,4.6439294 A 1.5034823,1.5034823 0 0 1 5.7368532,6.1474081 1.5034823,1.5034823 0 0 1 4.2333755,7.6509056 1.5034823,1.5034823 0 0 1 2.7298967,6.1474081 1.5034823,1.5034823 0 0 1 4.2333755,4.6439294 Z" />
    <circle
       style="opacity:0.632754;stroke-width:10.5833;stroke-linecap:square"
       id="circle4923"
       cx="165.2975"
       cy="218.98004"
       r="55.892441" />
    <circle
       style="opacity:0.632754;stroke-width:10.5833;stroke-linecap:square"
       id="circle4925"
       cx="165.2975"
       cy="218.98004"
       r="39.29797" />
  </g>
</svg>
