<?xml version="1.0" encoding="UTF-8" standalone="no"?>
<!-- Created with Inkscape (http://www.inkscape.org/) -->

<svg
   width="32"
   height="32"
   viewBox="0 0 8.4666665 8.4666669"
   version="1.1"
   id="svg5"
   inkscape:version="1.1 (c68e22c387, 2021-05-23)"
   sodipodi:docname="MoonPlatinum.svg"
   xmlns:inkscape="http://www.inkscape.org/namespaces/inkscape"
   xmlns:sodipodi="http://sodipodi.sourceforge.net/DTD/sodipodi-0.dtd"
   xmlns="http://www.w3.org/2000/svg"
   xmlns:svg="http://www.w3.org/2000/svg">
  <sodipodi:namedview
     id="namedview7"
     pagecolor="#ffffff"
     bordercolor="#666666"
     borderopacity="1.0"
     inkscape:pageshadow="2"
     inkscape:pageopacity="0.0"
     inkscape:pagecheckerboard="0"
     inkscape:document-units="px"
     showgrid="true"
     units="px"
     showborder="true"
     inkscape:zoom="21.465994"
     inkscape:cx="16.258273"
     inkscape:cy="17.073516"
     inkscape:window-width="1920"
     inkscape:window-height="1137"
     inkscape:window-x="-8"
     inkscape:window-y="-8"
     inkscape:window-maximized="1"
     inkscape:current-layer="layer1"
     inkscape:snap-bbox="false"
     showguides="true"
     inkscape:guide-bbox="true"
     inkscape:snap-global="true" />
  <defs
     id="defs2" />
  <g
     inkscape:label="Layer 1"
     inkscape:groupmode="layer"
     id="layer1">
    <g
       id="g2968">
      <circle
         style="stroke:none;stroke-width:7.93749;stroke-linecap:round;stroke-linejoin:round"
         id="path1077"
         cx="4.2332745"
         cy="4.2385087"
         r="1.3866627" />
      <path
         id="circle1400"
         style="stroke:none;stroke-width:7.93749;stroke-linecap:round;stroke-linejoin:round"
         d="m 7.0442611,2.8602903 a 1.3866627,1.3866627 0 0 0 -1.292268,1.3833913 1.3866627,1.3866627 0 0 0 1.292268,1.383411 z" />
      <path
         id="path1720"
         style="stroke:none;stroke-width:10.5833;stroke-linecap:round;stroke-linejoin:round;stroke-miterlimit:4;stroke-dasharray:none"
         d="M 8.4133562,2.8872414 A 1.3866627,1.3866627 0 0 0 7.3559584,4.233324 1.3866627,1.3866627 0 0 0 8.4133562,5.5794256 V 5.2135511 A 1.029043,1.029043 0 0 1 7.6933713,4.233324 1.029043,1.029043 0 0 1 8.4133562,3.2531162 Z" />
      <path
         id="path2323"
         style="stroke:none;stroke-width:7.93749;stroke-linecap:round;stroke-linejoin:round"
         d="M 1.4205692,2.839574 A 1.3866627,1.3866627 0 0 1 2.7128376,4.2229657 1.3866627,1.3866627 0 0 1 1.4205692,5.6063763 Z" />
      <path
         id="path2325"
         style="stroke:none;stroke-width:10.5833;stroke-linecap:round;stroke-linejoin:round;stroke-miterlimit:4;stroke-dasharray:none"
         d="M 0.05331048,2.8872414 A 1.3866627,1.3866627 0 0 1 1.1107079,4.2333236 1.3866627,1.3866627 0 0 1 0.05331048,5.5794252 V 5.2135507 A 1.029043,1.029043 0 0 0 0.77329499,4.2333236 1.029043,1.029043 0 0 0 0.05331048,3.2531159 Z" />
    </g>
  </g>
</svg>
