<?xml version="1.0" encoding="UTF-8" standalone="no"?>
<!-- Created with Inkscape (http://www.inkscape.org/) -->

<svg
   width="32"
   height="32"
   viewBox="0 0 8.4666665 8.4666669"
   version="1.1"
   id="svg5"
   inkscape:version="1.1 (c68e22c387, 2021-05-23)"
   sodipodi:docname="Moon_Platinum.svg"
   xmlns:inkscape="http://www.inkscape.org/namespaces/inkscape"
   xmlns:sodipodi="http://sodipodi.sourceforge.net/DTD/sodipodi-0.dtd"
   xmlns="http://www.w3.org/2000/svg"
   xmlns:svg="http://www.w3.org/2000/svg">
  <sodipodi:namedview
     id="namedview7"
     pagecolor="#ffffff"
     bordercolor="#666666"
     borderopacity="1.0"
     inkscape:pageshadow="2"
     inkscape:pageopacity="0.0"
     inkscape:pagecheckerboard="0"
     inkscape:document-units="px"
     showgrid="true"
     units="px"
     showborder="true"
     inkscape:zoom="21.465994"
     inkscape:cx="16.258274"
     inkscape:cy="17.073516"
     inkscape:window-width="1920"
     inkscape:window-height="1137"
     inkscape:window-x="-8"
     inkscape:window-y="-8"
     inkscape:window-maximized="1"
     inkscape:current-layer="layer1"
     inkscape:snap-bbox="false"
     showguides="true"
     inkscape:guide-bbox="true"
     inkscape:snap-global="true" />
  <defs
     id="defs2" />
  <g
     inkscape:label="Layer 1"
     inkscape:groupmode="layer"
     id="layer1">
    <g
       id="g2778"
       transform="matrix(0.03713862,0,0,0.03713862,-0.33390071,-1.5042329)"
       style="stroke-width:26.9261">
      <circle
         style="opacity:1;fill:#000000;stroke:none;stroke-width:213.726;stroke-linecap:round;stroke-linejoin:round"
         id="path1077"
         cx="122.97644"
         cy="154.62991"
         r="37.337486" />
      <path
         id="circle1400"
         style="opacity:1;fill:#000000;stroke:none;stroke-width:213.726;stroke-linecap:round;stroke-linejoin:round"
         d="m 198.66548,117.5198 a 37.337486,37.337486 0 0 0 -34.7958,37.2494 37.337486,37.337486 0 0 0 34.7958,37.24993 z" />
      <path
         id="path1720"
         style="opacity:1;fill:#000000;stroke:none;stroke-width:284.968;stroke-linecap:round;stroke-linejoin:round;stroke-miterlimit:4;stroke-dasharray:none"
         d="m 235.52994,118.24549 a 37.337486,37.337486 0 0 0 -28.47165,36.24482 37.337486,37.337486 0 0 0 28.47165,36.24533 v -9.85159 a 27.708164,27.708164 0 0 1 -19.38642,-26.39374 27.708164,27.708164 0 0 1 19.38642,-26.39322 z" />
      <path
         id="path2323"
         style="opacity:1;fill:#000000;stroke:none;stroke-width:213.726;stroke-linecap:round;stroke-linejoin:round"
         d="m 47.241118,116.96199 a 37.337486,37.337486 0 0 1 34.79581,37.24941 37.337486,37.337486 0 0 1 -34.79581,37.24992 z" />
      <path
         id="path2325"
         style="opacity:1;fill:#000000;stroke:none;stroke-width:284.968;stroke-linecap:round;stroke-linejoin:round;stroke-miterlimit:4;stroke-dasharray:none"
         d="m 10.426106,118.24549 a 37.337486,37.337486 0 0 1 28.47164,36.24481 37.337486,37.337486 0 0 1 -28.47164,36.24533 v -9.85159 a 27.708164,27.708164 0 0 0 19.38641,-26.39374 27.708164,27.708164 0 0 0 -19.38641,-26.39322 z" />
    </g>
  </g>
</svg>
