<?xml version="1.0" encoding="UTF-8" standalone="no"?>
<!-- Created with Inkscape (http://www.inkscape.org/) -->

<svg
   width="32"
   height="32"
   viewBox="0 0 8.4666665 8.4666669"
   version="1.1"
   id="svg5"
   inkscape:version="1.1 (c68e22c387, 2021-05-23)"
   sodipodi:docname="Saturn_Lead.svg"
   xmlns:inkscape="http://www.inkscape.org/namespaces/inkscape"
   xmlns:sodipodi="http://sodipodi.sourceforge.net/DTD/sodipodi-0.dtd"
   xmlns="http://www.w3.org/2000/svg"
   xmlns:svg="http://www.w3.org/2000/svg">
  <sodipodi:namedview
     id="namedview7"
     pagecolor="#ffffff"
     bordercolor="#666666"
     borderopacity="1.0"
     inkscape:pageshadow="2"
     inkscape:pageopacity="0.0"
     inkscape:pagecheckerboard="0"
     inkscape:document-units="px"
     showgrid="true"
     units="px"
     showborder="true"
     inkscape:zoom="14.481547"
     inkscape:cx="15.606068"
     inkscape:cy="17.712196"
     inkscape:window-width="1920"
     inkscape:window-height="1137"
     inkscape:window-x="-8"
     inkscape:window-y="-8"
     inkscape:window-maximized="1"
     inkscape:current-layer="layer1"
     inkscape:snap-bbox="false"
     showguides="true"
     inkscape:guide-bbox="true"
     inkscape:snap-global="true" />
  <defs
     id="defs2" />
  <g
     inkscape:label="Layer 1"
     inkscape:groupmode="layer"
     id="layer1">
    <path
       id="path958"
       style="opacity:1;fill:#000000;stroke:none;stroke-width:7.9375;stroke-linecap:round;stroke-linejoin:round"
       d="M 4.2333334,0.03874881 A 4.1945816,4.1945816 0 0 0 0.03874881,4.2333334 4.1945816,4.1945816 0 0 0 4.2333334,8.4279179 4.1945816,4.1945816 0 0 0 8.4279179,4.2333334 4.1945816,4.1945816 0 0 0 4.2333334,0.03874881 Z m 0,0.42740328 A 3.7671808,3.7671805 0 0 1 7.9938376,4.016747 H 0.48321142 A 3.7671808,3.7671805 0 0 1 4.2333334,0.46615209 Z m 0.00171,1.74898531 a 0.67744451,0.67744451 0 0 0 -0.677445,0.677445 0.67744451,0.67744451 0 0 0 0.677445,0.677444 0.67744451,0.67744451 0 0 0 0.677444,-0.677444 0.67744451,0.67744451 0 0 0 -0.677444,-0.677445 z M 0.48462741,4.468377 H 7.9923332 A 3.7671808,3.7671805 0 0 1 4.233301,8.0005145 3.7671808,3.7671805 0 0 1 0.48462741,4.468377 Z M 4.2315581,4.9573891 a 0.67744451,0.67744451 0 0 0 -0.677444,0.677444 0.67744451,0.67744451 0 0 0 0.677444,0.677445 0.67744451,0.67744451 0 0 0 0.677445,-0.677445 0.67744451,0.67744451 0 0 0 -0.677445,-0.677444 z" />
  </g>
</svg>
