<?xml version="1.0" encoding="UTF-8" standalone="no"?>
<!-- Created with Inkscape (http://www.inkscape.org/) -->

<svg
   width="32"
   height="32"
   viewBox="0 0 8.4666665 8.4666669"
   version="1.1"
   id="svg5"
   inkscape:version="1.1 (c68e22c387, 2021-05-23)"
   sodipodi:docname="Sun_Gold.svg"
   xmlns:inkscape="http://www.inkscape.org/namespaces/inkscape"
   xmlns:sodipodi="http://sodipodi.sourceforge.net/DTD/sodipodi-0.dtd"
   xmlns="http://www.w3.org/2000/svg"
   xmlns:svg="http://www.w3.org/2000/svg">
  <sodipodi:namedview
     id="namedview7"
     pagecolor="#ffffff"
     bordercolor="#666666"
     borderopacity="1.0"
     inkscape:pageshadow="2"
     inkscape:pageopacity="0.0"
     inkscape:pagecheckerboard="0"
     inkscape:document-units="px"
     showgrid="true"
     units="px"
     showborder="true"
     inkscape:zoom="7.2407734"
     inkscape:cx="33.283737"
     inkscape:cy="28.242839"
     inkscape:window-width="1920"
     inkscape:window-height="1137"
     inkscape:window-x="-8"
     inkscape:window-y="-8"
     inkscape:window-maximized="1"
     inkscape:current-layer="layer1"
     inkscape:snap-bbox="false"
     showguides="true"
     inkscape:guide-bbox="true"
     inkscape:snap-global="false" />
  <defs
     id="defs2" />
  <g
     inkscape:label="Layer 1"
     inkscape:groupmode="layer"
     id="layer1">
    <path
       id="path1838"
       style="opacity:1;stroke:none;stroke-width:7.93753;stroke-linecap:round;stroke-linejoin:round"
       d="M 5.9412462,0.14131779 5.2726748,0.75360103 4.604149,1.3658842 5.1556903,1.5897411 4.6710267,2.7839478 A 1.3561812,1.3561812 0 0 0 4.2436054,2.7147297 1.3561812,1.3561812 0 0 0 3.6824974,2.8371225 L 3.2016744,1.6524376 3.7532382,1.4286032 3.0846897,0.81629745 2.4161414,0.20401428 2.3633986,1.1090544 2.3106779,2.0140716 2.8622192,1.790215 l 0.504547,1.2431773 0.00907,-0.00369 A 1.3561812,1.3561812 0 0 0 2.9823167,3.5727915 l -1.281377,-0.301483 0.1363231,-0.579424 -0.8861337,0.1913383 -0.88613341,0.1913388 0.70783892,0.5664027 0.70786149,0.56638 0.136323,-0.5794235 1.2787863,0.300892 a 1.3561812,1.3561812 0 0 0 -0.00838,0.1420953 1.3561812,1.3561812 0 0 0 0.2026554,0.7114061 L 2.1136125,5.5862999 1.7352533,5.126792 1.3505765,5.9476842 0.9658998,6.7685763 1.8453749,6.5486279 2.7248274,6.3286566 2.3464909,5.8691263 3.32209,5.0658453 A 1.3561812,1.3561812 0 0 0 3.9897294,5.402142 V 6.6878366 H 3.3944896 L 3.7836882,7.5065931 4.1729101,8.3253489 4.5621316,7.5065931 4.9513302,6.6878366 H 4.3560904 V 5.4220484 A 1.3561812,1.3561812 0 0 0 5.178528,5.0525744 L 6.1647392,5.8645815 5.7863796,6.3241118 6.6658552,6.544083 7.5453076,6.7640313 7.1606533,5.943139 6.7759768,5.1222468 6.3976176,5.5817546 5.4072022,4.7662936 A 1.3561812,1.3561812 0 0 0 5.5997905,4.0709081 1.3561812,1.3561812 0 0 0 5.592722,3.9327671 L 6.8496474,3.6370104 6.9859707,4.2164343 7.6938319,3.6500542 8.401671,3.0836512 7.5155374,2.8923129 6.6294038,2.7009742 6.7657491,3.2803982 5.5064152,3.5767001 A 1.3561812,1.3561812 0 0 0 5.0007314,2.9457375 L 5.4951662,1.7274884 6.0467075,1.9513457 5.9939875,1.0463282 Z" />
  </g>
</svg>
