<?xml version="1.0" encoding="UTF-8" standalone="no"?>
<!-- Created with Inkscape (http://www.inkscape.org/) -->

<svg
   width="32"
   height="32"
   viewBox="0 0 8.4666665 8.4666669"
   version="1.1"
   id="svg5"
   inkscape:version="1.1 (c68e22c387, 2021-05-23)"
   sodipodi:docname="Witch_Queen.svg"
   xmlns:inkscape="http://www.inkscape.org/namespaces/inkscape"
   xmlns:sodipodi="http://sodipodi.sourceforge.net/DTD/sodipodi-0.dtd"
   xmlns="http://www.w3.org/2000/svg"
   xmlns:svg="http://www.w3.org/2000/svg">
  <sodipodi:namedview
     id="namedview7"
     pagecolor="#ffffff"
     bordercolor="#666666"
     borderopacity="1.0"
     inkscape:pageshadow="2"
     inkscape:pageopacity="0.0"
     inkscape:pagecheckerboard="0"
     inkscape:document-units="px"
     showgrid="false"
     units="px"
     showborder="true"
     inkscape:zoom="7.5893749"
     inkscape:cx="26.747921"
     inkscape:cy="27.867908"
     inkscape:window-width="1920"
     inkscape:window-height="1137"
     inkscape:window-x="-8"
     inkscape:window-y="-8"
     inkscape:window-maximized="1"
     inkscape:current-layer="layer1" />
  <defs
     id="defs2" />
  <g
     inkscape:label="Layer 1"
     inkscape:groupmode="layer"
     id="layer1">
    <path
       style="stroke-width:0.999998"
       d="m 4.4942548,8.1932255 c -0.010992,-0.0136 -0.017631,-0.247181 -0.011833,-0.416502 0.00421,-0.122877 0.00408,-0.224394 -5.095e-4,-0.427328 -0.00331,-0.14639 -0.00603,-0.362862 -0.00603,-0.481049 0,-0.236726 9.553e-4,-0.245664 0.027261,-0.256561 0.027219,-0.01128 0.030853,-0.03655 0.013052,-0.09089 -0.0097,-0.0296 -0.010928,-0.0431 -0.010636,-0.116503 2.879e-4,-0.073311 0.00245,-0.094991 0.018482,-0.1853186 0.00999,-0.056262 0.027958,-0.141339 0.039943,-0.1890604 0.011983,-0.047722 0.024987,-0.1104746 0.028894,-0.1394513 0.028085,-0.2081958 0.048341,-0.3080323 0.06742,-0.3322791 0.00724,-0.00921 0.027015,-0.00754 0.029057,0.00245 0.0029,0.014227 0.027019,-0.031824 0.035212,-0.067261 0.00402,-0.017399 0.011842,-0.070095 0.017377,-0.1171008 0.014683,-0.1247106 0.027108,-0.1886308 0.04917,-0.2529614 0.037708,-0.1099483 0.06726,-0.214066 0.082568,-0.2909094 0.015976,-0.080186 0.039931,-0.1679259 0.05764,-0.2110979 l 0.010193,-0.024847 -0.019918,-0.031314 C 4.9106433,4.5480066 4.8799633,4.4877646 4.8534223,4.4313568 4.8268813,4.3749498 4.7971043,4.3117398 4.7872513,4.2908906 l -0.017915,-0.037907 -0.020348,0.062326 c -0.01119,0.03428 -0.030254,0.084303 -0.042361,0.1111639 -0.031142,0.06909 -0.037634,0.090559 -0.045779,0.151396 -0.01233,0.092102 -0.024217,0.129245 -0.070331,0.2197687 -0.036627,0.071902 -0.048697,0.1026505 -0.090102,0.2295359 -0.026296,0.080582 -0.056203,0.1647235 -0.066462,0.1869817 -0.024363,0.052859 -0.038903,0.095811 -0.060698,0.1792992 -0.00982,0.037605 -0.028681,0.097197 -0.041917,0.1324278 -0.044877,0.1194339 -0.047477,0.1318007 -0.053085,0.2525067 -0.00537,0.1156472 -0.018755,0.1993724 -0.045808,0.2865806 -0.015078,0.048605 -0.019227,0.05611 -0.028952,0.052378 -0.00521,-0.00201 -0.00817,-0.014747 -0.010667,-0.045886 C 4.1883963,6.0162431 4.1709913,5.9334656 4.1411503,5.8256668 4.1125773,5.7224512 4.1130553,5.7236609 4.0560063,5.6107818 4.0040873,5.5080534 4.0037293,5.5070771 3.948416,5.3181097 3.909845,5.1863385 3.893347,5.1364738 3.8020694,4.8757783 3.7813774,4.8166853 3.7577864,4.7485566 3.7496414,4.7243821 3.7414914,4.7002071 3.7163284,4.6401231 3.6937124,4.5908602 3.6710974,4.5415972 3.6470644,4.4811613 3.6403084,4.4565573 3.6302234,4.4198353 3.5936754,4.3109494 3.5736554,4.2579844 c -0.00422,-0.01117 -0.00734,-0.0068 -0.036627,0.051279 -0.019997,0.039663 -0.041619,0.09335 -0.057612,0.1430604 -0.018924,0.058822 -0.032546,0.091298 -0.052239,0.1245357 -0.014651,0.024729 -0.037983,0.065046 -0.051845,0.08959 l -0.025204,0.044627 0.021481,0.055581 c 0.011814,0.030569 0.038993,0.096197 0.060395,0.1458394 0.021402,0.049642 0.047762,0.1155312 0.058578,0.1464211 0.025876,0.073901 0.067354,0.2341964 0.076699,0.2964143 0.0092,0.061252 0.042245,0.1764964 0.065546,0.2285883 0.015788,0.035295 0.017517,0.043446 0.017912,0.084366 l 4.458e-4,0.045296 0.019861,0.020634 c 0.010925,0.011349 0.022341,0.025484 0.025372,0.03141 0.010349,0.020233 0.044361,0.1747415 0.044414,0.2017657 4.81e-5,0.014829 -0.00413,0.042298 -0.00924,0.061047 -0.021742,0.079787 -0.017743,0.1033695 0.02451,0.1445274 0.03801,0.037023 0.042727,0.052472 0.072145,0.2363068 0.024465,0.152877 0.034108,0.253278 0.034479,0.358985 2.251e-4,0.06457 -0.00296,0.103298 -0.01981,0.239837 -0.00671,0.0544 -0.00638,0.390345 4.458e-4,0.453235 0.00252,0.02304 0.00929,0.08256 0.015084,0.132251 0.00882,0.07562 0.01,0.104284 0.00722,0.175815 -0.00182,0.04701 -0.00519,0.136012 -0.00747,0.197792 -0.00229,0.06178 -0.00686,0.12716 -0.010174,0.145291 -0.00539,0.02951 -0.00721,0.03297 -0.017367,0.03297 -0.00987,0 -0.012715,-0.0046 -0.021825,-0.03541 C 3.80307,8.0905695 3.778964,8.0130995 3.755266,7.9378875 3.702901,7.7716965 3.695327,7.7454595 3.655866,7.5935835 3.61951,7.4536535 3.596002,7.3866765 3.5365901,7.2537615 3.4698681,7.1044925 3.4451251,7.0330225 3.4209117,6.9196265 3.3881177,6.7660465 3.3489517,6.6030675 3.3329247,6.5534895 3.3163377,6.5021795 3.3051867,6.4741195 3.2503797,6.3457865 3.2166747,6.2668625 3.1868487,6.165847 3.1695537,6.0720454 3.1611637,6.0265204 3.1488177,5.9698204 3.1421277,5.9460452 3.1262217,5.8895332 3.0860417,5.7887825 3.0610077,5.7426431 3.0500787,5.7224981 3.0252897,5.6763461 3.0059237,5.6400846 2.9865567,5.6038226 2.9551297,5.5480636 2.9360837,5.5161762 l -0.034629,-0.057978 -0.038134,0.059552 c -0.020975,0.032754 -0.046615,0.070931 -0.056981,0.084839 -0.010365,0.013909 -0.031327,0.050662 -0.04658,0.081677 -0.015253,0.031015 -0.03991,0.07387 -0.054792,0.095233 -0.014883,0.021363 -0.036559,0.056424 -0.048171,0.077912 -0.011613,0.021488 -0.031394,0.054454 -0.043958,0.073256 -0.012565,0.018803 -0.038746,0.06331 -0.058178,0.098907 -0.030658,0.05616 -0.096993,0.161321 -0.1408524,0.2232975 -0.016033,0.022653 -0.021949,0.025841 -0.086245,0.046448 -0.047861,0.015339 -0.048409,0.015396 -0.057816,0.00599 -0.00941,-0.00941 -0.00939,-0.0097 0.00143,-0.030894 0.006,-0.011769 0.021277,-0.033489 0.033939,-0.048269 0.029506,-0.03444 0.035706,-0.051936 0.025716,-0.072565 -0.00409,-0.00844 -0.011126,-0.015355 -0.015638,-0.015355 -0.015463,0 -0.052037,0.027808 -0.085392,0.06493 -0.051527,0.057345 -0.057409,0.067866 -0.061729,0.1104211 -0.00344,0.03387 -0.00648,0.051803 -0.012654,0.074698 -0.00448,0.01661 -0.032402,0.02832 -0.067505,0.02832 -0.049193,0 -0.060509,0.0074 -0.092303,0.0602 -0.014829,0.02464 -0.038731,0.06128 -0.053114,0.08142 -0.029391,0.04117 -0.043767,0.04784 -0.062566,0.02904 -0.00987,-0.0099 -0.010406,-0.01376 -0.00756,-0.05524 0.00169,-0.02454 0.00435,-0.05617 0.00592,-0.07029 0.00232,-0.02108 0.00159,-0.02518 -0.00418,-0.02297 -0.00387,0.0015 -0.012081,0.01193 -0.018256,0.02323 -0.00618,0.01129 -0.026544,0.04112 -0.045262,0.0663 -0.047111,0.06335 -0.086622,0.155907 -0.086709,0.203111 -4.42e-5,0.02432 -0.00949,0.05106 -0.023471,0.06644 -0.011654,0.01281 -0.018628,0.01526 -0.061804,0.02163 -0.041568,0.0061 -0.052404,0.0098 -0.07421,0.02478 -0.026652,0.01835 -0.0386,0.01991 -0.047255,0.0062 -0.00395,-0.0063 -9.553e-4,-0.01746 0.013533,-0.04884 0.05227,-0.113941 0.062527,-0.130415 0.1156567,-0.185798 0.014711,-0.01535 0.036559,-0.04351 0.048519,-0.06258 0.011941,-0.01907 0.03841,-0.05726 0.05878,-0.08487 0.022096,-0.02995 0.040486,-0.06075 0.045586,-0.07634 0.01347,-0.04118 0.033761,-0.077684 0.062966,-0.1132721 0.033131,-0.040373 0.051492,-0.076888 0.055445,-0.1102644 0.00296,-0.025073 0.00287,-0.025344 -0.010311,-0.025344 -0.014215,0 -0.052195,0.034836 -0.075871,0.069589 -0.00667,0.00979 -0.020115,0.02229 -0.029881,0.027777 -0.00977,0.00549 -0.032576,0.026538 -0.05069,0.046777 -0.03772,0.042146 -0.048655,0.049774 -0.059011,0.04118 -0.0099,-0.00821 -0.00869,-0.046865 0.00223,-0.070555 0.00494,-0.010744 0.021914,-0.030989 0.037743,-0.044988 0.056868,-0.050295 0.059772,-0.053914 0.062985,-0.078483 0.00569,-0.04353 0.012607,-0.055407 0.042374,-0.0728 0.031614,-0.018472 0.049057,-0.038762 0.077224,-0.089825 0.024369,-0.04418 0.025427,-0.0459 0.057666,-0.094082 C 2.008124,5.823875 2.018217,5.80241 2.039062,5.7352956 2.072587,5.6273554 2.134366,5.4639375 2.1637051,5.4055894 c 0.00932,-0.018539 0.085348,-0.1269431 0.1472054,-0.209898 0.021032,-0.028203 0.049505,-0.074355 0.063275,-0.1025588 0.013769,-0.028203 0.040824,-0.074364 0.060118,-0.1025794 0.019294,-0.028216 0.041076,-0.061531 0.048404,-0.074035 0.00733,-0.012505 0.03105,-0.046558 0.052719,-0.075677 0.021669,-0.02912 0.043847,-0.061988 0.049287,-0.073043 l 0.00989,-0.020099 -0.031346,-0.060482 c -0.01724,-0.033265 -0.052401,-0.094546 -0.078135,-0.13618 -0.025735,-0.041634 -0.05724,-0.096576 -0.070014,-0.1220935 -0.012775,-0.025519 -0.042856,-0.08083 -0.06685,-0.1229162 C 2.3242645,4.2639415 2.2928705,4.2002087 2.2784955,4.1643991 2.2521585,4.0987911 2.1913105,3.9720872 2.1352578,3.8661286 2.1033948,3.8058976 2.0991988,3.7870816 2.1095668,3.7509327 c 0.00375,-0.013084 0.00264,-0.020354 -0.00586,-0.037817 -0.00861,-0.01774 -0.012893,-0.021618 -0.023857,-0.021618 -0.03448,0 -0.051345,-0.018303 -0.0675,-0.073256 C 1.9850728,3.5254597 1.9756438,3.4958595 1.9469988,3.4131242 1.9297938,3.3634322 1.9056908,3.2972335 1.8934358,3.2660162 1.8811828,3.2347972 1.8642138,3.1854292 1.8557298,3.1563053 1.8392028,3.0995713 1.8304238,3.0801533 1.7885768,3.0077736 1.7738238,2.9822546 1.7459838,2.9295116 1.7267088,2.8905636 1.6867928,2.8098986 1.6814648,2.8010476 1.6164769,2.7074228 1.5903659,2.6698188 1.5486289,2.6049864 1.5237059,2.5633524 1.4987729,2.5217184 1.4575969,2.4572772 1.4321799,2.420149 1.4022789,2.376473 1.3725599,2.324692 1.3479839,2.2734579 1.3270949,2.2299059 1.2958669,2.1712768 1.2785919,2.1431716 1.2613009,2.1150666 1.2365469,2.0722926 1.2235509,2.0481176 1.1940131,1.9931385 1.1607563,1.9428665 1.1185326,1.8893672 1.0761401,1.8356488 1.0439087,1.7869711 1.0085949,1.72332 0.99295999,1.6951167 0.95921609,1.6401743 0.93363979,1.6012263 0.90806999,1.5622785 0.86384649,1.4908536 0.83538209,1.4425045 0.77787059,1.3448079 0.64951179,1.1713834 0.58652959,1.1062814 0.56615019,1.0852078 0.51210319,1.0366824 0.46644039,0.99844567 c -0.0456627,-0.0382364 -0.1023368,-0.087413 -0.1259388,-0.1092811 -0.023596,-0.021866 -0.057667,-0.047905 -0.075697,-0.05786 -0.05271,-0.029098 -0.073984,-0.045063 -0.1224074,-0.091845 -0.062062,-0.059956 -0.081951,-0.096054 -0.064507,-0.1170724 0.00459,-0.00553 0.015253,-0.00645 0.050669,-0.00437 0.06017,0.00353 0.089221,0.016342 0.1134118,0.050015 0.01901,0.026452 0.021781,0.027952 0.035775,0.019217 0.014871,-0.00929 0.034371,-4.14e-4 0.063488,0.028913 0.015157,0.015256 0.029232,0.027223 0.031302,0.026595 0.00223,-6.369e-4 0.00589,0.00445 0.0085,0.011285 0.012196,0.032078 0.059747,0.080278 0.079305,0.080386 0.011655,6.46e-5 0.011272,-0.022077 -6.369e-4,-0.049056 -0.00685,-0.015256 -0.00815,-0.024022 -0.00487,-0.032596 0.00255,-0.00645 0.00446,-0.014641 0.00446,-0.018198 0,-0.00938 -0.067946,-0.088443 -0.088683,-0.1031981 -0.023564,-0.016775 -0.037078,-0.046253 -0.029136,-0.063648 0.00538,-0.011842 0.00729,-0.01247 0.028372,-0.00931 l 0.022577,0.00338 -0.010031,-0.016281 c -0.013788,-0.022338 -0.060881,-0.060094 -0.097589,-0.078217 -0.016749,-0.00827 -0.03297,-0.018064 -0.036043,-0.021771 -0.00809,-0.00973 -0.00191,-0.045285 0.00971,-0.057016 0.00933,-0.00933 0.012228,-0.00957 0.052869,-0.00427 0.1237894,0.016109 0.1815843,0.030178 0.2945152,0.071697 0.112345,0.041304 0.1587147,0.0559 0.1929936,0.060755 0.033075,0.00468 0.060419,0.015552 0.072379,0.028767 0.00408,0.00451 0.017705,0.026882 0.030251,0.049713 0.012546,0.022828 0.028245,0.048717 0.03489,0.057528 l 0.012068,0.01602 0.042619,-0.00322 c 0.058288,-0.0044 0.068593,0.00111 0.085727,0.04596 0.00704,0.018431 0.018787,0.039254 0.026111,0.046275 0.013215,0.012667 0.059846,0.035782 0.095191,0.047192 0.010126,0.00327 0.028913,0.016198 0.041759,0.028732 0.026302,0.025678 0.1019802,0.1192521 0.1091385,0.1349605 0.00385,0.00849 0.00908,0.010292 0.030028,0.010397 0.044539,2.245e-4 0.072888,0.021488 0.1320335,0.099041 0.071866,0.09423 0.083444,0.1125943 0.1262477,0.2002213 0.024105,0.049355 0.052012,0.1031988 0.062008,0.1196517 0.037001,0.0609 0.063443,0.1145336 0.085776,0.173985 0.012613,0.033576 0.036227,0.08632 0.052476,0.11721 0.027831,0.052904 0.042701,0.076778 0.09856,0.1582262 0.012709,0.018529 0.028745,0.044902 0.035634,0.058605 0.013205,0.026258 0.034299,0.057122 0.081429,0.1191428 0.015727,0.020698 0.04415,0.064005 0.063158,0.096237 0.019007,0.032233 0.050518,0.081811 0.070022,0.1101746 0.019504,0.028363 0.050722,0.080009 0.069374,0.114768 0.018654,0.034759 0.048588,0.086274 0.066525,0.1144779 0.017937,0.028203 0.053082,0.093159 0.078101,0.1443449 0.025019,0.051186 0.07279,0.1401923 0.1061589,0.1977914 0.033369,0.057599 0.072513,0.1256044 0.086986,0.1511218 0.014473,0.025519 0.040209,0.066828 0.05719,0.091801 0.033581,0.049386 0.063227,0.1053421 0.081422,0.153681 0.016877,0.044837 0.034535,0.078255 0.068991,0.1305662 0.016807,0.025519 0.041027,0.066175 0.05382,0.09035 0.012795,0.024175 0.043679,0.080216 0.068635,0.1245355 0.046721,0.082971 0.095695,0.1964151 0.1154153,0.2673481 0.00616,0.02214 0.012756,0.040271 0.01467,0.040291 0.00987,1.105e-4 0.1065515,-0.1563615 0.1658316,-0.2683808 0.015937,-0.030114 0.010097,-0.049096 -0.035686,-0.1160244 -0.01246,-0.018214 -0.035333,-0.061349 -0.050829,-0.095854 C 3.1174644,3.3378318 3.0894154,3.2828898 3.0706294,3.2502427 3.0518424,3.2175957 3.0168514,3.1559117 2.9928704,3.1131672 2.9688894,3.0704222 2.9387644,3.0198762 2.9259274,3.0008409 2.8848654,2.9399529 2.8549294,2.8707823 2.8276164,2.7736805 2.8114654,2.7162625 2.8085934,2.7109255 2.7755964,2.6770495 2.7587294,2.6597335 2.7457054,2.6388465 2.7302764,2.6043735 2.7076014,2.5537075 2.6861934,2.5150165 2.6292003,2.4216951 2.6103333,2.3908041 2.5778373,2.3358631 2.5569823,2.2996014 2.5361283,2.2633394 2.5042083,2.2127924 2.4860513,2.1872754 2.4678943,2.1617564 2.4371303,2.1123094 2.4176863,2.0773909 2.3982433,2.0424719 2.3686233,1.9941229 2.3518633,1.9699487 2.3351043,1.9457737 2.3139663,1.9128087 2.3048883,1.8966927 2.2889283,1.8683557 2.2883363,1.8653977 2.2869953,1.8069847 2.2856853,1.7501497 2.2842853,1.7426577 2.2634383,1.6802215 2.2288693,1.5767521 2.1991143,1.5066941 2.1299565,1.3659443 L 2.0659435,1.2356634 2.0372565,1.2145484 c -0.015778,-0.011613 -0.040066,-0.027238 -0.053973,-0.034725 -0.030435,-0.016383 -0.0361,-0.02784 -0.049803,-0.1007316 -0.00535,-0.028439 -0.012664,-0.056276 -0.016262,-0.061862 -0.0036,-0.00559 -0.022424,-0.018501 -0.041832,-0.0287 -0.057032,-0.029971 -0.087669,-0.063523 -0.087669,-0.096012 0,-0.00668 -0.014995,-0.026283 -0.040291,-0.052663 -0.035082,-0.036585 -0.044969,-0.051171 -0.076481,-0.1128246 -0.031684,-0.062025 -0.05982,-0.1071091 -0.1089346,-0.1746581 -0.033903,-0.046624 -0.037234,-0.1109685 -0.0092,-0.1777727 0.00863,-0.02059 0.019042,-0.03872 0.02315,-0.040291 0.022831,-0.00875 0.0559,0.0049 0.1030086,0.042514 0.03931,0.031388 0.061115,0.054879 0.088855,0.095727 0.015447,0.022745 0.022707,0.029598 0.029184,0.027544 0.00731,-0.00232 0.00862,4.14e-4 0.00865,0.01809 3.5e-5,0.022637 0.020914,0.070857 0.036983,0.0854 0.00903,0.00817 0.00978,0.00812 0.016807,-0.00115 0.00595,-0.00785 0.00677,-0.019239 0.00431,-0.059515 -0.00283,-0.046196 -0.00236,-0.050185 0.00653,-0.054942 0.012393,-0.00663 0.054524,-0.0066 0.072177,5.42e-5 0.01395,0.00526 0.054849,0.035369 0.093739,0.069007 0.011989,0.010368 0.033266,0.022242 0.04842,0.027019 0.023522,0.00742 0.030894,0.013145 0.056755,0.044115 0.016345,0.019577 0.041876,0.0554 0.056734,0.079608 0.034381,0.056018 0.056451,0.078578 0.1038064,0.1061124 0.071966,0.041843 0.093394,0.067805 0.1620996,0.19639863 0.020809,0.038948 0.050969,0.089272 0.067022,0.1118314 0.038408,0.053976 0.040319,0.058557 0.031509,0.075539 -0.015453,0.029786 0.021831,0.092793 0.07247,0.1224689 0.048658,0.028515 0.06627,0.00283 0.036663,-0.053443 -0.018714,-0.035577 -0.018615,-0.048543 5.095e-4,-0.066413 0.00834,-0.00779 0.017176,-0.01417 0.019634,-0.01417 0.00849,0 -0.016765,-0.041588 -0.037955,-0.062495 C 2.631203,1.1012419 2.627047,1.0841479 2.637559,1.0565039 2.641999,1.0448369 2.640619,1.0417449 2.624395,1.0268839 2.614435,1.0177539 2.6047,1.0102909 2.60277,1.0102909 c -0.00395,0 -0.059727,-0.065832 -0.090376,-0.10665823 -0.020472,-0.02727 -0.023258,-0.044738 -0.00713,-0.044738 0.00454,0 0.021172,0.00777 0.03695,0.017275 0.015778,0.0095 0.031352,0.016249 0.034611,0.015001 0.00326,-0.00124 0.011011,-0.011323 0.017227,-0.022382 0.018096,-0.0322 0.028455,-0.027309 0.075946,0.035868 0.021946,0.029197 0.052304,0.067431 0.06746,0.084966 0.018727,0.021666 0.035623,0.049255 0.052734,0.086103 0.040532,0.087287 0.057468,0.1183058 0.106982,0.1959382 0.025729,0.040339 0.060454,0.1007758 0.077167,0.1343029 0.016714,0.033527 0.045852,0.087928 0.064754,0.120892 0.033082,0.057696 0.034046,0.060286 0.025825,0.069371 -0.01802,0.019911 0.00685,0.058588 0.1363301,0.2120112 0.028544,0.033823 0.046379,0.062399 0.080771,0.1294192 0.024274,0.047307 0.055416,0.1057914 0.069201,0.1299659 0.013785,0.024175 0.035758,0.067838 0.048831,0.09703 0.013072,0.029194 0.040111,0.084134 0.060084,0.1220937 0.019972,0.03796 0.048171,0.097587 0.062663,0.1325064 0.014492,0.034919 0.040364,0.093552 0.057493,0.1302961 l 0.031142,0.066808 0.012107,-0.020303 c 0.00666,-0.011167 0.022417,-0.045626 0.035021,-0.076575 0.043145,-0.1059551 0.073481,-0.1735099 0.1020422,-0.2272369 0.033699,-0.063392 0.060509,-0.1291609 0.08559,-0.2099668 0.010005,-0.032233 0.023643,-0.075088 0.030308,-0.095233 0.00666,-0.020144 0.023758,-0.073989 0.037988,-0.1196517 0.014228,-0.045663 0.034918,-0.1079074 0.045977,-0.1383206 0.011059,-0.030413 0.027665,-0.089022 0.036899,-0.1302411 0.010664,-0.047602 0.022408,-0.086072 0.032187,-0.1054469 0.013877,-0.027493 0.015855,-0.037048 0.020013,-0.096853 0.00255,-0.036493 0.00329,-0.077702 0.00166,-0.091576 -0.00349,-0.029834 0.00375,-0.06099 0.019663,-0.084659 0.00632,-0.0094 0.013002,-0.025885 0.014845,-0.036628 0.00185,-0.010744 0.00762,-0.037116 0.012842,-0.058605 0.00714,-0.029394 0.010556,-0.068702 0.013804,-0.15872173 0.00376,-0.1043933 0.00587,-0.1252571 0.016536,-0.1636055 0.00679,-0.02443 0.014575,-0.071068 0.017523,-0.1050005 0.00749,-0.086229 0.013778,-0.1338546 0.027573,-0.2087657 0.00175,-0.00947 0.0033,-0.010174 0.011352,-0.00515 0.016234,0.010139 0.020192,0.02784 0.024802,0.1109271 0.011785,0.2123821 0.014918,0.2591039 0.019335,0.2885679 0.00261,0.01746 0.00481,0.047183 0.00486,0.066053 5.54e-5,0.02152 0.00569,0.057019 0.0151,0.095233 0.012677,0.051474 0.023185,0.1346478 0.023917,0.1892944 1.29e-4,0.00948 0.00156,0.010403 0.00952,0.00615 0.00768,-0.00411 0.011559,-0.00242 0.021542,0.00945 0.01723,0.020478 0.022796,0.053504 0.022901,0.1358648 1.29e-4,0.1056612 0.017217,0.2111769 0.050934,0.3145206 0.00902,0.027665 0.038267,0.09755 0.064982,0.1552999 0.061158,0.1322064 0.1039019,0.2524045 0.1528334,0.4297696 0.020902,0.075759 0.037462,0.1161152 0.049179,0.1198339 0.0052,0.00166 0.012944,0.00833 0.017211,0.014839 0.00427,0.00651 0.00933,0.011839 0.011257,0.011839 0.00191,0 0.014046,-0.026923 0.026936,-0.059826 0.028089,-0.071706 0.055991,-0.1284359 0.1002836,-0.2038963 0.044487,-0.075793 0.055011,-0.09741 0.085254,-0.1751281 0.054539,-0.1401586 0.1575406,-0.3435744 0.2056005,-0.4060378 0.011368,-0.014772 0.024166,-0.033823 0.028439,-0.042333 0.011715,-0.023318 0.03163,-0.086677 0.042424,-0.1349799 0.022736,-0.1017334 0.061133,-0.1579814 0.1046989,-0.1533727 0.00866,9.234e-4 0.010043,-0.00258 0.012209,-0.030846 0.00239,-0.03112 0.00325,-0.032835 0.036548,-0.071985 0.018759,-0.022058 0.045889,-0.059359 0.060291,-0.082889 0.0426,-0.069606 0.077023,-0.11465213 0.1405519,-0.18392863 0.054415,-0.059339 0.063418,-0.067027 0.097325,-0.083122 0.043008,-0.020414 0.077618,-0.042981 0.1463332,-0.095414 0.02686,-0.020497 0.066419,-0.049607 0.087908,-0.064691 0.021488,-0.015084 0.045556,-0.034249 0.053483,-0.042588 l 0.014415,-0.015164 -0.010712,-0.00751 c -0.00589,-0.00413 -0.013135,-0.01203 -0.016093,-0.017561 -0.0047,-0.00877 -0.00236,-0.012947 0.018393,-0.032715 0.013078,-0.012463 0.031228,-0.032548 0.040334,-0.044635 0.023421,-0.031085 0.093198,-0.1020537 0.1077431,-0.109584 0.017268,-0.00894 0.047198,-0.013645 0.063715,-0.010018 0.0091,0.00201 0.017928,0.00942 0.025025,0.021055 0.013441,0.022016 0.022882,0.029818 0.036327,0.030022 0.015673,2.363e-4 0.063324,-0.027012 0.1073648,-0.061395 0.027165,-0.021207 0.046533,-0.032427 0.061931,-0.035878 0.027904,-0.00625 0.051126,-0.00194 0.057913,0.010731 0.00451,0.00843 0.00836,0.00927 0.02963,0.00645 0.041937,-0.00556 0.06009,0.017259 0.039928,0.050194 -0.00788,0.012874 -0.050942,0.051279 -0.096327,0.085914 -0.016058,0.012253 -0.026277,0.016928 -0.031744,0.014517 -0.00444,-0.00194 -0.010015,-0.00309 -0.0124,-0.00255 -0.00239,5.413e-4 -0.00309,-0.00679 -0.00153,-0.016316 0.00252,-0.015422 0.00166,-0.017313 -0.00787,-0.017272 -0.035716,1.605e-4 -0.1154972,0.063612 -0.1221953,0.097186 -0.00181,0.00916 -0.00216,0.017823 -7.324e-4,0.019252 0.00143,0.00143 0.014081,2.238e-4 0.028117,-0.00267 0.014033,-0.0029 0.027436,-0.00413 0.029786,-0.00271 0.00798,0.00479 7.39e-5,0.066301 -0.011406,0.088791 -0.00607,0.011893 -0.012145,0.03387 -0.013492,0.048838 -0.00346,0.038372 0.00631,0.046793 0.054105,0.046632 0.04908,-1.64e-4 0.058316,-0.00378 0.093682,-0.036681 0.035525,-0.033049 0.048679,-0.036607 0.053539,-0.014482 0.00178,0.00806 0.00507,0.014651 0.00734,0.014651 0.00914,0 0.035649,-0.027372 0.06304,-0.065103 0.049677,-0.068426 0.1049947,-0.115103 0.1682905,-0.1420042 0.033497,-0.014237 0.04891,-0.013985 0.046145,7.642e-4 -8.916e-4,0.00471 -0.020733,0.022847 -0.044108,0.040306 -0.054563,0.040752 -0.073496,0.059161 -0.097947,0.095233 -0.010925,0.016116 -0.025111,0.03566 -0.031524,0.043429 -0.024548,0.029735 -0.036469,0.061306 -0.038796,0.1027288 -0.00121,0.021682 -0.00312,0.043973 -0.00424,0.049532 -0.00352,0.017641 -0.037259,0.047059 -0.072856,0.063534 -0.04746,0.021965 -0.071341,0.040441 -0.090137,0.069733 -0.01567,0.02442 -0.015893,0.025532 -0.00988,0.048976 0.00802,0.031298 0.00147,0.047724 -0.028939,0.072309 -0.034403,0.027834 -0.048535,0.043991 -0.079272,0.090634 -0.045775,0.06946 -0.058356,0.1151898 -0.038631,0.1404075 0.011161,0.014269 0.011938,0.021077 0.00388,0.033979 -0.00481,0.0077 -0.00436,0.01112 0.00245,0.018631 0.00961,0.01062 0.011027,0.040631 0.00267,0.056373 -0.00312,0.00587 -0.021975,0.028248 -0.041903,0.049737 -0.030187,0.032551 -0.041459,0.049835 -0.067553,0.1035857 -0.030044,0.061889 -0.031898,0.064474 -0.045529,0.063489 -0.00781,-5.732e-4 -0.013196,-0.00267 -0.011957,-0.00469 0.00381,-0.00619 -0.00534,-0.00407 -0.016673,0.00387 -0.013715,0.00961 -0.049931,0.060582 -0.066534,0.093647 -0.00704,0.014014 -0.024685,0.054907 -0.039217,0.090871 -0.034146,0.084504 -0.045407,0.106357 -0.089785,0.1742292 -0.020198,0.030891 -0.04765,0.079239 -0.061006,0.1074425 -0.013355,0.028203 -0.058853,0.1238031 -0.1011048,0.212443 -0.042252,0.08864 -0.084155,0.1798437 -0.093119,0.2026754 -0.00896,0.022831 -0.030448,0.068983 -0.047744,0.1025585 -0.017297,0.033576 -0.042748,0.083024 -0.056561,0.1098842 -0.013813,0.02686 -0.028101,0.058727 -0.031754,0.070815 -0.014938,0.049434 -0.064142,0.1640965 -0.073352,0.1709312 -0.010467,0.00777 -0.07344,0.1279828 -0.1151205,0.2197681 -0.014027,0.030891 -0.046882,0.1023149 -0.07301,0.1587221 -0.026127,0.056407 -0.052735,0.1154229 -0.059126,0.1311467 -0.013562,0.033367 -0.013734,0.032816 0.027968,0.091073 0.02792,0.039004 0.07177,0.1079504 0.095524,0.150191 l 0.014431,0.025665 0.050848,-0.1057879 c 0.027968,-0.058183 0.060857,-0.1224768 0.07309,-0.1428744 0.071086,-0.1185283 0.1220247,-0.1988693 0.1637055,-0.2581984 0.034515,-0.049129 0.061311,-0.095722 0.1003396,-0.1744712 0.029286,-0.059094 0.066411,-0.131617 0.082498,-0.1611638 0.016087,-0.029547 0.034025,-0.066598 0.039861,-0.082337 0.00826,-0.02228 0.019886,-0.038323 0.052496,-0.072454 0.023035,-0.024112 0.049092,-0.055188 0.057903,-0.069059 0.014797,-0.0233 0.1307156,-0.254227 0.1585202,-0.3158035 0.00667,-0.014772 0.014718,-0.039182 0.017883,-0.054242 0.0037,-0.017596 0.014177,-0.040285 0.029321,-0.063489 0.012963,-0.01986 0.036728,-0.060281 0.052815,-0.089828 0.016087,-0.029547 0.053365,-0.09026 0.082842,-0.1349182 0.029837,-0.045206 0.061775,-0.1004074 0.07205,-0.1245358 0.023927,-0.056189 0.03792,-0.080565 0.097532,-0.1699097 0.027114,-0.040638 0.05897,-0.091417 0.070791,-0.112844 0.01182,-0.021427 0.031877,-0.055441 0.044567,-0.075586 0.068716,-0.1090884 0.1065162,-0.1836652 0.1468666,-0.2897687 0.016826,-0.044245 0.031938,-0.074178 0.051369,-0.1017512 0.03658,-0.051907 0.1005864,-0.1276723 0.1203147,-0.1424172 0.021067,-0.015746 0.081374,-0.047217 0.09048,-0.047217 0.018412,0 0.041433,-0.021526 0.054738,-0.051182 0.00745,-0.016606 0.020516,-0.038132 0.029034,-0.047832 0.018453,-0.021016 0.090103,-0.07021 0.1086481,-0.074597 0.020322,-0.00481 0.079013,-0.065327 0.086014,-0.088695 0.00699,-0.023328 0.031407,-0.042213 0.071826,-0.055547 0.034057,-0.011234 0.069276,-0.034593 0.1179395,-0.078216 0.031728,-0.028445 0.051366,-0.04069 0.1140282,-0.071112 0.1267817,-0.061552 0.1602923,-0.073723 0.2868456,-0.1041837 0.030177,-0.00726 0.056,-0.012075 0.057384,-0.01069 0.010272,0.010269 -0.021567,0.039779 -0.1171351,0.1085608 -0.02686,0.019332 -0.058289,0.044221 -0.06984,0.055309 -0.024799,0.023803 -0.051565,0.063753 -0.048611,0.072555 0.00146,0.00432 0.013813,0.00621 0.040733,0.00621 h 0.038648 l 0.00492,0.020386 c 0.00271,0.011212 0.00634,0.021803 0.00807,0.023538 0.00172,0.00172 0.014336,-0.00166 0.028006,-0.00754 0.025726,-0.011065 0.052776,-0.03681 0.066436,-0.063225 l 0.00787,-0.015215 -0.0228,0.0015 c -0.017421,0.00115 -0.024096,-5.094e-4 -0.028289,-0.007 -0.00466,-0.00721 2.143e-4,-0.014227 0.032204,-0.046396 0.030652,-0.030824 0.047412,-0.042891 0.089725,-0.064601 0.028617,-0.014683 0.075364,-0.042789 0.1038777,-0.062457 0.042053,-0.029006 0.060875,-0.038574 0.099666,-0.050665 0.050712,-0.015807 0.062062,-0.015667 0.062062,7.642e-4 0,0.00607 0.00213,0.00889 0.00528,0.00694 0.0029,-0.00178 0.038237,-0.011734 0.078519,-0.02209 0.058457,-0.015027 0.083413,-0.024283 0.1236442,-0.045863 0.055669,-0.029862 0.067581,-0.032858 0.065166,-0.016399 -0.00121,0.00821 -0.023303,0.022745 -0.096794,0.063673 -0.052378,0.029171 -0.1194075,0.065313 -0.1489542,0.080319 -0.071864,0.036496 -0.1058313,0.05896 -0.2035566,0.1346204 -0.072062,0.055792 -0.084111,0.06712 -0.094458,0.088805 -0.00717,0.015023 -0.018784,0.029531 -0.029369,0.036676 -0.057637,0.038909 -0.086763,0.1088582 -0.041562,0.099818 0.01139,-0.00229 0.014055,-7.961e-4 0.016558,0.00917 0.00166,0.00653 8.28e-4,0.019373 -0.00178,0.028531 -0.00261,0.00915 -0.00477,0.017262 -0.00477,0.018014 0,0.010202 0.071845,-0.063534 0.1554371,-0.1595277 0.030916,-0.035502 0.052827,-0.053 0.07396,-0.05906 0.014145,-0.00406 0.01624,-0.00318 0.023701,0.00993 0.00998,0.017536 0.014202,0.017749 0.044812,0.00223 0.013253,-0.00672 0.027289,-0.012209 0.031193,-0.012209 0.011183,0 0.014294,0.025942 0.00561,0.046734 -0.016893,0.040428 -0.047952,0.068023 -0.1934804,0.1718999 -0.047159,0.033662 -0.1981067,0.18540333 -0.2707589,0.27218263 -0.024736,0.029547 -0.063049,0.073382 -0.085137,0.097412 -0.05398,0.058723 -0.076509,0.091531 -0.1125262,0.1638688 -0.016718,0.033576 -0.048533,0.091814 -0.070701,0.1294192 -0.022169,0.037605 -0.052459,0.08925 -0.067313,0.114768 -0.014855,0.025519 -0.046277,0.071669 -0.069827,0.1025587 -0.1076173,0.1411546 -0.238901,0.3463988 -0.2967685,0.4639559 -0.03013,0.061207 -0.053864,0.1014067 -0.08362,0.1416284 -0.024742,0.033446 -0.058225,0.08806 -0.082777,0.1350223 -0.022675,0.043373 -0.05918,0.1077565 -0.081121,0.1430757 -0.021943,0.035319 -0.054699,0.092135 -0.072793,0.1262582 -0.047881,0.090292 -0.075726,0.1382932 -0.1153131,0.1987865 -0.019335,0.029547 -0.040686,0.06471 -0.047445,0.07814 -0.020813,0.041353 -0.051604,0.1305984 -0.064271,0.1862809 -0.011495,0.050531 -0.033678,0.1172625 -0.056588,0.1702326 -0.01981,0.0458 -0.044574,0.1219826 -0.07144,0.2197687 -0.038808,0.1412508 -0.047931,0.167632 -0.086142,0.2490709 -0.099978,0.2130827 -0.099946,0.213026 -0.1838021,0.3317129 -0.016931,0.023965 -0.057245,0.087697 -0.089586,0.1416287 -0.03234,0.053931 -0.066997,0.1101441 -0.077014,0.1249173 -0.010018,0.014775 -0.025229,0.040776 -0.033805,0.057783 -0.017201,0.034116 -0.074015,0.1796731 -0.074663,0.1912875 -2.255e-4,0.00403 0.026557,0.052378 0.059515,0.1074425 0.032958,0.055064 0.088434,0.1505896 0.123278,0.2122793 0.06903,0.1222128 0.1125943,0.1890708 0.1712719,0.2628522 0.02093,0.026315 0.049089,0.064276 0.062578,0.084355 0.033189,0.049404 0.1191843,0.2281291 0.137279,0.2853081 0.00806,0.025465 0.026204,0.069419 0.040319,0.097675 0.035804,0.071662 0.073948,0.1595656 0.08057,0.1856761 0.00306,0.012088 0.00994,0.035455 0.015281,0.051927 0.00959,0.029585 0.010273,0.030318 0.056015,0.060108 0.063501,0.041355 0.077617,0.056528 0.089944,0.096683 0.017701,0.057656 0.069659,0.125776 0.16949,0.22221 0.069802,0.06743 0.1151256,0.145842 0.1874698,0.324352 0.013228,0.03264 0.024051,0.06274 0.024051,0.06688 0,0.02358 -0.0594,0.04983 -0.083892,0.03708 -0.035743,-0.01861 -0.066416,-0.05123 -0.133646,-0.142127 -0.068461,-0.09256 -0.090974,-0.117145 -0.097538,-0.106524 -0.00166,0.0027 0.00261,0.01722 0.00951,0.03228 0.00689,0.01506 0.012536,0.03583 0.012536,0.04616 0,0.0162 -0.00248,0.02046 -0.018227,0.03116 -0.030343,0.02062 -0.047587,0.01497 -0.074736,-0.02449 -0.020411,-0.02967 -0.047736,-0.04329 -0.078607,-0.0392 -0.027853,0.0037 -0.051946,-0.0048 -0.070655,-0.02501 -0.00697,-0.0075 -0.03148,-0.04225 -0.054455,-0.07717 -0.037201,-0.05656 -0.077255,-0.11152 -0.1690443,-0.2319782 -0.015352,-0.020144 -0.048688,-0.061901 -0.074084,-0.092791 -0.025395,-0.030891 -0.047335,-0.061657 -0.048756,-0.068373 -0.01452,-0.068616 -0.022089,-0.087001 -0.044642,-0.1084048 -0.016141,-0.01532 -0.044834,-0.028117 -0.055389,-0.024704 -0.012263,0.00397 -0.019536,0.016883 -0.019536,0.034705 0,0.014269 0.00449,0.021249 0.028445,0.044241 0.015644,0.015014 0.033375,0.030598 0.039403,0.034626 0.015886,0.01062 0.00914,0.024417 -0.011935,0.024417 -0.022819,0 -0.043803,0.018514 -0.039665,0.034997 0.00493,0.019641 0.021169,0.036717 0.056904,0.059833 0.018367,0.011881 0.04028,0.03112 0.048694,0.042747 0.050797,0.070213 0.063735,0.090351 0.063719,0.099179 -5.51e-5,0.016934 -0.018756,0.042958 -0.028264,0.039279 -0.020711,-0.008 -0.034653,-0.008 -0.046864,0 -0.029038,0.01903 -0.047024,-0.0033 -0.1218195,-0.1514827 C 5.8970787,6.114894 5.8675387,6.0674929 5.798465,5.973612 5.6884575,5.8240977 5.6127978,5.7096774 5.5267576,5.5627067 5.5010376,5.5187757 5.4685326,5.4673687 5.4545206,5.4484674 5.4298036,5.4151254 5.4288356,5.4144124 5.4221016,5.4245594 5.4096066,5.4433754 5.3350586,5.6031743 5.3097473,5.6653929 5.2622333,5.7821921 5.2019087,5.9177331 5.1620786,5.9971815 c -0.098853,0.19718 -0.1907582,0.498504 -0.1789037,0.586557 0.00326,0.02424 -0.00676,0.111823 -0.01888,0.165013 -0.00459,0.02015 -0.01816,0.0619 -0.030152,0.09279 -0.011992,0.03089 -0.029401,0.07786 -0.038686,0.104381 -0.00929,0.02652 -0.033563,0.08586 -0.05395,0.131862 -0.03202,0.07226 -0.085009,0.2107 -0.099772,0.260678 -0.00309,0.01043 -0.00296,0.02215 3.821e-4,0.03419 0.013817,0.04975 3.503e-4,0.10252 -0.065617,0.257326 -0.040528,0.09509 -0.043228,0.104455 -0.054009,0.187225 -0.011635,0.08934 -0.030015,0.1628 -0.059437,0.237558 -0.014883,0.03782 -0.032866,0.08508 -0.039958,0.105021 -0.013183,0.03706 -0.019567,0.04457 -0.028509,0.0335 z M 3.8272334,8.0712745 c -0.00156,-0.0039 -0.00271,-0.0027 -0.00296,0.003 -2.102e-4,0.0051 9.553e-4,0.008 0.00258,0.0064 0.00162,-0.0016 0.00178,-0.0058 3.822e-4,-0.0094 z m 0.8258163,-1.614914 c 0.00409,-0.01772 0.00405,-0.02839 -1.662e-4,-0.04212 -0.00534,-0.0174 -0.00488,-0.01905 0.00845,-0.03052 0.011425,-0.0098 0.017686,-0.01164 0.033033,-0.0096 0.016775,0.0023 0.019462,0.0011 0.023535,-0.0096 0.0053,-0.01394 0.00561,-0.05875 6.051e-4,-0.086954 -0.00264,-0.014963 -0.00608,-0.01995 -0.015138,-0.022089 -0.00644,-0.00153 -0.013113,-0.00677 -0.014832,-0.01167 -0.00264,-0.00755 -0.00512,-0.00603 -0.016211,0.00998 -0.039358,0.056794 -0.059439,0.174964 -0.036995,0.217702 0.00731,0.01392 0.011906,0.01 0.017711,-0.01518 z M 4.4147701,4.8548394 c 0.011292,-0.029671 0.012696,-0.073365 0.00467,-0.1453391 -0.00427,-0.038266 -0.00385,-0.051357 0.00245,-0.0759 0.00418,-0.016313 0.0076,-0.03502 0.0076,-0.041573 v -0.011912 l -0.018574,0.00947 c -0.010215,0.00521 -0.021048,0.014909 -0.024073,0.021548 -0.00579,0.012708 -0.00974,0.079581 -0.00498,0.084341 0.00153,0.00153 -0.011206,0.022532 -0.028293,0.046675 l -0.031069,0.043897 0.00782,0.016402 c 0.0043,0.00902 0.011702,0.017415 0.016447,0.018657 0.016218,0.00424 0.026111,0.032142 0.025968,0.073232 l -1.293e-4,0.038099 0.01617,-0.025888 c 0.00889,-0.01424 0.020593,-0.03751 0.026,-0.051712 z m -0.158175,-0.989996 c 0.00944,-0.0812 0.015883,-0.1059735 0.050848,-0.1953499 0.033807,-0.086421 0.040489,-0.1092089 0.052988,-0.1806988 0.00516,-0.029547 0.015151,-0.066696 0.022191,-0.082554 0.00704,-0.015858 0.017201,-0.046513 0.02258,-0.068123 0.00538,-0.021609 0.013027,-0.043797 0.016995,-0.049307 0.00397,-0.00551 0.01039,-0.014412 0.014272,-0.019784 0.00636,-0.0088 0.00497,-0.015329 -0.01403,-0.06593 -0.011597,-0.030891 -0.025898,-0.081437 -0.031782,-0.1123263 -0.02735,-0.1435791 -0.064303,-0.3004966 -0.071881,-0.3052342 -0.0043,-0.00267 -0.013922,-0.00986 -0.021389,-0.015953 -0.027216,-0.022188 -0.05022,-0.1268915 -0.03955,-0.1800192 0.00768,-0.038268 0.00725,-0.060426 -0.00118,-0.060426 -0.00373,0 -0.011623,-0.00392 -0.017533,-0.0087 -0.00914,-0.0074 -0.011362,-0.015969 -0.014864,-0.057384 -0.010804,-0.1277879 -0.015138,-0.1561909 -0.029047,-0.1903096 -0.00766,-0.018803 -0.016689,-0.048301 -0.020052,-0.065553 -0.0091,-0.046697 -0.013495,-0.025968 -0.01674,0.079011 -0.00332,0.1075517 -0.018934,0.2495301 -0.031213,0.2838542 -0.00492,0.013759 -0.014625,0.040399 -0.021564,0.059201 -0.00694,0.018803 -0.017565,0.051605 -0.023612,0.072895 -0.00835,0.029407 -0.017141,0.046823 -0.03658,0.072479 -0.029286,0.038654 -0.031808,0.047465 -0.042971,0.1500932 -0.00424,0.038948 -0.00979,0.086198 -0.012349,0.1050004 -0.00567,0.041721 -0.029203,0.1246673 -0.043067,0.1517781 -0.010088,0.01973 -0.010097,0.020051 -7.96e-4,0.034186 0.013705,0.020828 0.042556,0.094983 0.055742,0.1432805 0.053058,0.1943447 0.068599,0.2409691 0.119788,0.3593633 0.013934,0.032233 0.03187,0.076187 0.039853,0.097675 0.00798,0.021488 0.024064,0.063244 0.035736,0.092791 0.011674,0.029547 0.022876,0.062512 0.024898,0.073256 l 0.00368,0.019536 0.011626,-0.036628 c 0.00639,-0.020144 0.014947,-0.065198 0.019004,-0.1001168 z M 5.9300126,3.6277945 c 0.013817,-0.014313 0.018313,-0.023026 0.018313,-0.035495 0,-0.019099 -0.017221,-0.039454 -0.024041,-0.028417 -0.00217,0.00348 -0.00586,0.00589 -0.00825,0.00536 -0.0081,-0.00182 -0.031524,0.032549 -0.034443,0.050531 -0.00602,0.03706 0.016746,0.040832 0.048419,0.00802 z M 6.2051437,3.390002 c 0.00922,-0.00922 0.023433,-0.039861 0.028413,-0.061266 l 0.00315,-0.013546 -0.0171,0.00715 c -0.023975,0.010018 -0.035457,0.022054 -0.04392,0.046042 -0.00709,0.020106 -0.00699,0.020851 0.00354,0.025086 0.015275,0.00615 0.016472,0.00599 0.025917,-0.00346 z M 2.0004164,3.2545763 c 0.00419,-0.010909 -0.0064,-0.037846 -0.028041,-0.071324 -0.012721,-0.019685 -0.021258,-0.028643 -0.02435,-0.025551 -0.00668,0.00668 0.00331,0.049378 0.015482,0.066149 0.011635,0.016036 0.00629,0.017307 -0.013088,0.00312 -0.00775,-0.00568 -0.00378,-1.843e-4 0.00882,0.012209 0.023519,0.023131 0.036366,0.027939 0.041174,0.015409 z M 3.0814873,2.9131357 c -9.81e-5,-0.018306 -0.019052,-0.053662 -0.029888,-0.05575 -0.01005,-0.00194 -0.020157,0.022312 -0.018217,0.043706 0.00115,0.012482 0.00546,0.018832 0.018478,0.027086 0.020319,0.012884 0.029748,0.0081 0.029627,-0.015039 z M 2.9045119,2.5772639 c 0.00808,-0.00808 -0.0084,-0.038071 -0.037522,-0.068289 -0.019281,-0.020004 -0.026235,-0.024245 -0.037621,-0.022946 -0.012501,0.00143 -0.013883,0.00334 -0.013167,0.018182 0.00201,0.041814 0.066337,0.095024 0.088311,0.07305 z M 4.6565757,2.4412315 c -0.00417,-0.00806 -0.00867,-0.014651 -0.010018,-0.014651 -0.00134,0 9.553e-4,0.00659 0.00514,0.014651 0.00417,0.00806 0.00867,0.014651 0.010018,0.014651 0.00134,0 -9.553e-4,-0.00659 -0.00514,-0.014651 z M 2.7544104,2.1909394 c 0.011648,-0.019106 0.012374,-0.036761 0.0021,-0.051414 -0.010534,-0.015043 -0.014861,-0.013759 -0.028964,0.00858 -0.014587,0.023112 -0.014772,0.02435 -0.00373,0.025083 0.00814,5.413e-4 0.00814,6.687e-4 0,0.0028 -0.010725,0.0028 -0.010884,0.010375 -4.776e-4,0.021889 0.011696,0.012925 0.020071,0.011053 0.031041,-0.00694 z M 2.6382092,2.0206915 c -0.00213,-0.018176 -0.02415,-0.047779 -0.038113,-0.051284 -0.00831,-0.00207 -0.015154,-6.368e-4 -0.020055,0.00428 -0.00666,0.00666 -0.00624,0.00908 0.00408,0.023182 0.013024,0.017797 0.043068,0.039963 0.050529,0.037277 0.00271,-9.871e-4 0.00432,-0.00703 0.00356,-0.01345 z M 7.042821,1.2578035 c 0.019618,-0.024659 0.076948,-0.086165 0.1273997,-0.1366801 0.081663,-0.081765 0.093674,-0.095884 0.1094234,-0.12862793 0.018988,-0.039481 0.017905,-0.048656 -0.00507,-0.042889 -0.021669,0.00544 -0.1810464,0.16733493 -0.2144633,0.21785373 -0.024697,0.037339 -0.054291,0.097309 -0.064013,0.1297233 -0.00613,0.020434 0.00986,0.00696 0.046726,-0.03938 z M 7.3917901,0.87474927 c 0.038397,-0.025936 0.064963,-0.051693 0.077974,-0.075599 0.015944,-0.029295 0.012285,-0.035141 -0.019045,-0.030442 -0.042321,0.00635 -0.091637,0.050429 -0.098733,0.088257 -0.00635,0.033827 0.00714,0.039851 0.039805,0.017784 z m 0.2023488,-0.1243524 c 0.01475,-0.034284 0.00589,-0.061469 -0.013664,-0.041918 -0.00456,0.00456 -0.00589,0.00374 -0.00601,-0.00366 -1.293e-4,-0.00775 -9.235e-4,-0.00816 -0.00432,-0.0022 -0.0068,0.011944 -0.01674,0.076507 -0.013199,0.085736 0.00299,0.00779 0.00427,0.00758 0.014957,-0.00245 0.00643,-0.00604 0.016434,-0.022013 0.022233,-0.035496 z M 7.3663572,0.68138627 c 0.034081,-0.019628 0.080766,-0.062777 0.071326,-0.065924 -0.00846,-0.00283 -0.033052,0.00927 -0.036354,0.017873 -0.0022,0.00575 -0.00406,0.00633 -0.00668,0.0021 -0.00242,-0.0039 -0.016612,0.00725 -0.04247,0.033345 -0.041229,0.041608 -0.039247,0.04337 0.014176,0.012603 z"
       id="path833" />
  </g>
</svg>
